<?xml version="1.0" encoding="UTF-8"?>
<svg width="666.67" height="666.67" version="1.1" viewBox="0 0 666.67 666.67" xml:space="preserve" xmlns="http://www.w3.org/2000/svg" xmlns:cc="http://creativecommons.org/ns#" xmlns:dc="http://purl.org/dc/elements/1.1/" xmlns:rdf="http://www.w3.org/1999/02/22-rdf-syntax-ns#"><metadata><rdf:RDF><cc:Work rdf:about=""><dc:format>image/svg+xml</dc:format><dc:type rdf:resource="http://purl.org/dc/dcmitype/StillImage"/><dc:title/></cc:Work></rdf:RDF></metadata><g transform="matrix(1.3333 0 0 -1.3333 0 666.67)"><g transform="scale(.1)"><path d="m0 0h5e3v5e3h-5e3z" fill="#faffff"/><path d="m3927.6 3039.4c-203.4 112.2-417.6 9.4-417.6 9.4s7.9 244.9-395.8 335.7c-20.4-6.2-39.8-14.7-56.3-29.2-23.7-20.7-35.9-35.5-43.8-66.4-10.5-41.1-22.38-86.45-17.38-138.95 2.86-30.04 9.74-63.8 21.03-92.92 17.16-44.28 17.36-94.39-34.35-115.88-11.59-4.84-28.53 2.6-45.07 10.05-13.88 6.24-27.49 12.48-37.43 11.48-48.6-5-117.45-7.88-156.25 29.72-16.8 16.4-22.45 50.6-28.95 72.2-51.05-8.45-24.1-85.81-44.8-98.21-8.72-5.3-32.73-4.5-52.12-3.71-9.51 0.39-17.9 0.78-22.84 0.45-26.5-1.8-55.04 5.52-68.24 26.67-27.6-29.1-78.86-16.92-110.56-10.72-29.4 5.7-69.25 14.88-97.75 24.88-25.29 8.8-34.69 29.94-49.19 51.74-28.6 43.4-38.5 95.2-47.9 145.4-0.8 4.4-1.7 8.9-2.5 13.3-97.1-91-130.2-178.2-130.2-178.2s-182 112-418.7 3.2c-208.6-95.8-195.8-366.7-195.8-366.7s-164.2 82.2-424.2-101.1c-266.3-187.8-162.9-603.9-162.9-603.9 122.3-11.5 267.7-78.3 290.8-173.9 32.1-132.2-27.5-242.9-45.1-263.9 37.8 8.9 123.1 1.7 184.5-30.1 0 0-58.2 240.6 105.8 359.6-19.8 50.3-16.3 101.6-3.6 152.5 6.8 27.3 16.3 54.6 26.2 81.4 0.5 1.4 1.1 2.9 1.6 4.3 3.4 9.2 6.9 18.3 10.4 27.5 1.6 4.1 3.1 8.1 4.7 12.2 51.8 132.8 114.2 261.2 187.2 383.6 73.1 122.8 156.5 240.2 259.3 340 107.5 104.5 231.3 180.1 385.3 148.5 67.2-13.9 129.5-37 198.4-43.6 83.2-7.9 167.7 1.5 250.9 3.9 151.4 4.2 290.7-38 415.8-123.2 69.3-47.2 126.1-107.3 170.3-175.4 63.9-33.1 114.8-74.3 136.9-122.4 0 0 371.9 250 635.1 88.9 31.4 8.2 40.8 20.8 51 36.6 5.9 129.2-37.5 261.3-225.9 365.2" fill="#ffe0d9"/><path d="m4558.6 2220c-34.9-17.7-69.3-25.3-94.7-44.5-21.5 20.5-114.9-31.1-114.9-31.1l-22.3 107.5c-19.9 96.6-48.4 173.7-83 234.5 107-0.3 194.2-3 222.8-10 92.3-22.7 181.1-211.4 92.1-256.4" fill="#ffe0d9"/><path d="m4050.8 1175-94.8-78.2c-83.2-62.2-298.5-138.5-393.6-80.4 0.2 16 1.5 30.9 4 45.1l0.1 0.3c7.6 43.9 26.1 80 54.6 113.2h429.7" fill="#123079"/><path d="m4441.8 1925.2c-329 93.7-420.9-323.6-327.6-484.6-290-7.7-267.1-265.7-267.1-265.7h-225.9c9.3 10.9 19.7 21.5 31.2 31.9 2.2 2.1 4.4 4 6.6 6 29 25.4 54.3 51.1 86 72.9 21.4 14.7 52.9 31.8 48.2 62.8-12.3 81.6-214.4 117.4-272.5 131.6-134.5 32.9-272.2 53.2-410.6 65.9 43.9 96.9 123.8 185.9 186.4 270.9 80 108.5 135.8 225.6 148.8 361.2 16.5 170.9-21.6 349.8-114.8 493 63.9-33.1 114.8-74.3 136.9-122.4 0 0 371.9 250 635.1 88.9-28.7-7.5-75.8-11.3-158.9-10.5-227.3 2.3-276.1-150.8-276.1-150.8s337.2 10.8 576.2 10c34.6-60.8 63.1-137.9 83-234.5l22.3-107.5s93.4 51.6 114.9 31.1c-39.3-29.5-57.1-86.4-22.1-250.2" fill="#ff767d"/><path d="m1757.6 1311.4c48.73-18.28 62.08-87.08 68.9-131.9-38.19 12.74-76.28 25.8-114.95 37.03-18.7 5.43-37.51 9.38-56.54 13.42-16.75 3.55-31.13 8.8-42.56 22.1-10.58 12.3-17.42 26.85-24.71 41.19-8.72 17.15-18.39 33.77-30.77 48.58-30.64 36.63-80.29 69.4-129.8 66.64-13.56-0.76-28.34-4.21-39.57-12.26 1.92 22.58-4.4 44.64-18 62.76-6.44 8.57-14.17 16.1-22.59 22.7-4.42 3.46-9.02 6.67-13.76 9.66-2.17 1.37-14.58 6.61-15.06 8.59-2.72 11.35-4.43 23-5.92 34.56-8.12 63.08-5.33 129.2 14.83 189.85 17.91 53.88 50.74 101.69 96.9 135.18 10.31-25.78 25.91-49.85 41.51-72.72 15.69-22.99 33.06-44.93 52.76-64.63 9.31-9.31 19.14-18.11 29.55-26.17 10.73-8.31 22.86-14.8 33.2-23.57 18.1-15.36 29.59-36.75 35.81-59.42 3.04-11.04 4.9-22.39 5.92-33.8 0.71-7.96 4.9-33.23-1.38-37.98-16.87-12.73-6.75-35.51 1.3-50.24 8.21-15.04 21.58-35.11 39.7-38.84 10.29-2.12 19.93-6.72 30.38-9.17 13.02-3.06 26.44-4.26 39.79-4.12 101.92 1.07 186.68 76.17 236.93 159.17 50.37 83.22 71.18 176.5 88.62 270.98 3.05 16.52 6.01 33.05 8.91 49.6 2.35 13.46 3.27 28.48 7.8 41.41 2.86-17.2 2.06-35.45 3.67-52.83 1.7-18.38 3.84-36.67 6.73-54.9 6.07-38.31 16.58-75.33 37.55-108.19 23.27-36.48 51.27-69.69 74.31-106.32 23.65-37.58 39.44-78.73 48.04-122.26-30.08-3.74-60.38-12.09-89.9-18.88-28.08-6.46-56.04-13.43-83.85-20.96-48.09-13.02-95.78-27.67-142.61-44.69-35.69-12.96-71.04-27.21-105.01-44.2-21.72-10.87-44-22.71-62.44-38.74-12.04-10.47-25.34-28.67-3.69-36.63 13.6-5.1-66.1 24.3 0 0" fill="#ff767d"/><path d="m1831.2 979.35-0.1-1.602c-24.4 2.5-44.8 7.898-58.8 16.5-64.6 39.8-176 59.1-338.6 50.1-162.7-9-319.6 131.7-319.6 131.7h712.8c12.6-86.3 5.4-183.1 4.3-196.7" fill="#123079"/><path d="m3745 1285.8c-5.4-3.4-10.9-6.6-16.5-9.6-91.7-50.3-206.8-61.1-308.6-67.7-142.6-9.3-286.3-3-428.6 9.2-151.2 12.9-302 33-450.5 64.6-257.8 54.9-521.9 40.7-783.2 29.1-66.1 24.3 140.6 137.4 485.2 203.7l2.3 0.4c4.2-21.1 6.8-42.5 8.2-63.8 0.8-13-7.8-87.8 8.2-92.6 3.3-1 6.3-2.1 9.2-3.3 13.3-5.3 24.1-12 39.1-15 16.8-5 43.5-6.9 70.9-2.3 41.3 6.9 117.6 8.1 159.1 7.1 27.3-0.6 48 10.5 63.1 27.9 49.1 37 31.9 169.3 52.8 177.1 1.2 0.1 2.5 0.2 3.8 0.2 15-4 22.6-50.9 10-109.6-4.3-20.2-17.5-59.8-6.7-79.5 25.6-47 134.3-28 175.5-22.1 73.5 10.6 135.4 25.7 189 82.4 32.6 34.4 59.5 69.2 77.9 113 1.6 3.7 3.2 7.3 4.8 11l0.1 0.1c138.4-12.7 276.1-33 410.6-65.9 58.1-14.2 260.2-50 272.5-131.6 4.7-31-26.8-48.1-48.2-62.8" fill="#d0ebf0"/><path d="m3743 1284.5c-30.7-24.1-65.33-54.93-90.6-77.66-11.5-10.4-21.9-21-31.2-31.9-28.5-33.2-47-69.3-54.6-113.2l-0.1-0.3c-5.3-21.8-5.1-37.3-4.5-44.8-95.2 57.7-308 58.2-429.4-0.8-121.7-59.1-385-84.202-531.5-1.3-146.4 83-383.5 63.7-471.7 17.2-69.1-36.5-209.6-63.301-298.2-54l0.1 1.602 0.1 1.699c0.1 1.597 0.3 3.699 0.5 6.301 0.1 1.398 0.2 2.898 0.3 4.597l0.1 2.102c0.1 2 0.3 4.097 0.4 6.399l0.1 1.8c0.1 1.3 0.1 2.5 0.2 3.8s0.1 2.7 0.2 4.1c0.1 1.7 0.1 3.5 0.2 5.4 0.1 1.1 0.1 2.2 0.1 3.3 0.3 4.6 0.4 9.6 0.5 14.8 0.4 16.1 0.5 34.8 0 54.7v0.1c-0.2 9.3-0.6 18.9-1.2 28.6-0.3 4.9-0.6 9.8-1 14.8-0.7 9.8-1.7 19.7-2.8 29.5-0.6 4.9-1.3 9.8-2 14.7h-1.8c-0.2 1.4-0.4 2.8-0.6 4.1l1.9-0.7c-6.1 40.1-16.7 77.6-34.3 103l-5.52 7.34c-15.63 17.5-29.08 21.56-29.08 21.56 261.3 11.6 525.4 25.8 783.2-29.1 148.5-31.6 299.3-51.7 450.5-64.6 142.3-12.2 286-18.5 428.6-9.2 101.8 6.6 231.4 25.76 323.1 76.06" fill="#00a6cc"/><path d="m2270.6 1355.8c-2.9 1.2-5.9 2.3-9.2 3.3-16 4.8-7.4 79.6-8.2 92.6-0.5 7.52-1.14 15.05-1.95 22.57 8.07 1.55 12.88 2.4 12.88 2.4 7.89 0.35 20.66 0.98 34.95 1.68 1.91-16.61 0.96-33.23-2.88-49.85-3.4-14.3-24.3-29.3-24.6-49.3-0.1-10-0.4-17.8-1-23.4" fill="#93daea"/><path d="m2782.4 1292.9c-28.12 0-55.78 4.34-76.6 8.69-19.15 3.99-32.52 7.98-35.16 8.6-2.93 1.36-11.31 4.8-23.51 8.23-15.71 4.43-37.77 8.85-62.74 8.85-14.34 0-29.64-1.46-45.25-5.22-37.11-8.92-77.63-12.98-119.05-12.98-128.38 0-265.38 38.95-335.95 92.54-39.67 30.12 119.79 63.51 167.12 72.6 0.81-7.52 1.45-15.05 1.95-22.57 0.8-13-7.8-87.8 8.2-92.6 3.3-1 6.3-2.1 9.2-3.3 13.3-5.3 24.1-12 39.1-15 10.17-3.03 23.97-4.92 39.36-4.92 10.02 0 20.73 0.81 31.54 2.62 33.18 5.54 88.96 7.41 131.13 7.41 10.31 0 19.81-0.11 27.97-0.31 0.7-0.02 1.4-0.02 2.1-0.02 26.26 0 46.29 10.97 61 27.92 31.84 23.99 35.8 88.06 40.34 132.26 10.1 0.69 20.82 1.35 32.33 1.97 0.19-3.31 0.28-6.76 0.28-10.35 0.01-16.37-1.92-35.54-6.35-56.18-3.11-14.6-10.87-39.33-10.85-59.36 0-7.68 1.15-14.68 4.15-20.14 13.18-24.2 48.41-30.9 85.1-30.9 34.56-0.01 70.41 5.94 90.4 8.8 73.5 10.6 135.4 25.7 189 82.4 30.07 31.74 55.3 63.81 73.47 102.98 39.17-2.55 78.46-5.8 111.79-9.42 90.41-9.8 178.22-28.15 263.04-60.47 55.77-21.26-42.22-52.82-60.1-59.29-31.14-11.25-62.72-21.32-93.6-33.3-19.11-7.41-45.7-15.25-59.34-31.71-15.16-18.29-77.05-22.14-149.61-22.14-26.39 0-54.18 0.51-81.66 1.02s-54.64 1.02-79.74 1.02c-47.72 0-88.03-1.84-108.99-9.02-18.61-6.38-39.46-8.71-60.07-8.71m-110.62 16.68c-0.06 0-0.38 0.11-0.97 0.36-0.54 0.23-0.74 0.33-0.61 0.33 0.06 0 0.21-0.03 0.44-0.08 0.84-0.39 1.24-0.61 1.14-0.61" fill="#7ac9dc"/><path d="m3766.4 3480.8s-57.4 121.7-121.1 161.8c-44.9 28.3-95.8 49.2-147 63-11.25 3.02-22.5 5.5-33.75 7.65l0.03 0.1s-50.45 309.88-397 324.88c-124.95 5.41-310.12-90-348.69-170.54-186.9 82-678.66 231.49-1111.4-121.99-200-160.8-265.7-354.2-265.7-354.2s-225.7 42.6-365-135.4c-139.3-177.9 3.8-158.1 64.002-141.2 60.2 16.9 223.3 60 247.4-87.4 7.9-48.8 195.9 11.9 173.6-138.7-77.7-1.2-696.2 0-696.2 0s-86.402-136.7 49.399-242c-220.9 81.4-492.7-140.4-386.8-407.8 0 0 222.6 81.4 295.9-44.7 73.399-126.1 59.7-192.2 41.5-239.1 31.899 13.3 75.399 17 122.3 12.5 0 0-103.4 416.1 162.9 603.9 260 183.3 424.2 101.1 424.2 101.1s-12.8 270.9 195.8 366.7c236.7 108.8 418.7-3.2 418.7-3.2s33.1 87.2 130.2 178.2c-10.3 53.3-21.3 107.1-18.2 161.6-7.8-6.1-17.5-9.2-27.1-2.7-11.2 7.6-17.5 22.8-16.9 36.2 0.8 19.9 12.5 35.3 28.1 46.5 15.2 10.9 32.8 11.1 47.9 20.4 9.8 6.1 18.1 20.9 26 29.6 20.9 22.7 43.5 44 67.9 62.9 49.3 38.2 106.9 66.6 169.2 74.4 56.7 7.1 112.3 3.7 169.2 4.4 48.9 0.6 157.4 3.9 159.6 75.6-3.8 10.9-18.2 17.3-24.5 26.6-8.18 12.09-8.11 24.5-1.82 36.8 4.22 6.06 8.78 11.27 14.24 15.65 5.21 4.17 11.2 7.69 18.38 10.77 11.83 5.08 37.82 16.2 47.43 1.78 13.33-20 15-49.71 33.33-39.86 18.34 9.86 151.67 48.19 236.67 39.86l36.64-7.65s17.03 37.65 47.53 23.27c49.37-23.27 37.5-67.29 22.5-73.95-15-6.67 6.8-53.37 6.8-53.37 21-82.9 50.1-166.7 2.7-245.6-22.1-36.8-68.3-51.9-107.5-61.6-14.6-3.6-29.4-7-43.7-11.5 403.7-90.8 395.8-335.7 395.8-335.7s214.2 102.8 417.6-9.4c188.4-103.9 231.8-236 225.9-365.2 6 9.2 12.3 19.6 23.6 30.8 47.8 47.7 170.5 71.9 213.2 22.6 80.6 865.9-623.8 753.2-623.8 753.2" fill="#d0ebf0"/><path d="m1463.4 2137.2c-1.6-4-3.2-8.1-4.8-12.1-3.5-9.2-7-18.3-10.4-27.5-0.5-1.4-1.1-2.9-1.6-4.3-9.9-27.4-18.9-54.9-25.1-82.4l-1.1 1-2 1.3c-39.4 15.9-60 58.2-48.5 99 11.6 40.9 65.7 57.5 93.4 25.1l0.1-0.1" fill="#a5dfeb"/><path d="m1673.2 1452.6c-1.8-0.6-3.6-1-5.5-1-25.9-1.3-54.7 49.2-55.6 69.3-0.5 9.8 4.3 17.3 11.3 21.6 9.4 5.8 22.7 5.9 32.4-1.9 9.5-7.6 26.1-39.4 28.3-62.9 1.1-12-1.6-21.9-10.9-25.1" fill="#123079"/><path d="m2759.8 2202.2c-2.4-5.8-7.1-10.2-11.3-14.8-24.8-27.4-33.7-65.4-40.9-101.7-23.4-118.5-37.2-238.9-41.4-359.7-1-28.9-1.4-57.7-1.3-86.6 0.1-15.6 1.6-31.1 0.3-46.7-1-11.5-7.7-27.3-17.6-9.7-4.2 7.4-0.4 65.4-1.7 84.1-2.8 39.6-9.4 79.8-21.6 116.7-8 24.2-18 44.8-3.3 67.3 12.7 19.2 13.7 38.4 16.5 60.2 6.6 52.5 13.2 105.1 27 156.1 13.8 51.1 35 100.8 68.3 141.9 5.8 7.2 15.6 14.8 23.3 9.7 5.3-3.4 6-11.1 3.7-16.8m-1085.9-498.3c-13.91-0.2-21.05 10.58-28.53 21.35-7.52 10.85-15.37 21.7-30.77 21.35-7.9-0.2-13.7 11.9-8.3 17.9 7.5 8.4 39.1 1 48.6-1.2 17-4.1 41.6-15.3 41.5-35.6 0-12.6-9.4-23.5-22.5-23.8m1656.5 967.3c-44.2 68.1-101 128.2-170.3 175.4-125.1 85.2-264.4 127.4-415.8 123.2-83.2-2.4-167.7-11.8-250.9-3.9-68.9 6.6-131.2 29.7-198.4 43.6-154 31.6-277.8-44-385.3-148.5-102.8-99.8-186.2-217.2-259.3-340-73-122.4-135.4-250.8-187.2-383.6l0.1-0.1c-1.6-4-3.2-8.1-4.8-12.1-3.5-9.2-7-18.3-10.4-27.5-0.5-1.4-1.1-2.9-1.6-4.3-9.9-27.4-18.9-54.9-25.1-82.4l-1.1 1c-12.7-50.9-16.2-102.2 3.6-152.5 3.4-8.5 7.4-17 12.2-25.4 32.5-57.5 76.3-117.6 132.9-153 41.9-26.1 54.2-75.5 54.6-121.9 0.1-5.4-0.1-11-0.3-16.6 9.4 5.8 22.7 5.9 32.4-1.9 9.5-7.6 26.1-39.4 28.3-62.9 1.1-12-1.6-21.9-10.9-25.1-1.8-0.6-3.6-1-5.5-1 44.4-21.5 107.6-13.7 150.9 6.1 113.5 51.9 175.9 163.5 210.7 278.7 0.8 2.7 1.5 5.4 2.3 8.2 14.3 51.9 31.8 152.8 40.5 203.3l0.1 0.5c0.2 1.3 0.3 2.5 0.5 3.8l0.4 1.6c0.5 2.1 1 4.1 1.7 6.1l1.2 2.7c5 11 12.6 15.4 18.7 3.4 5-9.7 3.6-19.5 3.7-29.8 0.2-10.4 2.3-21 4.8-30.7 14-54.3 41.6-103.3 71.4-150.3 29.6-46.9 61.6-92.7 85.2-143.1 14.1-30.2 23-59.5 30.5-90.7 2.2-9.2 4.3-18.5 6.4-28.2 4.7-21.6 4.6-43.2-0.4-64.8-3.4-14.3-24.3-29.3-24.6-49.3-0.1-10-0.4-17.8-1-23.4 13.3-5.3 24.1-12 39.1-15 16.8-5 43.5-6.9 70.9-2.3 41.3 6.9 117.6 8.1 159.1 7.1 27.3-0.6 48 10.5 63.1 27.9 49.1 37 31.9 169.3 52.8 177.1 1.1 0.5 2.4 0.6 3.8 0.2 15-4 22.6-50.9 10-109.6-4.3-20.2-17.5-59.8-6.7-79.5 25.6-47 134.3-28 175.5-22.1 73.5 10.6 135.4 25.7 189 82.4 32.6 34.4 59.5 69.2 77.9 113 1.6 3.7 3.2 7.3 4.8 11l0.1 0.1c43.9 96.9 123.8 185.9 186.4 270.9 80 108.5 135.8 225.6 148.8 361.2 16.5 170.9-21.6 349.8-114.8 493" fill="#fff"/><path d="m1682.6 2174c-12.29 31.88-35.09 51.7-70.64 49.36-59.65-3.96-80.14-74.19-60.92-121.89 2.11-5.32 17.47-0.72 37.49 3.5-5.01 4.61-9.58 11.39-13.28 21.02-10.22 26.63 14.75 59.82 43.23 57.41 52.91-4.55 42.23-51.04 17.07-73.83 13.62-0.98 26.73-4.76 37.4-13.81 13.52-11.46 18.76-1 19.23 14.9 0.58 22.67-7.48 57.76-9.58 63.34" fill="#a5dfeb"/><path d="m1696.4 1727.6c0-12.6-9.4-23.5-22.5-23.8-27.9-0.4-28.6 43.4-59.3 42.7-7.9-0.2-13.7 11.9-8.3 17.9 7.5 8.4 39.1 1 48.6-1.2 17-4.1 41.6-15.3 41.5-35.6" fill="#e6e7e8"/><g fill="#a5dfeb"><path d="m2759.8 2202.2c-2.4-5.8-7.1-10.2-11.3-14.8-24.8-27.4-33.7-65.4-40.9-101.7-23.4-118.5-37.2-238.9-41.4-359.7-1-28.9-1.4-57.7-1.3-86.6 0.1-15.6 1.6-31.1 0.3-46.7-1-11.5-7.7-27.3-17.6-9.7-4.2 7.4-0.4 65.4-1.7 84.1-2.8 39.6-9.4 79.8-21.6 116.7-8 24.2-18 44.8-3.3 67.3 12.7 19.2 13.7 38.4 16.5 60.2 6.6 52.5 13.2 105.1 27 156.1 13.8 51.1 35 100.8 68.3 141.9 5.8 7.2 15.6 14.8 23.3 9.7 5.3-3.4 6-11.1 3.7-16.8"/><path d="m2296.2 1428.4c-3.4-14.3-24.3-29.3-24.6-49.3-0.1-10-0.4-17.8-1-23.4-2.9 1.2-5.9 2.3-9.2 3.3-16 4.8-7.4 79.6-8.2 92.6-1.4 21.3-4 42.7-8.2 63.8-6.3 31.9-16.2 63-30.7 91.8-26.9 53.4-68.6 97.5-99 148.7-1.1 1.9-2.2 3.8-3.3 5.7l-0.4 0.8-0.1 0.1c-0.5 1.3-1.2 2.6-1.8 3.9l-0.7 1.5c-0.9 1.9-1.8 3.8-2.6 5.7-1.9 4.2-3.6 8.6-5.2 13.1-0.8 2.2-1.6 4.5-2.3 6.8-0.8 2.3-1.5 4.6-2.2 6.9-1.2 4.2-2.4 8.4-3.5 12.7l-0.4 1.7c-0.6 2.4-1.2 4.9-1.8 7.3-1 4.1-1.9 8.2-2.7 12.3-0.6 3.4-1.3 6.7-1.9 10-0.7 3.9-1.3 7.8-1.9 11.6-0.7 4.7-1.5 9.5-2.1 14.2-0.4 3.1-0.8 6.2-1.1 9.2-0.3 1.5-0.4 3.1-0.6 4.6-0.4 3.2-0.7 6.3-1 9.3-0.3 2.7-0.6 5.4-0.8 8.1-0.3 2.9-0.5 5.7-0.8 8.4-0.4 5.6-0.8 10.9-1.2 15.8-0.2 4-0.5 7.7-0.7 11.1-0.1 2.6-0.3 5-0.4 7.2-0.3 4.4-0.5 8.2-0.7 11.1-0.1 2.1-0.2 3.7-0.4 4.9l1.2 2.7c5 11 12.6 15.4 18.7 3.4 5-9.7 3.6-19.5 3.7-29.8 0.2-10.4 2.3-21 4.8-30.7 14-54.3 41.6-103.3 71.4-150.3 29.6-46.9 61.6-92.7 85.2-143.1 14.1-30.2 23-59.5 30.5-90.7 2.2-9.2 4.3-18.5 6.4-28.2 4.7-21.6 4.6-43.2-0.4-64.8"/><path d="m1696.4 1727.6c0-12.6-9.4-23.5-22.5-23.8-27.9-0.4-28.6 43.4-59.3 42.7-7.9-0.2-13.7 11.9-8.3 17.9 7.5 8.4 39.1 1 48.6-1.2 17-4.1 41.6-15.3 41.5-35.6"/></g><path d="m2860.2 3794.9c-13.97 10.33-29.73 2.33-38.36-10.8-7.78-11.86-4.72-26.95 4.3-37.11 16.39-18.49 45.38-2.5 46.26 20.74 0.41 10.52-3.83 20.99-12.2 27.17" fill="#ffe0d9"/><path d="m3248 3785.6c0.44 7.08-1.83 14.44-7.12 19.51-10.24 9.79-34.85 11.83-34.07-7.68 0.5-12.27 5.06-33 20.51-33.18 12.68-0.15 19.99 10.26 20.68 21.35" fill="#ffe0d9"/><path d="m3203.4 3625.1c-1.28 2.12-2.8 3.97-4.47 5.41-6.77 5.8-23.44 9.36-23 21.53-0.07-2.03-3.38-6.21-4.22-8.25-4.42-10.78-10.16-23.72-4.48-35.16 5.47-10.99 17.66-18.72 28.72-13.34 10.87 5.28 13.91 19.16 7.45 29.81" fill="#a5dfeb"/><path d="m2985 3597.9c0.82 2.33 1.93 4.46 3.27 6.21 5.43 7.08 21.01 14 18.06 25.81 0.49-1.97 4.59-5.37 5.83-7.2 6.55-9.63 14.84-21.12 11.64-33.47-3.08-11.89-13.42-21.97-25.35-18.99-11.73 2.93-17.57 15.88-13.45 27.64" fill="#a5dfeb"/><path d="m3106.8 3555.9c-16.1 3.34-38.37-3.15-39.12-22.9-0.61-16.16 23.74-17.71 33.72-25.82 1.61-1.31 2.95-2.66 4.31-4 2.76 2.99 5.68 5.91 8.74 8.78 6.39 5.98 16.23 12.39 16.13 22.2-0.12 11.94-13.62 19.63-23.78 21.74" fill="#123079"/><path d="m2968.5 2939.7c-28.3 8.74-57.14 15.61-86.52 20.58h0.03c29.33-4.97 58.12-11.82 86.37-20.54 0.04-0.01 0.08-0.03 0.12-0.04m-6.25 2c-0.93 0.27-1.88 0.56-2.83 0.87 0.96-0.29 1.9-0.58 2.83-0.87" fill="#93daea"/><path d="m2968.4 2939.8c-28.25 8.72-57.04 15.57-86.37 20.54 1.17-0.15 2.34-0.32 3.5-0.52 26.83-4.56 52.96-10.82 73.91-17.19 0.95-0.31 1.9-0.6 2.83-0.87 2.11-0.65 4.15-1.31 6.13-1.96" fill="#96c0c7"/><path d="m2565 2962.8h0.06-0.06m-0.03 0c-23.29 0-46.54 0.8-69.69 2.93 23.14-2.13 46.41-2.93 69.69-2.93m20.77 0.2c-0.3 0-0.6 0.01-0.89 0.02h2.36c-0.49-0.01-0.98-0.01-1.47-0.02" fill="#93daea"/><path d="m2565 2962.8h-0.03c-23.28 0-46.55 0.8-69.69 2.93-0.61 0.06-1.22 0.11-1.83 0.17-2.23 0.21-4.47 0.45-6.69 0.69 20.41-2.06 56.24-3.57 96.26-3.57h1.83c0.29-0.01 0.59-0.02 0.89-0.02-6.89-0.13-13.8-0.2-20.68-0.2h-0.06" fill="#96c0c7"/><path d="m2666.6 2966.2c1.45 0.08 2.88 0.17 4.31 0.25-0.01-0.01-0.03-0.02-0.04-0.03-1.42-0.07-2.85-0.15-4.27-0.22m22.16 1.16c15.32 0.79 30.61 1.53 45.86 2.06-15.25-0.53-30.54-1.27-45.86-2.06m47.54 2.12c0.74 0.02 1.48 0.05 2.22 0.07-0.74-0.02-1.48-0.05-2.22-0.07m2.65 0.08c1.18 0.04 2.36 0.08 3.54 0.11-1.18-0.03-2.36-0.07-3.54-0.11m4.32 0.14c0.37 0.01 0.73 0.02 1.1 0.03 0.64 0.02 1.28 0.03 1.93 0.05-0.65-0.02-1.29-0.03-1.93-0.05-0.37-0.01-0.73-0.02-1.1-0.03m26.93 0.3c-1.76 0.01-3.49 0.02-5.25 0.02 1.76 0 3.49-0.01 5.25-0.02m-5.32 0.02" fill="#93daea"/><path d="m2670.8 2966.4c0.01 0.01 0.03 0.02 0.04 0.03 42.46 2.45 77.73 3.72 91.85 3.72 2.09 0 3.71-0.03 4.83-0.08 0.88-0.03 1.75-0.06 2.61-0.09-1.76 0.01-3.49 0.02-5.25 0.02h-0.07c-6.17 0-12.37-0.08-18.58-0.24-0.65-0.02-1.29-0.03-1.93-0.05-0.37-0.01-0.73-0.02-1.1-0.03l-0.78-0.03c-1.18-0.03-2.36-0.07-3.54-0.11-0.14 0-0.28 0-0.43-0.01-0.74-0.02-1.48-0.05-2.22-0.07l-1.68-0.06c-15.25-0.53-30.54-1.27-45.86-2.06-5.96-0.31-11.92-0.62-17.89-0.94" fill="#96c0c7"/><path d="m2418.3 2978.9c-0.4 0.07-0.78 0.15-1.17 0.22-0.11 0.02-0.21 0.05-0.32 0.07-1.65 0.38-3.3 0.78-4.94 1.18 2.17-0.51 4.31-1 6.43-1.47" fill="#93daea"/><path d="m2477.7 2967.6c-20.73 2.74-40.92 6.83-60.9 11.55 0.11-0.02 0.21-0.05 0.32-0.07 0.39-0.07 0.77-0.15 1.17-0.22 28.78-6.46 52.39-10.15 58.72-11.15 0.23-0.04 0.45-0.07 0.69-0.11" fill="#96c0c7"/><path d="m3002.3 2878.2c-21.11 0-58.63 12.48-105.49 24.95s-103.07 24.94-161.55 24.94c-16.35 0-32.86-0.97-49.41-3.19-33-4.43-69.31-6.33-105.94-6.33-115.06 0-233.32 18.75-262.4 36.85-39.47 24.55-25.61 49.25-4.42 49.25 2.03 0 4.13-0.23 6.25-0.71 0 0 38.99-10.2 77.97-20.1 4.91-1.25 9.77-2.43 14.52-3.53 21.6-5.21 43.41-9.76 65.84-12.73 2.53-0.38 5.59-0.75 9.09-1.11 2.22-0.24 4.46-0.48 6.69-0.69 0.61-0.06 1.22-0.11 1.83-0.17 23.15-2.13 46.4-2.93 69.69-2.93h0.03 0.06c6.88 0 13.79 0.07 20.68 0.2 0.49 0.01 0.98 0.01 1.47 0.02 12.47 0.04 25.3 0.22 38.17 0.57 14.1 1.01 27.97 1.9 41.2 2.68 1.42 0.07 2.85 0.15 4.27 0.22 5.97 0.32 11.93 0.63 17.89 0.94 15.32 0.79 30.61 1.53 45.86 2.06l1.68 0.06c0.74 0.02 1.48 0.05 2.22 0.07 0.15 0.01 0.29 0.01 0.43 0.01 1.18 0.04 2.36 0.08 3.54 0.11l0.78 0.03c0.37 0.01 0.73 0.02 1.1 0.03 0.64 0.02 1.28 0.03 1.93 0.05 6.21 0.16 12.41 0.24 18.58 0.24h0.07c1.76 0 3.49-0.01 5.25-0.02 22.98-1.03 36.84-8.09 55.25-9.65 3.58-0.31 7.13-0.42 10.67-0.42 5.5 0 10.96 0.28 16.38 0.55 5.42 0.28 10.8 0.56 16.15 0.56 4.48 0 8.93-0.2 13.37-0.75 29.38-4.97 58.22-11.84 86.52-20.58 0.25-0.08 0.51-0.17 0.76-0.25 77.07-25.62 81.34-59.53 34.79-61.2-0.58-0.02-1.17-0.03-1.77-0.03" fill="#96daea"/><path d="m2591.6 3083.9c-19.41 22.22-19.91 49.36-14.62 77.18 6.58 34.61 3.85 64.51-9.95 95.66-7.32 9.21-14.79 18.34-22.11 27.57l0.5-1.26c16.56-22.61 26.65-49.21 23.13-75.49 0.83-11.33 0.23-23.11-2.01-35.12-3.47-18.64-9.85-36.35-15.87-54.27-4.14-12.33-7.8-24.11-6.21-36.92 1.39-11.24 5.36-22.17 6.82-33.46 2.99-22.99-0.71-45.31-21.97-58.27 12.49-25.72 38.45-28.77 64.6-30.77 16.26-1.24 32.57-2.65 48.89-1.85 17.25 0.85 38.34 2.19 50.19 16.72 12.44 15.24-0.58 31.72-7.22 47.2 1.25 17.08 8.43 23.84 20.12 36.31 2.47 1.86 6.42 6.34 9.8 7.51-39.8-14.39-94.05-15.11-124.09 19.26" fill="#a5dfeb"/><path d="m3099 3407.8c-24-5.45-49.98-6.17-73.42-13.14-24.65-2.11-49.31-0.79-73.31 7.5-57.32 19.81-74.7 87.41-82.88 139.52l-0.38-0.06c5.96-59.44 15.97-113.88 67.52-150.33 11.59-8.19 24.16-12.48 37.21-14.17-39.5 5.11-44.97-76.86-47.57-100.7-3.93-36.03-6.09-72.25-6.97-108.49-0.44-18.13-0.54-36.28-0.36-54.42 0.1-10.52-0.87-23.19 1.9-34.13 2.56-10.16 9.64-18.08 13.3-27.72 6.59-17.36 9.46-40.81 0.82-57.94-11.58-22.91-35.45-25.99-58.69-29.23-23.86-3.32-48.27-3.58-72.16-0.53l-0.03-0.46c13.76-2.59 27.73-3.86 41.72-4.35 15.64-0.54 33.6-4.59 49.46-3.45 19.74 1.41 41.38 2.86 53.83 19.78 13.07 17.77 19.29 41.76 13.24 63.34-6.25 22.3-23.93 40.66-31.96 62.75-9.59 26.4 0.21 56.82 1.66 84 1.65 31.25 6.57 62.21 9.5 93.35 1.18 12.6 3.27 25.19 7.29 37.22 8.58 25.73 25.73 46.23 51.19 56.31 16.02 6.35 32.92 9.82 49.35 14.82 17.03 5.18 33.21 12.69 50.14 18.22 1.18 0.39 0.86 2.6-0.4 2.31" fill="#a5dfeb"/><g fill="#123079"><path d="m1655.5 1715.9-0.06 1.35c0.21 1.16 1.03 2.14 2.73 2.57l2.05 0.41-0.05 1.92c0.01 2.74 1.18 4.75 3.63 6.09 3.57 1.97 8.07 0.22 9.68-3.15 0.57-1.2 0.59-2.5 0.36-3.77-0.31-1.68-1.07-3.16-2.48-4.22l-2.24-1.08c-1.15-0.19-2.29-0.61-3.5-0.29l-0.75-0.09-1.25-3.02c-1-1.59-2.59-1.32-4.01-0.49-1.09 0.62-3.87 2.52-4.11 3.77zm-3.11 10.84c-0.27 1.7 0.79 3.34 2.32 3.59 1.48 0.24 3.08-1.05 3.33-2.73 0.2-1.38-0.75-3.24-2.49-3.48-1.43-0.2-2.92 0.95-3.16 2.62zm5.88-14.05c3.17-2.57 6.59-4.3 11.1-4.42 5.1-0.12 9.91 2.02 13.74 5.29 6.38 5.45 9.06 13.98 7.63 22.17-0.26 1.48-0.81 2.86-1.4 4.25-1.05 2.44-2.38 4.67-4.15 6.67-2.39 2.68-5.31 4.61-8.63 5.79-4.41 1.57-8.93 1.72-13.46 0.26-3.62-1.16-6.63-3.18-9.21-5.91l-0.47-0.78 0.98 0.13c0.97 0.06 1.93 0 2.84-0.39 1.01-0.44 1.35-1.57 0.69-2.37l-1.25-1.09c-1.79-0.88-3.64-1.45-5.66-0.87l-0.85-0.36c-0.47-1.25-1.01-2.47-1.36-3.75-0.48-1.77-0.61-3.59-0.63-5.43-0.07-5.74 2.91-12.33 7-16.38 1.03-1.01 2.05-1.95 3.09-2.81"/><path d="m3190.8 3628.9 0.47-0.91c0.24-0.88-0.01-1.82-1.04-2.68l-1.28-0.95 0.66-1.31c0.89-1.9 0.74-3.67-0.51-5.4-1.82-2.52-5.51-2.79-7.73-0.98-0.78 0.64-1.22 1.53-1.47 2.48-0.34 1.27-0.3 2.54 0.32 3.73l1.2 1.48c0.74 0.51 1.38 1.17 2.32 1.34l0.5 0.31-0.13 2.5c0.17 1.42 1.36 1.75 2.61 1.65 0.96-0.08 3.5-0.48 4.08-1.26zm5.69-6.48c0.74-1.08 0.55-2.56-0.43-3.24-0.94-0.65-2.47-0.28-3.19 0.8-0.6 0.89-0.55 2.49 0.58 3.22 0.92 0.61 2.33 0.3 3.04-0.78zm-8.66 7.79c-3.03 0.74-5.96 0.82-9.11-0.58-3.57-1.58-6.19-4.64-7.77-8.15-2.63-5.85-1.69-12.63 1.98-17.81 0.67-0.94 1.5-1.72 2.36-2.48 1.52-1.34 3.17-2.45 5.05-3.25 2.52-1.07 5.17-1.45 7.85-1.18 3.57 0.36 6.73 1.73 9.39 4.22 2.12 1.99 3.54 4.37 4.43 7.1l0.07 0.69-0.64-0.41-2.08-0.66-1.26 1.42 0.51 1.16c0.95 1.18 2.04 2.19 3.63 2.45l0.47 0.53c-0.09 1.01-0.11 2.04-0.29 3.03-0.25 1.38-0.75 2.68-1.34 3.96-1.83 3.99-6.05 7.57-10.2 9.02-1.03 0.37-2.05 0.69-3.05 0.94"/><path d="m3003.4 3608.2c1.25 0.1 2.44-0.23 2.61-1.66l-0.13-2.5 0.5-0.3c0.93-0.18 1.58-0.83 2.32-1.35l1.19-1.48c0.63-1.19 0.67-2.46 0.33-3.72-0.25-0.95-0.69-1.85-1.48-2.49-2.21-1.8-5.9-1.53-7.72 0.99-1.25 1.73-1.4 3.5-0.51 5.4l0.66 1.31-1.28 0.95c-1.03 0.86-1.28 1.8-1.04 2.67l0.47 0.91c0.58 0.79 3.12 1.19 4.08 1.27zm-6.73-6.97c1.12-0.73 1.18-2.32 0.58-3.21-0.72-1.08-2.25-1.45-3.19-0.8-0.98 0.68-1.17 2.15-0.43 3.24 0.71 1.08 2.12 1.38 3.04 0.77zm2.57 6.08c-4.15-1.46-8.37-5.04-10.2-9.02-0.59-1.28-1.09-2.58-1.34-3.96-0.18-1-0.2-2.02-0.29-3.04l0.47-0.52c1.59-0.26 2.68-1.27 3.63-2.45l0.51-1.17-1.26-1.41-2.08 0.66-0.64 0.41 0.07-0.69c0.89-2.73 2.31-5.12 4.43-7.1 2.66-2.49 5.82-3.87 9.39-4.22 2.68-0.27 5.33 0.1 7.85 1.18 1.88 0.79 3.53 1.9 5.05 3.25 0.86 0.76 1.69 1.54 2.36 2.47 3.67 5.19 4.61 11.97 1.98 17.82-1.58 3.51-4.2 6.57-7.77 8.15-3.15 1.39-6.08 1.32-9.11 0.57-1-0.25-2.02-0.57-3.05-0.93"/></g></g></g></svg>
