<?xml version="1.0" encoding="UTF-8"?>
<svg width="1024" height="500" fill="none" version="1.1" xmlns="http://www.w3.org/2000/svg" xmlns:cc="http://creativecommons.org/ns#" xmlns:dc="http://purl.org/dc/elements/1.1/" xmlns:rdf="http://www.w3.org/1999/02/22-rdf-syntax-ns#">
 <metadata>
  <rdf:RDF>
   <cc:Work rdf:about="">
    <dc:format>image/svg+xml</dc:format>
    <dc:type rdf:resource="http://purl.org/dc/dcmitype/StillImage"/>
    <dc:title/>
   </cc:Work>
  </rdf:RDF>
 </metadata>
 <g transform="matrix(1.7173 0 0 1.7716 64.259 69.868)">
  <path d="m210.4 59.7c-12.1-6.7-25-0.5-25-0.5s0.5-14.7-23.6-20a9 9 0 0 0-3.4 1.6 7 7 0 0 0-2.6 4c-0.6 2.4-1.3 5.1-1 8.3 0.2 1.8 0.6 3.8 1.3 5.5 1 2.7 1 5.6-2 7-1.3 0.5-3.7-1.5-5-1.4-2.9 0.3-7 0.5-9.3-1.8-1-1-1.3-3-1.7-4.3-3 0.5-1.4 5.2-2.7 5.9-0.8 0.5-3.6 0.1-4.5 0.2-1.5 0.1-3.3-0.4-4-1.6-1.7 1.7-4.7 1-6.7 0.6-1.7-0.3-4-0.9-5.8-1.5-1.5-0.5-2-1.8-3-3-1.7-2.6-2.2-5.7-2.8-8.7l-0.1-0.8c-5.8 5.4-7.8 10.6-7.8 10.6s-10.8-6.7-25-0.2c-12.5 5.8-11.7 22-11.7 22s-9.8-5-25.3 6c-15.9 11.2-9.7 36-9.7 36 7.3 0.7 16 4.7 17.4 10.4 1.9 7.9-1.7 14.5-2.7 15.8a19 19 0 0 1 11 1.8s-3.5-14.4 6.3-21.6c-1.2-3-1-6.1-0.3-9.1a45.6 45.6 0 0 1 1.7-5l0.6-1.7 0.3-0.8c3.1-7.9 6.8-15.5 11.2-22.9a96.6 96.6 0 0 1 15.4-20.3c6.5-6.2 13.8-10.7 23-8.9 4 0.9 7.7 2.2 11.8 2.7 5 0.4 10-0.1 15-0.3 9-0.2 17.4 2.3 24.8 7.4 4.2 2.8 7.6 6.3 10.2 10.4 3.8 2 6.9 4.4 8.2 7.3 0 0 22.2-15 37.9-5.3a4.3 4.3 0 0 0 3-2.2c0.4-7.6-2.2-15.6-13.4-21.7zm37.6 48.9c-2 1-4 1.5-5.6 2.7-1.3-1.3-6.9 1.8-6.9 1.8l-1.3-6.4a46.2 46.2 0 0 0-5-14c6.4 0 11.6 0.2 13.4 0.6 5.5 1.3 10.8 12.6 5.5 15.3z" fill="#ffe0d9"/>
  <path d="m217.7 171-5.6 4.6c-5 3.7-17.9 8.3-23.6 4.8 0-1 0-1.9 0.3-2.7 0.4-2.6 1.5-4.8 3.3-6.7z" fill="#123079"/>
  <path d="m241 126.2c-19.6-5.6-25 19.3-19.5 29-17.3 0.4-16 15.8-16 15.8h-13.4l1.8-1.9 0.4-0.4c1.8-1.4 3.2-3 5.2-4.3 1.2-0.9 3.1-2 2.8-3.8-0.7-4.9-12.8-7-16.2-7.8-8-2-16.2-3.2-24.5-4 2.6-5.8 7.4-11 11-16.2a42.8 42.8 0 0 0 9-21.5c1-10.2-1.4-20.9-7-29.4 4 2 7 4.4 8.3 7.2 0 0 22.2-14.9 37.9-5.3-1.8 0.5-4.6 0.7-9.5 0.7-13.6-0.1-16.5 9-16.5 9s20.1-0.7 34.4-0.6c2 3.6 3.7 8.2 5 14l1.2 6.4s5.6-3 7-1.8c-2.4 1.7-3.4 5.1-1.3 14.9zm-160.1 36.6c2.9 1.1 3.7 5.2 4 8-2.2-0.9-4.5-1.6-6.8-2.3l-3.4-0.8c-1-0.2-1.8-0.5-2.6-1.3-0.6-0.7-1-1.6-1.4-2.4-0.6-1-1.1-2-1.9-3-1.8-2.2-4.8-4-7.8-4-0.8 0.1-1.6 0.3-2.3 0.8 0-1.4-0.3-2.7-1.1-3.8a6 6 0 0 0-1.4-1.4l-0.8-0.6-1-0.5-0.3-2a26 26 0 0 1 1-11.4c1-3.3 3-6.1 5.7-8 0.6 1.5 1.6 2.9 2.5 4.3a28 28 0 0 0 5 5.4l2 1.4a7 7 0 0 1 2 3.6c0.3 0.6 0.4 1.3 0.4 2 0.1 0.5 0.3 2 0 2.3-1 0.7-0.4 2.1 0 3 0.5 0.8 1.4 2 2.4 2.3 0.6 0 1.2 0.4 1.8 0.5 0.8 0.2 1.6 0.2 2.4 0.2 6 0 11.2-4.5 14.2-9.5 3-4.9 4.2-10.5 5.3-16.1l0.5-3c0.1-0.8 0.2-1.7 0.5-2.5 0.2 1 0.1 2.1 0.2 3.2l0.4 3.3c0.4 2.3 1 4.5 2.3 6.4l4.4 6.4c1.5 2.2 2.3 4.7 2.9 7.2l-5.4 1.2c-1.7 0.3-3.3 0.8-5 1.2a109 109 0 0 0-14.8 5.3c-1.3 0.7-2.6 1.4-3.7 2.4-0.8 0.6-1.6 1.8-0.2 2.2 0.7 0.3-4-1.5 0 0z" fill="#ff767d"/>
  <path d="m85.2 182.7a8.9 8.9 0 0 1-3.5-0.9c-3.9-2.4-10.5-3.5-20.2-3-9.8 0.6-19.1-7.8-19.1-7.8h42.5c0.9 5 0.4 10.8 0.3 11.7z" fill="#123079"/>
  <path d="m199.5 164.3-1 0.6c-5.5 3-12.4 3.7-18.4 4.1a216.4 216.4 0 0 1-52.5-4.4c-15.5-3.3-31.2-2.5-46.8-1.8-4-1.4 8.4-8.1 29-12.1 0.3 1.2 0.5 2.5 0.5 3.8 0.1 0.8-0.4 5.2 0.5 5.5l0.6 0.2 2.3 1c1 0.2 2.6 0.3 4.2 0 2.5-0.4 7-0.4 9.5-0.4 1.6 0 2.9-0.6 3.8-1.7 2.9-2.2 1.9-10 3.1-10.5h0.3c0.9 0.2 1.4 3 0.6 6.5-0.3 1.2-1.1 3.6-0.4 4.8 1.5 2.8 8 1.6 10.4 1.3 4.4-0.7 8-1.6 11.3-5 2-2 3.6-4 4.6-6.7l0.3-0.6c8.3 0.8 16.5 2 24.6 4 3.4 0.8 15.5 2.9 16.2 7.8 0.4 1.7-1.5 2.8-2.7 3.6z" fill="#d0ebf0"/>
  <path d="m199.3 164.4c-1.8 1.4-3.8 3.3-5.4 4.7a14 14 0 0 0-1.8 1.9c-1.8 2-2.8 4-3.3 6.7a8.2 8.2 0 0 0-0.3 2.7c-5.6-3.5-18.3-3.5-25.6 0-7.3 3.6-23 5-31.7 0.1-8.7-5-22.9-3.8-28.1-1a38.8 38.8 0 0 1-17.8 3.2v-9.3l-0.3-1.7v-1h-0.2v-0.2 0.1c-0.3-2.4-1-4.6-2-6.1l-0.3-0.5c-1-1-1.8-1.3-1.8-1.3 15.6-0.7 31.4-1.5 46.8 1.8a215 215 0 0 0 52.5 4.4 47 47 0 0 0 19.3-4.5z" fill="#00a6cc"/>
  <path d="m111 153s-13.4 2.3-10.7 4.4c5.6 4.3 18.1 7 27.2 4.8 4.4-1 8.5 1 7.9 0.7-0.6-0.2 5.8 2 10.2 0.5s22.9 0.9 25-1.7c1-1 2.5-1.5 3.6-2l5.6-2c1.1-0.3 7-2.2 3.6-3.4-5-2-10.3-3-15.7-3.6-3.9-0.4-9-0.8-13-0.9-2 0-14.3 1.1-18.4 1.4-8.6 0.4-10.1 1.1-18.7 1.5l-6.5 0.2z" fill="#00a6cc" opacity=".4"/>
  <path d="m200.7 33.3s-3.4-7.3-7.2-9.7a33.6 33.6 0 0 0-10.8-4.2s-3-18.4-23.7-19.4c-7.5-0.3-18.5 5.4-20.8 10.2-11.2-4.9-40.6-13.8-66.4 7.3-11.8 9.6-15.8 21.1-15.8 21.1s-13.5-2.5-21.8 8 0.2 9.5 3.8 8.5 13.3-3.6 14.7 5.2c0.5 3 11.7-0.7 10.4 8.3h-41.5s-5.2 8.2 3 14.4c-13.4-4.8-29.6 8.4-23.3 24.4 0 0 13.3-4.8 17.7 2.7 4.3 7.5 3.6 11.4 2.4 14.2 2-0.7 4.5-1 7.3-0.7 0 0-6.1-24.8 9.7-36 15.6-11 25.3-6 25.3-6s-0.7-16.2 11.7-22c14.2-6.5 25 0.2 25 0.2s2-5.2 7.8-10.6c-0.6-3.2-1.2-6.4-1-9.7-0.5 0.4-1.1 0.6-1.7 0.2-0.6-0.5-1-1.4-1-2.1 0-1.2 0.7-2.1 1.7-2.8 0.9-0.6 2-0.6 2.8-1.2 0.6-0.3 1.1-1.2 1.6-1.8 1.3-1.3 2.6-2.6 4-3.7 3-2.3 6.4-4 10.1-4.5 3.4-0.4 6.7-0.2 10.1-0.2 3 0 9.4-0.2 9.6-4.5-0.3-0.7-1-1-1.5-1.6-0.5-0.8-0.5-1.5-0.1-2.2l0.8-1 1-0.7c0.8-0.3 2.3-1 2.9 0 0.8 1.1 0.9 3 2 2.3 1-0.6 9-2.9 14.1-2.4l2.2 0.5s1-2.3 2.9-1.4c2.9 1.4 2.2 4 1.3 4.4-1 0.5 0.4 3.2 0.4 3.2 1.3 5 3 10 0.2 14.7-1.3 2.2-4 3.1-6.5 3.7l-2.6 0.6c24.1 5.5 23.6 20.1 23.6 20.1s12.8-6.1 25 0.5c11.2 6.3 13.8 14.1 13.5 21.8 0.3-0.5 0.7-1.2 1.4-1.8 2.9-2.9 10.2-4.3 12.7-1.4 5-51.6-37-44.9-37-44.9z" fill="#d0ebf0"/>
  <path d="m63.3 113.5-0.3 0.8c-0.3 0.5-0.5 1-0.6 1.6l-0.2 0.3c-0.6 1.6-1.1 3.3-1.5 4.9v-0.1h-0.1a4.9 4.9 0 0 1-2.9-6c0.7-2.4 4-3.4 5.5-1.5z" fill="#a5dfeb"/>
  <path d="m75.8 154.4h-0.4c-1.5 0-3.3-2.9-3.3-4 0-0.7 0.2-1.1 0.6-1.4 0.6-0.4 1.4-0.4 2 0.1a7 7 0 0 1 1.6 3.8c0.2 0.7 0 1.3-0.5 1.5z" fill="#123079"/>
  <path d="m174.7 81.7c-2.6-4-6-7.7-10.2-10.5-7.4-5-15.7-7.6-24.8-7.3-5 0.1-10 0.7-15 0.2-4-0.4-7.8-1.8-11.8-2.6-9.2-2-16.6 2.6-23 8.9-6.1 6-11 13-15.4 20.3s-8 15-11.2 22.9l-0.3 0.7-0.6 1.7-0.1 0.2c-0.6 1.6-1.1 3.3-1.5 5v-0.1a14.3 14.3 0 0 0 0.9 10.5c2 3.5 4.5 7 8 9.2 2.4 1.5 3.2 4.4 3.2 7.2v1c0.6-0.3 1.4-0.3 2 0.2 0.5 0.5 1.5 2.3 1.6 3.7 0 0.8-0.1 1.3-0.7 1.5h-0.3c2.6 1.3 6.4 1 9-0.3 6.7-3 10.5-9.8 12.6-16.6l0.1-0.5c0.8-3.1 2-9.1 2.4-12.1v-0.4l0.1-0.4v-0.2c0.4-0.6 0.9-0.9 1.2-0.2 0.3 0.6 0.3 1.2 0.3 1.8s0 1.3 0.3 1.9c0.8 3.2 2.5 6.1 4.2 9 1.8 2.7 3.7 5.5 5 8.5 0.9 1.8 1.4 3.5 2 5.4l0.3 1.7c0.3 1.3 0.3 2.5 0 3.9-0.2 0.8-1.5 1.7-1.5 2.9v1.4c0.7 0.3 1.4 0.7 2.2 0.9 1 0.3 2.6 0.4 4.3 0 2.4-0.3 7-0.4 9.5-0.3 1.6 0 2.8-0.6 3.7-1.7 3-2.2 2-10.1 3.2-10.6h0.2c1 0.3 1.4 3 0.6 6.6-0.2 1.2-1 3.6-0.4 4.7 1.6 2.8 8 1.7 10.5 1.3 4.4-0.6 8-1.5 11.2-4.9 2-2 3.6-4.1 4.7-6.7l0.3-0.7c2.6-5.8 7.4-11 11.1-16.2a42.8 42.8 0 0 0 8.9-21.5c1-10.2-1.2-20.9-6.8-29.4zm-98.9 57.7c-1.6 0-1.7-2.6-3.5-2.6-0.5 0-0.8-0.7-0.5-1 0.5-0.5 2.4-0.1 3 0 1 0.2 2.5 0.9 2.5 2.2-0.1 0.7-0.7 1.4-1.5 1.4zm64.9-29.7-0.7 0.9a12 12 0 0 0-2.4 6 137 137 0 0 0-2.5 21.5v8c-0.1 0.7-0.5 1.6-1.1 0.6-0.3-0.4 0-3.9-0.1-5-0.2-2.4-0.6-4.8-1.4-7-0.4-1.4-1-2.7-0.1-4 0.7-1.1 0.8-2.2 1-3.5 0.3-3.2 0.7-6.3 1.5-9.4 0.9-3 2.1-6 4.1-8.4 0.4-0.5 1-1 1.4-0.6 0.3 0 0.4 0.5 0.3 0.9z" fill="#fff"/>
  <path d="m76.4 111.3c-0.7-1.9-2.1-3-4.3-2.9-3.5 0.2-4.7 4.4-3.6 7.3 0.1 0.3 1 0 2.2-0.2-0.3-0.3-0.6-0.6-0.8-1.2-0.6-1.7 1-3.6 2.6-3.4 3.2 0.3 2.5 3 1 4.4 0.9 0 1.6 0.3 2.2 0.8 0.9 0.7 1.2 0 1.2-0.9 0-1.4-0.4-3.5-0.5-3.9z" fill="#a5dfeb"/>
  <path d="m77.2 138c0 0.7-0.6 1.4-1.4 1.4-1.6 0-1.7-2.6-3.5-2.6-0.5 0-0.8-0.7-0.5-1 0.5-0.5 2.4-0.1 3 0 1 0.3 2.4 1 2.4 2.1z" fill="#e6e7e8"/>
  <g fill="#a5dfeb">
   <path d="m140.7 109.7c-0.1 0.3-0.4 0.6-0.7 0.9a12 12 0 0 0-2.4 6 137 137 0 0 0-2.5 21.5v8c-0.1 0.7-0.5 1.6-1.1 0.6-0.3-0.4 0-3.9-0.1-5-0.2-2.4-0.6-4.8-1.3-7-0.5-1.4-1.1-2.7-0.2-4 0.7-1.1 0.8-2.2 1-3.6 0.3-3 0.7-6.2 1.5-9.3 0.9-3 2.1-6 4.1-8.4 0.4-0.5 1-1 1.4-0.6 0.3 0 0.4 0.5 0.3 0.9zm-27.7 46.2c-0.2 0.8-1.5 1.7-1.5 2.9v1.4l-0.6-0.2c-1-0.3-0.4-4.8-0.5-5.6 0-1.2-0.2-2.5-0.5-3.8-0.3-1.9-1-3.8-1.8-5.5-1.6-3.1-4.1-5.8-6-8.9l-0.1-0.3v-0.1l-0.1-0.2a59.7 59.7 0 0 1-0.8-2l-0.2-0.8v-0.2l-0.2-0.4-0.1-0.7-0.2-0.6v-0.7l-0.2-0.8v-0.6l-0.1-0.3v-0.5l-0.2-1v-1l-0.1-0.6v-1.5c0.3-0.7 0.8-1 1.1-0.2 0.3 0.6 0.3 1.1 0.3 1.8 0 0.6 0 1.2 0.2 1.8 0.9 3.3 2.6 6.2 4.3 9 1.8 2.8 3.7 5.5 5 8.5 0.9 1.8 1.4 3.5 2 5.4 0 0.6 0.1 1.2 0.3 1.7 0.3 1.3 0.3 2.6 0 4zm-35.8-17.9c0 0.7-0.6 1.4-1.4 1.4-1.6 0-1.7-2.6-3.5-2.6-0.5 0-0.8-0.7-0.5-1 0.5-0.5 2.4-0.1 3 0 1 0.3 2.4 1 2.4 2.1z"/>
  </g>
  <path d="m146.6 14.6c-0.8-0.6-1.8-0.1-2.2 0.6-0.5 0.7-0.3 1.6 0.2 2.2 1 1.1 2.7 0.2 2.8-1.2 0-0.6-0.2-1.3-0.8-1.6zm23.2 0.5c0-0.4-0.1-0.8-0.4-1.2-0.6-0.6-2.1-0.7-2 0.5 0 0.7 0.3 2 1.2 2 0.7 0 1.1-0.6 1.2-1.3z" fill="#ffe0d9"/>
  <path d="m167.1 24.7-0.2-0.3c-0.4-0.3-1.4-0.5-1.4-1.3l-0.2 0.5c-0.3 0.6-0.6 1.4-0.3 2 0.3 0.7 1.1 1.2 1.8 0.9 0.5-0.3 0.7-1.1 0.3-1.8zm-13 1.6 0.2-0.3c0.3-0.4 1.2-0.9 1-1.6l0.4 0.4c0.4 0.6 1 1.3 0.7 2-0.2 0.7-0.7 1.3-1.5 1.1-0.7 0-1-0.8-0.8-1.6z" fill="#a5dfeb"/>
  <path d="m161.4 28.8c-1-0.1-2.3 0.2-2.3 1.4-0.1 1 1.4 1 2 1.6l0.2 0.2 0.6-0.5c0.3-0.4 1-0.7 1-1.3-0.1-0.8-1-1.2-1.5-1.4z" fill="#123079"/>
  <path d="m114.3 61.8 4.7 1.2a41.3 41.3 0 0 0 13.6 1.2c4-0.3 7.8-0.4 8.5-0.4 1.5 0 2.3 0.4 3.4 0.6 1.3 0 2.5-0.2 3.6 0 1.9 0.3 3.7 0.8 5 1.2 4.6 1.6 4.9 3.6 2.1 3.7-2.8 0-10.8-4-19-2.9-8.1 1.1-19.7-0.4-22-1.8-2.5-1.5-1.3-3.1 0.1-2.8z" fill="#00a6cc" opacity=".4"/>
  <path d="m130.6 57c-1-1.3-1.2-3-0.9-4.6a9 9 0 0 0-0.6-5.7l-1.3-1.7a6 6 0 0 1 1.4 4.6l-0.1 2c-0.2 1.2-0.6 2.2-1 3.3-0.2 0.7-0.4 1.4-0.3 2.2 0 0.6 0.3 1.3 0.4 2 0.2 1.3 0 2.6-1.3 3.4 0.7 1.6 2.2 1.7 3.9 1.9h2.9c1 0 2.3 0 3-1 0.7-0.8 0-1.8-0.4-2.7 0-1 0.4-1.5 1.1-2.2l0.6-0.5c-2.3 1-5.6 1-7.4-1zm30.3-19.3c-1.4 0.3-3 0.3-4.4 0.8-1.4 0-2.9 0-4.3-0.5-3.4-1.2-4.5-5.2-5-8.3 0.4 3.5 1 6.8 4 9 0.8 0.4 1.5 0.6 2.3 0.8-2.3-0.3-2.7 4.6-2.9 6l-0.4 6.4v3.3l0.1 2c0.2 0.6 0.6 1 0.8 1.7 0.4 1 0.5 2.4 0 3.4-0.6 1.4-2 1.6-3.5 1.8-1.4 0.1-2.8 0.2-4.2 0 0.8 0.2 1.6 0.3 2.5 0.3 1 0 2 0.3 2.9 0.1 1.2 0 2.4-0.1 3.2-1.2 0.8-1 1.1-2.5 0.8-3.7-0.4-1.3-1.4-2.5-2-3.8-0.5-1.5 0-3.4 0.2-5l0.6-5.5c0-0.8 0.2-1.5 0.4-2.3a5.3 5.3 0 0 1 3-3.3l3-0.9c1-0.3 2-0.8 3-1z" fill="#a5dfeb"/>
  <g fill="#123079">
   <path d="m74.9 138.8 0.6 0.3 0.9-0.3c0.3-0.3 0.5-0.8 0.5-1.3l-0.1-0.3-0.2-0.4a0.9 0.9 0 0 0-0.6-0.3 0.9 0.9 0 0 0-0.8 0c-0.2 0-0.4 0.1-0.5 0.3h0.2l0.1 0.2-0.4 0.1-0.1 0.3v0.3c0 0.3 0 0.7 0.3 1v0.2zm-0.4-0.8c0-0.1 0-0.2 0.2-0.2l0.1 0.2v0.1h-0.3zm0.2 0.7c0-0.1 0-0.2 0.2-0.3h0.1c0-0.3 0-0.4 0.2-0.4 0.3-0.2 0.5 0 0.6 0.1v0.5h-0.2s-0.1 0.1-0.2 0l-0.2 0.2c0 0.2-0.1 0.1-0.2 0zm91.5-114.3h-0.5c-0.3 0.2-0.4 0.4-0.5 0.6-0.2 0.3-0.1 0.7 0.1 1l0.1 0.2 0.3 0.1h0.5l0.5-0.1c0.2-0.2 0.3-0.3 0.3-0.5h-0.2l0.2-0.2v-0.5c-0.1-0.2-0.4-0.5-0.6-0.5h-0.2zm0.5 0.5v0.2h-0.2v-0.3zm-0.3-0.4v0.2h-0.1v0.4c-0.2 0.2-0.4 0.2-0.5 0.1v-0.4h0.1v-0.2l0.2-0.1zm-11.4 1.3c-0.3 0-0.5 0.3-0.7 0.5v0.5l0.2 0.1v0.2l-0.1-0.1c0 0.2 0 0.3 0.2 0.5l0.5 0.2h0.5l0.3-0.2 0.1-0.2c0.2-0.2 0.3-0.7 0.1-1 0-0.3-0.2-0.4-0.5-0.5h-0.7zm-0.2 0.4v0.1h-0.1c0-0.2 0-0.2 0.1-0.1zm0.4-0.5 0.1 0.2 0.2 0.1v0.5l-0.5-0.1v-0.4l-0.1-0.2h0.3z"/>
  </g>
 </g>
 <path d="m656.52 219.25c-6.1614-1.7468-10.642 1.1646-12.043 8.1519l-7.0016 36.974-6.4415-31.443c-1.4003-7.2784-5.0412-13.683-14.283-13.683h-1.1203c-9.2421 0-12.603 6.405-14.003 13.683l-6.7216 31.152-7.0016-36.683c-1.4003-6.9873-5.6013-9.8987-11.763-8.443-6.1614 1.4557-8.9621 5.8228-7.5617 12.81l9.5222 40.759c1.9604 7.2784 5.8813 14.266 15.684 14.266h0.8402c9.8023 0 14.003-6.9873 15.684-14.557l5.8813-28.24 6.1614 28.532c1.6804 7.2784 5.6013 14.266 15.684 14.266h0.56014c9.8022 0 14.003-6.9873 15.684-14.557l9.5222-40.759c1.6804-6.405-1.1203-11.063-7.2817-12.519zm40.329-0.58227c-9.8023 0-20.445 2.9114-24.366 9.3164-2.2405 3.4937-0.8402 9.6076 6.4415 11.646 4.481 1.7468 7.0016 0 8.682-1.7468 3.9209-2.9114 6.7216-3.4937 9.2421-3.4937 5.3212 0 8.682 3.4937 8.682 8.7341v2.3291h-15.964c-13.163 0-21.845 7.5696-21.845 18.342v3.7848c0 11.937 8.4019 19.797 20.445 19.797 8.1219 0 14.563-2.9114 19.044-8.1519 1.1203 5.2405 4.201 8.1519 9.5222 8.1519 5.8814 0 8.9621-3.7848 8.9621-10.772v-34.937c0-13.975-11.483-23-28.847-23zm-2.2405 52.405c-4.201 0-6.7215-2.3291-6.7215-5.8228v-0.58227c0-2.9114 2.8006-5.2405 6.4415-5.2405h11.203v1.7468c0 5.8228-4.481 9.8987-10.923 9.8987zm71.416-52.405c-5.0412 0-9.2421 2.3291-12.323 6.9873-1.1203-4.6582-4.201-6.9873-8.9621-6.9873-6.1614 0-9.2421 3.7848-9.2421 10.772v47.164c0 6.9873 3.6408 10.772 10.082 10.772s10.082-3.7848 10.082-10.772v-26.785c0-7.2784 3.6408-10.772 9.5222-11.937 6.4415-1.1646 9.8022-3.2025 9.8022-9.0253 0-6.6962-3.0807-10.19-8.9621-10.19zm88.22 0c-8.4019 0-15.123 3.2025-19.605 8.7341a21.565 22.418 0 0 0-18.204-8.7341 22.405 23.291 0 0 0-17.084 7.5696c-1.1203-4.9493-4.201-7.5696-9.2421-7.5696-5.8814 0-9.2421 3.7848-9.2421 10.772v47.164c0 6.9873 3.6408 10.772 10.082 10.772 6.7216 0 10.082-3.7848 10.082-10.772v-30.278c0-5.8228 3.6408-9.6075 8.9621-9.6075s8.682 3.7848 8.682 9.6075v30.278c0 6.9873 3.6408 10.772 10.082 10.772 6.7216 0 10.082-3.7848 10.082-10.772v-30.278c0-5.8228 3.6408-9.6075 8.9621-9.6075s8.682 3.7848 8.682 9.6075v30.278c0 6.9873 3.6408 10.772 10.082 10.772 6.7216 0 10.082-3.7848 10.082-10.772v-33.772c0-14.557-8.9621-24.164-22.405-24.164zm82.059-26.202c-6.4415 0-10.082 3.7848-10.082 10.772v22.126a24.086 25.038 0 0 0-16.804-6.6962c-15.123 0-25.206 11.063-25.206 27.367v13.975c0 16.304 10.082 27.367 25.206 27.367 7.8418 0 14.283-2.9114 18.764-8.7341 0.56013 5.8228 3.9209 8.7341 9.2421 8.7341 5.8814 0 8.9621-3.7848 8.9621-10.772v-73.367c0-6.9873-3.6408-10.772-10.082-10.772zm-21.005 76.86c-6.4415 0-10.923-4.6582-10.923-11.646v-9.3164c0-6.9873 4.481-11.646 11.203-11.646 6.4415 0 10.642 4.6582 10.642 11.646v9.3164c0 6.9873-4.201 11.646-10.923 11.646z" fill="#000" stroke-width="2.8555"/>
</svg>
