<?xml version="1.0" encoding="UTF-8"?>
<svg enable-background="new 0 0 53.607 53.607" version="1.1" viewBox="0 0 53.607 53.607" xml:space="preserve" xmlns="http://www.w3.org/2000/svg">



<g transform="matrix(.86153 0 0 .71442 3.4954 7.8175)">
	
	
	
	
	
	
	<path transform="matrix(1.0902 0 0 1.1994 -2.2461 -5.2833)" d="m20.312 4.4043c-0.36241 0.014435-0.73002 0.060108-1.0996 0.14062-3.2309 1.1946-6.3137 2.7269-9.4844 4.0586-1.9547 0.92129-4.049 1.6301-5.8926 2.7207-2.08 1.579-1.3704 4.1699-1.4961 6.3145v9.8574c0.846 1.3795 3.5426 1.1096 3.9746 3.334 0.33869 2.263-2.4719 1.0711-3.5332 1.5391-0.9011 0.56739-0.30274 1.2644-0.44141 2.1094-0.07445 2.0749 1.8645 4.0728 4.0098 4.375l39.953 11.164c2.8887 0.76672 5.5183-3.453 5.0605-6.0977-0.03831-2.2042 0.07631-4.0322-0.05859-6.2285-1.4005-1.351-4.3043-1.65-3.9941-3.7969 0.31323-1.2355 1.5921-0.97131 2.9883-1.1914 0.9848-0.98824 0.53268-1.1319 0.65625-1.9961 0.13758-2.2483-1.4713-4.0841-3.2871-5.418l-15.133-13.012c-1.2146-1.0405-3.7257 0.44156-4.3457-1.6191 0.0063-1.2961 0.24565-1.7979-1.1859-3.5462-1.6833-1.6686-4.1542-2.8088-6.6911-2.7077zm0.21162 2.9915c1.6568-0.20554 2.8933 0.54396 4.0755 1.7012 1.4605 0.93248-0.37972 2.2598 1.5449 4.2715 1.5795 1.8568 5.5346 1.5321 6.873 2.4003l10.917 9.3588-13.212-3.1921c-0.55901-2.3572-3.8772-4.5475-6.1777-2.7461-1.5494 1.3556-0.70142 0.74458-3.3848 0.17578-5.5786-1.5219-8.389-2.7381-13.957-4.2891-1.2787-0.79829 0.74242-2.7187 1.9244-3.1341 3.0738-1.5008 7.817-4.0496 11.397-4.5463zm-9.1491 12.147c1.5896 0.78788 2.3651 2.5401 1.7324 3.9141-0.63328 1.374-2.4356 1.8489-4.0254 1.0605-1.5896-0.78788-2.3651-2.5401-1.7324-3.9141 1.1989-1.5529 2.35-1.5911 4.0254-1.0605zm13.227 7.418c2.3514 1.1243 3.4985 3.624 2.5625 5.584-0.93674 1.9611-3.6042 2.6389-5.957 1.5137-2.3527-1.1245-3.5-3.6256-2.5625-5.5859 1.6901-2.2404 3.7011-2.3089 5.957-1.5117zm10.477-0.12109c1.3658 0.69178 2.0322 2.2309 1.4883 3.4375-0.54462 1.2055-2.0921 1.6217-3.457 0.92969-1.3658-0.69178-2.0322-2.2309-1.4883-3.4375 1.037-1.3728 2.0726-1.3764 3.457-0.92969zm-21.191 5.1152c1.6805 0.78806 2.5 2.5418 1.8301 3.916-0.66905 1.3737-2.5726 1.8485-4.252 1.0605-1.6805-0.78806-2.5-2.5418-1.8301-3.916 1.2947-1.5627 2.5885-1.594 4.252-1.0605zm25.758 0.84375h2e-3c0.67712-0.0023 1.3684 0.16145 2.0039 0.47461 1.9934 0.9802 2.9658 3.1602 2.1719 4.8691-0.79448 1.7084-3.0538 2.2986-5.0469 1.3184-1.9934-0.9802-2.9658-3.1602-2.1719-4.8691 0.85884-1.1035 1.9338-1.7669 3.041-1.793zm-6.1387 6.1035c1.3652 0.69242 2.0306 2.2314 1.4863 3.4375-0.5438 1.2064-2.0915 1.6235-3.457 0.93164-1.3652-0.69242-2.0306-2.2314-1.4863-3.4375 1.0362-1.3727 2.0726-1.376 3.457-0.93164z" stroke-width=".87452"/>

</g>































</svg>
