<svg width="161" height="54" fill="none" xmlns="http://www.w3.org/2000/svg"><path d="M147.3 0H10C9 0 8.3.1 7.4.3a8.6 8.6 0 00-4.7 2.4A8.4 8.4 0 001 4.9a9 9 0 00-.8 2.6 18 18 0 00-.3 2.7v33.6c0 1 .1 1.9.3 2.8A9 9 0 001 49a8.4 8.4 0 001.6 2.2 8.4 8.4 0 002.1 1.6 8.9 8.9 0 002.6.8 17.8 17.8 0 003.9.3h137.4a56.3 56.3 0 004-.3 9 9 0 002.5-.8 8.5 8.5 0 002.1-1.6 8.7 8.7 0 001.6-2.2 9 9 0 00.8-2.5c.2-1 .3-1.8.3-2.8v-1.2-29.7-1.5-1.2c0-1 0-1.9-.3-2.7a9 9 0 00-.8-2.6 8.7 8.7 0 00-3.7-3.8 9 9 0 00-2.6-.8L150 0H147.3z" fill="#B2B1B1"/><path d="M11.3 52.8a54 54 0 01-3.7-.2 7.8 7.8 0 01-2.2-.8 7.2 7.2 0 01-1.9-1.3 7.2 7.2 0 01-1.4-2 7.8 7.8 0 01-.7-2.2c-.2-.9-.2-1.8-.2-2.5V11.4v-1.2c0-.7 0-1.6.2-2.5l.7-2.3a7.3 7.3 0 011.4-1.9 7.4 7.4 0 011.9-1.3 7.7 7.7 0 012.2-.8l2.5-.2H149.9c.7 0 1.6 0 2.5.2a7.9 7.9 0 012.2.8 7.4 7.4 0 012 1.3 7.4 7.4 0 011.3 2c.3.6.6 1.3.7 2.1a18 18 0 01.2 3.8v32.4c0 .8 0 1.7-.2 2.5a7.8 7.8 0 01-.7 2.3 7.4 7.4 0 01-1.4 1.9 7.3 7.3 0 01-1.9 1.3 7.8 7.8 0 01-2.2.8 16.6 16.6 0 01-3.7.2H11.3z" fill="#040403"/><path d="M33.1 27.4c0-3.7 3-5.5 3.2-5.6a6.8 6.8 0 00-5.4-3c-2.2-.2-4.4 1.4-5.5 1.4-1.2 0-3-1.3-4.9-1.2a7.1 7.1 0 00-6 3.6c-2.5 4.6-.6 11.2 1.9 14.8 1.2 1.8 2.7 3.8 4.6 3.8 1.8-.1 2.5-1.2 4.8-1.2 2.2 0 2.8 1.2 4.8 1.1 2 0 3.2-1.8 4.4-3.6 1.4-2 2-4 2-4.2 0 0-3.8-1.4-3.9-5.9zm-3.6-11c1-1.2 1.6-2.9 1.5-4.6-1.5 0-3.3 1-4.3 2.2-1 1.1-1.8 2.9-1.6 4.5 1.7.2 3.3-.8 4.4-2zm21.4 18.1h5l-2.5-7.3-2.5 7.3zm5.7 2.1h-6.4l-1.5 4.6H46l6-16.8h2.8l6 16.8h-2.7l-1.5-4.6zm14.6-1.5c0-2.5-1.3-4.1-3.2-4.1-1.9 0-3.2 1.6-3.2 4 0 2.5 1.3 4.2 3.2 4.2 2 0 3.2-1.6 3.2-4.1zm2.6 0c0 3.8-2 6.2-5.1 6.2a4 4 0 01-3.8-2.1v6h-2.5V29h2.4v2a4.3 4.3 0 013.9-2c3 0 5 2.4 5 6.2zm10.7 0c0-2.5-1.2-4.1-3.2-4.1-1.9 0-3.1 1.6-3.1 4 0 2.5 1.2 4.2 3.1 4.2 2 0 3.2-1.6 3.2-4.1zm2.6 0c0 3.8-2 6.2-5 6.2a4 4 0 01-3.9-2.1v6h-2.5V29H78v2a4.3 4.3 0 013.9-2c3 0 5 2.4 5 6.2zm8.8 1.4c.2 1.7 1.8 2.8 4 2.8 2 0 3.6-1.1 3.6-2.6 0-1.3-1-2.1-3.1-2.7l-2.2-.5c-3-.7-4.4-2.2-4.4-4.5 0-2.9 2.5-4.9 6-4.9s6 2 6 5h-2.5c-.1-1.8-1.5-2.8-3.5-2.8s-3.4 1-3.4 2.5c0 1.2.9 2 3 2.4l1.9.5c3.4.8 4.8 2.2 4.8 4.6 0 3.2-2.5 5.1-6.4 5.1-3.7 0-6.2-1.9-6.4-4.9H96zm15.5-10.4v2.8h2.3v2h-2.3v6.8c0 1 .5 1.5 1.5 1.5h.8v2h-1.3c-2.5 0-3.5-.9-3.5-3.3v-7h-1.7v-2h1.7v-2.8h2.5zm12.6 9c0-2.7-1.2-4.2-3.2-4.2s-3.2 1.5-3.2 4.2c0 2.6 1.2 4.2 3.2 4.2s3.2-1.6 3.2-4.2zm-9 0c0-3.9 2.3-6.3 5.8-6.3s5.8 2.4 5.8 6.3c0 3.8-2.3 6.2-5.8 6.2s-5.7-2.4-5.7-6.2zm13.6-6.2h2.4V31a2.9 2.9 0 013-2.2l.8.1v2.4l-1.1-.2c-1.6 0-2.6 1.1-2.6 2.8v7.3h-2.5V28.9zm9.3 5h6c0-1.8-1.2-3-3-3-1.7 0-3 1.2-3 3zm8.4 3.7c-.4 2.2-2.5 3.7-5.3 3.7-3.5 0-5.7-2.4-5.7-6.2 0-3.8 2.2-6.3 5.6-6.3 3.4 0 5.5 2.3 5.5 6v.9h-8.6v.1c0 2.1 1.3 3.5 3.3 3.5 1.4 0 2.5-.7 2.8-1.7h2.4zM48.9 18.7h1.5c1.7 0 2.7-1 2.7-2.9 0-1.8-1-2.9-2.7-2.9H49v5.8zm1.7-7c2.3 0 3.7 1.6 3.7 4 0 2.7-1.3 4.1-3.7 4.1h-2.9v-8h2.9zm9.6 5.1c0-1.3-.6-2-1.6-2s-1.6.7-1.6 2 .5 2 1.6 2c1 0 1.6-.7 1.6-2zm-4.5 0c0-2 1.1-3.2 2.9-3.2 1.7 0 2.8 1.2 2.8 3.2s-1 3.2-2.8 3.2c-1.8 0-2.9-1.2-2.9-3.2zm13.3 3h-1.3l-1.2-4.4h-.1L65 19.8H64l-1.6-6h1.2l1 4.6h.1l1.3-4.6H67l1.3 4.6 1.1-4.6h1.2l-1.6 6zm3-6h1.2v1c.3-.7 1-1.2 1.8-1.2 1.4 0 2.1.9 2.1 2.3v4H76v-3.7c0-1-.4-1.5-1.3-1.5-.8 0-1.4.6-1.4 1.6v3.5H72v-6zm7-2.4h1.2v8.4H79v-8.4zm7.3 5.4c0-1.3-.6-2-1.6-2s-1.6.7-1.6 2 .6 2 1.6 2 1.6-.7 1.6-2zm-4.4 0c0-2 1-3.2 2.8-3.2 1.8 0 2.8 1.2 2.8 3.2s-1 3.2-2.8 3.2c-1.8 0-2.8-1.2-2.8-3.2zm10.8.8v-.5h-1.5c-.8.1-1.2.4-1.2 1 0 .5.5.8 1.1.8.9 0 1.6-.5 1.6-1.3zm-4 .5c0-1 .9-1.7 2.3-1.8h1.7v-.6c0-.7-.5-1-1.3-1-.6 0-1.1.2-1.2.7H89c.1-1 1.1-1.8 2.5-1.8 1.5 0 2.3.8 2.3 2v4.2h-1.1V19h-.1c-.4.6-1 1-1.8 1-1.2 0-2-.8-2-1.9zm8-1.3c0 1.3.5 2 1.5 2s1.7-.7 1.7-2-.7-2-1.7-2-1.6.7-1.6 2zm-1.3 0c0-2 1-3.1 2.5-3.1a2 2 0 011.8 1h.1v-3.3h1.2v8.4H100v-1h-.1c-.4.7-1 1.1-1.9 1.1-1.5 0-2.5-1.2-2.5-3.1zm15 0c0-1.3-.6-2-1.6-2s-1.6.7-1.6 2 .5 2 1.6 2c1 0 1.6-.7 1.6-2zm-4.5 0c0-2 1.1-3.2 2.9-3.2 1.7 0 2.8 1.2 2.8 3.2s-1 3.2-2.8 3.2c-1.8 0-2.9-1.2-2.9-3.2zm7.3-3h1.2v1c.3-.7 1-1.2 1.8-1.2 1.4 0 2.1.9 2.1 2.3v4h-1.2v-3.7c0-1-.4-1.5-1.3-1.5-.8 0-1.4.6-1.4 1.6v3.5h-1.2v-6zm11.8-1.6v1.6h1.3v1H125v3.1c0 .7.3 1 .9 1h.4v1a3.9 3.9 0 01-.6 0c-1.3 0-1.8-.5-1.8-1.7v-3.4h-1v-1h1v-1.6h1.1zm3-.8h1.1v3.3h.1c.3-.6 1-1 1.9-1 1.3 0 2 .8 2 2.2v4H132v-3.7c0-1-.5-1.5-1.3-1.5-1 0-1.5.7-1.5 1.6v3.5H128v-8.4zm7.9 4.8h3c0-1-.6-1.5-1.4-1.5-1 0-1.5.6-1.6 1.5zm4.2 2c-.3 1-1.3 1.8-2.6 1.8-1.8 0-2.8-1.2-2.8-3.2s1-3.2 2.8-3.2c1.6 0 2.6 1.2 2.6 3.1v.4H136v.1c0 1 .7 1.7 1.6 1.7.7 0 1.2-.2 1.4-.7h1.2z" fill="#fff"/></svg>