<svg width="322" height="204" fill="none" xmlns="http://www.w3.org/2000/svg"><g clip-path="url(#clip0)"><path d="M293.4 161.9c7.2-12.4 22.2-19.5 27.2-32.9 1.9-5 1-8.3 1-10.2a1.9 1.9 0 00-1.7-2c-14.3-1.5-35.5-13.2-48.8-14.3-12.3-1-24.9-2.5-36-7.7-5.4-2.5-10.3-5.8-15.8-7.9-10.8-4-22.8-3-34.3-2-62.2 5.3-122.5 9-185 9v110h288.9c-1.4-14.2-1.4-32 4.5-42z" fill="#B2E4FB"/><path d="M293.4 161.9c7.2-12.4 22.2-19.5 27.2-32.9 1.9-5 1-8.3 1-10.2a1.9 1.9 0 00-1.7-2c-7-.7-15.6-3.9-24.2-7a229.6 229.6 0 00-36.3 26.7c-6.7 6.4-2.2 10.4 1 17.8 1.7 4 1.6 8.4 1.5 12.7l-1 37h28c-1.4-14.3-1.4-32.2 4.5-42.1z" fill="#98D4F4"/><path d="M102 175.4c1.6-.2 11.7 1 10.2.8 5-2.8 2.6-6.1 8.1-5 5.6 1.3 10.9 3.4 16.5 4.3 8.8 1.5 17.8-.1 26.8-.5 22.8-.9 46 6.3 68.4 1.8 7.7-1.6 15-4.5 22.4-7.4a8.3 8.3 0 003.4-2.3c9.6-11.6.5-10 4-12.4-13.7 4.5-29.7 9.6-44 9.6-8.4 0-16.7-1.6-25-2.5-17.4-2-34.9-1.4-52.2-.7-18.8.8-37.7 1.7-56.3 4.4-16.2 2.3-31 1.6-47.3 2.7-12.1.8-25.2 2.5-37 0v5.9c33.7 6.7 68.3 7.1 102 1.3z" fill="#98D4F4"/><path d="M190.5 187.1c.2-2.3 0-4.7-.4-7a18 18 0 00-1-3.3l-1.2-6.2c-4.5.1-9 0-13.3-.1-14.3-.7-28.6-1.6-43-2.7-7.5-.6-15-1.2-22.6-2.2a6.2 6.2 0 00-2.3 5.3v5.1l.3 28h84c.2-5.6 0-11.3-.5-16.9z" fill="#98D4F4"/><path d="M276 158.3c.3-4.4.2-9 1.3-13.2 1.8-6.8 9.4-12.5-2.6-11.8a78 78 0 00-16.4 4.3c-5 5.7-.9 9.7 2.1 16.7 1.7 4 1.6 8.4 1.5 12.7l-1 37h8.3c1.3-15.2 6-30.4 6.8-45.7zM158.5 178a7 7 0 00-1.7-4.4V167a7 7 0 00-6.9-7 6.3 6.3 0 00-5.6 3.1c-3.6-4.4-11.2-2.2-12 4.4-.9 7.8-1.5 15.7-1.9 23.6l-2 1.8c-1 1 .5 2.6 1.7 1.6l.2-.1-.2 9.6h30l-.3-2.6-1.3-23.3z" fill="#82C7E3"/><path d="M293.6 140.4c10.3-4.2 21.4-10.2 24.8-20.9a68.6 68.6 0 01-18.4 9.8c-7.6 2.2-34.3-1.4-35.7 8.4-2.1 15.7 23.9 4.8 29.3 2.7z" fill="#82C7E3"/><path d="M248 165.2c6-.9 12.8-2.6 14.2-7.3 1.8-5.8-7-12-3.9-17.5l41-8.2c10.2-2 22.5-6.2 22.3-14.6-.1-8-11.6-12.4-21.2-14.8A989.1 989.1 0 008.9 75.4L0 74.6v96.1l116 .7c44.2.2 88.8.4 132-6.2z" fill="#DBF7FF"/><path d="M44 152c30.4 4 61.5 4.4 92.4 4.7 26.5.3 53.2.5 79.3-1.9 6.3-.6 13.4-1.6 16.5-5 3-3.4.3-8.4-5.5-10-3.8-1-9.2-1.3-10-3.8l.1-2c-.2-2.8-5.2-4.2-9.4-4.7-14-1.7-28.4 0-42.5.8-19.8 1-39.7-.3-59.6-.4-18.9 0-38.2 1-55.4 5.9-5.4 1.5-9 3-11.8 6.3-3.9 4.8-3.8 8.8 6 10z" fill="#BFECFB"/><path d="M179.8 150.8h18.3a7.8 7.8 0 00-8-5.8l4.7-14.3c5-15.4 10.1-30.9 13.7-46.7-9 10.5-18 21.2-30.3 27.6-.2.1-.5.3-.5.6 0 .2.5.4.5.1 0 3-.2 6-.8 8.8-1.7 7.7-2.7 15.5-3 23.3l5.6 3.8c.6.4.2 1.8-.2 2.6z" fill="#F8E0D0"/><path d="M177.4 121.1c.6-2.9.9-5.8.8-8.8 0 .3-.5.1-.5-.1 0-.3.3-.5.5-.6a79.8 79.8 0 0021-17l7.9-4.7-3.2 12c-4.2 4-10.4 7-14 10.7-4 3.8-6.2 9-8.3 14l-7 16.9c.2-7.6 1.2-15 2.8-22.4z" fill="#F8D8BF"/><path d="M96.9 150.8h17c-1.5-3.7-4.5-6.7-12.2-7.8 3.9-9.2 10.5-19.5 12-29.4-8.8-2.6-14.8 1.3-22.8-3.2-2 11-4.6 21.2-6.7 32 6.8.3 10.7 2.1 12.7 8.4z" fill="#F8E0D0"/><path d="M90.8 110.6a103 103 0 0021.8 7.5c-.2 1.1-.6 2.2-1 3.3-2.7 0-5.7-.1-7.7 1.7-2.6 2.2-4.1 5.3-6 8a34.6 34.6 0 01-13 11.4h-.7c2.1-10.8 4.7-21 6.6-31.9z" fill="#F8D8BF"/><path d="M63.9 138.5l.3.6a406 406 0 005.9 11.7h28.3a.5.5 0 000-.6c-.2-2.8-3.6-5-5.8-6.2-2.2-1-4.5-1.6-6.8-1.9a73.2 73.2 0 007.8-28c2.6.8 4.3 2.8 6.9 3.5 4.7 1.3 9.5 2.5 14.3 3.4 3.3.7 6.5 1.3 9.8 1.8a76 76 0 0029.9.3c3.3-.8 3.3-1.7 4.5 1.2.8 2.1.5 5.5.7 7.7a643.1 643.1 0 001.8 14.6v2a1.3 1.3 0 00.3 1 1 1 0 00.7 1l.8.2h20.1a1.1 1.1 0 00.2-1.2c-1.3-3-4.6-5.2-8-6.5l.2-5.2 3.8-14.7 2.5-9.5 5-3a82 82 0 0021-19.6c4.6-6 10.1-13 12.4-20.5 1-1.8 1.7-3.8 2.2-5.8a1.4 1.4 0 002-.8 21.9 21.9 0 00-2.2-17.6c2-1 3.2-3.5 3.8-5.7a35.6 35.6 0 00-1.6-23h.2c2-.8 3.5-2.9 4.4-5 1-2.5 2-7.3.4-9.8a4.2 4.2 0 00-3.1-2 6 6 0 00-3-.3c-3 .7-5.6 2.5-7.4 5-6.6-6-13.5-6.2-23.2-5-5 .4-9.8 2.2-14 5a21.8 21.8 0 00-6-4.2c-2.7-1.3-5.5-.6-6.9 2.2a11.4 11.4 0 002.8 13.6c-2.7 2.7-4.7 4-6.5 9.5-.4 1.2-17.4 4.6-19.7 5a131 131 0 01-22.5 2.4c-8.6.1-17.3-.4-25.9.5-18.3 2-39.2 19-44.8 36.5a32 32 0 00-1.4 7.3c-1 12 4 25.2 6.9 36.4 2.2 8 5.1 16 8.8 23.5v.2z" fill="#FDFCFB"/><path d="M190.6 19.7c1.3-3.4 4-9.6 8.2-10.1 5-.6 8 5.1 9 9a53.3 53.3 0 011 14.6c0 1.6-.5 3.2-1.5 4.5-4.7 6.6-17.3 6.5-18.8-2.5-.7-5.3 0-10.6 2-15.5z" fill="#fff"/><path d="M182.4 21c1.2.4 1.5 2.8 1 4-.5 1.4-2.7 4.1-3.8 2a5 5 0 011-5.4c.7-.7 1.3-.8 1.8-.6zM215.3 22c-1.2.3-1.6 2.7-1.2 4 .4 1.3 2.4 4.2 3.7 2.1a5 5 0 00-.7-5.4c-.7-.7-1.3-1-1.8-.8z" fill="#4E4E4E"/><path d="M171.4 8a3 3 0 013 .2c.7.5 1.4 1.4.8 2.2l-.1.2-1.2 1.6c-.5.8-1.1 2.3-2.3 1.6-.4-.3-.7-.6-.9-1-.8-1.5-1-3.8.7-4.8zM223.7 8.1a3 3 0 00-3 .1c-.7.4-1.5 1.3-.9 2.2l.1.1 1 1.8c.5.8 1 2.3 2.3 1.6.4-.2.7-.5 1-.9.8-1.5 1.2-3.8-.5-4.9z" fill="#E9D5CF"/><path d="M194.3 33.2c0-.3.6-.2.7 0 .4.8 1 1.5 1.8 1.9l1.4.5v-1.9c0-1 .2-2 .4-3h.5c.2-.1.4 0 .5.1a18.6 18.6 0 01.3 4.8c.5 0 1-.2 1.4-.4.8-.5 1.4-1.1 1.8-1.9.2-.2.7-.2.7 0a2.5 2.5 0 01-1.4 2.7c-.8.4-2.4 1-3.4.7-1 .3-2.6-.3-3.3-.8a2.5 2.5 0 01-1.4-2.7z" fill="#4E4E4E"/><path d="M192.7 23.8l.2-.2a15 15 0 0112.8.3.7.7 0 01.4.7c0 3.7-3.2 7.3-6.6 8.4h-.9c-3.4-1.2-6.5-4.9-6.3-8.6a.7.7 0 01.4-.6z" fill="#4E4E4E"/><path d="M199.1 82.6c2-3.2 4-6.5 4.8-10.1l.4-3.2c.1-.6 1-.6 1 0 0 1.2-.2 2.2-.4 3.3 0 1.3.2 2.4 1.2 2 .7-.3 1.3-3.2 1.5-4l.3-1.7a12.9 12.9 0 01.1-2.6.5.5 0 01.3-.3.5.5 0 01.5.1.5.5 0 01.2.4v2.2c0 1 .1 1.9.4 2.8 2.6-3.4 2.8-7.7 2.5-11.9 0-.6 1-.6 1 0 0 .2.3 5.8 1.3 5.7a27.9 27.9 0 002.4-12.6c0-.6.9-.5.9 0a25 25 0 01-1.1 10c-.5 1.5-1 3.8-2.8 4a.5.5 0 01-.4-.3l-.4-.8c-.3 2.7-1.4 5.2-3.2 7.3a.5.5 0 01-.6 0l-.2-.1-.3-1c-.6 2.6-1.6 5-3.7 5a.5.5 0 01-.4-.2l-.3-1a33.8 33.8 0 01-4.5 7.7.5.5 0 01-.5-.3.5.5 0 010-.4zM190.7 89.4a22.3 22.3 0 004-9.4.5.5 0 01.9.3v4a102.1 102.1 0 003.3-5.8c.1-.1.5 0 .4.3-.5 2-1.8 6.3-4 6.8a.5.5 0 01-.7-.5v-.7c-.7 2-1.8 4-3.3 5.5a.4.4 0 01-.5 0l-.2-.2v-.3zM87.5 38.4l-1.5.5c-.5.1-1 .4-1.3.7a.4.4 0 00.3.7c.5 0 1-.2 1.4-.4l1.4-.8a.4.4 0 00-.3-.7zM97.8 38.4l-1.6.3a3 3 0 00-1.4.5.6.6 0 00.2 1c.5 0 1 0 1.5-.2l1.4-.5c.6-.2.6-1.1-.1-1zM88.6 43.4l-1-.1a5 5 0 00-1 .3c-.6.1-1.2.4-1.7.9a.4.4 0 00.2.7c.7 0 1.4 0 2-.4l.9-.3.8-.7c.1-.2 0-.4-.2-.4zM78.5 43c-.8 0-1.6.3-2.2.8a2.4 2.4 0 00-1.2 1.7c0 .2.2.5.4.4l1.4-1c.6-.4 1.1-.6 1.8-.7.6-.1.5-1.3-.2-1.2zM77 51.4l-1.4 1c-.5.2-1 .5-1.3 1-.2.3 0 .8.5.8.5-.2 1-.4 1.5-.8l1.5-1c.5-.5-.2-1.3-.8-1zM67.3 52c-.7.4-1.3 1-1.9 1.5-.2.4.2.9.6.8.7-.3 1.3-.7 1.9-1.2.6-.5 0-1.5-.6-1zM69.4 58.5c-.6 0-1 .4-1.4.7a2 2 0 00-.8 1.5.5.5 0 001 .3l.7-.9.9-.6c.6-.3.2-1.2-.4-1zM86.8 51.7a5 5 0 00-2.7 2.5.5.5 0 00.7.6l1.3-1.1 1.3-1c.7-.4.1-1.4-.6-1zM77.6 60.6l-1.3 1-1 1.3a.5.5 0 00.6.6 22.7 22.7 0 002.5-2 .6.6 0 10-.8-1zM63 60.4a3 3 0 00-1.8 1.1 2.6 2.6 0 00-.7 2c0 .3.5.5.7.1.5-1 1.2-1.7 2.1-2.3a.5.5 0 00-.4-.9zM108.5 37c-1-.2-2-.2-2.8 0a.5.5 0 00-.3.5v.3l.3.2c.9.3 1.8.4 2.8.2a.6.6 0 000-1.2zM105 41.7a10.5 10.5 0 00-2.8-.1.5.5 0 000 1c.5.1 1 .2 1.4.1h1.3c.5-.1.7-.9.2-1zM123 37c-1.3 0-2.8-.4-4 0a.6.6 0 000 1c1.1.5 2.7.2 4 .2a.6.6 0 000-1.2zM63.7 67.3l-1 1c-.4.2-.6.6-.8 1a.5.5 0 00.6.6c.4-.2.8-.4 1-.8l1-1a.5.5 0 000-.8.5.5 0 00-.8 0z" fill="#FFF1E0"/><path d="M219.7 57.9c0 2 .5 4.1.7 6.2a38.5 38.5 0 00.8 5.9.6.6 0 001-.3 17 17 0 00-1-12.2.8.8 0 00-1.5.4zM213.1 85.4zM217 69.4c-.2 3.7-1 7.4-2.7 10.8l1.9.5-1.2-6.6c-.1-.6-1.3-.7-1.5 0-.8 6-3.3 10.7-6.5 15.7-.5.8.6 1.4 1.2 1 4.7-4 7-10.5 6.8-16.5h-1.5a79.4 79.4 0 001 7.2 1 1 0 001.5-.3c2-3.6 2.5-7.9 1.7-12-.1-.3-.8-.2-.8.2zM204.5 88.6a52.3 52.3 0 00-5.7 8 .4.4 0 00.7.3c2.2-2.4 4.2-4.9 6-7.6.3-.5-.6-1.2-1-.7z" fill="#F8EADD"/><path d="M204.5 58.7l-.6 4.2c-.3 1.4-1 2.7-1.3 4.1-.1.8.9 1.6 1.4.9a10.4 10.4 0 001.3-9.2c-.1-.4-.8-.5-.8 0zM199 62.3c-.2 1.2-.1 2.4-.4 3.6-.3 1.2-.8 2.4-1 3.6 0 .8.7 1.4 1.4.8 1.8-1.8 2.4-5.9 1.2-8.1a.6.6 0 00-1.1.1zM193.4 70c-.2 2.1-1.2 4-1.5 6.1-.1.6.6 1.1 1 .6 1.7-1.7 1.9-4.5 1.7-6.7a.6.6 0 10-1.2 0zM188.2 61.6c-.6 2-.8 4-.6 6.2 0 .5.8.4 1 0 .5-2 .8-4 .7-6 0-.7-1-.9-1.1-.2zM185.8 78.5c-.2.8-.4 1.7-.4 2.5-.1.9 0 1.7.1 2.6.2.6 1.2.9 1.6.2.2-.9.4-1.7.3-2.6 0-1 0-1.8-.3-2.7a.7.7 0 00-1.3 0zM180.5 54.7v1.7c-.1.5 0 1 .1 1.5a.6.6 0 00.5.3.6.6 0 00.5-.3l.3-1.5v-1.7a.7.7 0 00-1.2-.5l-.2.5zM175.2 53.2c.1 1.8 0 3.4.9 5a.5.5 0 001-.1c.2-1.8-.5-3.3-1-5-.2-.4-1-.4-.9.1zM168.2 44c-.2 2.3-.2 4.4 1.2 6.3a.5.5 0 00.7.2.5.5 0 00.3-.6 47.2 47.2 0 01-1.3-6.2.6.6 0 00-1 .4zM180.8 66.3c.3.2.6.6.6 1l.3 1.2a.4.4 0 00.6.2 1.7 1.7 0 00.5-1.7c-.2-.7-.5-1.3-1-1.7-.7-.6-1.7.4-1 1z" fill="#FFF1E0"/><path d="M116.3 120.9c-3.5-1.4-7.2-2-10.7-3-4-1.1-7.8-2.7-11.4-4.7a52.9 52.9 0 01-17.7-14c-.3-.5-1 0-.8.6 3.9 6.8 11.5 10.3 17.8 14.5a49.7 49.7 0 0022.7 7c.3 0 .3-.4 0-.4zM158.4 96c.3-.2.7.3.5.6-1.7 2.4-3.5 4.4-4.4 7.4-.8 2.7-1 5.6-.4 8.3l.8-1.2c.3-.8.5-1.6.9-2.3a.5.5 0 111 .3 11 11 0 01-.8 2.2c-.6 2.2-.7 4.5-.1 6.8l.3-1c.1-.6 1-.8 1-.1.5 2.4 1.1 4.8 2 7 .2.5-.6.8-.8.4-.7-1.7-1.3-3.5-1.7-5.3l-.5.9a.5.5 0 01-1-.2c-.6-2-.9-4.1-.7-6.2l-.3.3a.5.5 0 01-.5.1.5.5 0 01-.3-.4c-1.6-5.8-.3-13.9 5-17.6z" fill="#F8EADD"/><path d="M200.6 54.5l-.7 2.1c-.3.6-.5 1.3-.4 2a.7.7 0 001 .3 4 4 0 00.9-1.9l.5-2.2a.7.7 0 00-1.3-.3zM187 71.7c-.3 1-.4 2-.2 2.9a.5.5 0 00.9 0c.2-1 .2-2-.1-2.8 0-.2-.4-.3-.5 0zM190.7 79.4c-.3.7-.5 1.4-.6 2.2-.3.7-.4 1.5-.5 2.2 0 .4.5.6.8.4a5 5 0 001.2-4.7.5.5 0 00-.4-.3.5.5 0 00-.5.2zM187.3 88.7c0 1.3-.5 2.8-.1 4a.6.6 0 001.1.2c.8-1.1.7-3 .6-4.2a.8.8 0 00-1.6 0zM192.5 57.4l-.2 1.9c-.2.6-.3 1.3-.2 1.9a.8.8 0 001 .4 2.9 2.9 0 001.1-2c.1-.8 0-1.7-.3-2.4a.8.8 0 00-1.4.2zM169 55l.6 2c.2.7.5 1.3.9 1.9a.7.7 0 001-.3c.5-1.4-.5-3-1.1-4.2-.4-.8-1.8-.3-1.5.6zM163 36.1a8.7 8.7 0 000 5.4.6.6 0 00.6.2.6.6 0 00.5-.4c.3-1.7.2-3.4 0-5-.2-.6-1-.9-1.2-.2z" fill="#FFF1E0"/><path d="M183.4 101.3A60 60 0 00219 68.1l3-.8-1.5 3.3c-2.3 7.5-7.8 14.5-12.3 20.5a82 82 0 01-21 19.6l-4.4 2.3c.2-3.7 1.3-8 .6-11.7z" fill="#F8EADD"/><path d="M161.8 27c.3-.6 1.1 0 .8.5a19.6 19.6 0 00-1.3 14.5c1 4.1 2.3 8.9 4.4 12.5 4 6.7 12.5 11 14.2 19a.6.6 0 01-.2.5.6.6 0 01-.5.1l-1.4-.5c3.1 3.2 6.3 6.5 6.3 11.3a.6.6 0 01-.4.5.6.6 0 01-.5-.1l-.6-.6c1.2 2.5 2.2 5 3 7.6.7 2 1.4 4 0 5.8a.6.6 0 01-1-.1l-.7-1.3c.6 4.3.7 14-1.5 17.7-.2.5-.1-3.5 0-4A32.4 32.4 0 00182 93a.6.6 0 011-.4l2.1 3.8c.7-2.2-1.2-6-1.9-7.6a56 56 0 00-3-6.2c-.3-.6.4-1 .9-.7l1.8 1.6c-.6-4.9-5-8-8-11.6-.5-.5 0-1.2.6-.9 1 .7 2 1.2 3 1.6-1.4-4.6-5.9-8.8-9.1-12.2a25.8 25.8 0 01-6.2-9c-2.9-7.7-6-17-1.4-24.5zM218 9.6c4.8 2.6 6.5 10.4 8 15.2 0 .3.6.3.5 0a28 28 0 00-3-9.5c-1.2-2.3-2.6-5.5-5.3-6.2a.3.3 0 00-.3.1.3.3 0 000 .4zM179.5 5.3a31.2 31.2 0 00-3.8 4 23.2 23.2 0 00-3 4.3.3.3 0 00.5.1c1.2-1.3 2.4-2.7 3.5-4.2 1-1.3 2.3-2.5 3.2-3.8.2-.3-.2-.6-.4-.4zM207.7 3.4c-.1.5-.2 1-.4 1.3L207 6a.4.4 0 00.2.4.4.4 0 00.5 0c.8-.5 1-2 1-2.9a.4.4 0 00-1 0zM202 1c-.2.3-.5.5-.5 1a.5.5 0 00.3.4.5.5 0 00.5 0c.4-.3.4-.6.5-1 .1-.4-.5-.8-.8-.4zM203.7 6a6 6 0 00-.4 1.6v.6a.4.4 0 00.4.2.4.4 0 00.3 0l.4-.5.1-.5.2-1.2a.5.5 0 00-.4-.6.5.5 0 00-.6.4zM196.6 1l-.3 1.4c0 .4 0 .8.2 1.2a.5.5 0 00.8 0c.5-.6.2-1.7 0-2.4 0-.5-.7-.7-.8-.2zM190.2 3.2c-.1.5 0 1 .1 1.6a.5.5 0 00.8.2l.2-.2c.2-.5.3-1 .2-1.6a.6.6 0 00-1.1-.4l-.2.4zM193.3 7.3c-.1.5 0 1 0 1.6.2.5.5 1 1 1.3a.5.5 0 00.7-.5 8.9 8.9 0 01-.5-2.3c0-.6-1-.8-1.2-.1z" fill="#F8EADD"/><path d="M116.2 42.1a9.8 9.8 0 00-4 .1.5.5 0 00-.3.5.5.5 0 00.3.5c1.3.4 2.7.5 4 .3a.7.7 0 000-1.4zM54.9 65a6.6 6.6 0 00-2.6 4.4c0 .4.6.7.9.3l1.1-2 1.2-2.2a.4.4 0 00-.6-.5zM56 71a3.1 3.1 0 00-1.1 3.4c.1.3.4.2.6 0l.6-1.3.7-1.4a.6.6 0 00-.9-.7z" fill="#FFF1E0"/><path d="M167.4 30.8a.3.3 0 000-.6.3.3 0 000 .6z" fill="#F8EADD"/><path d="M220 47.9a.4.4 0 00-.3 0 45.3 45.3 0 01-30.7 3.7c-4.2-.9-8.2-2.8-11.5-5.5a28.5 28.5 0 01-8.1-9.7 1 1 0 00-.2.6l-.2.5c-1-3-.5-6.2.1-9.5.2-.6-.8-1.2-1.1-.5-.3.7-.7 1.4-1.2 2 .2-2.1.9-4.1 2-5.9.1-.3-.3-.6-.6-.4-1.8 2.3-2.7 5-2.7 7.9a.6.6 0 00.9.5c-.5 1.4-.7 3-.6 4.4a36.3 36.3 0 000 5 .6.6 0 00.9 0c.5-.8.9-1.7 1.2-2.5l.2.5v1.1c-.1.6 0 1.1.3 1.6l.6 1.2a.4.4 0 00.3.2.5.5 0 00.3-.2c.5 1.2 1.1 2.2 2 3.2-.1 1.3.2 2.6 1 3.7a.5.5 0 00.4.2l.1.3c.2.5 1 .3 1-.2l.1-.1a.4.4 0 00.3-.4v-.4V48h.2a.5.5 0 00.5-.3l1 .7c1 1 2.4 1.8 3.8 2.3 9.6 7 27.3 9.4 38.4-.7l1.6-2.2z" fill="#F8EADD"/><path d="M185.7 56.8c-.6.5-.4 1.3-.4 2s0 1.5.2 2.3a.5.5 0 001 0c.2-.8.3-1.6.2-2.3 0-.7.2-1.5-.4-2a.5.5 0 00-.6 0zM178.2 60.7c0 1 .3 2 .6 3a.4.4 0 00.4.4.4.4 0 00.4-.4c0-1-.2-2.1-.6-3.1 0-.4-.8-.4-.8 0zM132 35.4h-1.4c-.5 0-1 0-1.6-.2a.7.7 0 00-.3 1.3c1 .3 2.7.5 3.5-.4a.5.5 0 00-.2-.7zM129.8 39.6a8.8 8.8 0 00-3.9 0 .5.5 0 000 1c1.3.2 2.6.2 3.9-.1a.5.5 0 000-.9zM141.5 33.2c-.4-.2-1-.2-1.4 0-.5 0-1 .2-1.4.4-.3.2-.3.9.1 1 .5 0 1 0 1.5-.2.5 0 1-.2 1.4-.5a.4.4 0 00.1-.4.4.4 0 00-.3-.3zM51.2 78.4c0-.2 0-1.7-.6-1.3-.7.4-.5 1.3-.5 2-.1 1 0 2.1.1 3.1a.5.5 0 00.9 0c.2-1.3.3-2.5.1-3.8zM57.7 80.9a.4.4 0 00-.7 0 16 16 0 00.2 4.5.3.3 0 00.4-.2 16 16 0 000-4.3zM53.5 90.3l-.3-2.1c0-.4-.6-.6-.7-.1-.3 1.5-.1 3 .4 4.5.2.4.8.2.8-.2 0-.7 0-1.4-.2-2.1z" fill="#FFF1E0"/><path d="M88.2 148.2l1 1.2.8 1.4c.3.6 1.2.2 1-.5a5 5 0 00-2.2-3 .6.6 0 00-.6 1zM91.4 146.8c1.1.1 1.8 1.1 2.2 2.1.4.8.9 2 1.8 2.2.4 0 .8-.2.6-.7l-1-1.6-1-1.6a2.7 2.7 0 00-2.6-1.3c-.4.1-.5.8 0 .9zM173 147.5c.7.4 1.3 1 1.8 1.5.5.6.7 1.4 1.2 2 .4.4.9 0 1-.4 0-.8-.7-1.8-1.2-2.4a4.2 4.2 0 00-2.3-1.5c-.4 0-.8.5-.4.8zM175.9 146.3a8 8 0 012.6 1.5c.8.8 1.3 1.9 1.3 3 0 .8 1.4.8 1.3 0a6.1 6.1 0 00-3.1-4.9c-.6-.3-1.2-.4-2-.5-.3 0-.6.7-.1.9zM157.1 120.3l-.6-2.2a2.8 2.8 0 01-1.7-2.7l.2-1.2a3 3 0 01-1.3-2.4v-2.6c-4.4.8-8.9 1.2-13.4 1.2-5.4.2-10.7.3-16.1.2-1.5-.7-2.9-1.6-4.1-2.7l-1.8-1.9a.6.6 0 00-1 .4l.2.4 1.4 1.6 1.6 2.1h-1.8l-2.1-.9c-.6-.5-1.3-1-1.8-1.7-1.5-1.4-2.8-3-4.4-4.3-.3-.3-.8.1-.6.5 1 1.4 2 2.7 3.2 4a10 10 0 01-.2 2.5.9.9 0 01-.5.5h-.4c-2.5-.5-8.8-1.5-12-5.8l-.2-.2-2.9-3.7c-.2-.3-1-.1-.8.4.4.9 2.7 4.6 3.4 5l2 2.4-3-.2c-1.5-.4-2.8-1-4-1.7-.8-.7-1.6-1.3-2.2-2-.5-.6-1.4 0-1 .7l1 1.8c-2.5-1-4.4-3.5-6.5-5a.5.5 0 00-.7.5.6.6 0 00-.3.4.6.6 0 00.1.4l.5.9-1-1.5c-.2-.4-1-.1-.8.4a12 12 0 002.4 3.9l-1.6-.2c.4 1.2 3 2.8 5.3 4.3 9 6.2 20 8.6 30.6 10.2 11.4 1.7 22.9 3.6 34.3 1 2-.5 2.8-1 3.3-.7l.5-.5c-.6-.4-1-1-1.2-1.6z" fill="#F8EADD"/><path d="M93.3 101.8h.1a.2.2 0 000-.4l-.2.1a.2.2 0 00.1.3z" fill="#F8EADD"/></g><defs><clipPath id="clip0"><path fill="#fff" d="M0 0h321.8v204H0z"/></clipPath></defs></svg>