<svg width="485" height="282" fill="none" xmlns="http://www.w3.org/2000/svg"><path d="M328 54h-14c-20 0-37 16-38 36h90c-1-20-17-36-38-36zM172 54h-15c-20 0-36 16-37 36h89c0-20-17-36-37-36z" fill="#00A6CC"/><path d="M428 168c0 5-3 8-6 10-14 4-46 15-62 17-6 1-10-3-10-9v-27c0-5 4-10 9-10l60-6c5 0 9 4 9 9v16zM243 95H100c-3 0-5-4-3-7l30-62c2-5 7-8 12-8h208c5 0 10 3 12 8l30 62c1 3 0 7-3 7H243zm79 70l-9 25c-1 3-4 5-7 5H180c-4 0-6-2-7-5l-9-25c-2-4 2-9 7-9h144c5 0 8 5 7 9zm-186 21c0 6-5 10-10 9-16-2-48-13-62-17-4-2-6-5-6-10v-16c0-5 4-9 9-9l60 6c5 0 9 5 9 10v27zM474 70h-69L374 8c-3-5-7-8-12-8H124c-5 0-10 3-12 8L81 70H12c-17 0-10 33-10 33 4 11 38 13 55 14-12 12-28 28-28 45v52c0 12 6 23 15 28v24c0 8 7 15 14 15h64c8 0 14-7 14-15v-29c71 7 142 7 214 0v29c0 8 6 15 14 15h64c7 0 13-7 13-15v-24c10-5 16-16 16-28v-52c0-17-16-33-29-45 17-1 52-3 55-14 0 0 8-33-9-33" fill="#062E1A"/></svg>