<svg width="451" height="417" fill="none" xmlns="http://www.w3.org/2000/svg"><path d="M206 123c0 5-3 9-7 9H60c-5 0-8-4-8-9v-5c0-5 3-9 8-9h139c4 0 7 4 7 9v5zM65 70c0-5 4-9 8-9h112c5 0 8 4 8 9v4c0 5-3 9-8 9H73c-4 0-8-4-8-9v-4zM25 39v123c0 8 6 15 13 15h183c6 0 12-7 12-15V39c0-8-6-15-12-15H38c-7 0-13 7-13 15z" fill="#00A6CC"/><path d="M238 167c0 9-6 15-13 15H33c-7 0-12-6-12-15V34c0-9 5-15 12-15h192c7 0 13 6 13 15v133zM451 41l-28 1c-9 0-18 3-27 8l-4 3-1-3c-2-3-6-5-9-3l-58 38c-3 1-4 6-3 9l3 6c-8 8-13 20-13 32v58c0 8-5 14-12 14-6 0-12-6-12-14V98c0-19-13-35-29-35V15c0-8-5-15-12-15H12C6 0 0 7 0 15v171c0 8 6 15 12 15h11l11 175h-6c-11 0-20 9-23 21l-3 10c-1 5 2 9 6 9h243c4 0 6-4 5-9l-2-10c-3-12-13-21-24-21h-6l11-175h11c7 0 12-7 12-15V83c7 0 12 7 12 15v92c0 19 13 34 29 34s29-15 29-34v-58c0-5 2-10 4-14l3 6c2 4 5 5 8 3l39-24c3-2 5-6 7-9l7-18c2-4 2-9 0-13l5-3c7-5 14-7 22-7l28-1V41" fill="#062E1A"/></svg>