<svg width="406" height="417" fill="none" xmlns="http://www.w3.org/2000/svg"><path d="M332 301c-18 0-32-12-32-27s14-28 32-28 32 13 32 28-14 27-32 27zm-97 16c-8 0-14-9-14-19 0-11 6-20 14-20s14 9 14 20c0 10-6 19-14 19zm101-136c12 0 22 7 22 16 0 8-10 16-22 16-11 0-21-8-21-16 0-9 10-16 21-16zm-158 65c-17 0-31-11-31-25 0-13 14-24 31-24s31 11 31 24c0 14-14 25-31 25zm5 93c-6 6-20 1-30-10s-13-25-8-30c6-6 20-1 30 10 10 12 14 25 8 30zm-82-82c-5 6-16 5-26-2s-14-17-10-23c5-6 16-5 26 2 9 7 14 17 10 23zM50 360c-17 0-30-10-30-22 0-13 13-23 30-23 16 0 30 10 30 23 0 12-14 22-30 22zm339-239l-22 5a25 25 0 01-46 12l-103 27c-4 9-11 16-20 16-6 0-11-3-15-7L11 218c-3 1-6 0-8-2v22c8 4 13 11 13 19s-5 15-13 19v116c0 16 15 28 31 23l53-15c5-15 18-27 34-27 10 0 19 4 25 11l240-67c12-3 19-14 19-25v-44c-13-4-22-13-22-24 0-10 9-19 22-23v-89c-2 6-14 8-16 9" fill="#00A6CC"/><path d="M11 209l165-43 44-11 97-26 46-11 26-7c14-4 21-19 14-32-9-18-28-43-63-59-17-9-36-13-36-13-23-6-51-8-85-6l-29 3c-9 1-17 6-23 13l-50 54-26 27-89 96c-5 7 1 17 9 15" fill="#062E1A"/></svg>