<svg width="522" height="433" fill="none" xmlns="http://www.w3.org/2000/svg"><path d="M306 178c-16-8-31-15-43-19v1c0 8-2 14-7 20l38 21c38 19 72 29 75 23 3-7-25-27-63-46M230 127l10 1c2-13 3-31 3-50 0-43-6-78-13-78s-13 35-13 78c0 19 1 37 3 50l10-1M197 160v-2c-13 4-30 11-48 20-38 19-66 39-63 46 4 6 37-4 75-23l41-23c-3-5-5-11-5-18" fill="#00A6CC"/><path d="M230 170a10 10 0 110-20 10 10 0 010 20zm0-39a29 29 0 100 58 29 29 0 000-58zM387 274l17-29c-6-1-10-3-14-7l-19 25c-17 25-28 48-23 51 4 3 22-15 39-40zM431 224l-2 7c9 3 22 6 36 8 30 4 55 3 56-2 1-6-23-13-54-17l-36-3v7zM410 197l2 1c-2-10-5-23-10-36-9-29-22-51-27-50-5 2-1 27 9 56l13 31 13-2" fill="#00A6CC"/><path d="M400 220a7 7 0 1114 2 7 7 0 01-14-2zm28 4a21 21 0 10-42-6 21 21 0 0042 6" fill="#00A6CC"/><path d="M230 193l-9-2-8 242h34l-8-242-9 2M413 244l-6 1-7 13-5 175h24l-6-189z" fill="#062E1A"/><path d="M41 274l17-29c-6-1-10-3-14-7l-19 25C8 288-3 311 2 314c4 3 22-15 39-40zM64 197l2 1c-2-10-5-23-10-36-10-29-22-51-27-50-5 2-1 27 9 56l13 31 13-2" fill="#00A6CC"/><path d="M54 220a7 7 0 1114 2 7 7 0 01-14-2zm28 4a21 21 0 10-42-6 21 21 0 0042 6" fill="#00A6CC"/><path d="M67 244l-6 1-7 13-5 175h24l-6-189" fill="#062E1A"/><path d="M124 220c-20 7-35 10-40 7l-2 4 36 8c31 4 56 3 57-2s-22-13-51-17" fill="#00A6CC"/></svg>