<svg width="381" height="420" fill="none" xmlns="http://www.w3.org/2000/svg"><path d="M93 58H10a10 10 0 010-21h83v21z" fill="#00A6CC"/><path d="M214 138a5 5 0 11-10 0V35a5 5 0 0110 0v103zm151 121c-5-10-12-19-18-27-7-10-14-19-18-30-4-10-5-22-3-33 0-5 1-8 3-10 2-5 7-9 13-13l25-17-9-16-4-6-2-5-28 19c-9 6-17 13-22 23-3 5-5 12-7 19-3 17-1 35 5 51 6 14 14 25 22 36a124 124 0 0127 76c1 20-2 34-9 42-3 4-7 7-12 10-17 10-35 13-49 7-15-6-27-25-28-46v-6l-1-8h1l3-3c0-2-1-3-3-3h-14v-8h16c1 0 3-1 3-3s-1-3-3-3h-16v-8h16c1 0 3-1 3-3 0-1-1-3-3-3h-16v-8h16l3-2c0-2-1-4-3-4h-16v-8h16l3-2c0-2-1-3-3-3h-16v-8h16c1 0 3-1 3-3s-1-3-3-3h-16v-8h19V44c0-6-3-11-7-15L222 6c-4-4-9-5-13-5h-96c-8 0-14 6-14 14v142c0 8 6 14 14 14h85c8 0 15 7 15 15v56h18v8h-15c-2 0-3 1-3 2 0 2 1 4 3 4h15v8h-15c-2 0-3 1-3 2 0 2 1 3 3 3h15v8h-15c-2 0-3 1-3 3s1 3 3 3h15v8h-15c-2 0-3 1-3 3 0 1 1 3 3 3h15v8h-15c-2 0-3 1-3 3 0 1 1 3 3 3h15v8h-14l-3 2c0 2 2 4 3 4h2l1 9v7c2 33 21 62 48 73 8 3 17 5 26 5a98 98 0 0069-31c13-14 19-35 18-63-1-26-7-48-16-66" fill="#062E1A"/></svg>