<svg xmlns="http://www.w3.org/2000/svg" version="1.1" id="Layer_1" x="0" y="0" xml:space="preserve" width="441.5" height="350.6"><style type="text/css" id="style833">.st1{fill:#010101}.st8{fill:#fff}</style><g id="g947" transform="translate(-116.9 -79.4)"><g id="g915"><g id="g913"><path d="M371.6 242.1l-114-97.1c30-35.3 71.4-53.8 117.8-52.6z" id="path911" fill="#aed580"/></g></g><g id="g921"><g id="g919"><path d="M371.6 242.1l-123.3 85a146.9 146.9 0 019.3-182.2z" id="path917" fill="#9ccc65"/></g></g><g id="g927"><g id="g925"><path d="M371.6 242.1l-82.5 125.1a144 144 0 01-40.8-40z" id="path923" fill="#7cb342"/></g></g><g id="g933"><g id="g931"><path d="M371.6 242.1l6.8 149.7a143.8 143.8 0 01-89.3-24.6z" id="path929" fill="#679f42"/></g></g><g id="g939"><g id="g937"><path d="M371.6 242.1l149.7-6.8a150 150 0 01-142.9 156.5z" id="path935" fill="#568b3e"/></g></g><g id="g945"><g id="g943"><path d="M371.6 242.1l3.7-149.8c79.4 2 142.4 63.7 146 143z" id="path941" fill="#346a34"/></g></g></g><g id="g955" transform="translate(-116.9 -79.4)"><path class="st8" d="M434.1 311.5c.2-.5.4-1 .8-1.4.4-.4.8-.7 1.3-.9.5-.2 1.1-.3 1.8-.3l1.4.2c.5.2.9.4 1.2.7l.8 1.1c.2.4.3.9.3 1.5s-.1 1-.3 1.4l-.7 1.1-1 .8-1.1.8-1.1.8c-.4.3-.7.6-.9 1h5.2v1.9h-8.1c0-.6.1-1.2.3-1.7.2-.5.4-.9.8-1.3l1.1-1 1.4-1 .8-.5.8-.6.6-.7c.2-.3.2-.6.2-.9 0-.5-.2-1-.5-1.3-.3-.3-.7-.5-1.2-.5l-.8.2-.5.6-.3.8-.1.9h-2.1a2 2 0 01-.1-1.7z" id="path949"/><path class="st8" d="M445.6 310.9l-.4 2.5 1-.7a3.7 3.7 0 012.7.1l1.1.8c.3.3.5.7.7 1.2.2.5.2.9.2 1.5s-.1 1.1-.3 1.6a3.8 3.8 0 01-2.2 2.1c-.5.2-1 .3-1.6.3l-1.5-.2c-.5-.1-.9-.4-1.3-.7-.4-.3-.7-.7-.9-1.1l-.4-1.5h2.2c.1.5.2.9.6 1.2.3.3.7.5 1.2.5l.8-.2.6-.5.4-.7.1-.8-.1-.8-.4-.7-.6-.4-.8-.2-1 .2c-.3.1-.5.4-.7.7h-2l1.1-6.1h6.2v1.8h-4.7z" id="path951"/><path class="st8" d="M451.9 310.7l.5-1 .8-.7c.3-.2.7-.2 1.2-.2s.9.1 1.2.3l.8.7.4 1 .1 1.2-.2 1.2a2 2 0 01-.5.9c-.2.3-.5.5-.8.6a3.7 3.7 0 01-2.4 0l-.8-.6c-.2-.3-.4-.6-.4-1l-.1-1.2c0-.4 0-.8.2-1.2zm1.4 1.9l.1.6.3.5.6.2.6-.2.3-.5.1-.6v-.6-.6l-.1-.7-.3-.5a.8.8 0 00-.5-.2l-.6.2c-.1.1-.3.3-.3.5l-.1.6v.6l-.1.7zm9.1-3.9l-6.5 11.7h-1.4l6.5-11.7zM460 316l.5-1c.2-.3.5-.5.8-.6.3-.2.7-.2 1.2-.2l1.2.2.8.7.4 1 .1 1.2-.2 1.2-.5 1c-.2.3-.5.5-.8.6-.3.2-.7.2-1.2.2l-1.2-.2-.8-.7c-.2-.3-.4-.6-.4-1l-.1-1.2.2-1.2zm1.5 1.8l.1.6.3.5.6.2.6-.2.3-.5.1-.6v-.6-.6l-.1-.6-.3-.5a.8.8 0 00-.5-.2l-.6.2c-.1.1-.3.3-.3.5l-.1.6v.6l-.1.6z" id="path953"/></g><g id="g963" transform="translate(-116.9 -79.4)"><path class="st8" d="M432.3 164.8c.2-.5.4-1 .8-1.4.4-.4.8-.7 1.3-.9.5-.2 1.1-.3 1.8-.3l1.4.2c.5.2.9.4 1.2.7l.8 1.1c.2.4.3.9.3 1.5s-.1 1-.3 1.4l-.7 1.1-1 .8-1.1.8-1.1.8c-.4.3-.7.6-.9 1h5.2v1.9h-8.1c0-.6.1-1.2.3-1.7.2-.5.4-.9.8-1.3l1.1-1 1.4-1 .8-.5.8-.6.6-.7c.2-.3.2-.6.2-.9 0-.5-.2-1-.5-1.3-.3-.3-.7-.5-1.2-.5l-.8.2-.5.6-.3.8-.1.9h-2.1c-.4-.5-.3-1.1-.1-1.7z" id="path957"/><path class="st8" d="M440.6 170.9v-2.1l4.8-6.4h2v6.7h1.5v1.8h-1.5v2.6h-2.1v-2.6zm4.6-5.7l-2.9 3.8h2.9z" id="path959"/><path class="st8" d="M449.6 164l.5-1 .8-.7c.3-.2.7-.2 1.2-.2s.9.1 1.2.3l.8.7.4 1 .1 1.2-.2 1.2a2 2 0 01-.5.9c-.2.3-.5.5-.8.6a3.7 3.7 0 01-2.4 0l-.8-.6c-.2-.3-.4-.6-.4-1l-.1-1.2.2-1.2zm1.4 1.9l.1.6.3.5.6.2.6-.2.3-.5.1-.6v-.6-.6l-.1-.7-.3-.5a.8.8 0 00-.5-.2l-.6.2c-.1.1-.3.3-.3.5l-.1.6v.6l-.1.7zm9.1-3.9l-6.5 11.7h-1.4l6.5-11.7zm-2.4 7.3l.5-1c.2-.3.5-.5.8-.6a3.7 3.7 0 012.4 0l.8.7.4 1 .1 1.2-.2 1.2-.5 1c-.2.3-.5.5-.8.6-.3.2-.7.2-1.2.2l-1.2-.2-.8-.7c-.2-.3-.4-.6-.4-1l-.1-1.2.2-1.2zm1.5 1.8l.1.6.3.5.6.2.6-.2.3-.5.1-.6v-.6-.6l-.1-.6-.3-.5a.8.8 0 00-.5-.2l-.6.2c-.1.1-.3.3-.3.5l-.1.6v.6l-.1.6z" id="path961"/></g><g id="g969" transform="translate(-116.9 -79.4)"><path class="st8" d="M288.5 318.6c-.3-.3-.6-.4-1-.4s-.7.1-1 .4c-.3.2-.5.5-.6.9a2 2 0 00-.3 1.1l-.1 1c.3-.4.7-.8 1.1-.9.4-.2.9-.3 1.4-.3.5 0 .9.1 1.4.3.5.2.8.5 1.2.8.3.3.5.7.6 1.2l.2 1.3c0 .6-.1 1.1-.3 1.6-.2.5-.4.9-.8 1.3-.3.4-.8.6-1.2.9a4.6 4.6 0 01-3.7-.2 4 4 0 01-1.3-1.3c-.3-.5-.6-1.1-.7-1.8a15 15 0 01-.2-2.1l.2-2.1c.2-.7.4-1.3.8-1.9.3-.6.8-1 1.3-1.4a4 4 0 012-.5l1.3.2c.4.1.8.3 1.1.6l.8 1 .4 1.3H289c-.1-.4-.2-.8-.5-1zm-1.9 3.6l-.6.4c-.1.2-.3.4-.3.7l-.1.8.1.8.3.7c.2.2.3.4.6.5l.8.2a1.4 1.4 0 001.2-.7l.3-.6.1-.7-.1-.8-.3-.7-.5-.5-.8-.2c-.2-.1-.4 0-.7.1z" id="path965"/><path class="st8" d="M292.7 318.4l.5-1 .8-.7c.3-.2.7-.2 1.2-.2s.9.1 1.2.3l.8.7.4 1 .1 1.2-.2 1.2a2 2 0 01-.5.9c-.2.3-.5.5-.8.6a3.7 3.7 0 01-2.4 0l-.8-.6c-.2-.3-.4-.6-.4-1l-.1-1.2.2-1.2zm1.5 1.8l.1.6.3.5.6.2.6-.2.3-.5.1-.6v-.6-.6l-.1-.7-.3-.5a.8.8 0 00-.5-.2l-.6.2c-.1.1-.3.3-.3.5l-.1.6v.6c-.2.3-.1.5-.1.7zm9-3.9l-6.5 11.7h-1.4l6.5-11.7zm-2.4 7.4l.5-1c.2-.3.5-.5.8-.6.3-.2.7-.2 1.2-.2l1.2.2.8.7.4 1 .1 1.2-.2 1.2-.5 1c-.2.3-.5.5-.8.6-.3.2-.7.2-1.2.2l-1.2-.2-.8-.7c-.2-.3-.4-.6-.4-1l-.1-1.2.2-1.2zm1.5 1.8l.1.6.3.5.6.2.6-.2.3-.5.1-.6v-.6-.6l-.1-.6-.3-.5a.8.8 0 00-.5-.2l-.6.2c-.1.1-.3.3-.3.5l-.1.6v.6l-.1.6z" id="path967"/></g><g id="g977" transform="translate(-116.9 -79.4)"><path class="st8" d="M315.8 148.2V141H313v-1.7l1.1-.1a3 3 0 001-.4l.7-.7.4-1.1h1.8v11.1h-2.2z" id="path971"/><path class="st8" d="M319.9 145.7v-2.1l4.8-6.4h2v6.7h1.5v1.8h-1.5v2.6h-2.1v-2.6zm4.7-5.7l-2.9 3.8h2.9z" id="path973"/><path class="st8" d="M328.9 138.9l.5-1 .8-.7c.3-.2.7-.2 1.2-.2s.9.1 1.2.3l.8.7.4 1 .1 1.2-.2 1.2a2 2 0 01-.5.9c-.2.3-.5.5-.8.6a3.7 3.7 0 01-2.4 0l-.8-.6c-.2-.3-.4-.6-.4-1l-.1-1.2.2-1.2zm1.5 1.8l.1.6.3.5.6.2.6-.2.3-.5.1-.6v-.6-.6l-.1-.7-.3-.5a.8.8 0 00-.5-.2l-.6.2c-.1.1-.3.3-.3.5l-.1.6v.6l-.1.7zm9.1-3.9l-6.5 11.7h-1.4l6.5-11.7zm-2.4 7.3l.5-1c.2-.3.5-.5.8-.6.3-.2.7-.2 1.2-.2l1.2.2.8.7.4 1 .1 1.2-.2 1.2-.5 1c-.2.3-.5.5-.8.6-.3.2-.7.2-1.2.2l-1.2-.2-.8-.7c-.2-.3-.4-.6-.4-1l-.1-1.2.2-1.2zm1.5 1.8l.1.6.3.5.6.2.6-.2.3-.5.1-.6v-.6-.6l-.1-.6-.3-.5a.8.8 0 00-.5-.2l-.6.2c-.1.1-.3.3-.3.5l-.1.6v.6l-.1.6z" id="path975"/></g><g id="g985" transform="translate(-116.9 -79.4)"><path class="st8" d="M252.2 234.5c.2-.5.4-1 .8-1.4.4-.4.8-.7 1.3-.9.5-.2 1.1-.3 1.8-.3l1.4.2c.5.2.9.4 1.2.7l.8 1.1c.2.4.3.9.3 1.5s-.1 1-.3 1.4l-.7 1.1-1 .8-1.1.8-1.1.8c-.4.3-.7.6-.9 1h5.2v1.9h-8.1c0-.6.1-1.2.3-1.7.2-.5.4-.9.8-1.3l1.1-1 1.4-1 .8-.5.8-.6.6-.7c.2-.3.2-.6.2-.9 0-.5-.2-1-.5-1.3-.3-.3-.7-.4-1.2-.4l-.8.2-.5.6-.3.8-.1.9H252c-.1-.7 0-1.3.2-1.8z" id="path979"/><path class="st8" d="M263.9 243.1v-7.2h-2.8v-1.7l1.1-.1a3 3 0 001-.4l.7-.7.4-1.1h1.8V243h-2.2z" id="path981"/><path class="st8" d="M268.7 233.7l.5-1 .8-.7c.3-.2.7-.2 1.2-.2s.9.1 1.2.3l.8.7.4 1 .1 1.2-.2 1.2a2 2 0 01-.5.9c-.2.3-.5.5-.8.6a3.7 3.7 0 01-2.4 0l-.8-.6c-.2-.3-.4-.6-.4-1l-.1-1.2.2-1.2zm1.4 1.8l.1.6.3.5c.1.2.3.2.6.2l.6-.2.3-.5.1-.6v-.6-.6l-.1-.7-.3-.5a.8.8 0 00-.5-.2l-.6.2c-.1.1-.3.3-.3.5l-.1.6v.6l-.1.7zm9.1-3.8l-6.5 11.7h-1.4l6.5-11.7zm-2.4 7.3l.5-1c.2-.3.5-.5.8-.6.3-.2.7-.2 1.2-.2l1.2.2.8.7.4 1 .1 1.2-.2 1.2-.5 1c-.2.3-.5.5-.8.6-.3.2-.7.2-1.2.2l-1.2-.2-.8-.7c-.2-.3-.4-.6-.4-1l-.1-1.2.2-1.2zm1.5 1.8l.1.6.3.5.6.2.6-.2.3-.5.1-.6v-.6-.6l-.1-.6-.3-.5a.8.8 0 00-.5-.2l-.6.2c-.1.1-.3.3-.3.5l-.1.6v.6l-.1.6z" id="path983"/></g><g id="g993" transform="translate(-116.9 -79.4)"><path class="st8" d="M328.8 356.8v-7.2H326v-1.7l1.1-.1a3 3 0 001-.4l.7-.7.4-1.1h1.8v11.1h-2.2z" id="path987"/><path class="st8" d="M333.7 348.5a5 5 0 01.9-1.8c.4-.4.8-.8 1.3-.9.5-.2 1-.3 1.6-.3a3.8 3.8 0 012.9 1.2c.4.4.7 1 .9 1.8.2.7.3 1.6.3 2.7s-.1 2-.3 2.8a5 5 0 01-.9 1.8c-.4.4-.8.8-1.3.9a4.5 4.5 0 01-3.2 0c-.5-.2-.9-.5-1.3-.9s-.7-1-.9-1.8c-.2-.7-.3-1.7-.3-2.8 0-1.1.1-2 .3-2.7zm1.9 3.8l.2 1.3.5 1.1c.2.3.6.4 1 .4.5 0 .8-.1 1.1-.4l.5-1.1.2-1.3v-1.1-.7l-.1-.8-.2-.8-.3-.8-.5-.5-.8-.2-.8.2-.5.5-.3.8-.2.8-.1.8v.7c.3.3.3.7.3 1.1z" id="path989"/><path class="st8" d="M342.9 347.4l.5-1 .8-.7c.3-.2.7-.2 1.2-.2s.9.1 1.2.3l.8.7.4 1 .1 1.2-.2 1.2a2 2 0 01-.5.9c-.2.3-.5.5-.8.6a3.7 3.7 0 01-2.4 0l-.8-.6c-.2-.3-.4-.6-.4-1l-.1-1.2.2-1.2zm1.4 1.8l.1.6.3.5.6.2.6-.2.3-.5.1-.6v-.6-.6l-.1-.7-.3-.5a.8.8 0 00-.5-.2l-.6.2c-.1.1-.3.3-.3.5l-.1.6v.6l-.1.7zm9.1-3.9l-6.5 11.7h-1.4l6.5-11.7zm-2.4 7.4l.5-1c.2-.3.5-.5.8-.6.3-.2.7-.2 1.2-.2l1.2.2.8.7.4 1 .1 1.2-.2 1.2-.5 1c-.2.3-.5.5-.8.6-.3.2-.7.2-1.2.2l-1.2-.2-.8-.7c-.2-.3-.4-.6-.4-1l-.1-1.2.2-1.2zm1.5 1.8l.1.6.3.5.6.2.6-.2.3-.5.1-.6v-.6-.6l-.1-.6-.3-.5a.8.8 0 00-.5-.2l-.6.2c-.1.1-.3.3-.3.5l-.1.6v.6l-.1.6z" id="path991"/></g><g id="g1019" transform="translate(-116.9 -79.4)"><g id="g1017"><path class="st1" d="M495.8 114l3.2 8.6h-2l-.6-1.9h-3.2l-.7 1.9h-1.9l3.2-8.6zm.1 5.3l-1.1-3.2-1.1 3.2z" id="path995"/><path class="st1" d="M505.4 123.1l-.4.9c-.2.3-.5.5-1 .7a4 4 0 01-1.7.3l-.9-.1-.9-.4-.6-.6-.3-.9h1.7c.1.3.2.5.5.7l.8.2c.5 0 .8-.1 1.1-.4.2-.3.3-.7.3-1.1v-.8c-.2.3-.4.6-.8.7-.3.2-.7.2-1.1.2l-1.2-.2-.8-.7-.5-1-.1-1.2.2-1.2.5-1 .8-.7a2 2 0 011.1-.3l1.1.2c.3.2.6.4.8.8v-.8h1.6v5.8l-.2.9zM503 121l.5-.4.3-.5.1-.6-.1-.7-.2-.6-.4-.4-.7-.2-.6.1-.4.4-.3.6-.1.7.1.7.2.6.4.4.7.2.5-.3z" id="path997"/><path class="st1" d="M508.6 116.4v1.2l.3-.5.5-.4.6-.3.6-.1.4.1v1.6h-.6l-.8.2-.5.4-.3.6-.1.8v2.8H507v-6.2h1.6z" id="path999"/><path class="st1" d="M511.8 115.4V114h1.7v1.4zm1.7 1v6.2h-1.7v-6.2z" id="path1001"/><path class="st1" d="M517.8 117.5l-.7.2-.5.5-.2.6-.1.7.1.7.2.6.4.5.7.2c.4 0 .7-.1.9-.3.2-.2.4-.5.4-.9h1.6c-.1.8-.4 1.5-1 1.9-.5.4-1.2.6-2 .6l-1.3-.2-1-.7a2 2 0 01-.6-1c-.2-.4-.2-.8-.2-1.3l.2-1.3c.1-.4.3-.8.6-1.1l1-.7c.4-.2.8-.3 1.3-.3l1.1.1.9.4.7.7c.2.3.3.6.3 1h-1.7c.1-.5-.3-.9-1.1-.9z" id="path1003"/><path class="st1" d="M526.1 122.6v-.9c-.2.4-.5.6-.8.8-.3.2-.7.2-1.1.2l-1.1-.2-.7-.5-.4-.8-.1-1.1v-3.8h1.7v3.5l.2 1.1c.2.3.4.4.9.4s.8-.1 1-.4c.2-.3.3-.7.3-1.4v-3.3h1.7v6.2h-1.6z" id="path1005"/><path class="st1" d="M530.8 114v8.6h-1.7V114z" id="path1007"/><path class="st1" d="M535.7 116.4v1.1h-1.3v3.1l.1.6.6.1h.6v1.3h-1l-.8-.1-.6-.2-.4-.4-.2-.8v-3.7h-1v-1.1h1v-1.9h1.7v1.9h1.3z" id="path1009"/><path class="st1" d="M540.8 122.6v-.9c-.2.4-.5.6-.8.8-.3.2-.7.2-1.1.2l-1.1-.2-.7-.5-.4-.8-.1-1.1v-3.8h1.7v3.5l.2 1.1c.2.3.4.4.9.4s.8-.1 1-.4c.2-.3.3-.7.3-1.4v-3.3h1.7v6.2h-1.6z" id="path1011"/><path class="st1" d="M545.5 116.4v1.2l.3-.5.5-.4.6-.3.6-.1.4.1v1.6h-.6l-.8.2-.5.4-.3.6-.1.8v2.8h-1.7v-6.2h1.6z" id="path1013"/><path class="st1" d="M550.5 121.1c.3.2.6.4 1.1.4l.9-.3.5-.5h1.5c-.2.7-.6 1.3-1.1 1.6-.5.3-1.1.5-1.8.5l-1.3-.2c-.4-.1-.7-.4-1-.7a2 2 0 01-.6-1l-.2-1.3.2-1.3.6-1 1-.7a3.2 3.2 0 012.7 0l1 .8c.3.3.4.7.5 1.2.1.4.2.9.1 1.4H550c.1.5.2.9.5 1.1zm1.9-3.2c-.2-.2-.5-.3-.9-.3l-.7.1-.4.3-.2.4-.1.4h2.8l-.5-.9z" id="path1015"/></g></g><g id="g1065" transform="translate(-116.9 -79.4)"><g id="g1063"><path class="st1" d="M503.7 356.9v1.6h-4.5v1.8h4.2v1.5h-4.2v2.1h4.6v1.6h-6.5v-8.6z" id="path1021"/><path class="st1" d="M506.8 356.9v8.6h-1.7v-8.6z" id="path1023"/><path class="st1" d="M510.1 364c.3.2.6.4 1.1.4l.9-.3.5-.5h1.5c-.2.7-.6 1.3-1.1 1.6-.5.3-1.1.5-1.8.5l-1.3-.2-1-.7a2 2 0 01-.6-1l-.2-1.3.2-1.3.6-1 1-.7a3.2 3.2 0 012.7 0l1 .8c.3.3.4.7.5 1.2.1.4.2.9.1 1.4h-4.5c0 .5.1.9.4 1.1zm1.9-3.3c-.2-.2-.5-.3-.9-.3l-.7.1-.4.3-.2.4-.1.4h2.8l-.5-.9z" id="path1025"/><path class="st1" d="M518.2 360.4l-.7.2-.5.5-.2.6-.1.7.1.7.2.6.4.5.7.2c.4 0 .7-.1.9-.3.2-.2.4-.5.4-.9h1.6c-.1.8-.4 1.5-1 1.9-.5.4-1.2.6-2 .6l-1.3-.2-1-.7a2 2 0 01-.6-1c-.2-.4-.2-.8-.2-1.3l.2-1.3c.1-.4.3-.8.6-1.1l1-.7c.4-.2.8-.3 1.3-.3l1.1.1.9.4.7.7c.2.3.3.6.3 1h-1.7c0-.5-.4-.9-1.1-.9z" id="path1027"/><path class="st1" d="M525.6 359.3v1.1h-1.3v3.1l.1.6.6.1h.6v1.3h-1l-.8-.1-.6-.2-.4-.4-.2-.8v-3.7h-1v-1.1h1v-1.9h1.7v1.9h1.3z" id="path1029"/><path class="st1" d="M528.3 359.3v1.2l.3-.5.5-.4.6-.3.6-.1.4.1v1.6h-.6l-.8.2-.5.4-.3.6-.1.8v2.8h-1.7v-6.2h1.6z" id="path1031"/><path class="st1" d="M531.5 358.3v-1.4h1.7v1.4zm1.7 1v6.2h-1.7v-6.2z" id="path1033"/><path class="st1" d="M537.5 360.4l-.7.2-.5.5-.2.6-.1.7.1.7.2.6.4.5.7.2c.4 0 .7-.1.9-.3.2-.2.4-.5.4-.9h1.6c-.1.8-.4 1.5-1 1.9-.5.4-1.2.6-2 .6l-1.3-.2-1-.7a2 2 0 01-.6-1c-.2-.4-.2-.8-.2-1.3l.2-1.3c.1-.4.3-.8.6-1.1l1-.7c.4-.2.8-.3 1.3-.3l1.1.1.9.4.7.7c.2.3.3.6.3 1h-1.7c.1-.5-.3-.9-1.1-.9z" id="path1035"/><path class="st1" d="M541.6 358.3v-1.4h1.7v1.4zm1.7 1v6.2h-1.7v-6.2z" id="path1037"/><path class="st1" d="M548.1 359.3v1.1h-1.3v3.1l.1.6.6.1h.6v1.3h-1l-.8-.1-.6-.2-.4-.4-.2-.8v-3.7h-1v-1.1h1v-1.9h1.7v1.9h1.3z" id="path1039"/><path class="st1" d="M551.7 367.4c-.3.2-.8.3-1.4.3h-1v-1.4h1c.2 0 .4-.1.5-.3l.2-.5-.1-.4-2.2-5.8h1.8l1.4 4.3 1.4-4.3h1.8l-2.6 7-.8 1.1z" id="path1041"/><path class="st1" d="M503 379.9l-.4.9c-.2.3-.5.5-1 .7a4 4 0 01-1.7.3l-.9-.1-.9-.4-.6-.6-.3-.9h1.7c.1.3.2.5.5.7l.8.2c.5 0 .8-.1 1.1-.4.2-.3.3-.7.3-1.1v-.8c-.2.3-.4.6-.8.7l-1.1.2-1.2-.2-.8-.7-.5-1-.1-1.2.2-1.2.5-1 .8-.7a2 2 0 011.1-.3l1.1.2c.3.2.6.4.8.8v-.8h1.6v5.8l-.2.9zm-2.4-2.1l.5-.4.3-.5.1-.6-.1-.7-.2-.6-.4-.4-.7-.2-.6.1-.4.4-.3.6-.1.7.1.7.2.6.4.4.7.2c.1-.2.4-.2.5-.3z" id="path1043"/><path class="st1" d="M506.4 377.9c.3.2.6.4 1.1.4l.9-.3.5-.5h1.5c-.2.7-.6 1.3-1.1 1.6-.5.3-1.1.5-1.8.5l-1.3-.2-1-.7a2 2 0 01-.6-1l-.2-1.3.2-1.3.6-1 1-.7a3.2 3.2 0 012.7 0l1 .8c.3.3.4.7.5 1.2.1.4.2.9.1 1.4H506c0 .5.1.9.4 1.1zm1.9-3.3c-.2-.2-.5-.3-.9-.3l-.7.1-.4.3-.2.4-.1.4h2.8l-.5-.9z" id="path1045"/><path class="st1" d="M513.2 373.2v.9c.2-.4.5-.6.8-.8.3-.2.7-.2 1.1-.2l1.1.2a1.8 1.8 0 011.1 1.3l.1 1.1v3.8h-1.7V376l-.2-1.1c-.2-.3-.4-.4-.9-.4s-.8.1-1 .4c-.2.3-.3.7-.3 1.4v3.3h-1.7v-6.2h1.6z" id="path1047"/><path class="st1" d="M520.6 377.9c.3.2.6.4 1.1.4l.9-.3.5-.5h1.5c-.2.7-.6 1.3-1.1 1.6-.5.3-1.1.5-1.8.5l-1.3-.2-1-.7a2 2 0 01-.6-1l-.2-1.3.2-1.3.6-1 1-.7a3.2 3.2 0 012.7 0l1 .8c.3.3.4.7.5 1.2.1.4.2.9.1 1.4h-4.5c0 .5.1.9.4 1.1zm1.9-3.3c-.2-.2-.5-.3-.9-.3l-.7.1-.4.3-.2.4-.1.4h2.8l-.5-.9z" id="path1049"/><path class="st1" d="M527.4 373.2v1.2l.3-.5.5-.4.6-.3.6-.1.4.1v1.6h-.6l-.8.2-.5.4-.3.6-.1.8v2.8h-1.7v-6.2h1.6z" id="path1051"/><path class="st1" d="M530.5 375.1c0-.4.1-.7.3-1 .2-.3.4-.5.7-.6l.9-.3 1-.1.9.1.9.3c.3.1.5.3.6.5.2.2.3.5.3.9v4l.2.6h-1.7l-.1-.3v-.3a2 2 0 01-1 .6l-1.1.2-.8-.1-.7-.3-.5-.6-.2-.8.2-.9.5-.5.7-.3.8-.2.8-.1.7-.1.5-.2c.2-.1.2-.2.2-.4l-.1-.4-.2-.3-.3-.1h-.4l-.8.2c-.2.1-.3.4-.3.7h-2zm4 1.3l-.3.1-.3.1-.4.1-.4.1-.4.1-.3.2-.2.3-.1.4.1.4.2.2.3.1h.4l.8-.2.4-.4.2-.5v-.4z" id="path1053"/><path class="st1" d="M541 373.2v1.1h-1.3v3.1l.1.6.6.1h.6v1.3h-1l-.8-.1-.6-.2-.4-.4-.2-.8v-3.7h-1v-1.1h1v-1.9h1.7v1.9h1.3z" id="path1055"/><path class="st1" d="M542 372.2v-1.4h1.7v1.4zm1.7 1v6.2H542v-6.2z" id="path1057"/><path class="st1" d="M545.2 375l.6-1 1-.7c.4-.2.8-.2 1.3-.2l1.3.2c.4.1.7.4 1 .7.3.3.5.6.6 1 .2.4.2.9.2 1.4l-.2 1.3-.6 1c-.2.3-.6.5-1 .7-.4.2-.8.2-1.3.2l-1.3-.2-1-.7a2 2 0 01-.6-1c-.2-.4-.2-.8-.2-1.3-.1-.6 0-1 .2-1.4zm1.5 2l.2.6.5.5.7.2a1.4 1.4 0 001.2-.7l.2-.6.1-.7-.1-.7a1 1 0 00-.2-.6l-.5-.5-.7-.2-.7.2-.5.5-.2.6-.1.7.1.7z" id="path1059"/><path class="st1" d="M554.2 373.2v.9c.2-.4.5-.6.8-.8.3-.2.7-.2 1.1-.2l1.1.2a1.8 1.8 0 011.1 1.3l.1 1.1v3.8h-1.7V376l-.2-1.1c-.2-.3-.4-.4-.9-.4s-.8.1-1 .4c-.2.3-.3.7-.3 1.4v3.3h-1.7v-6.2h1.6z" id="path1061"/></g></g><g id="g1093" transform="translate(-116.9 -79.4)"><g id="g1091"><path class="st1" d="M291.9 409.8l.8-1.4 1.3-1c.5-.2 1.1-.3 1.8-.3s1.3.1 1.8.3c.5.2 1 .6 1.3 1 .4.4.6.9.8 1.4.2.5.3 1.1.3 1.8 0 .6-.1 1.2-.3 1.7l-.8 1.4c-.4.4-.8.7-1.3.9-.5.2-1.1.3-1.8.3s-1.2-.1-1.8-.3a3 3 0 01-1.3-.9c-.4-.4-.6-.9-.8-1.4-.2-.5-.3-1.1-.3-1.7l.3-1.8zm1.8 2.9l.4.9.7.7c.3.2.7.2 1.1.2l1.1-.2.7-.7.4-.9.1-1.1-.1-1.1c-.1-.4-.2-.7-.4-.9l-.7-.7c-.3-.2-.7-.2-1.1-.2l-1.1.2-.7.7-.4.9-.1 1.1c-.1.4 0 .7.1 1.1z" id="path1067"/><path class="st1" d="M304.8 409.6v1.1h-1.3v3.1l.1.6.6.1h.6v1.3h-1l-.8-.1-.6-.2-.4-.4-.2-.8v-3.7h-1v-1.1h1v-1.9h1.7v1.9h1.3z" id="path1069"/><path class="st1" d="M307.5 407.3v3.2c.2-.4.5-.6.8-.8.3-.2.7-.2 1-.2l1.1.2a1.8 1.8 0 011.1 1.3l.1 1.1v3.8h-1.7v-3.5l-.2-1.1c-.2-.3-.4-.4-.9-.4s-.8.1-1 .4c-.2.3-.3.7-.3 1.4v3.3h-1.7v-8.6h1.7z" id="path1071"/><path class="st1" d="M314.8 414.4c.3.2.6.4 1.1.4l.9-.3.5-.5h1.5c-.2.7-.6 1.3-1.1 1.6-.5.3-1.1.5-1.8.5l-1.3-.2-1-.7a2 2 0 01-.6-1l-.2-1.3.2-1.3.6-1 1-.7a3.2 3.2 0 012.7 0l1 .8c.3.3.4.7.5 1.2.1.4.2.9.1 1.4h-4.5c0 .4.2.8.4 1.1zm2-3.3c-.2-.2-.5-.3-.9-.3l-.7.1-.4.3-.2.4-.1.4h2.8l-.5-.9z" id="path1073"/><path class="st1" d="M321.6 409.6v1.2l.3-.5.5-.4.6-.3.6-.1.4.1v1.6h-.6l-.8.2-.5.4-.3.6-.1.8v2.8H320v-6.2h1.6z" id="path1075"/><path class="st1" d="M279.8 428.2l.3.3.4.2.5.1h.4l.4-.1.3-.2.1-.4c0-.3-.2-.4-.5-.6l-1.4-.4-.7-.2-.6-.3-.4-.5-.2-.7.2-1 .6-.6c.3-.1.5-.3.9-.3l1-.1 1 .1.8.3.6.6c.2.3.3.6.3 1H282c0-.3-.1-.6-.4-.7l-.8-.2h-.3l-.3.1-.2.2-.1.3.2.4.4.2.6.2.7.2.7.2.6.3.4.5.2.7-.2 1-.6.7-.9.4-1 .1-1.1-.1c-.3-.1-.7-.2-.9-.4l-.7-.7c-.2-.3-.3-.6-.3-1h1.6l.2.4z" id="path1077"/><path class="st1" d="M284.9 425.3l.6-1 1-.7c.4-.2.8-.2 1.3-.2l1.3.2 1 .7c.3.3.5.6.6 1 .2.4.2.9.2 1.4l-.2 1.3-.6 1-1 .7c-.4.2-.8.2-1.3.2l-1.3-.2-1-.7a2 2 0 01-.6-1c-.2-.4-.2-.8-.2-1.3-.1-.5 0-1 .2-1.4zm1.5 2.1l.2.6.5.5.7.2a1.4 1.4 0 001.2-.7l.2-.6.1-.7-.1-.7a1 1 0 00-.2-.6l-.5-.5-.7-.2-.7.2-.5.5-.2.6-.1.7.1.7z" id="path1079"/><path class="st1" d="M296.4 429.8v-.9c-.2.4-.5.6-.8.8-.3.2-.7.2-1.1.2l-1.1-.2-.7-.5-.4-.8-.1-1.1v-3.8h1.7v3.5l.2 1.1c.2.3.4.4.9.4s.8-.1 1-.4c.2-.3.3-.7.3-1.4v-3.3h1.7v6.2h-1.6z" id="path1081"/><path class="st1" d="M301.1 423.5v1.2l.3-.5.5-.4.6-.3.6-.1.4.1v1.6h-.6l-.8.2-.5.4-.3.6-.1.8v2.8h-1.7v-6.2h1.6z" id="path1083"/><path class="st1" d="M307.2 424.7l-.7.2-.5.5-.2.6-.1.7.1.7.2.6.4.5.7.2c.4 0 .7-.1.9-.3.2-.2.4-.5.4-.9h1.6c-.1.8-.4 1.5-1 1.9-.5.4-1.2.6-2 .6l-1.3-.2-1-.7a2 2 0 01-.6-1c-.2-.4-.2-.8-.2-1.3l.2-1.3c.1-.4.3-.8.6-1.1l1-.7c.4-.2.8-.3 1.3-.3l1.1.1.9.4.7.7c.2.3.3.6.3 1h-1.7c.1-.6-.4-.9-1.1-.9z" id="path1085"/><path class="st1" d="M313.1 428.3c.3.2.6.4 1.1.4l.9-.3.5-.5h1.5c-.2.7-.6 1.3-1.1 1.6-.5.3-1.1.5-1.8.5l-1.3-.2-1-.7a2 2 0 01-.6-1l-.2-1.3.2-1.3.6-1 1-.7a3.2 3.2 0 012.7 0l1 .8c.3.3.4.7.5 1.2.1.4.2.9.1 1.4h-4.5c0 .4.1.8.4 1.1zm1.9-3.3c-.2-.2-.5-.3-.9-.3l-.7.1-.4.3-.2.4-.1.4h2.8a2 2 0 00-.5-.9z" id="path1087"/><path class="st1" d="M319.7 428.2l.3.3.4.2.5.1h.4l.4-.1.3-.2.1-.4c0-.3-.2-.4-.5-.6l-1.4-.4-.7-.2-.6-.3-.4-.5-.2-.7.2-1 .6-.6c.3-.1.5-.3.9-.3l1-.1 1 .1.8.3.6.6c.2.3.3.6.3 1h-1.6c0-.3-.1-.6-.4-.7l-.8-.2h-.3l-.3.1-.2.2-.1.3.2.4.4.2.6.2.7.2.7.2.6.3.4.5.2.7-.2 1-.6.7-.9.4-1 .1-1.1-.1c-.3-.1-.7-.2-.9-.4l-.7-.7c-.2-.3-.3-.6-.3-1h1.6c-.2.1-.1.3 0 .4z" id="path1089"/></g></g><g id="g1133" transform="translate(-116.9 -79.4)"><g id="g1131"><path class="st1" d="M210.8 366.1l1.1.1.9.4.6.7.2 1c0 .4-.1.8-.3 1.1-.2.3-.5.5-.9.7.5.2.9.4 1.2.8.3.4.4.8.4 1.4 0 .4-.1.8-.3 1.1l-.7.8a3 3 0 01-1 .4l-1.1.1h-4.2v-8.6zm-.3 3.5l.8-.2c.2-.2.3-.4.3-.8l-.1-.5-.3-.3-.4-.1h-2.3v2h2zm.1 3.6l.5-.1.4-.2.3-.3.1-.6c0-.4-.1-.8-.4-.9-.2-.2-.6-.3-1-.3h-2.1v2.4z" id="path1095"/><path class="st1" d="M219.3 374.7v-.9c-.2.4-.5.6-.8.8-.3.2-.7.2-1.1.2l-1.1-.2-.7-.5-.4-.8-.1-1.1v-3.8h1.7v3.5l.2 1.1c.2.3.4.4.9.4s.8-.1 1-.4c.2-.3.3-.7.3-1.4v-3.3h1.7v6.2h-1.6z" id="path1097"/><path class="st1" d="M222.4 367.5v-1.4h1.7v1.4zm1.7 1v6.2h-1.7v-6.2z" id="path1099"/><path class="st1" d="M227.2 366.1v8.6h-1.7v-8.6z" id="path1101"/><path class="st1" d="M233.1 373.9c-.2.3-.5.6-.8.7l-1.1.2c-.5 0-.9-.1-1.2-.3l-.9-.7-.5-1.1-.2-1.3.2-1.2.5-1c.2-.3.5-.5.9-.7.4-.2.7-.3 1.2-.3l1.1.2.8.7V366h1.7v8.6h-1.6zm-.1-3.1l-.2-.6-.5-.4-.7-.2-.7.2-.5.4-.3.6-.1.7.1.7c.1.2.1.5.3.6l.5.5c.2.2.4.2.7.2l.7-.2.5-.5.2-.6.1-.7-.1-.7z" id="path1103"/><path class="st1" d="M236.2 367.5v-1.4h1.7v1.4zm1.7 1v6.2h-1.7v-6.2z" id="path1105"/><path class="st1" d="M241 368.5v.9c.2-.4.5-.6.8-.8.3-.2.7-.2 1.1-.2l1.1.2a1.8 1.8 0 011.1 1.3l.1 1.1v3.8h-1.7v-3.5l-.2-1.1c-.2-.3-.4-.4-.9-.4s-.8.1-1 .4c-.2.3-.3.7-.3 1.4v3.3h-1.7v-6.2h1.6z" id="path1107"/><path class="st1" d="M252.4 375.1l-.4.9c-.2.3-.5.5-1 .7-.5.2-1 .3-1.7.3l-.9-.1-.9-.4-.6-.6-.3-.9h1.7c.1.3.2.5.5.7l.8.2c.5 0 .8-.1 1.1-.4.2-.3.3-.7.3-1.1v-.8c-.2.3-.4.6-.8.7-.3.2-.7.2-1.1.2l-1.2-.2-.8-.7-.5-1-.2-1.2.2-1.2.5-1 .8-.7a2 2 0 011.1-.3l1.1.2c.3.2.6.4.8.8v-.8h1.6v5.8l-.1.9zm-2.3-2l.5-.4.3-.5.1-.6-.1-.7-.2-.6-.4-.4-.7-.2-.6.1-.4.4-.3.6-.1.7.1.7.2.6.4.4.7.2c.1-.2.3-.2.5-.3z" id="path1109"/><path class="st1" d="M191.6 384.1l.6-1 1-.7c.4-.2.8-.2 1.3-.2l1.3.2 1 .7c.3.3.5.6.6 1 .2.4.2.9.2 1.4l-.2 1.3-.6 1-1 .7c-.4.2-.8.2-1.3.2l-1.3-.2-1-.7a2 2 0 01-.6-1c-.2-.4-.2-.8-.2-1.3l.2-1.4zm1.6 2.1l.2.6.5.5.7.2a1.4 1.4 0 001.2-.7l.2-.6.1-.7-.1-.7a1 1 0 00-.2-.6l-.5-.5-.7-.2-.7.2-.5.5-.2.6-.1.7.1.7z" id="path1111"/><path class="st1" d="M200.6 382.4v.8c.2-.3.5-.6.8-.7.3-.2.7-.2 1.1-.2.5 0 .9.1 1.3.3l.9.7.5 1.1.2 1.3-.2 1.2-.5 1c-.2.3-.5.5-.9.7-.3.2-.7.3-1.2.3l-1.1-.2-.8-.7v2.9H199v-8.4h1.6zm2.2 4.9l.5-.4.2-.6.1-.7-.1-.7c-.1-.2-.1-.5-.3-.6l-.5-.5-.7-.2-.7.2-.5.5-.2.6-.1.7.1.7c.1.2.1.5.3.6l.5.4.7.2.7-.2z" id="path1113"/><path class="st1" d="M208.3 387.1c.3.2.6.4 1.1.4l.9-.3.5-.5h1.5c-.2.7-.6 1.3-1.1 1.6-.5.3-1.1.5-1.8.5l-1.3-.2-1-.7a2 2 0 01-.6-1l-.2-1.3.2-1.3.6-1 1-.7a3.2 3.2 0 012.7 0l1 .8c.3.3.4.7.5 1.2.1.4.2.9.1 1.4h-4.5c0 .4.1.8.4 1.1zm1.9-3.3c-.2-.2-.5-.3-.9-.3l-.7.1-.4.3-.2.4-.1.4h2.8l-.5-.9z" id="path1115"/><path class="st1" d="M215 382.4v1.2l.3-.5.5-.4.6-.3.6-.1.4.1v1.6h-.6l-.8.2-.5.4-.3.6-.1.8v2.8h-1.7v-6.2h1.6z" id="path1117"/><path class="st1" d="M218.2 384.3c0-.4.1-.7.3-1 .2-.3.4-.5.7-.6l.9-.3 1-.1.9.1.9.3c.3.1.5.3.6.5.2.2.3.5.3.9v4l.2.6h-1.7l-.1-.3v-.3a2 2 0 01-1 .6l-1.1.2-.8-.1-.7-.3-.5-.6-.2-.8.2-.9.5-.5.7-.3.8-.2.8-.1.7-.1.5-.2.2-.4-.1-.4-.2-.3-.3-.1h-.4l-.8.2c-.2.1-.3.4-.3.7h-2zm3.9 1.2l-.3.1-.3.1-.4.1-.4.1-.4.1-.3.2-.2.3-.1.4.1.4.2.2.3.1h.4l.8-.2.4-.4.2-.5v-.4z" id="path1119"/><path class="st1" d="M228.6 382.4v1.1h-1.3v3.1l.1.6.6.1h.6v1.3h-1l-.8-.1-.6-.2-.4-.4-.2-.8v-3.7h-1v-1.1h1v-1.9h1.7v1.9h1.3z" id="path1121"/><path class="st1" d="M229.7 381.4V380h1.7v1.4zm1.7 1v6.2h-1.7v-6.2z" id="path1123"/><path class="st1" d="M232.8 384.1l.6-1 1-.7c.4-.2.8-.2 1.3-.2l1.3.2 1 .7c.3.3.5.6.6 1 .2.4.2.9.2 1.4l-.2 1.3-.6 1-1 .7c-.4.2-.8.2-1.3.2l-1.3-.2-1-.7a2 2 0 01-.6-1c-.2-.4-.2-.8-.2-1.3l.2-1.4zm1.6 2.1l.2.6.5.5.7.2a1.4 1.4 0 001.2-.7l.2-.6.1-.7-.1-.7a1 1 0 00-.2-.6l-.5-.5-.7-.2-.7.2-.5.5-.2.6-.1.7.1.7z" id="path1125"/><path class="st1" d="M241.8 382.4v.9c.2-.4.5-.6.8-.8.3-.2.7-.2 1.1-.2l1.1.2a1.8 1.8 0 011.1 1.3l.1 1.1v3.8h-1.7v-3.5l-.2-1.1c-.2-.3-.4-.4-.9-.4s-.8.1-1 .4c-.2.3-.3.7-.3 1.4v3.3h-1.7v-6.2h1.6z" id="path1127"/><path class="st1" d="M248.9 387l.3.3.4.2.5.1h.4l.4-.1.3-.2.1-.4c0-.3-.2-.4-.5-.6l-1.4-.4-.7-.2-.6-.3-.4-.5-.2-.7.2-1 .6-.6c.3-.1.5-.3.9-.3l1-.1 1 .1.8.3.6.6c.2.3.3.6.3 1h-1.6c0-.3-.1-.6-.4-.7l-.8-.2h-.3l-.3.1-.2.2-.1.3.2.4.4.2.6.2.7.2.7.2.6.3.4.5.2.7-.2 1-.6.7-.9.4-1 .1-1.1-.1c-.3-.1-.7-.2-.9-.4l-.7-.7c-.2-.3-.3-.6-.3-1h1.6c-.2.1-.1.3 0 .4z" id="path1129"/></g></g><g id="g1163" transform="translate(-116.9 -79.4)"><g id="g1161"><path class="st1" d="M119.6 228.6l2 5.9 1.9-5.9h2.7v8.6h-1.8v-6.1l-2.1 6.1h-1.5l-2.1-6v6h-1.8v-8.6z" id="path1135"/><path class="st1" d="M127.7 232.8c0-.4.1-.7.3-1 .2-.3.4-.5.7-.6l.9-.3 1-.1.9.1.9.3c.3.1.5.3.6.5.1.2.3.5.3.9v4l.2.6h-1.7l-.1-.3v-.3a2 2 0 01-1 .6l-1.1.2-.8-.1-.7-.3-.5-.6-.2-.8.2-.9.5-.5.7-.3.8-.2.8-.1.7-.1.5-.2.2-.4-.1-.4-.2-.3-.3-.1h-.4l-.8.2c-.2.1-.3.4-.3.7h-2zm3.9 1.3l-.3.1-.3.1-.4.1-.4.1-.4.1-.3.2-.2.3-.1.4.1.4.2.2.3.1h.4l.8-.2.4-.4.2-.5v-.4z" id="path1137"/><path class="st1" d="M136.4 230.9v.9c.2-.4.5-.6.8-.8.3-.2.7-.2 1.1-.2l1.1.2a1.8 1.8 0 011.1 1.3l.1 1.1v3.8h-1.7v-3.5l-.2-1.1c-.2-.3-.4-.4-.9-.4s-.8.1-1 .4c-.2.3-.3.7-.3 1.4v3.3h-1.7v-6.2h1.6z" id="path1139"/><path class="st1" d="M146.2 237.2v-.9c-.2.4-.5.6-.8.8-.3.2-.7.2-1.1.2l-1.1-.2-.7-.5-.4-.8-.1-1.1v-3.8h1.7v3.5l.2 1.1c.2.3.4.4.9.4s.8-.1 1-.4c.2-.3.3-.7.3-1.4v-3.3h1.7v6.2h-1.6z" id="path1141"/><path class="st1" d="M148.6 232.1V231h1v-.5c0-.6.2-1 .5-1.4.3-.4.9-.5 1.6-.5h.9v1.3h-.6l-.5.2-.1.5v.4h1.2v1.1h-1.2v5.1h-1.7v-5.1z" id="path1143"/><path class="st1" d="M153.3 232.8c0-.4.1-.7.3-1 .2-.3.4-.5.7-.6l.9-.3 1-.1.9.1.9.3c.3.1.5.3.6.5.1.2.3.5.3.9v4l.2.6h-1.7l-.1-.3v-.3a2 2 0 01-1 .6l-1.1.2-.8-.1-.7-.3-.5-.6-.2-.8.2-.9.5-.5.7-.3.8-.2.8-.1.7-.1.5-.2.2-.4-.1-.4-.2-.3-.3-.1h-.4l-.8.2c-.2.1-.3.4-.3.7h-2zm3.9 1.3l-.3.1-.3.1-.4.1-.4.1-.4.1-.3.2-.2.3-.1.4.1.4.2.2.3.1h.4l.8-.2.4-.4.2-.5v-.4z" id="path1145"/><path class="st1" d="M163.2 232.1l-.7.2-.5.5-.2.6-.1.7.1.7.2.6.4.5.7.2c.4 0 .7-.1.9-.3.2-.2.4-.5.4-.9h1.6c-.1.8-.4 1.5-1 1.9-.5.4-1.2.6-2 .6l-1.3-.2-1-.7a2 2 0 01-.6-1c-.2-.4-.2-.8-.2-1.3l.2-1.3c.1-.4.3-.8.6-1.1l1-.7c.4-.2.8-.3 1.3-.3l1.1.1.9.4.7.7c.2.3.3.6.3 1h-1.7c.1-.6-.4-.9-1.1-.9z" id="path1147"/><path class="st1" d="M170.7 230.9v1.1h-1.3v3.1l.1.6.6.1h.6v1.3h-1l-.8-.1-.6-.2-.4-.4-.2-.8v-3.7h-1v-1.1h1v-1.9h1.7v1.9h1.3z" id="path1149"/><path class="st1" d="M175.8 237.2v-.9c-.2.4-.5.6-.8.8-.3.2-.7.2-1.1.2l-1.1-.2-.7-.5-.4-.8-.1-1.1v-3.8h1.7v3.5l.2 1.1c.2.3.4.4.9.4s.8-.1 1-.4c.2-.3.3-.7.3-1.4v-3.3h1.7v6.2h-1.6z" id="path1151"/><path class="st1" d="M180.5 230.9v1.2l.3-.5.5-.4.6-.3.6-.1.4.1v1.6h-.6l-.8.2-.5.4-.3.6-.1.8v2.8h-1.7v-6.2h1.6z" id="path1153"/><path class="st1" d="M183.7 230v-1.4h1.7v1.4zm1.7.9v6.2h-1.7v-6.2z" id="path1155"/><path class="st1" d="M188.5 230.9v.9c.2-.4.5-.6.8-.8.3-.2.7-.2 1.1-.2l1.1.2a1.8 1.8 0 011.1 1.3l.1 1.1v3.8H191v-3.5l-.2-1.1c-.2-.3-.4-.4-.9-.4s-.8.1-1 .4c-.2.3-.3.7-.3 1.4v3.3h-1.7v-6.2h1.6z" id="path1157"/><path class="st1" d="M199.9 237.6l-.4.9c-.2.3-.5.5-1 .7a4 4 0 01-1.7.3l-.9-.1-.9-.4-.6-.6-.3-.9h1.7c.1.3.2.5.5.7l.8.2c.5 0 .8-.1 1.1-.4.2-.3.3-.7.3-1.1v-.9c-.2.3-.4.6-.8.7-.3.2-.7.2-1.1.2l-1.2-.2-.8-.7-.5-1-.2-1.2.2-1.2.5-1 .8-.7a2 2 0 011.1-.3l1.1.2c.3.2.6.4.8.8v-.8h1.6v5.8l-.1 1zm-2.4-2.1l.5-.4.3-.5.1-.6-.1-.7-.2-.6-.4-.4-.7-.2-.6.1-.4.4-.3.6-.1.7.1.7.2.6.4.4.7.2.5-.3z" id="path1159"/></g></g><g id="g1195" transform="translate(-116.9 -79.4)"><g id="g1193"><path class="st1" d="M217.8 81v-1.6h7V81h-2.6v7h-1.9v-7z" id="path1165"/><path class="st1" d="M226.4 81.8V83l.3-.5.5-.4.6-.3.6-.1.4.1v1.6h-.6l-.8.2-.5.4-.3.6-.1.8V88h-1.7v-6.2z" id="path1167"/><path class="st1" d="M229.5 83.7c0-.4.1-.7.3-1 .2-.3.4-.5.7-.6l.9-.3 1-.1.9.1.9.3c.3.1.5.3.6.5.2.2.3.5.3.9v4l.2.6h-1.7l-.1-.3v-.3a2 2 0 01-1 .6l-1.1.2-.8-.1-.7-.3-.5-.6-.2-.8.2-.9.5-.5.7-.3.8-.2.8-.1.7-.1.5-.2.2-.4-.1-.4-.2-.3-.3-.1h-.4l-.8.2c-.2.1-.3.4-.3.7h-2zm4 1.3l-.3.2-.3.1-.4.1-.4.1-.4.1-.3.2-.2.3-.1.4.1.4.2.2.3.1h.4l.8-.2.4-.4.2-.5v-.4z" id="path1169"/><path class="st1" d="M238.3 81.8v.9c.2-.4.5-.6.8-.8.3-.2.7-.2 1.1-.2l1.1.2a1.8 1.8 0 011.1 1.3l.1 1.1V88h-1.7v-3.5l-.2-1.1c-.1-.2-.4-.4-.9-.4s-.8.1-1 .4c-.2.3-.3.7-.3 1.4V88h-1.7v-6.2z" id="path1171"/><path class="st1" d="M245.3 86.5l.3.3.4.2.5.1h.4l.4-.1.3-.2.1-.4c0-.3-.2-.4-.5-.6l-1.4-.4-.7-.2-.6-.3-.4-.5-.2-.7.2-1 .6-.6c.3-.1.5-.3.9-.3l1-.1 1 .1.8.3.6.6c.1.2.3.6.3 1h-1.6c0-.3-.1-.6-.4-.7l-.8-.2h-.3l-.3.1-.2.2-.1.3.2.4.4.2.6.2.7.2.7.2.6.3.4.5.2.7-.2 1-.6.7-.9.4-1 .1-1.1-.1c-.3-.1-.7-.2-.9-.4l-.7-.7c-.2-.3-.3-.6-.3-1h1.6c-.1.1-.1.2 0 .4z" id="path1173"/><path class="st1" d="M252 81.8v.8c.2-.3.5-.6.8-.7.3-.2.7-.2 1.1-.2.5 0 .9.1 1.3.3l.9.7.5 1.1.2 1.3-.2 1.2-.5 1c-.2.3-.5.5-.9.7-.3.2-.7.3-1.2.3l-1.1-.2-.8-.7v2.9h-1.7v-8.4h1.6zm2.3 4.9l.5-.4.2-.6.1-.7-.1-.7c-.1-.2-.1-.5-.3-.6l-.5-.5-.7-.2-.7.2-.5.5-.2.6-.1.7.1.7c.1.2.1.5.3.6l.5.4.7.2.7-.2z" id="path1175"/><path class="st1" d="M257.9 83.6l.6-1c.2-.3.6-.5 1-.7.4-.2.8-.2 1.3-.2l1.3.2 1 .7c.3.3.5.6.6 1 .2.4.2.9.2 1.4l-.2 1.3-.6 1-1 .7c-.4.2-.8.2-1.3.2l-1.3-.2-1-.7a2 2 0 01-.6-1c-.2-.4-.2-.8-.2-1.3-.1-.6 0-1 .2-1.4zm1.5 2l.2.6.5.5.7.2a1.4 1.4 0 001.2-.7l.2-.6.1-.7-.1-.7a1 1 0 00-.2-.6l-.5-.5-.7-.2-.7.2-.5.5-.2.6-.1.7.1.7z" id="path1177"/><path class="st1" d="M266.9 81.8V83l.3-.5.5-.4.6-.3.6-.1.4.1v1.6h-.6l-.8.2-.5.4-.3.6-.1.8V88h-1.7v-6.2z" id="path1179"/><path class="st1" d="M273.7 81.8v1.1h-1.3V86l.1.6.6.1h.6V88h-1l-.8-.1-.6-.2-.4-.4-.2-.8v-3.7h-1v-1.1h1v-1.9h1.7v1.9h1.3z" id="path1181"/><path class="st1" d="M274.7 83.7c0-.4.1-.7.3-1 .2-.3.4-.5.7-.6l.9-.3 1-.1.9.1.9.3c.3.1.5.3.6.5.2.2.3.5.3.9v4l.2.6h-1.7l-.1-.3v-.3a2 2 0 01-1 .6l-1.1.2-.8-.1-.7-.3-.5-.6-.2-.8.2-.9.5-.5.7-.3.8-.2.8-.1.7-.1.5-.2.2-.4-.1-.4-.2-.3-.3-.1h-.4l-.8.2c-.2.1-.3.4-.3.7h-2zm3.9 1.3l-.3.2-.3.1-.4.1-.4.1-.4.1-.3.2-.2.3-.1.4.1.4.2.2.3.1h.4l.8-.2.4-.4.2-.5c.1-.2 0-.3 0-.4z" id="path1183"/><path class="st1" d="M285.1 81.8v1.1h-1.3V86l.1.6.6.1h.6V88h-1l-.8-.1-.6-.2-.4-.4-.2-.8v-3.7h-1v-1.1h1v-1.9h1.7v1.9h1.3z" id="path1185"/><path class="st1" d="M286.2 80.8v-1.4h1.7v1.4zm1.7 1V88h-1.7v-6.2z" id="path1187"/><path class="st1" d="M289.3 83.6l.6-1c.2-.3.6-.5 1-.7.4-.2.8-.2 1.3-.2l1.3.2 1 .7c.3.3.5.6.6 1 .2.4.2.9.2 1.4l-.2 1.3-.6 1-1 .7c-.4.2-.8.2-1.3.2l-1.3-.2-1-.7a2 2 0 01-.6-1c-.2-.4-.2-.8-.2-1.3l.2-1.4zm1.6 2l.2.6.5.5.7.2a1.4 1.4 0 001.2-.7l.2-.6.1-.7-.1-.7a1 1 0 00-.2-.6l-.5-.5-.7-.2-.7.2-.5.5-.2.6-.1.7.1.7z" id="path1189"/><path class="st1" d="M298.3 81.8v.9c.2-.4.5-.6.8-.8.3-.2.7-.2 1.1-.2l1.1.2a1.8 1.8 0 011.1 1.3l.1 1.1V88h-1.7v-3.5l-.2-1.1c-.1-.2-.4-.4-.9-.4s-.8.1-1 .4c-.2.3-.3.7-.3 1.4V88h-1.7v-6.2z" id="path1191"/></g></g><g id="g1209" transform="translate(-116.9 -79.4)" fill="none" stroke-width="1.9" stroke-linecap="round" stroke-miterlimit="10"><path id="line1197" stroke="#679f42" d="M331.8 383.4l-4.7 16.6"/><path id="line1199" stroke="#7cb342" d="M271 347.8l-12.3 12.7"/><path id="line1201" stroke="#9ccc65" d="M226.4 235.5l-17.3-1"/><path id="line1203" stroke="#aed580" d="M313.1 110.7l-6.9-15.8"/><path id="line1205" stroke="#346a34" d="M473.7 140.3l12.1-12.2"/><path id="line1207" stroke="#568b3e" d="M478.8 341.7l12.8 11.6"/></g></svg>