<svg width="68" height="59" fill="none" xmlns="http://www.w3.org/2000/svg"><path d="M60.9 25c.9-7.2-4.8-13.7-12.7-14.8H47C45.6 4.2 39.7 0 32.6 0c-6.7 0-12.3 3.8-14.1 9a15.5 15.5 0 00-12.7 7.5c-4.5 7-3.2 15.8 3 19.8a12 12 0 007.6 1.8c0 7-.8 14.3-3.7 18-6.2 8.1 23-7 36.5-3.1 3.6 1 4.2 2.2 7.2 3.6 3.8 1.8 4.7-4.8.8-6-4-1.3-2.2 2.6-2.2 2.6-1.3-.4-2.5-1.1-3.5-2.1-.6-5.1-.9-10.3-.8-15.5A13 13 0 0061 24.9z" fill="#062E1A"/><path d="M24.3 9.2c3.3-9.4 13.3-6.2 13.8-6C28-.6 22.7 5.6 21.3 8.8l3 .3z" fill="#fff"/><path d="M6.7 44.9s.7 2.8 5.8 4c-1.7 2.4-6.2.8-8.9-2.4C.7 43.1 0 36.8 0 36.8s1.4 2.6 6.2 2.8c4.2.2 6.3 2.7 7 6.2-2.4.8-6.5-1-6.5-1zM61.2 40s-.4 3.6-6.4 6c2.5 2.5 7.7-.2 10.5-4.6 2.9-4.7 2.6-12.6 2.6-12.6s-1.2 3.5-7 4.6c-5.2 1-7.3 4.4-7.4 8.9 3 .5 7.7-2.4 7.7-2.4z" fill="#7CCE17"/><path d="M25.8 43.4c-.2-2-3.3-3.8-.1-10.6 3.2-6.9.8-11.6.8-11.6H26v5.3a.3.3 0 01-.7 0v-5.3h-1v5.3a.3.3 0 01-.8 0v-5.3h-1v5.3a.3.3 0 01-.5.3.3.3 0 01-.2-.3v-5.3h-.6s-2.3 4.7.9 11.6c3.2 6.8.1 8.5 0 10.6-.2 1.4-1 7.1-.2 10.8l4.2-1.1c.2-3.3 0-6.5-.3-9.7zM35 43.4c-.1-1.3-1.4-2.5-1.5-5H35a.2.2 0 00.1-.3.2.2 0 00-.1 0h-.4v-8.4l-.3-.3.3-.2-.3-.3.3-.3-.3-.3.3-.3-.3-.3.3-.3-.3-.3.3-.3-.3-.3.3-.3-.3-.3.3-.2-.3-.3.4-.3-.4-.4.3-.2-.3-.3.3-.3-.3-.3.3-.3-.3-.3.3-.3a1.6 1.6 0 00-3.3.1V38h-.2a.2.2 0 00-.3.3.2.2 0 00.3.2h1.6c-.1 2.4-1.4 3.6-1.5 4.9-.4 2.8-.5 5.6-.5 8.5l4.6-1c0-2.5-.1-5-.4-7.5zM44.7 50c0-2.9-.4-5.7-.5-6.6-.1-1.9-2.7-3.4-.8-8.8 2-.7 3.4-3.4 3.4-6.6 0-3.8-2-6.8-4.4-6.8-2.5 0-4.4 3-4.4 6.8 0 3.2 1.4 5.9 3.3 6.6 1.9 5.4-.6 7-.8 8.8-.3 2.2-.4 4.5-.5 6.8 1.6-.2 3.1-.3 4.7-.2z" fill="#fff"/></svg>