<svg width="72" height="61" fill="none" xmlns="http://www.w3.org/2000/svg"><path d="M35 45.6V28.8c0-9.1-8.6-13-8.6-13h-10s-8.5 3.9-8.5 13v16.8S7.3 54 16.3 54h10.1c9 0 8.5-8.4 8.5-8.4z" fill="#7CCE17"/><path d="M28.8 26.5h-.4c.1-.3.2-.5.1-.8 0-.4-.4-.6-.9-.5-.3 0-.6.3-.8.5a3.6 3.6 0 00-2.6.7c-.5.4-.8 1-1 1.5L22 33.4v.1c-.6.7-1.4 1-2.3 1.2-.3.1-.4 0-.4 0v-.4l1.5-6.5c0-.1.1-.3.4-.3h.4v.1l-.1.8 1.7-1V27c-.1-.4-.4-.6-1-.5l-1.5.3a2.7 2.7 0 00-2 2.3l-1 4.6-.2.7-.6.5c-.5.4-1.1.6-1.7.8-.3 0-.4 0-.5-.2v-.3l.4-1.7c.2-.6.7-1.2 1.7-1.8l.2-.5c-.7-.2-1-.5-1.1-.8v-.3l.3-1.1a.7.7 0 01.5-.6h.4v.1l-.2.8 1.8-1V28c-.1-.6-.7-.8-1.7-.6l-1.6.6a1 1 0 00-.7 0l-3 .6a.3.3 0 00-.3.4c0 .2.1.3.3.3L14 29c.1 0 .3 0 .5.3l-.1.4c-.2.4-.2.9-.2 1.3a1 1 0 00.4.6c.2.2.5.2.8.2-.5.3-1 .6-1.3 1a3 3 0 00-.7 1.3l-.2.6v1.2c0 .7.7 1 1.7.7l1-.2c.6-.2 1.1-.5 1.6-.9l.3-.2c.2.4.7.6 1.6.4l1-.2a4 4 0 001.6-.9l.2-.2c.3.4 1 .5 2.2.3 1.6-.3 2.6-1 2.9-2.2l1.1-5c1.8-.9 1.9-1.7 1.9-1.7a3 3 0 01-1.4.8zm-2.4 1.4l-1 4.6a1 1 0 01-.8.9c-.3 0-.5 0-.6-.4v-.2l1.3-5.7c0-.3.2-.5.4-.5.4 0 .6.2.7.7v.6zm1.4-1.4h-.1a.3.3 0 01-.2 0l-.2-.3a.2.2 0 01.3-.3l.2.2v.4z" fill="#fff"/><path d="M30.4 25.5s0 .7-1 1.5c.5.4 1.5-.4 1.9-1.4.2-.9.2-1.8 0-2.7 0 0-.2.8-1.3 1.3a1.7 1.7 0 00-1 2 3 3 0 001.4-.7zM21.4 23.1l-2 3H19l2-3h.3zm-1 .7c-.1.4-.3.6-.5.6l-.4.1-.2-.1V24c.1-.3.3-.5.5-.6h.3a.2.2 0 01.3.1v.3zm.7 1.5c-.1.3-.2.5-.5.6h-.3l-.3-.1v-.3c.1-.4.3-.6.5-.7h.3a.2.2 0 01.3 0v.5zM19.9 24v-.4l-.2.4v.1h.2zm.7 1.4v-.3-.1l-.2.5h.2zM12.7 27.6l-.8.2.4-2.2a.2.2 0 00-.1-.2H12l-.2-.1c0-.2 0-.2.2-.3h.5l.5-.1a.3.3 0 01.3.2v.4l-.6 2.1zM15.6 26c-.1.7-.5 1.2-1 1.2l-.8.2a.4.4 0 01-.4-.3v-.7l.2-.7c0-.2.1-.5.3-.7.2-.3.4-.4.7-.5l.7-.1a.4.4 0 01.5.3v.6l-.2.7zm-1 .6l.3-1.5V25s0-.1 0 0a.3.3 0 00-.3.1l-.4 1.6v.1a.1.1 0 00.2.1.3.3 0 00.2-.3zM18.3 25.5c-.2.7-.5 1.1-1 1.2l-.8.2a.4.4 0 01-.5-.3v-.7l.2-.7c0-.3.2-.5.4-.8.1-.2.3-.4.6-.4l.7-.2a.4.4 0 01.6.4v.6l-.2.7zm-1 .6l.3-1.6-.1-.1a.3.3 0 00-.3.2l-.3 1.6v.1s0 .1.1 0a.3.3 0 00.2-.2z" fill="#fff"/><path d="M26.6 4.2s.6-2-6-2c-7.2 0-8.6 3.3-8.6 3.3l.6.3a2.6 2.6 0 012.7-1.6h11.3zM26.4 13.1v-2.8a1 1 0 00-.8-1h-2V5.5h-4.5v4h-1.9a.9.9 0 00-.9.9V13c0 .7-.2.9-.2 1 0 .3.2.3.2.3h10.1c.1 0 .3 0 .3-.2s-.3-.4-.3-1z" fill="#062E1A"/><path d="M48.8 7.7s3.8.6 6.1 7c2.8-2.4.2-8.1-4.3-11.2C45.8 0 37.4 0 37.4 0s3.6 1.5 4.5 7.8c.7 5.4 4.2 7.8 9 8.2.7-3.3-2-8.3-2-8.3zM62 15.6s-2.7-.6-5.8 3c-1.2-2.2 2-5.3 5.7-6.2 4-1 9.4 1 9.4 1s-2.7.1-4.9 4c-1.8 3.3-4.7 4-7.9 3 .4-2.2 3.4-4.8 3.4-4.8z" fill="#123079"/><path d="M55.3 21c-.7-8.2-5-11.8-5-11.8 2.5 5 2.2 11.2 2.2 11.2v14.9c-6.3-1.7-21.6-4.9-25 .9-2 3.6-1.7 6.9-6.7 9.7-1.6.8-3.4 1.2-5.2 1.2 0 0-2.3 2.3.5 3.6 2.8 1.4 7.7-.2 12.3-4.1 0 0-1.2 8-10.3 7.4L1.8 51.3s-2.2.9-.1 2.7c0 0 15.6 3.8 17.2 4 5.2.8 15.7 2 24.1-17 .8-1.8 6.3 1.3 9.5 3.8v14.4a1.4 1.4 0 002.9 0V26.3c1.7-7.1 5.2-10.1 5.2-10.1-2.2 1-4 2.7-5.3 4.7z" fill="#062E1A"/></svg>