<svg width="432" height="284" fill="none" xmlns="http://www.w3.org/2000/svg"><path d="M57.4 260.5v4z" fill="#000"/><path d="M57.4 260.5v4" stroke="#000" stroke-width=".8"/><path d="M46.6 277.7h-1.3v-8.4l-2.5 1V269l3.6-1.4h.2v10zm8.6-4.4l-1 .8c-.3.2-.7.3-1.2.3-.6 0-1-.2-1.5-.5-.4-.2-.7-.6-1-1.1a4 4 0 01-.3-1.7c0-.7.1-1.3.4-1.8a2.8 2.8 0 012.7-1.7c1 0 1.7.4 2.3 1.1.6.7.8 1.8.8 3v.4c0 2-.3 3.3-1.1 4.2-.8 1-2 1.4-3.5 1.4h-.2v-1h.2c1 0 1.9-.4 2.5-.9.5-.5.8-1.3.9-2.5zm-2 0a2 2 0 001.2-.4c.3-.2.6-.5.8-1v-.4c0-.9-.2-1.5-.6-2-.3-.6-.8-.8-1.3-.8-.6 0-1 .2-1.4.6-.3.4-.5 1-.5 1.7s.2 1.2.5 1.7c.3.4.8.6 1.3.6zm10-5.6v1.1h-.3c-1 0-1.8.3-2.3.9-.6.6-1 1.3-1 2.4.5-.6 1.2-1 2.1-1 .9 0 1.6.4 2 1 .6.6.8 1.4.8 2.4s-.2 1.8-.8 2.4c-.6.6-1.3 1-2.2 1-1 0-1.8-.4-2.4-1.2-.5-.7-.8-1.6-.8-2.8v-.5c0-1.8.3-3.2 1.1-4.2s2-1.4 3.5-1.5h.2zm-1.7 4.5a2 2 0 00-1.2.4 2 2 0 00-.8 1v.5c0 .8.2 1.4.6 2 .4.4.8.7 1.4.7.5 0 1-.2 1.3-.6.3-.5.5-1 .5-1.7s-.2-1.2-.5-1.6c-.3-.5-.8-.7-1.3-.7zm10.8 1.3c0 1.4-.3 2.5-.8 3.3-.5.7-1.3 1-2.3 1-1.1 0-1.9-.3-2.4-1s-.8-1.8-.8-3.2V272c0-1.4.3-2.5.8-3.2.5-.7 1.3-1 2.3-1 1.1 0 1.9.3 2.4 1 .5.6.8 1.7.8 3.1v1.7zm-1.3-1.8c0-1-.1-1.8-.4-2.3-.3-.5-.8-.8-1.5-.8-.6 0-1 .3-1.4.8-.3.5-.4 1.2-.4 2.2v2c0 1.1.1 2 .4 2.4.3.5.8.8 1.5.8.6 0 1-.2 1.3-.7.3-.5.5-1.3.5-2.3v-2zM108.4 260.5v4z" fill="#000"/><path d="M108.4 260.5v4" stroke="#000" stroke-width=".8"/><path d="M97.6 277.7h-1.3v-8.4l-2.5 1V269l3.6-1.4h.2v10zm8.6-4.4a3 3 0 01-1 .8l-1.2.3c-.6 0-1-.2-1.5-.5-.4-.2-.7-.6-1-1.1-.2-.6-.3-1.1-.3-1.7 0-.7.1-1.3.3-1.8a2.8 2.8 0 012.8-1.7c1 0 1.7.4 2.3 1.1.6.7.8 1.8.8 3v.4c0 2-.3 3.3-1.1 4.2-.8 1-2 1.4-3.5 1.4h-.2v-1h.2c1 0 1.9-.4 2.4-.9.6-.5 1-1.3 1-2.5zm-2 0a2 2 0 001.2-.4c.3-.2.6-.5.8-1v-.4c0-.9-.2-1.5-.6-2-.3-.6-.8-.8-1.3-.8-.6 0-1 .2-1.4.6-.3.4-.5 1-.5 1.7s.2 1.2.5 1.7c.3.4.8.6 1.3.6zm11-3c0 .5-.1 1-.4 1.4-.2.4-.6.7-1 .9.5.2.9.5 1.2 1 .3.4.4.9.4 1.4 0 .9-.2 1.6-.8 2-.6.6-1.4.8-2.3.8-1 0-1.7-.2-2.3-.7-.6-.5-.9-1.2-.9-2 0-.6.2-1.1.5-1.5.3-.5.7-.8 1.2-1-.5-.2-.8-.6-1-1-.3-.3-.5-.8-.5-1.3 0-.8.3-1.5.9-2a3 3 0 012-.7 3 3 0 012.2.7c.5.5.8 1.2.8 2zm-1 4.7c0-.6-.2-1-.6-1.4-.3-.3-.8-.5-1.3-.5-.6 0-1 .2-1.4.5-.3.4-.5.8-.5 1.4 0 .5.1 1 .5 1.3.3.3.8.5 1.4.5.6 0 1-.2 1.4-.5.3-.3.5-.8.5-1.3zm-2-6.4c-.4 0-.8.2-1.1.5-.3.3-.5.7-.5 1.3a1.6 1.6 0 001.7 1.7c.5 0 .9-.2 1.2-.5.3-.3.5-.7.5-1.2s-.2-1-.5-1.3c-.3-.3-.7-.5-1.2-.5zm11 4.9c0 1.4-.2 2.5-.7 3.3-.5.7-1.3 1-2.3 1-1.1 0-1.9-.3-2.4-1s-.8-1.8-.8-3.2V272c0-1.4.3-2.5.8-3.2.5-.7 1.3-1 2.3-1 1.1 0 1.9.3 2.4 1 .5.6.8 1.7.8 3.1v1.7zm-1.2-1.8c0-1-.1-1.8-.4-2.3-.3-.5-.8-.8-1.5-.8-.6 0-1 .3-1.4.8-.3.5-.4 1.2-.4 2.2v2c0 1.1.1 2 .4 2.4.3.5.8.8 1.5.8.6 0 1-.2 1.3-.7.3-.5.5-1.3.5-2.3v-2zM159.3 260.5v4z" fill="#000"/><path d="M159.3 260.5v4" stroke="#000" stroke-width=".8"/><path d="M151 277.7h-6.5v-1l3.4-3.7c.5-.6.9-1 1-1.4l.3-1.2c0-.5-.1-1-.4-1.3-.3-.3-.8-.5-1.3-.5a2 2 0 00-1.5.6 2 2 0 00-.5 1.5h-1.2c0-1 .3-1.7.8-2.2.6-.6 1.4-.9 2.4-.9s1.7.3 2.2.7c.5.5.8 1.2.8 2 0 1-.6 2.1-1.9 3.5l-2.6 2.9h5v1zm7.6-4.2c0 1.4-.3 2.5-.8 3.3-.5.7-1.3 1-2.4 1-1 0-1.8-.3-2.3-1-.5-.7-.8-1.8-.8-3.2V272c0-1.4.2-2.5.7-3.2.5-.7 1.3-1 2.4-1 1 0 1.9.3 2.4 1 .5.6.7 1.7.8 3.1v1.7zm-1.3-1.8c0-1-.2-1.8-.5-2.3-.3-.5-.7-.8-1.4-.8-.6 0-1.1.3-1.4.8-.3.5-.5 1.2-.5 2.2v2c0 1.1.2 2 .5 2.4.3.5.8.8 1.4.8.6 0 1.1-.2 1.4-.7.3-.5.5-1.3.5-2.3v-2zm9.1 1.8c0 1.4-.2 2.5-.7 3.3-.5.7-1.3 1-2.4 1-1 0-1.9-.3-2.4-1s-.7-1.8-.8-3.2V272c0-1.4.3-2.5.8-3.2.5-.7 1.3-1 2.4-1 1 0 1.8.3 2.3 1 .5.6.8 1.7.8 3.1v1.7zm-1.2-1.8c0-1-.2-1.8-.5-2.3-.3-.5-.8-.8-1.4-.8-.7 0-1.1.3-1.4.8-.3.5-.5 1.2-.5 2.2v2c0 1.1.2 2 .5 2.4.3.5.8.8 1.4.8.6 0 1-.2 1.4-.7.3-.5.4-1.3.5-2.3v-2zm9 1.8c0 1.4-.2 2.5-.7 3.3-.5.7-1.3 1-2.4 1-1 0-1.8-.3-2.3-1-.5-.7-.8-1.8-.8-3.2V272c0-1.4.2-2.5.8-3.2.5-.7 1.3-1 2.3-1 1.1 0 1.9.3 2.4 1 .5.6.8 1.7.8 3.1v1.7zm-1.2-1.8c0-1-.1-1.8-.4-2.3-.3-.5-.8-.8-1.5-.8-.6 0-1 .3-1.4.8-.3.5-.4 1.2-.4 2.2v2c0 1.1.1 2 .4 2.4.3.5.8.8 1.4.8.7 0 1.1-.2 1.4-.7.3-.5.5-1.3.5-2.3v-2zM210.3 260.5v4z" fill="#000"/><path d="M210.3 260.5v4" stroke="#000" stroke-width=".8"/><path d="M202 277.7h-6.6v-1l3.5-3.7c.5-.6.9-1 1-1.4l.3-1.2c0-.5-.1-1-.4-1.3-.3-.3-.8-.5-1.3-.5a2 2 0 00-1.5.6 2 2 0 00-.5 1.5h-1.2c0-1 .3-1.7.8-2.2.6-.6 1.4-.9 2.4-.9s1.7.3 2.2.7c.5.5.8 1.2.8 2 0 1-.6 2.1-1.9 3.5l-2.6 2.9h5v1zm7.6-4.2c0 1.4-.3 2.5-.8 3.3-.5.7-1.3 1-2.4 1-1 0-1.8-.3-2.3-1-.5-.7-.8-1.8-.8-3.2V272c0-1.4.2-2.5.7-3.2.5-.7 1.3-1 2.4-1 1 0 1.9.3 2.4 1 .5.6.7 1.7.8 3.1v1.7zm-1.3-1.8c0-1-.2-1.8-.5-2.3-.3-.5-.7-.8-1.4-.8-.6 0-1.1.3-1.4.8-.3.5-.5 1.2-.5 2.2v2c0 1.1.2 2 .5 2.4.3.5.8.8 1.4.8.6 0 1.1-.2 1.4-.7.3-.5.5-1.3.5-2.3v-2zm9.4 6h-6.5v-1l3.4-3.7c.5-.6.9-1 1-1.4.3-.4.4-.8.4-1.2 0-.5-.2-1-.5-1.3-.3-.3-.7-.5-1.3-.5a2 2 0 00-1.4.6 2 2 0 00-.6 1.5H211c0-1 .3-1.7.9-2.2.6-.6 1.3-.9 2.3-.9 1 0 1.7.3 2.2.7.6.5.8 1.2.8 2 0 1-.6 2.1-1.8 3.5l-2.7 2.9h5v1zm7.6-4.2c0 1.4-.3 2.5-.8 3.3-.5.7-1.3 1-2.4 1-1 0-1.8-.3-2.3-1-.5-.7-.8-1.8-.8-3.2V272c0-1.4.2-2.5.8-3.2.5-.7 1.2-1 2.3-1 1.1 0 1.9.3 2.4 1 .5.6.8 1.7.8 3.1v1.7zm-1.3-1.8c0-1-.1-1.8-.4-2.3-.3-.5-.8-.8-1.5-.8-.6 0-1 .3-1.4.8-.3.5-.4 1.2-.4 2.2v2c0 1.1.1 2 .4 2.4.3.5.8.8 1.4.8.7 0 1.1-.2 1.4-.7.3-.5.5-1.3.5-2.3v-2zM261.3 260.5v4z" fill="#000"/><path d="M261.3 260.5v4" stroke="#000" stroke-width=".8"/><path d="M253 277.7h-6.6v-1l3.5-3.7c.5-.6.9-1 1-1.4l.3-1.2c0-.5-.1-1-.4-1.3-.4-.3-.8-.5-1.3-.5a2 2 0 00-1.5.6 2 2 0 00-.5 1.5h-1.2c0-1 .2-1.7.8-2.2.6-.6 1.4-.9 2.4-.9s1.7.3 2.2.7c.5.5.8 1.2.8 2 0 1-.6 2.1-1.9 3.5l-2.6 2.9h5v1zm7.5-4.2c0 1.4-.2 2.5-.7 3.3-.5.7-1.3 1-2.4 1-1 0-1.8-.3-2.3-1-.6-.7-.8-1.8-.8-3.2V272c0-1.4.2-2.5.7-3.2.5-.7 1.3-1 2.4-1 1 0 1.9.3 2.4 1 .5.6.7 1.7.7 3.1v1.7zm-1.2-1.8c0-1-.2-1.8-.5-2.3-.3-.5-.7-.8-1.4-.8-.6 0-1.1.3-1.4.8-.3.5-.5 1.2-.5 2.2v2c0 1.1.2 2 .5 2.4.3.5.8.8 1.4.8.6 0 1.1-.2 1.4-.7.3-.5.5-1.3.5-2.3v-2zm8.2 2.7h1.4v1h-1.4v2.3h-1.3v-2.3h-4.5v-.8l4.5-6.9h1.3v6.7zm-4.4 0h3.1v-5l-.1.3-3 4.7zm13.2-1c0 1.5-.3 2.6-.8 3.4-.5.7-1.3 1-2.4 1-1 0-1.8-.3-2.3-1-.5-.7-.8-1.8-.8-3.2V272c0-1.4.2-2.5.7-3.2.6-.7 1.3-1 2.4-1 1.1 0 1.9.3 2.4 1 .5.6.8 1.7.8 3.1v1.7zm-1.3-1.7c0-1-.1-1.8-.4-2.3-.3-.5-.8-.8-1.5-.8-.6 0-1 .3-1.4.8-.3.5-.4 1.2-.4 2.2v2c0 1.1.1 2 .4 2.4.3.5.8.8 1.4.8.7 0 1.1-.2 1.4-.7.3-.5.5-1.3.5-2.3v-2zM312.3 260.5v4z" fill="#000"/><path d="M312.3 260.5v4" stroke="#000" stroke-width=".8"/><path d="M304 277.7h-6.6v-1l3.5-3.7 1-1.4.3-1.2c0-.5-.1-1-.4-1.3-.4-.3-.8-.5-1.3-.5a2 2 0 00-1.5.6 2 2 0 00-.5 1.5h-1.3c0-1 .3-1.7 1-2.2.5-.6 1.3-.9 2.3-.9 1 0 1.7.3 2.2.7.5.5.8 1.2.8 2 0 1-.6 2.1-1.9 3.5l-2.6 2.9h5v1zm7.5-4.2c0 1.4-.2 2.5-.7 3.3-.5.7-1.3 1-2.4 1-1 0-1.8-.3-2.3-1-.6-.7-.8-1.8-.8-3.2V272c0-1.4.2-2.5.7-3.2.5-.7 1.3-1 2.4-1 1 0 1.9.3 2.4 1 .5.6.7 1.7.7 3.1v1.7zm-1.2-1.8c0-1-.2-1.8-.5-2.3-.3-.5-.8-.8-1.4-.8-.6 0-1.1.3-1.4.8-.3.5-.5 1.2-.5 2.2v2c0 1.1.2 2 .5 2.4.3.5.8.8 1.4.8.6 0 1.1-.2 1.4-.7.3-.5.5-1.3.5-2.3v-2zm7.8-4v1.1h-.2c-1 0-1.8.3-2.4.9-.5.6-.9 1.3-1 2.4.6-.6 1.3-1 2.2-1 .8 0 1.5.4 2 1 .6.6.8 1.4.8 2.4s-.3 1.8-.8 2.4c-.6.6-1.3 1-2.3 1-1 0-1.7-.4-2.3-1.2-.6-.7-.9-1.6-.9-2.8v-.5c0-1.8.4-3.2 1.2-4.2.8-1 2-1.4 3.5-1.5h.2zm-1.6 4.5a2 2 0 00-1.2.4 2 2 0 00-.8 1v.5c0 .8.2 1.4.6 2 .3.4.8.7 1.3.7.6 0 1-.2 1.4-.6.3-.5.5-1 .5-1.7s-.2-1.2-.5-1.6c-.4-.5-.8-.7-1.3-.7zm10.8 1.3c0 1.4-.3 2.5-.8 3.3-.5.7-1.3 1-2.4 1-1 0-1.8-.3-2.3-1-.5-.7-.8-1.8-.8-3.2V272c0-1.4.2-2.5.7-3.2.5-.7 1.3-1 2.4-1 1 0 1.9.3 2.4 1 .5.6.8 1.7.8 3.1v1.7zm-1.3-1.8c0-1-.1-1.8-.4-2.3-.4-.5-.8-.8-1.5-.8-.6 0-1.1.3-1.4.8-.3.5-.4 1.2-.5 2.2v2c0 1.1.2 2 .5 2.4.3.5.8.8 1.4.8.7 0 1.1-.2 1.4-.7.3-.5.5-1.3.5-2.3v-2zM363.3 260.5v4z" fill="#000"/><path d="M363.3 260.5v4" stroke="#000" stroke-width=".8"/><path d="M355 277.7h-6.6v-1l3.5-3.7 1-1.4.3-1.2c0-.5-.1-1-.4-1.3-.4-.3-.8-.5-1.3-.5a2 2 0 00-1.5.6 2 2 0 00-.5 1.5h-1.3c0-1 .3-1.7 1-2.2.5-.6 1.3-.9 2.3-.9 1 0 1.7.3 2.2.7.5.5.8 1.2.8 2 0 1-.6 2.1-1.9 3.5l-2.6 2.9h5v1zm7.5-4.2c0 1.4-.2 2.5-.7 3.3-.5.7-1.3 1-2.4 1-1 0-1.8-.3-2.3-1-.6-.7-.8-1.8-.8-3.2V272c0-1.4.2-2.5.7-3.2.5-.7 1.3-1 2.4-1 1 0 1.9.3 2.4 1 .5.6.7 1.7.7 3.1v1.7zm-1.2-1.8c0-1-.2-1.8-.5-2.3-.3-.5-.8-.8-1.4-.8-.7 0-1.1.3-1.4.8-.3.5-.5 1.2-.5 2.2v2c0 1.1.2 2 .5 2.4.3.5.8.8 1.4.8.6 0 1.1-.2 1.4-.7.3-.5.5-1.3.5-2.3v-2zm8.9-1.4c0 .5-.1 1-.4 1.4-.3.4-.6.7-1 .9.5.2.9.5 1.2 1 .3.4.4.9.4 1.4 0 .9-.3 1.6-.8 2-.6.6-1.4.8-2.3.8-1 0-1.8-.2-2.3-.7-.6-.5-.9-1.2-.9-2 0-.6.1-1.1.4-1.5.3-.5.7-.8 1.3-1-.5-.2-.8-.6-1-1-.3-.3-.5-.8-.5-1.3 0-.8.3-1.5.8-2a3 3 0 012.2-.7 3 3 0 012 .7c.6.5.9 1.2.9 2zm-1 4.7c0-.6-.2-1-.6-1.4-.3-.3-.8-.5-1.4-.5-.5 0-1 .2-1.3.5-.4.4-.5.8-.5 1.4 0 .5.1 1 .5 1.3.3.3.8.5 1.4.5.6 0 1-.2 1.4-.5.3-.3.5-.8.5-1.3zm-2-6.4c-.4 0-.8.2-1.1.5-.4.3-.5.7-.5 1.3 0 .5.1.9.4 1.2.4.3.8.5 1.3.5s.9-.2 1.2-.5c.3-.3.4-.7.4-1.2s-.1-1-.4-1.3c-.4-.3-.8-.5-1.2-.5zm11 4.9c0 1.4-.2 2.5-.7 3.3-.5.7-1.3 1-2.4 1-1 0-1.8-.3-2.3-1-.5-.7-.8-1.8-.8-3.2V272c0-1.4.2-2.5.7-3.2.5-.7 1.3-1 2.4-1 1 0 1.9.3 2.4 1 .5.6.7 1.7.8 3.1v1.7zm-1.2-1.8c0-1-.2-1.8-.5-2.3-.3-.5-.7-.8-1.4-.8-.6 0-1.1.3-1.4.8-.3.5-.4 1.2-.5 2.2v2c0 1.1.2 2 .5 2.4.3.5.8.8 1.4.8.7 0 1.1-.2 1.4-.7.3-.5.5-1.3.5-2.3v-2zM414.3 260.5v4z" fill="#000"/><path d="M414.3 260.5v4" stroke="#000" stroke-width=".8"/><path d="M406 277.7h-6.6v-1l3.5-3.7 1-1.4.3-1.2c0-.5-.1-1-.4-1.3-.4-.3-.8-.5-1.3-.5a2 2 0 00-1.5.6 2 2 0 00-.5 1.5h-1.3c0-1 .3-1.7 1-2.2.5-.6 1.3-.9 2.3-.9 1 0 1.7.3 2.2.7.5.5.8 1.2.8 2 0 1-.6 2.1-1.9 3.5l-2.6 2.9h5v1zm5.4 0h-1.2v-8.4l-2.6 1V269l3.7-1.4h.1v10zm10-4.2c0 1.4-.3 2.5-.8 3.3-.5.7-1.3 1-2.3 1-1.1 0-1.9-.3-2.4-1s-.8-1.8-.8-3.2V272c0-1.4.3-2.5.8-3.2.5-.7 1.3-1 2.4-1 1 0 1.8.3 2.3 1 .5.6.8 1.7.8 3.1v1.7zm-1.3-1.8c0-1-.1-1.8-.4-2.3-.3-.5-.8-.8-1.4-.8-.7 0-1.2.3-1.5.8-.3.5-.4 1.2-.4 2.2v2c0 1.1.1 2 .4 2.4.4.5.8.8 1.5.8.6 0 1-.2 1.4-.7.3-.5.4-1.3.4-2.3v-2zm9.2 1.8c0 1.4-.3 2.5-.8 3.3-.5.7-1.3 1-2.4 1-1 0-1.8-.3-2.3-1-.5-.7-.8-1.8-.8-3.2V272c0-1.4.2-2.5.7-3.2.5-.7 1.3-1 2.4-1 1 0 1.9.3 2.4 1 .5.6.7 1.7.8 3.1v1.7zm-1.3-1.8c0-1-.2-1.8-.5-2.3-.3-.5-.7-.8-1.4-.8-.6 0-1.1.3-1.4.8-.3.5-.5 1.2-.5 2.2v2c0 1.1.2 2 .5 2.4.3.5.8.8 1.4.8.7 0 1.1-.2 1.4-.7.3-.5.5-1.3.5-2.3v-2zM57.4 239.5h-3.8z" fill="#000"/><path d="M57.4 239.5h-3.8" stroke="#000" stroke-width=".8"/><path d="M33 238h-5.7v-1H33v1zm8.5 4.4H35v-.9l3.4-3.8c.6-.6.9-1 1-1.4.3-.4.4-.8.4-1.2 0-.5-.2-1-.5-1.2-.3-.4-.7-.5-1.2-.5a2 2 0 00-1.5.5 2 2 0 00-.5 1.5h-1.3c0-1 .3-1.7.9-2.2.6-.6 1.4-.9 2.4-.9.9 0 1.6.3 2.2.7.5.5.8 1.2.8 2 0 1-.7 2.1-2 3.5l-2.6 2.9h5v1zm7.6-4.2c0 1.4-.3 2.5-.8 3.3-.5.7-1.3 1-2.3 1-1 0-1.9-.3-2.4-1s-.8-1.8-.8-3.2v-1.7c0-1.4.3-2.5.8-3.2.5-.7 1.3-1 2.4-1 1 0 1.8.3 2.3 1 .5.6.8 1.7.8 3.1v1.7zm-1.3-1.8c0-1-.1-1.8-.4-2.3-.3-.5-.8-.7-1.4-.7-.7 0-1.2.2-1.5.7-.3.5-.4 1.2-.4 2.2v2c0 1.1.1 2 .4 2.4.4.6.8.8 1.5.8.6 0 1-.2 1.4-.7.3-.5.4-1.3.4-2.3v-2zM57.4 197.5h-3.8z" fill="#000"/><path d="M57.4 197.5h-3.8" stroke="#000" stroke-width=".8"/><path d="M49.1 196.1c0 1.5-.3 2.6-.8 3.3-.5.8-1.3 1.1-2.3 1.1-1 0-1.9-.3-2.4-1s-.8-1.8-.8-3.2v-1.7c0-1.4.3-2.5.8-3.2.5-.7 1.3-1.1 2.4-1.1 1 0 1.8.3 2.3 1 .5.7.8 1.8.8 3.2v1.6zm-1.3-1.7c0-1-.1-1.8-.4-2.3-.3-.5-.8-.8-1.4-.8-.7 0-1.2.3-1.5.8-.3.5-.4 1.2-.4 2.2v2c0 1.1.1 2 .4 2.4.4.5.8.8 1.5.8.6 0 1-.2 1.4-.7.3-.5.4-1.3.4-2.3v-2zM57.4 155.4h-3.8z" fill="#000"/><path d="M57.4 155.4h-3.8" stroke="#000" stroke-width=".8"/><path d="M41.5 158.4H35v-1l3.4-3.8c.6-.5.9-1 1-1.4.3-.3.4-.7.4-1.1 0-.5-.2-1-.5-1.3-.3-.3-.7-.5-1.2-.5a2 2 0 00-1.5.6 2 2 0 00-.5 1.5h-1.3c0-1 .3-1.7.9-2.3.6-.5 1.4-.8 2.4-.8.9 0 1.6.2 2.2.7.5.5.8 1.1.8 2 0 1-.7 2.1-2 3.4l-2.6 3h5v1zm7.6-4.3c0 1.5-.3 2.6-.8 3.3-.5.8-1.3 1.1-2.3 1.1-1 0-1.9-.3-2.4-1s-.8-1.8-.8-3.2v-1.7c0-1.5.3-2.5.8-3.3.5-.7 1.3-1 2.4-1 1 0 1.8.3 2.3 1 .5.7.8 1.8.8 3.2v1.6zm-1.3-1.7c0-1-.1-1.9-.4-2.3-.3-.5-.8-.8-1.4-.8-.7 0-1.2.3-1.5.8-.3.4-.4 1.2-.4 2.2v2c0 1.1.1 1.9.4 2.4.4.5.8.8 1.5.8.6 0 1-.3 1.4-.7.3-.5.4-1.3.4-2.3v-2.1zM57.4 113.4h-3.8z" fill="#000"/><path d="M57.4 113.4h-3.8" stroke="#000" stroke-width=".8"/><path d="M40.3 113h1.4v1h-1.4v2.4h-1.2V114h-4.6v-.7l4.5-6.9h1.3v6.6zm-4.3 0h3v-4.9.3l-3 4.6zm13.1-.9c0 1.5-.3 2.6-.8 3.3-.5.7-1.3 1-2.3 1-1 0-1.9-.3-2.4-1s-.8-1.7-.8-3.1v-1.7c0-1.5.3-2.6.8-3.3.5-.7 1.3-1 2.4-1 1 0 1.8.3 2.3 1 .5.7.8 1.7.8 3.2v1.6zm-1.3-1.7c0-1-.1-1.9-.4-2.4-.3-.4-.8-.7-1.4-.7-.7 0-1.2.3-1.5.7-.3.5-.4 1.3-.4 2.3v2c0 1 .1 1.9.4 2.4.4.5.8.8 1.5.8.6 0 1-.3 1.4-.8.3-.4.4-1.2.4-2.2v-2.1zM57.4 71.4h-3.8z" fill="#000"/><path d="M57.4 71.4h-3.8" stroke="#000" stroke-width=".8"/><path d="M40 64.4v1h-.3c-1 0-1.7.4-2.3 1-.6.5-1 1.3-1 2.3.5-.6 1.2-.9 2.1-.9.9 0 1.6.3 2 1 .6.5.9 1.3.9 2.3 0 1-.3 1.8-.9 2.5-.5.6-1.3.9-2.2.9-1 0-1.7-.4-2.3-1.1-.6-.8-1-1.7-1-2.8V70c0-1.9.5-3.3 1.2-4.2.8-1 2-1.5 3.5-1.5h.3zm-1.7 4.5a2 2 0 00-1.2.4 2 2 0 00-.8 1v.4c0 .8.2 1.5.6 2 .4.5.8.7 1.4.7.5 0 1-.2 1.3-.6.3-.4.5-1 .5-1.6 0-.7-.2-1.3-.5-1.7-.3-.4-.8-.6-1.3-.6zM49.1 70c0 1.5-.3 2.6-.8 3.3-.5.7-1.3 1-2.3 1-1 0-1.9-.3-2.4-1s-.8-1.7-.8-3.1v-1.7c0-1.5.3-2.6.8-3.3.5-.7 1.3-1 2.4-1 1 0 1.8.3 2.3 1 .5.7.8 1.7.8 3.2V70zm-1.3-1.7c0-1.1-.1-1.9-.4-2.4-.3-.5-.8-.7-1.4-.7-.7 0-1.2.2-1.5.7-.3.5-.4 1.3-.4 2.3v2c0 1 .1 1.9.4 2.4.4.5.8.7 1.5.7.6 0 1-.2 1.4-.7.3-.5.4-1.2.4-2.3v-2zM57.4 29.4h-3.8z" fill="#000"/><path d="M57.4 29.4h-3.8" stroke="#000" stroke-width=".8"/><path d="M41 25c0 .5-.1 1-.4 1.3-.2.4-.6.7-1 .9.5.2 1 .6 1.2 1 .3.4.5.9.5 1.4 0 .9-.3 1.6-1 2-.5.6-1.3.9-2.2.9-1 0-1.7-.3-2.3-.8-.6-.5-.9-1.2-.9-2 0-.6.2-1 .5-1.5s.7-.8 1.2-1c-.4-.2-.8-.5-1-1-.3-.3-.4-.7-.4-1.2 0-.9.2-1.5.8-2a3 3 0 012.1-.8 3 3 0 012.1.8c.6.5.8 1.1.8 2zm-1 4.6c0-.5-.2-1-.5-1.4-.4-.3-.8-.5-1.4-.5-.6 0-1 .2-1.4.5-.3.4-.5.8-.5 1.4 0 .6.2 1 .5 1.3.3.4.8.5 1.4.5.6 0 1-.1 1.4-.5.3-.3.5-.7.5-1.3zm-1.9-6.3c-.5 0-.9.1-1.2.4-.3.3-.5.8-.5 1.3s.2.9.5 1.2c.3.3.7.5 1.2.5s1-.2 1.2-.5c.3-.3.5-.7.5-1.2s-.2-1-.5-1.2c-.3-.4-.7-.5-1.2-.5zm11 4.8c0 1.5-.3 2.6-.8 3.3-.5.7-1.3 1-2.3 1-1 0-1.9-.3-2.4-1s-.8-1.8-.8-3.2v-1.6c0-1.5.3-2.6.8-3.3.5-.7 1.3-1 2.4-1 1 0 1.8.3 2.3 1 .5.6.8 1.7.8 3.1v1.7zm-1.3-1.8c0-1-.1-1.8-.4-2.3-.3-.5-.8-.7-1.4-.7-.7 0-1.2.2-1.5.7-.3.5-.4 1.2-.4 2.3v2c0 1 .1 1.8.4 2.4.4.5.8.7 1.5.7.6 0 1-.2 1.4-.7.3-.5.4-1.2.4-2.3v-2zM10.6 216.8c1 .1 1.8.5 2.4 1.1.6.7.8 1.6.8 2.6 0 1.2-.4 2.2-1.2 2.9-.9.7-2 1-3.4 1h-1c-.9 0-1.7-.1-2.4-.5a3.7 3.7 0 01-2.2-3.5c0-1 .3-1.9 1-2.5.5-.6 1.3-1 2.4-1.1v1.3c-.8.1-1.4.4-1.8.7-.3.4-.5 1-.5 1.6 0 .9.3 1.5 1 2 .5.5 1.4.7 2.6.7h1c1 0 1.9-.2 2.5-.7.7-.4 1-1 1-1.9 0-.7-.2-1.2-.5-1.6-.4-.4-1-.7-1.7-.8v-1.3zM9 207.3c1 0 1.8.2 2.5.5s1.3.8 1.7 1.4c.4.6.5 1.3.5 2.1s-.1 1.5-.5 2.1c-.4.6-1 1-1.7 1.4a6 6 0 01-2.5.5h-.7a6 6 0 01-2.5-.5c-.7-.3-1.3-.8-1.7-1.4a3.8 3.8 0 010-4.2c.4-.6 1-1 1.7-1.4.7-.3 1.6-.5 2.5-.5h.7zm-.7 1.3c-1.2 0-2 .3-2.7.7-.6.5-1 1.2-1 2 0 .9.4 1.5 1 2s1.5.7 2.6.7h.8c1.1 0 2-.2 2.7-.7.6-.5 1-1.1 1-2 0-.8-.4-1.5-1-2-.6-.4-1.5-.7-2.7-.7h-.7zm7.1-6.4v4h-.7l-1.6-1.6-.9-.9-.6-.4-.6-.1c-.3 0-.5 0-.7.3a1 1 0 00-.2.6c0 .3 0 .6.2.8l.4.7-.6.5-.6-.9-.2-1c0-.7.2-1.1.5-1.5.2-.3.6-.5 1.2-.5.4 0 .8.1 1.2.4l1.3 1.2 1 1.2v-2.8h1zm-1.7-4.6c0 1-.3 1.8-1 2.4-.6.7-1.5 1-2.6 1H10c-.8 0-1.4-.2-2-.4-.6-.3-1-.7-1.3-1.2a3 3 0 01-.5-1.7c0-1 .3-1.7 1-2.2.6-.5 1.5-.8 2.6-.8h.6v5c.7 0 1.3-.2 1.7-.6.5-.4.7-1 .7-1.6 0-.4 0-.8-.3-1.1-.1-.3-.4-.6-.7-.8l.6-.8c1 .6 1.4 1.5 1.4 2.8zm-6.6.1c0 .6.2 1 .6 1.3.3.4.9.6 1.5.7V196c-.7 0-1.2.2-1.6.5-.3.3-.5.7-.5 1.2zm6.6-11c0 1-.3 1.8-1 2.4-.6.7-1.5 1-2.6 1H10c-.8 0-1.4-.2-2-.4-.6-.3-1-.7-1.3-1.2a3 3 0 01-.5-1.7c0-1 .3-1.7 1-2.2.6-.5 1.5-.8 2.6-.8h.6v5c.7 0 1.3-.2 1.7-.6.5-.4.7-1 .7-1.6 0-.4 0-.8-.3-1.1-.1-.3-.4-.6-.7-.8l.6-.8c1 .6 1.4 1.5 1.4 2.8zm-6.6.1c0 .6.2 1 .6 1.3.3.4.9.6 1.5.7V185c-.7 0-1.2.2-1.6.5-.3.3-.5.7-.5 1.2zm-.9-5.7h.8c-.6-.5-1-1.3-1-2.2 0-1 .5-1.7 1.3-2l-.9-1c-.2-.4-.3-1-.3-1.5 0-1.6.8-2.4 2.6-2.4h5v1.2h-5c-.5 0-.9.2-1.2.4-.2.2-.4.6-.4 1.2 0 .5.2.9.5 1.2.3.3.6.5 1.1.5h5v1.3h-5c-1 0-1.6.5-1.6 1.6 0 .8.4 1.4 1.1 1.7h5.4v1.2H6.3v-1.2zm7.4-12.4v1.2H6.3v-1.2h7.4zM4.4 170l-.6-.2-.2-.6c0-.2 0-.4.2-.6l.6-.1.5.1.2.6-.2.6-.5.2zm7.3-7.8a1 1 0 00-.7.4c-.2.3-.4.7-.5 1.4l-.5 1.5c-.2.4-.4.7-.7.8-.3.2-.6.3-1 .3a2 2 0 01-1.5-.8 3 3 0 01-.6-2c0-.8.2-1.4.6-2a2 2 0 011.7-.7v1.2c-.4 0-.7.2-1 .5-.2.3-.3.6-.3 1 0 .5.1.9.3 1.2.2.2.5.3.8.3.3 0 .5 0 .7-.3l.4-1.3.5-1.6c.2-.4.5-.6.8-.8.2-.2.6-.3 1-.3.6 0 1.1.2 1.6.8.3.5.5 1.2.5 2 0 .6 0 1.2-.3 1.6-.2.5-.5.8-.8 1-.4.3-.8.5-1.3.5v-1.3c.5 0 .8-.2 1-.5.3-.3.4-.7.4-1.3a2 2 0 00-.3-1.1.9.9 0 00-.8-.5zm0-7.2a1 1 0 00-.7.4c-.2.3-.4.7-.5 1.4l-.5 1.5c-.2.4-.4.6-.7.8-.3.2-.6.3-1 .3a2 2 0 01-1.5-.8 3 3 0 01-.6-2c0-.8.2-1.5.6-2a2 2 0 011.7-.8v1.3c-.4 0-.7.2-1 .4-.2.3-.3.7-.3 1.2 0 .4.1.8.3 1 .2.3.5.4.8.4.3 0 .5-.1.7-.3l.4-1.3.5-1.6c.2-.4.5-.7.8-.8.2-.2.6-.3 1-.3.6 0 1.1.2 1.6.8.3.5.5 1.2.5 2 0 .6 0 1.1-.3 1.6-.2.4-.5.8-.8 1-.4.3-.8.4-1.3.4v-1.2c.5 0 .8-.2 1-.5.3-.3.4-.8.4-1.3a2 2 0 00-.3-1.1.9.9 0 00-.8-.5zm2-4.3v1.3H6.3v-1.3h7.4zm-9.3 1.4c-.3 0-.4 0-.6-.2l-.2-.5c0-.3 0-.5.2-.6l.6-.2c.2 0 .3 0 .5.2l.2.6-.2.5-.5.2zm5.5-3c-.7 0-1.3-.2-2-.5-.5-.3-1-.7-1.3-1.2-.3-.5-.4-1-.4-1.7 0-1 .3-1.8 1-2.5a4 4 0 012.8-.9c.8 0 1.5.2 2 .4a3.1 3.1 0 011.8 3c0 1-.3 1.8-1 2.4a4 4 0 01-2.8 1zm.2-1.3c.8 0 1.5-.2 2-.6.5-.4.7-.9.7-1.5 0-.7-.2-1.2-.7-1.6-.5-.3-1.3-.5-2.2-.5-.8 0-1.4.2-2 .6-.4.3-.7.9-.7 1.5s.3 1.1.8 1.5c.5.4 1.2.6 2 .6zm-3.8-8.3h1c-.8-.6-1.1-1.3-1.1-2.2 0-1.6.9-2.4 2.6-2.4h5v1.3h-5c-.5 0-1 .1-1.2.3-.2.3-.4.7-.4 1.2 0 .4.2.7.4 1l.8.8h5.3v1.2H6.3v-1.2zm5.4-10.8a1 1 0 00-.7.4c-.2.2-.4.7-.5 1.3l-.5 1.6-.7.8c-.3.2-.6.3-1 .3a2 2 0 01-1.5-.8 3 3 0 01-.6-2c0-.8.2-1.5.6-2a2 2 0 011.7-.8v1.3c-.4 0-.7.1-1 .4-.2.3-.3.7-.3 1.1 0 .5.1.8.3 1.1.2.3.5.4.8.4.3 0 .5-.1.7-.4.1-.2.3-.6.4-1.3l.5-1.5c.2-.4.5-.7.8-.9.2-.2.6-.3 1-.3.6 0 1.1.3 1.6.8.3.6.5 1.2.5 2 0 .7 0 1.2-.3 1.7-.2.4-.5.8-.8 1-.4.3-.8.4-1.3.4v-1.3c.5 0 .8-.1 1-.5.3-.3.4-.7.4-1.2a2 2 0 00-.3-1.2.9.9 0 00-.8-.4zm-2-6.3c-1 0-2-.2-3-.5-1-.2-1.8-.6-2.6-1.2a5.2 5.2 0 01-1.6-1.7l.8-.3c.5.7 1.3 1.3 2.3 1.7 1.1.4 2.3.6 3.6.7h.6c1.7 0 3.2-.3 4.5-1 .8-.4 1.4-.8 1.8-1.4l.8.3c-.3.6-.9 1.2-1.7 1.7a9.5 9.5 0 01-5.5 1.7zm.4-11.1c1.1 0 2 .2 2.7.7.7.6 1 1.3 1 2.1 0 1-.3 1.7-1 2.2h1v1.2H3.1v-1.2h4c-.7-.5-1-1.3-1-2.2 0-.8.3-1.6 1-2 .7-.6 1.6-.8 2.8-.8zm-.2 1.2c-.8 0-1.5.2-2 .5-.4.4-.7.8-.7 1.5 0 .8.4 1.4 1.2 1.8h3.2c.8-.4 1.2-1 1.2-1.9 0-.6-.3-1-.7-1.4-.5-.3-1.2-.5-2.2-.5zm3.8-4.2v1.3H6.3v-1.3h7.4zm-9.3 1.4l-.6-.2-.2-.6c0-.2 0-.4.2-.5.2-.2.3-.2.6-.2.2 0 .3 0 .5.2l.2.5-.2.6-.5.2zm9.3-4.8v1.3H3.2V105h10.5zm0-3.4v1.2H3.2v-1.2h10.5zm0-3.4v1.2H6.3v-1.2h7.4zm-9.3 1.3l-.6-.1-.2-.6c0-.2 0-.4.2-.6l.6-.2.5.2.2.6-.2.6-.5.1zm5.5-3c-.7 0-1.3-.2-2-.4-.5-.3-1-.7-1.3-1.2-.3-.5-.4-1.1-.4-1.8 0-1 .3-1.8 1-2.4a4 4 0 012.8-1c.8 0 1.5.2 2 .5a3.1 3.1 0 011.8 3c0 1-.3 1.7-1 2.4a4 4 0 01-2.8.9zm.2-1.3c.8 0 1.5-.2 2-.6.5-.3.7-.8.7-1.5 0-.6-.2-1.1-.7-1.5-.5-.4-1.3-.6-2.2-.6-.8 0-1.4.2-2 .6-.4.4-.7.9-.7 1.5 0 .7.3 1.2.8 1.5.5.4 1.2.6 2 .6zM6.3 87h1c-.8-.6-1.1-1.4-1.1-2.3 0-1.6.9-2.3 2.6-2.4h5v1.3h-5c-.5 0-1 .1-1.2.4-.2.2-.4.6-.4 1a2.2 2.2 0 001.2 1.8h5.3v1.4H6.3V87zM4.5 75.3h1.8v-1.4h1v1.4h4.6l.6-.2c.2-.2.3-.4.3-.7l-.1-.6h1l.1 1c0 .6-.1 1-.5 1.3-.3.3-.8.4-1.4.4H7.3V78h-1v-1.4H4.5v-1.2zm5.4-2.4c-.7 0-1.3-.2-2-.5-.5-.3-1-.6-1.3-1.2-.3-.5-.4-1-.4-1.7 0-1 .3-1.8 1-2.4a4 4 0 012.8-1c.8 0 1.5.2 2 .4a3.1 3.1 0 011.8 3c0 1-.3 1.8-1 2.4a4 4 0 01-2.8 1zm.2-1.3c.8 0 1.5-.2 2-.6.5-.4.7-.9.7-1.5 0-.7-.2-1.2-.7-1.5-.5-.4-1.3-.6-2.2-.6-.8 0-1.4.2-2 .6-.4.4-.7.9-.7 1.5s.3 1.1.8 1.5c.5.4 1.2.6 2 .6zm-3.8-8.3h1c-.8-.6-1.1-1.3-1.1-2.2 0-1.6.9-2.4 2.6-2.4h5V60h-5c-.5 0-1 .1-1.2.4-.2.2-.4.6-.4 1 0 .5.2.8.4 1.1.2.4.5.6.8.8h5.3v1.2H6.3v-1.2zm5.4-10.8a1 1 0 00-.7.4c-.2.3-.4.7-.5 1.3l-.5 1.6-.7.8c-.3.2-.6.3-1 .3a2 2 0 01-1.5-.8 3 3 0 01-.6-2c0-.8.2-1.5.6-2a2 2 0 011.7-.8v1.3c-.4 0-.7.1-1 .4-.2.3-.3.7-.3 1.1 0 .5.1.9.3 1.1.2.3.5.4.8.4.3 0 .5-.1.7-.4.1-.2.3-.6.4-1.3l.5-1.5c.2-.4.5-.7.8-.9.2-.2.6-.3 1-.3.6 0 1.1.3 1.6.8.3.6.5 1.3.5 2s0 1.2-.3 1.7c-.2.4-.5.8-.8 1-.4.3-.8.4-1.3.4V56c.5 0 .8-.2 1-.5.3-.4.4-.8.4-1.3a2 2 0 00-.3-1.2.9.9 0 00-.8-.4zm-2-5.8c1 0 2 .1 3 .4.9.2 1.8.7 2.5 1.2.8.6 1.4 1.1 1.7 1.7l-.8.3a5.5 5.5 0 00-2.5-1.7c-1-.4-2.3-.6-3.7-.7h-.2c-1 0-1.9.1-2.7.3a9 9 0 00-2.2.9 5 5 0 00-1.6 1.2l-.7-.3c.3-.6.9-1.1 1.6-1.7.8-.5 1.7-1 2.6-1.2 1-.3 2-.4 3-.4z" fill="#000"/><path d="M54.8 164.6l2.6.2 2.5.4 2.6-.5 2.5-.7 2.6-.9 2.5-.6 2.6-1 2.5-.6 2.6-1.3 2.5-1.7 2.6-1.8 2.5-1 2.6-1 2.5-1.5 2.6.2 2.5.5 2.6-2 2.5-1h2.6l2.5-2h2.6l2.5 1.3 2.6.2 2.5-.2 2.6-1.6 2.5-1.4 2.6-1.6 2.5-1.3 2.5-1.8 2.6-1.2h2.5l2.6-.6 2.5.3 2.6.1 2.5-.7 2.6-1 2.5-.8 2.6-4.5 2.5 4.1 2.6.3 2.5-2.2 2.6-.1 2.5-2 2.6-3.3 2.5-2.3 2.6-1.3 2.5-2.5 2.6.1 2.5-2.5 2.6-2.7 2.5-2 2.6-2.3 2.5-3 2.6-.2 2.5-1 2.6-.1 2.5 2 2.6-1.7" stroke="#000" stroke-width="3" stroke-linecap="square"/><path d="M184.8 112.8l25.5-4.1 25.5-9.4L261.3 89l25.5-10.6 25.5-10 25.5-9.6 25.5-17 25.5-14.6 25.5-9.8" stroke="#000" stroke-width="3" stroke-dasharray="3 4.95"/><path d="M184.8 122.9l25.5-6.1 25.5 9.4 25.5 16.8 25.5 17.2 25.5 15 25.5 12.2 25.5 16.2 25.5 10.9 25.5.5" stroke="#2CA02C" stroke-width="3" stroke-linecap="square"/><path d="M57.4 260.5V8.4M57.4 260.5h357" stroke="#000" stroke-width=".8" stroke-linecap="square"/><path d="M302 147.4l3.8 1.4v1.9l-5.8-2.5v-1.6l5.8-2.5v1.9l-3.9 1.4zm12.2 4.2h-6.8v-1.3l3.2-3.5 1-1.2.3-1c0-.5-.1-.9-.3-1.1-.3-.3-.6-.4-1-.4s-.8.2-1 .5c-.3.3-.4.7-.4 1.2h-2c0-.6.1-1.2.4-1.7a3 3 0 011.3-1.2c.5-.2 1-.4 1.7-.4 1 0 1.9.3 2.4.8.6.4.9 1.1.9 2 0 .5-.1 1-.4 1.5-.3.6-.7 1.2-1.3 1.8l-2.3 2.4h4.3v1.6zm1.4-1c0-.3.1-.5.3-.7.2-.2.5-.3.8-.3.3 0 .6 0 .8.3.2.2.3.4.3.7 0 .3 0 .6-.3.8-.2.2-.4.3-.8.3-.3 0-.6-.1-.8-.3a1 1 0 01-.3-.8zm10.6-3.1a5 5 0 01-.9 3.2c-.5.7-1.4 1-2.5 1-1 0-1.9-.3-2.4-1-.6-.7-1-1.8-1-3.1v-1.8c0-1.4.4-2.5 1-3.2a3 3 0 012.4-1c1.1 0 2 .3 2.5 1 .6.7.9 1.7.9 3v1.9zm-2-2c0-.8 0-1.4-.3-1.8-.2-.4-.6-.6-1-.6-.5 0-.9.2-1.1.6-.2.3-.3.9-.4 1.6v2.5c0 .8.2 1.4.4 1.8.2.4.6.6 1 .6.5 0 .9-.2 1-.6.3-.4.4-1 .4-1.8v-2.3zm5.7.7a2.3 2.3 0 01-2.1-1.1c-.3-.4-.4-.8-.4-1.3l.3-1.2a2.6 2.6 0 012.1-1.1c.5 0 1 0 1.3.3.4.2.7.5.9.8l.3 1.2c0 .5-.1.9-.3 1.3-.2.3-.5.6-.9.8-.3.2-.8.3-1.2.3zm0-1.3c.3 0 .5-.1.7-.3.2-.2.3-.4.3-.8a1 1 0 00-.3-.7 1 1 0 00-.7-.3 1 1 0 00-.8.3 1 1 0 00-.3.7c0 .4.1.6.3.8.2.2.5.3.8.3zm7.7-1.7c-.8 0-1.4.3-1.8 1-.5.6-.7 1.4-.7 2.4 0 1.1.2 2 .6 2.5.4.6 1 .9 2 .9.3 0 .7 0 1.1-.2l1.4-.3v1.7a7.1 7.1 0 01-2.8.5c-1 0-1.9-.2-2.5-.6-.7-.4-1.2-1-1.5-1.8-.3-.7-.5-1.6-.5-2.7 0-1 .2-1.9.6-2.6.3-.8.9-1.4 1.6-1.9.7-.4 1.5-.6 2.5-.6a7.5 7.5 0 013 .7l-.7 1.7-1.2-.5-1-.2z" fill="#2CA02C"/><path d="M57.6 197.6l294.8.5v62" stroke="#000" stroke-width=".8" stroke-dasharray="2.25 2.25"/></svg>