<svg width="397" height="504" fill="none" xmlns="http://www.w3.org/2000/svg"><path d="M285.4 28.5a34.2 34.2 0 00-34.1 34.2V315l-7 4A83.8 83.8 0 10369 392a84 84 0 00-42.5-73l-7-4V62.8a34.2 34.2 0 00-34.2-34.2zm0 474.7a111.4 111.4 0 01-61.7-203.8V62.7a61.7 61.7 0 01123.4 0v236.7a111.4 111.4 0 01-61.7 203.8" fill="#062E1A"/><path d="M310.4 322.7v-156a25 25 0 10-50 0v156a73.6 73.6 0 1050 0zM311.9 136.8h-17a4.3 4.3 0 110-8.6h17a4.3 4.3 0 010 8.6zM311.9 82.5h-17a4.3 4.3 0 110-8.6h17a4.3 4.3 0 010 8.6zM75.3 100.7c0 18.8 11.3 29.2 22.5 44.6a59.9 59.9 0 0016.4-18.2c8.2 15.4 12.1 25.3 16 33.2 6.1 12 .9 27.2-3.6 39.6l-2.8 7.4c2-.9 3.4-1.2 4.4-1.9 7.4-5.3 15.2-10.3 22.1-16.2 20.5-17.5 29-34.7 20.7-59.6-3-9.2-5.8-16.6-9.5-25.6-3.6-8.6-7.5-23.7-11-32.6a73 73 0 00-12.6 30.1c-20.8-27.4-34-48.8-37.7-89.4-31.7 12.1-37.3 27.1-54.7 70.4A39.8 39.8 0 0130 60.2c-16 19.5-28 40.9-29.7 66.7a72.3 72.3 0 0023.6 58.9c8.5 8.1 18.3 14.8 28 21.6-14.9-45.1-12.1-76 23.5-106.7z" fill="#00A6CC"/></svg>