<svg width="208" height="96" fill="none" xmlns="http://www.w3.org/2000/svg"><path d="M2.8 97.8c-2.3-5.9-4.5-12.9-1-18.2 3.6-5.4 11.2-6 17-8.6 3.5-1.7 6.6-3.9 9.4-6.4a59.7 59.7 0 0014.2-14.7c1.8-3.2 2-7.4 3.5-10.8l5.5-12.7C53 22.4 53 17 55 13.3c2.4-4.4 9.1-5.6 13.5-6.6 6.1-1.4 12.2-2.8 18.3-4a63.5 63.5 0 0117.8-2c8 11.3 16.4 22.5 24.5 33.7 2.6 3.7 5.4 7.5 6.1 12C137.6 59.6 125 80 122.8 80c-1.3-.1-2.6.1-3.8.7-1 .8-1.8 2-2.2 3.2a31.5 31.5 0 00-1.8 14.3c0 .2-.1.4-.3.5-.3.3-1-.1-.7-.4L2.8 97.8z" fill="#DFF3FE"/><path d="M114.4 98h92.7c-4-10.8-9.7-21-17-29.9-5.5-6.6-11.9-12.4-17-19.3-4.3-5.8-7.7-12.2-12.2-17.9a23.8 23.8 0 00-6.3-5.7c-3.8-2.1-8.3-2.6-12.2-4.6-3.8-2-6.9-5.1-10.7-7-3.1-1.4-6.6-1.8-9.9-2.8-3.2-1-6.5-2.8-7.9-6-.6-1.4-.8-3.2-2.1-4.1-1-.5-2-.8-3-.7-2.4 0-4.9.2-7.2.5a185.7 185.7 0 0020.1 40.8c2.6 3.5 5.6 7.5 4.7 11.8-.6 1.9-1.5 3.6-2.7 5.1l-10 14.1c-3 4-5.9 8.2-6.9 13s3.4 10.1 7.6 12.7z" fill="#8ACFEA"/></svg>