<svg width="414" height="448" fill="none" xmlns="http://www.w3.org/2000/svg"><path d="M201 0a207 207 0 00-81 394c7 3 15 0 18-7 2-7-1-14-7-17a180 180 0 11151 0c-6 3-9 10-7 17 3 7 11 10 18 7A207 207 0 00201 0" fill="#00A6CC"/><path d="M204 49a158 158 0 00-67 299c7 3 16 0 19-7 2-7-1-14-7-17a131 131 0 11115 0c-6 3-9 10-6 17 2 7 11 10 18 7a158 158 0 00-72-299" fill="#00A6CC"/><path d="M173 296c2-7 0-14-6-17a83 83 0 1179 0c-5 3-8 10-6 17 3 7 12 10 19 6a109 109 0 10-105 0c7 4 16 1 19-6" fill="#00A6CC"/><path d="M212 237a36 36 0 10-10 0 562 562 0 01-77 195c-4 6 0 15 8 15h147c8 0 12-9 8-15-23-35-50-84-76-195" fill="#062E1A"/></svg>