<svg width="425" height="434" fill="none" xmlns="http://www.w3.org/2000/svg"><path d="M296 219l-19 45-22-11 28-67 13 33zm25 0l-25-64 43-104 77-24a12 12 0 00-7-23l-87 28-111 267c8 1 15 4 22 8l13-32 22 10-16 38c6 7 11 15 15 24l54-128" fill="#062E1A"/><path d="M168 370a29 29 0 1159 0 29 29 0 01-59 0zm-35 0a64 64 0 10129 0 64 64 0 00-129 0z" fill="#00A6CC"/><path d="M1 285c2-6 9-9 15-7l123 51c-4 6-7 13-9 21L7 300c-6-2-9-9-6-15" fill="#062E1A"/><path d="M184 370a13 13 0 1027 0 13 13 0 00-27 0zM156 113l27 11-2 5-27-11 2-5zm30-6l-6 13-5-2 6-14 5 3zm4 0l-6-3-6-2 9-4 3 9zm-18-6l-5 13-6-2 6-13 5 2zm4 0l-6-2-6-3 9-4 3 9zM186 0l-53 124 122 52 52-125-47-20-14 32-2-7-6 3-1-6-5 3-2-6-5 3-2-6-6 3 13-31-44-19" fill="#00A6CC"/><path d="M168 370a29 29 0 1159 0 29 29 0 01-59 0zm-35 0a64 64 0 10129 0 64 64 0 00-129 0z" fill="#00A6CC"/><path d="M91 248l-7-3 11-5 4 12-8-4zm-4 21l-7-3 7-18 7 4-7 17zm1 12l-35-15 3-7 35 15-3 7zm-19-40l7 3-7 18-8-4 8-17zm8-9l4 12-8-3-8-4 12-5zm121 67h4l51-120-63-26-17 41-3-9-7 4-2-8-7 5-2-9-7 5-3-9-8 4 18-41-58-24-69 162 118 50c13-15 33-25 55-25M183 341h1l1-1-2 1z" fill="#062E1A"/></svg>