<svg width="244" height="270" fill="none" xmlns="http://www.w3.org/2000/svg"><g clip-path="url(#clip0)"><path d="M182.5 202a358.4 358.4 0 00-38.9 15.8c-9.2 4.6-21 10.7-35.2 18.3-14.2 7.7-26.5 5.8-37-5.5a53 53 0 01-15-38.2c.3-14-7-32.4-22.1-55-15-22.5-8.3-30.7 20.2-24.5 28.5 6.2 49-2.2 61.3-25 12.3-23 27.2-28.3 44.6-16.2a858.8 858.8 0 0152.2 39.4c17.3 14 20.8 31.3 10.4 51.6-10.3 20.3-23.8 33.4-40.5 39.3z" fill="#D0ECF0" opacity=".6"/></g><g fill="#fff"><path d="M153.6 117.6c-.1.5-.3 1-.6 1.4-.5.4-1-.2-1.2-.8l-.1-.7c0-.7.7-1.8 1.4-1.2.3.2.4.5.5.8v.5zM155 122.7c0 .7-.4 1.5-1.1 1.6a.7.7 0 01-.8-.7l.1-1 .6-.8c.6-.4 1 0 1.1.7v.2zM156.6 122.8a3 3 0 01-.8-.5c-.8-.7-1.3-1.9-.5-2.7.5-.4 1.3-1 1.9-.8 1 .1 1.6 1.1 1.6 2.1 0 1.3-.7 2.5-2.2 1.9z"/></g><path d="M138.3 105.8c0-.5-.1-1-.5-1.3-.4-.4-.9-.7-1.5-.7a2.7 2.7 0 00-2.7 1.5l-.2.9a2.4 2.4 0 001.2 2.3l1.2.3h.1a1 1 0 01-.3-.3.2.2 0 01.1-.2h.3c.2 0 .4.2.5.4l.5-.2c.2 0 .4-.2.5-.3.5-.5.8-1.2.8-2v-.4zm-.7 1.6l-.2.1h-.3v-.3a.4.4 0 01.5-.3l.1.3v.2zm.7-1.1h-.1a.4.4 0 01-.5 0H137.4a.7.7 0 01-.8.3.8.8 0 01-.5-.5.8.8 0 010-.6l.3-.3.5-.2.3.1.3.3h.4c.2-.1.3 0 .4.2v.7zM139.9 103c-.2.5-.6 1-.6 1.6l.1.9-.6-1a2 2 0 01-.4-1.2c0-.5.2-1.2.8-1.4.7-.2.8.6.7 1.1z" fill="#123079"/><g fill="#D0EBF0"><path d="M156.6 122.8a3 3 0 01-.8-.5c-.8-.7-1.3-1.9-.5-2.7.5-.4 1.3-1 1.9-.8 1 .1 1.6 1.1 1.6 2.1 0 1.3-.7 2.5-2.2 1.9zM151.6 107c-.8-.1-2.1-1.1-1.3-2 .6-.6 1-.7 1.8 0 .8.8.8 2-.5 2zM153.6 117.6c-.1.5-.3 1-.6 1.4-.5.4-1-.2-1.2-.8l-.1-.7c0-.7.7-1.8 1.4-1.2.3.2.4.5.5.8v.5zM147 106.9c-1 .4-1.4-.6-1.2-1.4.2-.5.8-.3 1.2.2.3.4.5 1 0 1.2zM143.8 100.6a1 1 0 01.3-1 1 1 0 011 .2c1.1 1-1 1.8-1.3.8zM137.6 98.6a.7.7 0 01.3-.7.7.7 0 01.7 0l.4.5c.3 1-1.3.9-1.4.2zM149.6 102.2c-.6 0-1.1-1.4-.3-1.1h.2c.5.3.9 1.1 0 1.1zM155 122.7c0 .7-.4 1.5-1.1 1.6a.7.7 0 01-.8-.7l.1-1 .6-.8c.6-.4 1 0 1.1.7v.2zM156.5 133.2c-.8 1-1.8.7-2.2-.5-.3-.8.2-2.5 1.3-2.4h.3c1.2.3 1.2 2 .6 2.8zM147.3 139.8c-.4-.2-.4-.8-.1-1.3a1.1 1.1 0 011-.8.7.7 0 01.4.3l.2.3c.2.6-.8 1.9-1.5 1.5zM150.5 146.8c-1 .6-1.3-1.1-.7-1.7.4-.5.7-.5 1-.4.6.3.7 1.6-.3 2zM154.1 140.2c-.5-.5 0-1.6.8-1.4 1 .4 0 2-.8 1.4zM158 127.1a1.3 1.3 0 01-1.3.9 1.4 1.4 0 01-1-1.1 1.9 1.9 0 01.3-1.7c.8-1 1.6-.4 2 .5.2.4.2 1 0 1.4zM140.4 149.6c-.8-1.4 1.4-3 2.6-2.4l.7.6c1 1.5-2.4 3.2-3.3 1.8zM140.7 154.2c-.4.3-1 .4-1.3.5-.7.3-.8-.5-.6-1a1.5 1.5 0 011.3-.6c.8 0 1.2.5.6 1zM135.8 152a1 1 0 01-.8-.7c-.2-1 1-.8 1.5-.5 1 .8.4 1.5-.7 1.2zM130.3 156c-1.3 0 .6-2.2 1.2-.8.3.7-.6 1-1.2.9zM155.6 113.5c0 1-.4 2-1.3 2-.7 0-1.5-1.3-1.8-2l-.2-.5a1.5 1.5 0 01.7-1.4 1.7 1.7 0 012 0c.4.3.6 1 .6 1.9zM157.5 115.3c-.7 0-.9-1.3-.2-1.3.6 0 .8 1.2.2 1.2zM154.7 109.2c-.4.6-1.5 0-1.1-.6.4-.5 1.5 0 1 .6zM153.7 129.2c-.5.6-1.2-.2-1.5-.6-.2-.4-.3-.8-.3-1.3 0-.2.1-.8.5-.8a1.1 1.1 0 01.9.5c.5.6.7 1.6.4 2.2zM152.4 136.6c-.2.7-.7.7-1.1.4-.2-.1-.4-.4-.5-.7a2 2 0 01.5-1.9c.2-.2.4-.2.6-.2.6.3.7 1.9.5 2.4zM149.6 113.5l-.3.1a.4.4 0 01-.5-.1v-.2c-.2-.6-.2-1.2.1-1.7l.4-.5c.3-.1.5 0 .6.4.2.6.2 1.5-.3 2z"/></g><path d="M129.5 128.9c.6-1 1.4-1.9 2.3-2.6-.2-2.3-.7-4.5-1.5-6.6-.8-1.6-1.5-3.2-2-4.9h-.6c-2.4 0-4.9.4-7.2 1.3-3 1.2-5.2 2.9-11 2.9-9 0-9-4.2-18.2-4.2-9 0-9 4.2-18.1 4.2-1.5 0-3-.1-4.4-.4 1.5.4 3 .8 3.1.5 0 0 4.2-.8 9 2.7a35.2 35.2 0 009.6 7c1.2-.7 3-.9 4 0a1.9 1.9 0 01.7 1.4c0 .3 0 .5-.2.8a104.2 104.2 0 003.8 1.6l.8.3a29 29 0 002.6-2l.2-.2.4-.5v-.1l.1-.1a1.7 1.7 0 00.3-.5c0-.4 2.5 2.2 3.3 6 6.4 2 12.6 3.1 16.4 2.5a37.5 37.5 0 008.4-3.4c-2-.1-3.6-.5-3.6-.5s-1.3-.4 1.8-5.2zm-20-4.9c-1-.3-.4-2 .5-2l.5.1c.7.6 0 2.4-1 2zm7.5 11.3c-2.2-1.5 1.5-3.9 3.1-2.2l.4.5.1.6c0 1.2-2.5 1.8-3.6 1z" fill="#FF767D"/><path d="M76.6 94.1c0 1-.4 10.3-.3 13h-.9v-2.6h-2.8v3h-4v4h-1.5c-3.9.2-2.3 5.4-2.3 5.4l.3.5c-2.7-1.2-5-2.6-10.1-2.6 0 0-9.7-.5-6.3-4.2 3.4-3.8 4.8-6.8 3-10.8-1.7-4-3-6 4-9.8 6.1-3.2 7.1-3.3 7-3.7 4.5 3.1 11.4 5.5 14 7.8z" fill="#D0EBF0"/><path d="M168.2 117.2c-2.4.7-4.8 1.6-7 2.7l-.7-4.1-.2-.7c1.3-.2 2.5-.3 3.8-.3h.7v.2l2 1.2 1.2.7.2.3z" fill="#FF767D"/><path d="M139.1 130.8c-.4 1.1-1 2.1-1.7 3-1 1-3.6 1-5.9.9h-.2c-2-.2-3.6-.6-3.6-.6s-1.3-.4 1.8-5.2a10.6 10.6 0 018-5c3 .3 2.7 4 1.6 7z" fill="#7AC9DC"/><path d="M189.3 117.8h-.2l-.2.1-.3.1h-.1l-.3.2h-.2l-.4.2h-.4l-1.3.5h-.3l-.5.2-.2 4.1-6.4 7.8-3-3.1-3.6-2.4-.2-.5c-3.9 2.5-7.5 5.6-11.6 8a45.8 45.8 0 01-8.2 18.5 22.7 22.7 0 01-7.8 5.5 28.4 28.4 0 01-16.4 1.8 42.2 42.2 0 01-17-7l-4-2.8c-.8-.5-2.4-2-3.5-1.6-1.1.4-6.7 6-13.4 1.5-2.9-2-3.3-3.4-3.3-3.4 1.1-.9 2.1-1.9 3-3 2.3-2.7 8.9-1 8.9-1a10 10 0 01-1.4-4.3c-17.5-5.2-18.7 2.3-26.6 3.2-1.1 2.9-3.9 4.1-6 6-3 2.4-6.9 6.7-4.9 10.7 2.4 4.8 8.2 5 11.7 8.6 3.3 3.4.4 12.6 5.3 14.1 4 1.3 11.2-5.3 14.3-7 2.7-1.6 5.6-3.2 8.6-3.9 7-1.4 16 7.4 21.8 10.7.6.3 11.4 5.8 25.4-8.2 20.5-20.4 16.8-20.5 28-26 0 0 2-5.1 2.7-5.9 1.9-2.2 3.7-3.8 6.5-4.9 2.8-1 5.8-1.5 8.7-2.4a18 18 0 008-5.2c5.2-6.7-10.3-4.8-11.2-9.2zm-108 25.7c-1.4.5-2.4-1.3-1.6-2.4 1.4-1.8 3.8 1.8 1.6 2.4zm6.5 15.8c-.4-1.2 1-2 1.7-1.7a1 1 0 01.7 1c0 1.3-2 2-2.4.7zm13.7.5c-2-1-2-4.5.5-4.6 1 0 2 .8 2.3 1.4 1.4 2.2-.7 4.2-2.8 3.2zM128 171l-.2-.1c-.7-.5.1-1.6.7-.8.3.5.1 1.4-.5 1zm43.8-38.5c-.3 3-4.8 2.5-4.7-.3 0-2 2.1-2.6 3.5-1.9a2.1 2.1 0 011.2 2.2z" fill="#FF767D"/><path d="M200.5 153.8c-1.3-4.8-3.7-10.3-8.5-12.3-5.9-2.6-12.3 1.5-17.4 4-11.1 5.5-7.5 5.5-28 26-14 13.9-24.8 8.4-25.4 8.1 9.3 5.4 18.8 9.6 28.3 2.1 6-4.8 9.8-14.1 17.7-16.5 4.8-1.5 9.7.5 14 2.6 4.1 1.9 9.7 6.4 14.5 5.4 8.1-1.8 6.4-13.7 4.8-19.4zm-33.6-.2a1.2 1.2 0 011.8-1l.5.6c.4 1.9-2.4 2.6-2.3.4z" fill="#D0EBF0"/><path d="M127.9 142.2a19 19 0 01-12.5 4.8 16 16 0 01-7.3-1c-2.7-1.2-2.4-3.5-2-5.8 7.1 2 14.5 2.6 21.8 2z" fill="#FF767D"/><path d="M131.3 134.8c-.2 1.2-.6 2.3-1 3.5-.5 1.5-1.3 2.8-2.4 4-7.3.5-14.6-.2-21.7-2.1.2-1.3.5-2.6.4-3.8l-.1-1c6.4 2 12.6 3.2 16.4 2.6 2-.4 4.9-1.6 8.4-3.2zM81.3 143.5c-1.4.5-2.4-1.3-1.6-2.4 1.4-1.8 3.8 1.8 1.6 2.4z" fill="#FFE0D9"/><path d="M95.2 130.2a1.8 1.8 0 01-.3 1.1l-1.1 1.2c-1.7 2.1-5.3 0-4.4-2.4l.2-.5c.3-.4.6-.6 1-.8 1.1-.7 3-.9 4 0a1.9 1.9 0 01.6 1.4z" fill="#7AC9DC"/><g fill="#FFE0D9"><path d="M101.5 159.8c-2-1-2-4.5.5-4.6 1 0 2 .8 2.3 1.4 1.4 2.2-.7 4.2-2.8 3.2zM120.6 134.2c0 1.2-2.5 1.8-3.6 1-2.2-1.4 1.5-3.8 3-2 .2 0 .4.2.5.4l.1.6zM171.9 132.5c-.3 3-4.8 2.5-4.7-.3 0-2 2.1-2.6 3.5-1.9a2.1 2.1 0 011.2 2.2zM90.2 158.7c0 1.2-2 2-2.4.6-.4-1.2 1-2 1.7-1.7a1 1 0 01.7 1zM109.5 124c-1-.3-.4-2 .5-2 .2 0 .3 0 .5.2.7.5 0 2.3-1 1.8z"/></g><path d="M128 171l-.1-.1c-.7-.5.2-1.6.7-.8.3.5.1 1.4-.5 1zM166.9 153.6a1.2 1.2 0 011.8-1l.5.6c.4 1.9-2.4 2.6-2.3.4z" fill="#7AC9DC"/><path d="M196.1 71c-8.3 4.1-7.8 9.2-5 13.4-.8.9-1.4 2-1.6 3a6 6 0 00-1.2-2.5c-2.3-3-7.2-4.8-10.4-4.5-5.6.7-8.6 3.6-10.9 9l-.6 1.5a5 5 0 00-1.2-1.6 24 24 0 00-14.1-6.3c-7.2-1-15.8-.3-21.6 4.6l-3.1 3-7.2-8.1-1-1-2.2-2.6-2.6-3a.2.2 0 00-.4.3l4.1 5.7.1.2 7.6 10.5a16 16 0 00-2.1 13s-2.2-1.2-6 .5a6.2 6.2 0 00-3.8 5.4h-4v-3H106l-.7.7h-2.9v-4.7h-5.3v3.2h-6.4v-3.2h-.2l-1-18.7c-.2-3.3 2.8-6.4 6.3-5 1 .5 2 1.3 2.9 2 4.3 3 10.3-1.4 12-5.2 1.8-3.6 6.3-5 10.6-4.6 1.1 1.7 1.5 3.8 2.8 5.5.8 1 1.7 1.7 2.6 2.4 1.8 1.3 4.2 2.3 6.4 1.6 1-.3 2-1 3-1.2 1.3-.1 2.5.1 3.8-.1a8.1 8.1 0 005.2-3.7c.5-1 .8-2 .7-3.1 0-.8-.8-1.6-.5-2.4.3-.8 1.2-.8 1.9-.9 2.7-.3 4 1 6.2 2.4 3.4 2 8-.2 11.4-1 3.1-.8 4.1-3 6-5 1.8-2 3.4-1.3 5.6-1.3 2 0 4-1 6-1.2 1-.1 3-.8 3.3-2 .1-.7 0-1.1-.4-1.4 1 0 2.2.2 3.2.5 7.2 3 9.5 7.8 7.6 8.8z" fill="#D0EBF0"/><path d="M160.1 133c1-4 1.3-8.3 1-12.4v-.7c2.3-1 4.7-2 7.1-2.7l2.2 3.4 1.4 4.4c-4 2.5-7.6 5.6-11.7 8z" fill="#FFE0D9"/><path d="M173.3 117a9.8 9.8 0 00-5 .2l-.3-.3-1.1-.7-2.1-1.2v-.2h.8a20.9 20.9 0 011.7.2h.3l.4.1.6.2a15.5 15.5 0 012.6.7l2.2 1z" fill="#7AC9DC"/><path d="M187 115l-1.8 2.1v1.7l-.1.3a59.8 59.8 0 00-13.3 5.9l-1.4-4.4-2.2-3.4c2-.5 3.6-.6 5.2-.2l-2.2-1a26.8 26.8 0 00-2.6-.7l-.6-.1-.4-.1h-.3a23.8 23.8 0 00-1.7-.2h-.8l.7-1.3.8-1.3h20l.3 1.3.2.5.2 1z" fill="#D0EBF0"/><path d="M185.1 119.1l-.1 4.1-6.5 7.8-3-3.1-3.6-2.4-.1-.5A40 40 0 01185 119z" fill="#7AC9DC"/><path d="M189.2 117.9h-.3l-.3.2-.4.1h-.2l-.4.3h-.4l-1.3.4h-.3l-.5.2v-1.3h4z" fill="#FF767D"/><g fill="#123079"><path d="M200.5 114.8c-5.9 0-8 1.8-11.2 3H185v-.7l1.9-2-.2-1-.1-.5v-.1h11.5c.4 0 1.2 1 1.4 1.3h.9zM128.2 114.8h-.5c-2.4 0-4.9.4-7.2 1.3-3 1.2-5.2 2.9-11 2.9-9 0-9-4.2-18.2-4.2-9 0-9 4.2-18.1 4.2a21.5 21.5 0 01-6.9-1.1h-.2l-.3-.2-.3-.2-.4-.1-.3-.5s-1.6-5.2 2.3-5.3h1.5v-4.1h4v-3h2.8v2.6h1c-.2-2.7.2-12 .2-13V94h2.2l.5 10.5H87l.5-20v-3.2h1.7v2.1l.2 2.4 1 18.7h.2v3.2H97v-3.2h5.4v4.7h2.9l.7-.8h3v3.1h11.5c.5.6.9 1.3 1.2 2h6l.5 1.3zM165.6 113.5h-.1l-.7 1.3h-.7c-1.3 0-2.5.1-3.8.3a41.1 41.1 0 00-.4-1.5v-.2h5.7z"/></g><path d="M161.2 120.6v-.7l-.7-4.1-.2-.7-.2-.7-.2-.6v-.2-.2l-.8-1.8c-3.6-9.1-11.1-14.9-14.8-15.8-3.7-1-7.3-1-11.9 1.6l-4.2-4.8-.2-.2-1.6-1.8-7.2-8.1-1-1-2.2-2.6-2.6-3a.2.2 0 00-.4.3l4.1 5.7.1.2 7.6 10.5 4.8 6.6-.8.6c-3.1 2.5-2.8 7.4-1.6 11.8a34.8 34.8 0 003.1 8c.8 2.2 1.3 4.4 1.5 6.7 1.6-1.4 3.5-2.2 5.6-2.4 3 .3 2.8 4 1.7 7-.4 1-1 2-1.7 2.9-1 1-3.6 1-5.9.9h-.2l-1 3.6c-.5 1.5-1.3 2.8-2.4 4a19 19 0 01-12.5 4.7 16 16 0 01-7.3-1c-2.7-1.2-2.4-3.5-2-5.8.3-1.3.6-2.6.5-3.8 0-.3 0-.7-.2-1-.7-3.7-3.1-6.3-3.2-6a2.8 2.8 0 01-.3.6v.1l-.1.1a5 5 0 01-.4.5l-.2.1-.4.5-.3.2c-.5.4-1.1.9-2 1.4l.9.4a15 15 0 01-.8-.4l-.7.5a4.1 4.1 0 00-1.9 3.8h.1a10 10 0 001.3 4.2s-6.6-1.6-8.9 1.1c-.9 1.1-1.9 2.1-3 3 0 0 .4 1.5 3.3 3.4 6.6 4.5 12.3-1.1 13.4-1.5 1.1-.3 2.7 1 3.5 1.6l4 2.9c2 1.2 4 2.3 6.1 3.3 3.5 1.7 7.1 2.9 10.9 3.6 5.5 1 11.2.5 16.4-1.8 3-1.3 5.6-3.1 7.8-5.5 2.4-2.7 6.3-9.7 8.2-18.5 1-4 1.3-8.3 1-12.4zM130.3 156c-1.3-.2.6-2.3 1.2-1 .3.8-.6 1-1.2 1zm5.5-4.1a1 1 0 01-.8-.7c-.2-1 1-.8 1.5-.5 1 .8.4 1.5-.7 1.2zm21.5-38c.6 0 .8 1.2.2 1.2-.7 0-.9-1.2-.2-1.2zm-3.7-5.4c.4-.5 1.5 0 1 .6-.3.6-1.4 0-1-.6zm-.6 3a1.7 1.7 0 012 0c.4.3.6 1 .6 1.8 0 1.1-.4 2.1-1.4 2-.6 0-1.5-1.2-1.7-2l-.2-.4a1.5 1.5 0 01.7-1.4zm.5 6c0 .5-.2 1-.5 1.4-.5.4-1-.2-1.2-.8l-.1-.7c0-.7.7-1.8 1.4-1.2.3.2.4.5.5.8v.5zm-1.4-12.6c.8.8.8 2-.5 2-.8-.1-2.1-1.1-1.3-2 .6-.6 1-.7 1.8 0zm-2.8-4l.2.1c.5.3.9 1.1 0 1.1-.5 0-1-1.4-.2-1.1zM138.6 98l.4.5c.3 1-1.3.9-1.4.2a.7.7 0 01.3-.7.7.7 0 01.7 0zm-7 2.3a1.1 1.1 0 01-1 .4 1.1 1.1 0 01-.8-.6c.3 0 .6.1.8 0h.9v.2zm-.7-.4a1.4 1.4 0 01-1.1-.3 2.6 2.6 0 002.1-1l.6-.8c.5.3-.1 1.2-.3 1.4a2 2 0 01-1.3.7zm1.8-.4v-.1l.3-1v-.9a1.3 1.3 0 01-.3 2zm4.8 8.8l-.5.3-.4.2h-.1a.9.9 0 00-.5-.4h-.2-.1l-.1.1.2.4h0c-.4 0-.9 0-1.2-.3a2.4 2.4 0 01-1.3-2.3 2.7 2.7 0 01.5-1.3 2.7 2.7 0 012.5-1.1c.6 0 1.1.3 1.5.7.3.4.5.8.5 1.3v.5c0 .7-.3 1.4-.8 1.9zm2-2.7l-.7-1a2 2 0 01-.4-1.2c0-.5.2-1.2.8-1.4.7-.2.8.6.7 1.1-.2.6-.6 1-.6 1.6l.1.9zm1.2 48.7c-.4.3-1 .4-1.3.5-.7.3-.9-.5-.6-1a1.5 1.5 0 011.3-.6c.8 0 1.2.5.6 1zm-.3-4.6c-.8-1.4 1.4-3 2.6-2.4l.7.6c1 1.5-2.4 3.2-3.3 1.8zm3.4-49a1 1 0 01.3-1 1 1 0 011 .2c1.1 1-1 1.8-1.3.8zm2 5c.2-.6.8-.4 1.2 0 .3.5.5 1 0 1.3-1 .4-1.4-.6-1.2-1.4zm1.5 34.2c-.4-.2-.4-.8-.1-1.3a1.1 1.1 0 011-.8.7.7 0 01.4.3l.2.3c.2.6-.8 1.9-1.5 1.5zm1.5-26.4v-.1c-.2-.6-.2-1.2.1-1.7l.4-.5c.3-.1.5 0 .6.4.2.6.2 1.5-.3 2l-.3.1a.4.4 0 01-.5-.2zm1.7 33.4c-1 .6-1.3-1.1-.7-1.7.4-.5.7-.5 1-.4.6.3.7 1.6-.3 2zm1.9-10.2c-.2.7-.7.7-1.1.4-.3-.1-.4-.4-.5-.7a2 2 0 01.5-2h.6c.6.2.7 1.8.5 2.3zm1.3-7.4c-.5.6-1.2-.2-1.5-.6-.2-.4-.3-.8-.3-1.3 0-.2.1-.8.5-.8a1.1 1.1 0 01.9.5c.5.6.7 1.6.4 2.2zm-.6-5.6l.1-1 .6-.8c.6-.4 1 0 1.1.7v.2c0 .7-.3 1.5-1 1.6a.7.7 0 01-.8-.7zm1 16.6c-.5-.5 0-1.6.8-1.4 1 .4 0 2-.8 1.4zm2.4-7c-.8 1-1.8.7-2.2-.5-.3-.8.2-2.5 1.3-2.4h.2c1.3.3 1.3 2 .7 2.9zm1.5-6a1.3 1.3 0 01-1.3.8 1.4 1.4 0 01-1-1.1 1.9 1.9 0 01.3-1.7c.8-1 1.6-.4 2 .5.2.4.2 1 0 1.4zm-1.4-4.4a3 3 0 01-.8-.5c-.8-.7-1.3-1.9-.5-2.7.5-.4 1.3-1 1.9-.9 1 .2 1.6 1.2 1.6 2.2 0 1.3-.7 2.5-2.2 1.9z" fill="#fff"/><path d="M204 114.7l-4.4.1c-.2-.3-1-1.3-1.4-1.3h-11.6v.1l-.3-1.3h-20l-.7 1.3h-.1v-.1h-5.7l-.7-2c-3.6-9-11.1-14.8-14.8-15.7-3.7-1-7.3-1-11.9 1.6l-4.2-4.8-.2-.2-1.6-1.8 3.1-3c5.8-5 14.4-5.5 21.6-4.5a24 24 0 0114.4 6.5c.4.4.6.8.9 1.3l.6-1.6c2.3-5.3 5.3-8.2 10.9-8.9 3.2-.3 8.1 1.4 10.4 4.5a6 6 0 011.2 2.6c.2-1.2.8-2.2 1.5-3l.2-.2a5.3 5.3 0 014.7-1.4c1.2.3 2.2.8 3 1.7 3.7 3.7 2.8 7 1.4 10.5.6-1.4 3.8-.7 4.7-.3 1.5.8 2.8 2.4 3.6 4.2 1.8 4-2.4 11.6-4.7 15.7zM129.6 99.2l-.8.6c-3.1 2.5-2.8 7.4-1.6 11.8l.5 1.9h-6c-.3-.7-.7-1.4-1.2-2h-7.6a6.2 6.2 0 013.8-5.4c3.8-1.7 6-.5 6-.5a16 16 0 012.1-13l4.8 6.6z" fill="#00A6CC"/><path d="M87.6 84.5l-.4 20h-8L78.9 94h-.2c.9-2.2 2-4.2 2.7-6.4.3-.7.3-2.1 1.2-2.3.6-.2 1.3 0 1.9 0a9.2 9.2 0 003.2-.8z" fill="#D0EBF0"/><path d="M140.8 41.5l-1.6.5c-1.5.4-2.8 1.2-4 2.1-1.5 1.4-3 2.7-5.3 2.6-2-.1-3.7-1-5-2.2-1.2-1.1-2.1-2.5-3.3-3.5-2-1.9-4.4-3.5-7.1-4-3.6-.7-7.2 1-9.6 3.6a11.2 11.2 0 00-3 7.4c0 1.8 1.7 3 2 4.7.7 3.2-4.1 5.3-6 2.7-1.6-2-3.7-1.7-5.8-.7-3 1.4-6 3.1-8.2 5.5a10 10 0 00-2.7 5c-.1 1.3.1 2.6.8 3.8.4.8 1.2 1.1 2 1.6.7.6 1.8 1.3 2.2 2.2.4 1-1 2.4-1.4 3.2-.3.7-.3 1.4-.2 2 .2.8.8 1.2 1.3 1.6l2 1.7h-.2l-.1 3.2a8.5 8.5 0 01-3.3.8c-.6 0-1.2-.2-1.8 0-.9.2-1 1.6-1.2 2.3-.8 2.2-1.8 4.2-2.7 6.4h-2v.1c-2.5-2.3-9.4-4.7-14-7.8-2.5-1.8-4.3-3.7-4.1-6 .3-4.3 4.6-7 4.6-7s-4.1-4.9-4.1-9c0-7.6 5-11.2 11.4-11 6 .1 7.5 2.4 7.8 3 1-3.8 3.6-9.7 9.4-12.2 7.3-3 13.2-1.3 13.2-1.3s.7-9.3 23.7-9.6c8.5-.1 13.5 4.7 16.3 8.3zM167.2 47.7c-1.7-.6-3.6-.9-5.5-.6a9.5 9.5 0 00-7.9 9.3c-1.4-5.6 5.1-7 6-11.7a1 1 0 00-.1-.4 8 8 0 00-3.6-2.5c-2.2-.7-4.4-1-6.7-1 1.4-.9 3-1.5 4.6-1.8 6.4-1.2 13 8.4 13.2 8.7z" fill="#00A6CC"/><path d="M185.7 63c-.3 1.2-2.3 1.9-3.3 2-2 .3-4 1.2-6 1.2-2.2 0-3.8-.6-5.5 1.2-2 2-3 4.3-6 5-3.5.9-8.1 3-11.5 1-2.2-1.2-3.5-2.6-6.2-2.3-.7 0-1.6.1-2 .9-.2.8.5 1.6.6 2.4 0 1-.2 2.2-.7 3a8 8 0 01-5.2 3.8c-1.3.3-2.5 0-3.8.1-1 .1-2 1-3 1.2-2.2.7-4.6-.3-6.4-1.6-1-.7-1.8-1.5-2.6-2.4-1.3-1.7-1.7-3.8-2.8-5.5v-.1a6.4 6.4 0 00-2.2-2.1c-3.1-1.9-6 .4-7.3 3.3-.6 1.3-1.4 2.8-2.8 3.3-1 .3-2 .3-2.8 0-2-2.5-5-4-8.2-3.7-3.2.3-5.7 2.2-8 4.2-.9 1-.4 2.6-.9 3.5l-1.3-.1-1.9-1.7c-.5-.4-1-.8-1.3-1.6-.1-.6 0-1.3.2-2 .3-.8 1.8-2.3 1.4-3.2-.4-1-1.5-1.6-2.2-2.2-.8-.5-1.6-.8-2-1.6-.7-1.2-1-2.5-.8-3.9a10 10 0 012.7-4.9c2.2-2.4 5.2-4.1 8.2-5.5 2.1-1 4.2-1.2 5.7.7 2 2.6 6.9.5 6.1-2.7-.3-1.7-2-2.9-2-4.7a11.2 11.2 0 013-7.4c2.4-2.6 6-4.3 9.6-3.6 2.7.5 5.1 2.1 7 4 1.3 1 2.2 2.4 3.4 3.5 1.3 1.3 3 2 5 2.2 2.2.1 3.8-1.2 5.4-2.6 1.1-1 2.4-1.7 3.9-2.1l1.6-.5a27.3 27.3 0 018.6-.7c2.3 0 4.5.3 6.7 1a8 8 0 013.6 2.5l.2.4c-1 4.7-7.5 6-6 11.7 0-4.7 3.2-8.4 7.8-9.3a11.7 11.7 0 015.5.6 15.6 15.6 0 014.4 2.5c-.8.6-1.5 1.3-2.5 1.8l-1.5.7c-.6.4-2 2 0 3.2 2.6 1.6 6 .3 9 .3 1.7 0 3.4.3 5.2.4.2.6.2 1.3 0 2a1.8 1.8 0 00.6 1.9c.6.6 2.1.5 2.9 1.1.3.3.5.7.4 1.4z" fill="#123079"/><path d="M190.2 54.7c-1.4.8-2.8 1.6-4.5 1.7l-3.9.2c-1.8 0-3.5-.3-5.3-.4-2.9 0-6.3 1.3-8.9-.3-2-1.3-.6-2.8 0-3.2l1.5-.7c1-.5 1.7-1.2 2.5-1.8l.5-.4c1.3-.8 2.9-.6 4.3-.3l1.7.5c.5.2 1 .6 1.6.5a1.4 1.4 0 001-.8c1-2 3.9-2.5 6.1-1.6 1.6.6 3.1 1.4 4 2.6 1 1.3 1 3.2-.6 4z" fill="#D0EBF0"/><path d="M131.5 100h-.9c-.2.1-.5.1-.8 0a1.1 1.1 0 00.8.6 1.1 1.1 0 001-.4l-.1-.1zm1-2.3l-.6.8a2.6 2.6 0 01-2 1h-.1a1.4 1.4 0 001.1.3c.5 0 1-.3 1.3-.7.2-.2.8-1 .4-1.4zm.5-.3v1l-.3.9s0 .1 0 0a1.2 1.2 0 00.6-1.4c0-.2-.2-.4-.3-.5z" fill="#fff"/><path d="M97.1 137.2zM100.4 133.3a15 15 0 01-.8-.4l-.7.5a4.1 4.1 0 00-1.8 3.8c-17.6-5.2-18.8 2.3-26.7 3.2.4-.2 6.8-2.5 9-8.4 1.5-4 6.5-3 10-2-.9 2.5 2.7 4.6 4.4 2.5.3-.4.8-.8 1-1.2l3.9 1.3h.1l.8.3.8.4z" fill="#FFE0D9"/><path d="M78.6 126.9a.9.9 0 00.1-.8c-.7-1.5-5.4-2-7-2.2-4-.5-9.3.4-9.7 5.6-.1 2.4 1.4 4.3 3.1 5.8 4.8 4 11.8-4.6 13.5-8.4z" fill="#FF767D"/><g fill="#7AC9DC"><path d="M132.2 99.1a2 2 0 01-1.3.7 1.5 1.5 0 01-1.1-.3 2.6 2.6 0 002.1-1l.6-.8c.5.3-.1 1.2-.3 1.4zM131.6 100.2a1.1 1.1 0 01-1 .4 1.1 1.1 0 01-.8-.6c.3 0 .6.1.8 0h.9s.1.2 0 .2zM132.7 99.4v-.1l.3-1v-.9a1.3 1.3 0 01-.3 2z"/></g><defs><clipPath id="clip0"><path transform="translate(0 39)" fill="#fff" d="M0 0h243.5v230.3H0z"/></clipPath></defs></svg>