<svg width="448" height="373" fill="none" xmlns="http://www.w3.org/2000/svg"><path d="M417 138l-2-2v-5-5l-1-7-1-8-2-8-3-9c0-3-1-7-3-10l-3-8-4-9-8-15-9-14c-1-1 0-3 1-4h3a103 103 0 004 3l9 9 5 7 6 8 5 9 2 5 2 5 3 10 2 10v26l-1 6-1 4c-1 2-2 3-4 2zm6 128c55-150 5-222-25-248a55 55 0 00-38-14c-39 1-124 22-180 173 0 0-54 140 69 186 123 45 174-97 174-97" fill="#062E1A"/><path d="M151 351l-8 2-10 2h-7a963 963 0 01-22-5l-8-4-8-5-14-11a136 136 0 01-23-30 197 197 0 01-26-75c0-2 1-3 3-3l3 1a6006 6006 0 0013 26l7 13 8 13a260 260 0 0019 27c6 9 14 17 22 23l6 5 6 3 5 4 6 2 6 2 5 2 8 2 8 1a3 3 0 011 5zm15-169c15-43 34-76 53-100-42-63-91-78-119-81-14-2-28 2-39 11-31 23-88 90-45 245 0 0 38 145 164 111 11-3 21-7 30-12-90-54-44-174-44-174" fill="#00A6CC"/></svg>