<svg width="429" height="482" fill="none" xmlns="http://www.w3.org/2000/svg"><path d="M376 285c-3 3-3 5-3 6v4c0 26-13 52-15 54s-14 29-20 57c-5 26-15 36-17 37l-1 1c-2 2-14 15-38 2-25-14-15-46-13-50 1-5 5-21 14-37 8-14 6-25 5-28l-1-2-1-3c-2-6-3-11-6-16-8-15-10-26-11-37-1-14 1-19 4-26 3-6-2-16-4-19l-1-2c-6-13-3-21-3-21 4-17 17-18 17-18s8-1 18 8c9 9 2 31 2 31s-3 8 1 9 4-6 4-8a36 36 0 011-17c1-2 6-18 20-10 15 7 2 31 1 34h-1c0 1-4 7 0 8 4 2 6-13 6-13s3-20 18-11c16 9-2 28-2 28s-6 7-2 9c3 1 6-4 7-6l2-5c3-4 9-10 15-3 9 10-3 19-6 22-2 2-5 5-3 7 1 2 2 2 3 2l3-2c2-4 5-9 10-5 6 5 2 15-3 20zm-216-38c4 7 6 12 5 26-1 11-4 22-11 37-3 5-4 10-6 16l-2 3-1 2c-1 3-2 14 6 28 9 16 13 32 14 37 1 4 12 36-14 50-23 13-36 0-38-2v-1c-2-1-13-11-18-37-5-28-18-55-20-57-1-2-15-28-15-54v-4c0-1 0-3-3-6-5-5-9-15-3-20 6-4 9 1 11 5l3 2c1 0 2 0 3-2 2-2-1-5-4-7-2-3-14-12-5-22 6-7 11-1 14 3l2 5c1 2 4 7 7 6 5-2-2-9-2-9s-17-19-2-28 18 11 18 11 3 15 7 13c3-1 0-7-1-8-2-3-14-27 0-34 15-8 20 8 20 10 1 1 3 8 2 17h-1c0 2 0 9 4 8s1-9 1-9-7-22 3-31c9-9 18-8 18-8s13 1 17 18c0 0 2 8-4 21l-1 2c-2 3-7 13-4 19zM147 54h135c12 0 22 11 20 23l-9 61c-1 14-13 24-26 24H162c-13 0-25-10-27-24l-8-61c-2-12 7-23 20-23zM366 0H63C27 0-1 30 0 65l13 380c1 20 18 37 38 37h327c20 0 37-17 37-37l14-380c1-35-27-65-63-65z" fill="#062E1A"/><path d="M215 78h-1l-2-2V63l2-2h1l2 2v13l-2 2zM200 79h-1l-2-2-2-13 2-2h1l2 2 2 13-2 2zM186 82h-1l-3-1-3-13c-1-1 0-2 1-2h1c1-1 2 0 2 1l4 13-1 2M172 87h-1c-1 1-2 0-3-1l-5-12 1-2 1-1 2 1 6 12-1 3zM158 94h-3l-7-12 1-2 1-1 2 1 7 11c1 1 0 2-1 3zM146 102v1h-3l-8-10v-3l1-1 2 1 9 10-1 2zM283 103l-1-1v-2l9-10 2-1 1 1v3l-8 10h-3zM271 94h-1v-3l7-11 2-1 1 1 1 2-7 12h-3M258 87h-1l-1-3 6-12 2-1 1 1 1 2-6 12c0 1-1 2-2 1zM244 82h-1l-1-2 4-13c0-1 1-2 2-1h1l1 2-4 13-2 1zM230 79h-1l-2-2 2-13 2-2h1l2 2-2 13-2 2" fill="#00A6CC"/><path d="M215 78h-1l-2-2V63l2-2h1l2 2v13l-2 2zM227 138l28-34a3 3 0 00-5-5l-31 31a14 14 0 108 8" fill="#00A6CC"/></svg>