<svg width="238" height="148" fill="none" xmlns="http://www.w3.org/2000/svg"><path d="M144.2 118.6c1 6.6 1.6 14-3.7 19-5 4.7-13.4 5.9-21.1 6.5-64 5.4-126.5 7-186.8-15-2.8-1.1-7.4-8.8-7.5-11.2-.4-6 .9-12.1 3.6-17.6 5.5 4.8 14.3 7.7 21.8 10.3 7 2.4 14.3 4 21.7 5.1 11 1.6 21.3 5.5 32.2 7.2 11 1.6 22.3 1 33.5 1.7 10.2.8 20.4 2.8 30.7 3 9 0 17.9-1.4 26.7-2.8 15-2.3 34-3.9 48.9-6.2z" fill="#B2E4FB"/><path d="M141.7 136.3l.5-.6c0-.2.2-.3.3-.5l.4-.6.2-.5.3-.6.2-.5.3-.6.1-.6.2-.6.2-.6.1-.6.1-.6v-.6l.2-.6v-.6-.6V125.7v-.5a29.8 29.8 0 000-2l-.1-.5a57.5 57.5 0 00-.2-2.1v-.3l-.2-1-2.7-.3-6.8 1-3.4.7c-6.7 1.5-13.8 1.9-20.8 2.1h-.2a745 745 0 00-8.4 1l-1.7.3-5 .8c-8.8 1.3-17.7 2.7-26.7 2.6-10.4 0-20.5-2.1-30.7-2.9l-4-.2h-1.4a408 408 0 00-8-.3h-4.1l-1.9-.1-2.1-.1-2-.1-2-.1-3.7-.3a304 304 0 01-42.7-3.8c-8-1.3-16-3.4-23.5-6.2-6.5-2.6-13.2-6.9-14.1-12.3l-1.3 3c.2.8.5 1.6 1 2.3l-1.4-1.1-.2.5c1 3.7 5 6.5 9 8.6a99.7 99.7 0 0027.2 9.4c1.1.2 2.2.5 3.2 1.1.7.6 1.2 1.5 1.4 2.4a40 40 0 011.7 8 1 1 0 00-.3.3c-.4 1.3-.9 2.4-1.5 3.6 4.7 1 9.4 2 14.1 2.8l-3.5-2.2h-.1a9.8 9.8 0 01-4.1-9.2 2.3 2.3 0 01.9-1.9 4 4 0 012.5-.2c17.5 2.2 34.4 8.5 52.1 7.3 2.3-.1 5.1-.3 6.5 1.2.6.7 1 1.6 1 2.5l.3 3c-1.5 1.6-3 3.2-4.7 4.7l7.4.2h1.7c6.2.2 12.4.2 18.6 0-.7-.1-1.4-.3-2-.6-1.4-.5-2.6-1.2-3.7-2.2-.4-3.5-1.1-7-2.2-10.4 5.9-1.7 12 1.4 18.2 2.2 4.1.3 8.3.1 12.5-.6 16-2.3 31.8-5.2 47.6-8.1-.1 3.8 0 7.5.2 11.3a1.4 1.4 0 00-1.2.6 20 20 0 01-2.7 3.2l-.3.3-.3.3 4.9-1 .5-.1 2-.6.5-.2c.8-.3 1.5-.6 2.1-1h.3c.7-.4 1.5-.8 2.1-1.3h.1a15.2 15.2 0 002.9-2.5l.3-.3z" fill="#8ACFEA"/><path d="M144.5 120.7a1.6 1.6 0 00-1.3-.1c-6 1.4-12 2.8-18.1 4a1 1 0 00-1.1-.7c-13.8.7-27.4 3.2-41.2 4-12.3.9-24.7.8-37 1.4a2 2 0 00-1.4-.5l-.1-1.1c-.2-1.7-3.4-1.7-3.3 0 0 .8-.6-1.8-.5-1-2.3-1.3-3.7-.7-6.3-.9-7.4-.3-16.2-.9-23.6-2-22-3-43.5-4.1-65-8.8-1-.2-1.4.8-.7 1.2 6.6 3.9 15.2 5.1 23 6.5 10.5 2 21 3.7 31.5 5.5 9.3 1.5 18.7 3 28.2 3.6 2.2.1 5-.1 7 .3 4.6.9 4.4 1.9 5.6 5 1.3 3.2 1.7 6.8 2.2 10.4H48a95 95 0 01-1.8-16.2l32 .5c19.2-.3 38.3-2.6 57.1-6.8-.1 5.3.1 10.5.3 15.8 1.8-.8 3.4-1.8 4.9-3.2.7-.6 1.3-1.4 1.9-2.2.3-3-.1-6-1-8.9v-3l2.6-.7c.3 0 .5-.2.7-.3l-.2-1.8z" fill="#78B3D6"/><path d="M126.2 115.4c6-2.6 13.6-2.7 20.5-1.8s13.6 2.7 20.6 3.4c7 .6 14 .7 21 .2a76 76 0 0027.3-4.4 22.5 22.5 0 0013.3-13.2c7.5-15.8 9-23.2 7.9-34.6-.2-1.9-.5-3.9-2.2-5.2s-5.3-1.6-6.4 0c-6.3 9.4-15.5 19.1-27.4 24.5S174 91.4 160.6 89c-7.2-1.3-13.9-3.7-21-5-10.4-1.7-21-.9-31 2.5-5.3 1.9-10.4 4.6-13 8.6s-2.5 9.1 1.6 12.3c2.4 1.8 5.8 2.7 9.2 3.6a507 507 0 0019.8 4.5z" fill="#B2E4FB"/><path d="M143.7 84.8l-4.1-.9c-10.4-1.7-21-.8-31 2.5-5.3 1.9-10.4 4.6-13 8.6s-2.5 9.1 1.6 12.3c2.4 1.8 5.8 2.7 9.2 3.6a520 520 0 0019.8 4.5 40 40 0 0120.5-1.8l.8.1c1.3-10.5 4-22.5-3.8-28.9z" fill="#8ACFEA"/><path d="M139.8 86.5c-3.1-.5-6.4-.5-9.5 0-3.8.4-7.5 1-11.2 1.8-8.2 1.7-17 3.1-23.9 7.2-2.3 3.8-2 8.7 2 11.8 2.4 1.8 5.8 2.8 9.2 3.6l16.2 3.8-1.4-9c-.2-.8-.2-1.6 0-2.3a6 6 0 012-2.8 23.2 23.2 0 0112-5.2c3.8-.5 7.5-2.2 10.5-4.8-.9-2-3.3-3.4-5.9-4z" fill="#78B3D6"/><g fill="#8ACFEA"><path d="M225.6 104.7l-.4 1.3 1.6-2.3a1.6 1.6 0 00-1.2 1zM236.9 66.4a1.5 1.5 0 00-1.3 1 23 23 0 00-.5 2l-.2-1.3 1.9-3c-.1-1.4-.4-2.7-1-3.9-.4 0-.7.2-1 .4-10.1 8.7-13.2 20.9-19.8 31.2a27.5 27.5 0 01-7 6.2v-4c0-1.5-3.3-2-3.6-.3l-.5 2.4a1.3 1.3 0 00-1-.9l-.1-.4c-.2-1.9-3.4-1.8-3.7 0l-.5 3.7a2.2 2.2 0 00-2.8.1c-1-.4-2.7 0-2.7 1.2v1a1.8 1.8 0 00-1.5 1.3 2.2 2.2 0 00-2.2.3 1.9 1.9 0 00-1.8.7l-.3-.1c-3.2-1.3-8.8-.2-12.3-.4-7.2-.5-14.3-1.7-21.3-3.6-1.6-.4-4.7-.3-3.2.2 6.6 2 15.8 5.3 23 5.9 2.4.2 9.2-.6 11 .4a5.3 5.3 0 013 4v6.7h.8c5.8 0 11.7-.6 17.4-1.5v-.3c1 .1 2-.3 2-1.4l.3-6.6 1-.7c7-3.7 10.6-11.8 13.2-18.4l6-9.5.3.5c.5 1 1.2 1.7 1.9 2.4l-2 19.2.5-1.3c7.2-15.1 8.8-22.6 8-33.2zM137 132.2c-1.9-3.2-7-7-12-5.6h-.1l-.8.1c-2.5-.1-4.9 0-7.3.2-1.4 0-1.7 1.5-.3 1.8 2.7.8 6 .5 9 .8 1.4.4 2.7 1 4 1.5 1.8 1.2 3.8 2.2 6 2.8 1.2.4 2-.8 1.5-1.6z"/><path d="M228.5 100.5c-3 2.8-6.4 5.3-10 7.5a40.1 40.1 0 01-22 6.4c-10.4.7-20.8 1.4-31.2.8-3-.2-9.8-1.4-13.1-.7 5 .9 10 2 15 2.5 7 .6 14.1.7 21.1.2a76 76 0 0027.3-4.4 22 22 0 0013-12.3z"/></g><g fill="#78B3D6"><path d="M148.7 114c.9-7 2.3-14.7 1-20.8-.7-.2-1.5.2-1.6.7-.4-.4-1.4-.3-1.5.4-.6 6.4-.6 12.9-.1 19.3h.2l2 .3zM236.8 65c-.2-1.9-.5-3.9-2.2-5.2a4 4 0 00-.6-.4l.1 3.7a1.5 1.5 0 00-1.6 1l-.2 1.5c0 .4 3.4 12.5 3.7 15.4 1.2-5.3 1.4-10.7.8-16zM219.4 90c-3.4 2.8-5.8 6.1-9.4 8.8-3 2.2-6.4 3.8-10 4.8-.4-1.1-2-1-2.7-.3a1.4 1.4 0 00-1.3 1.1l-1 .2c-1.2.2-3.1-1.9-2.7-1 .8 3 1.4 5.9 1.9 8.8v4.5c3.3-.2 6.7-.4 10-1a126 126 0 01.2-10.5 1 1 0 00-.4-.4 25.5 25.5 0 0017.7-18.3c.3-.9-1.4 2.6-2.3 3.3z"/></g><path d="M227.1 56.7c-24.3-7-51-7.2-75.6-13.3a36.7 36.7 0 01-17-7.8c-2-2-4.6-3.1-7.4-3.2-27-1-53.9-3-80.3-7.1l-7.5-.3a479 479 0 00-97 19.4l-1 19c0 2-.1 4 1.1 5.8 1.2 1.6 3.3 2.6 5.3 3.7A44 44 0 01-37 85.8l-27.8 10.1c-1.9.7-3.7 1.6-5.3 2.9-5.8 5.4 1.8 11.3 8.5 14.3 11.3 4.9 24.3 6.8 37 8.6 38 5.4 76.4 10.6 114.8 8.6 18-.9 35.7-3.4 53.1-7.4 2.4-1.5 1.3-4.7-1.1-6.1s-5.8-1.5-8.8-1.8c-8-.6-16-2.6-23.4-6-3.8-1.8-7.9-4.9-6.6-8.3a192 192 0 0134.5-7.5c4.3-.5 10-.3 11.4 3 .4 1 .3 2 1 3 .9 1 2.6 1.4 4.2 1.7 12 2 23.6 3.7 35.4 4.3 12.5.7 24.2-5.2 29-14.3l.1-.2L233 65a6 6 0 001-3.5c-.4-2.5-3.8-3.9-6.8-4.8z" fill="#DFF3FE"/><path d="M151.5 43.4a61 61 0 01-11.8-4.2h-.2l-1.7-1-.5-.4-1.2-.9-1.6-1.4a10 10 0 00-1.1-.9l-.2-.1a10.7 10.7 0 00-4.3-1.9h-.2l-1.6-.2c-27-1-53.9-3-80.3-7.1l-7.5-.3-11 1.2-3.6.5-7.5 1-4 .5-9.7 1.6-5.7 1a458.2 458.2 0 00-11 2.1l-2.7.6c-14.2 3-28.2 6.7-41.8 11l-.4 7.9c.3.5.8 1 1.4 1.2C-54.6 55-51 55-48.5 55l21.2-.4c5.2 0 10.6-.2 15.2-2.1 1.2-.5 2.3-1 3.4-1.8l12.7-1c1.8 0 3.9-.1 5.3.8a3.8 3.8 0 011.6 3.1C11.2 60.5.4 66.7 4 73c2.5 4.2 9.6 4.8 15.4 4.8 20.5 0 41.4 0 61.1-4.4 8.4-1.9 16.6-4.6 25.1-5.6 0 .5.6.7.7 1.1l1.3 1.6.2.8-1 1.6a1.1 1.1 0 00.3 1.7l-1 1c-2.5 3.2-6.9 6.2-9.9 9.1a.8.8 0 000 1.2c-4 2.6-8 3.5-14 2.9-3-.3-6-.4-9 0-31.7 2.6-63 8.9-93.2 18.6-.4 0-.8.3-1 .7a53 53 0 00-6.6 2c-2.6 1-5.4 1.6-7.7 3-.8.5 0 1.3.9 1.2 1.4-.2 2.9-.5 4.3-1a.8.8 0 00.8.3c4.7-.4 9.3-1.8 13.7-3 13.6-2 26.8-5.4 40-8.4 2.7-.6 9.7-1.2 14.7-2.7l-2.5 2.2c-4.5 4-9.1 7.9-13.2 12.1-.7.7.4 1.7 1.3 1l1.8-1.4c-.7.7.6 1.7 1.5 1C34.9 109 40.6 103 46.4 97a46.6 46.6 0 015.2-3l.2-.4c11-1.8 22.2-3 32-1.4 11.8 2 16-6 24-11.6 9.8-6.8 22-6 33.6-7.8h.5c15.4 3 31.6 1.5 46.9 4.6l2.2.4-.9 18.8c0 1.4 2.6 1.3 2.8 0 1-6.4 2.2-12.8 2.8-19.2a104.3 104.3 0 0026-22c-22.8-5.6-47.4-6.2-70.2-12zM117.2 69l.2-.5.4-.9 1.3.2-1.9 1.2z" fill="#EEF7FE"/><g fill="#F28D6E"><path d="M36.1 69.8l-.2.2v-.9a1 1 0 00-1.3-.6l-.4.2c0-.8-.8-1.5-1.4-.8a19 19 0 00-2.2 2.3c-.5.6-.8 1.3-1.1 2a.7.7 0 00-.3.6v.2a.8.8 0 00.6.5h.2a.8.8 0 00.6 0c.4-.1.8-.4 1-.7-.3.7-.5 1.6.5 1.9.8.3 1.4-.3 1.9-1-.2.5-.2 1-.1 1.4a.9.9 0 001.6.3c1.2-1.4 2-3 2.2-5a1 1 0 00-1.6-.6zM60 70.4v.3l-.5-.7a1 1 0 00-1.5.4l-.2.3a.9.9 0 00-1.6.3 19 19 0 00-.2 3.2c0 .7 0 1.5.3 2.2a.7.7 0 00.2.7.8.8 0 00.9.2l.1-.1a.8.8 0 00.5-.4c.2-.4.4-.8.4-1.3.2.8.5 1.6 1.5 1.2.8-.2.9-1 .9-1.9.1.5.4.9.7 1.1a.9.9 0 001.4-.7c.2-1.8-.2-3.7-1.2-5.2a1 1 0 00-1.7.4zM114.7 68.8v.2l-.5-.5a.8.8 0 00-1 .6l-.1.3a.7.7 0 00-1.2.4c0 .9.2 1.7.4 2.5 0 .6.3 1.1.5 1.6a.5.5 0 00.3.5h.1a.6.6 0 00.6 0h.1a.6.6 0 00.3-.5c.1-.3.2-.6.1-1 .3.6.7 1.1 1.4.7.5-.4.5-1 .3-1.6.2.3.4.5.8.7a.7.7 0 001-.8 6.3 6.3 0 00-2-3.8.7.7 0 00-1.1.7zM91.5 70v.3l-.4-.7a.8.8 0 00-1.2 0l-.1.3a.7.7 0 00-1.3 0l-.7 2.3c-.1.6-.2 1.2-.1 1.8a.5.5 0 000 .5.6.6 0 00.7.3.6.6 0 00.5-.3l.5-.8c0 .6.2 1.2 1 1.1.6 0 .8-.7 1-1.3 0 .4.1.7.3 1a.7.7 0 001.2-.3c.5-1.4.4-2.9 0-4.2a.7.7 0 00-1.4 0z"/></g><path d="M104.2 72c6.5 0 12.3-.6 15.9-6.7 2.5-4.4 3.5-9.6 3-14.7-1-7-6-11.4-8-17.8a37 37 0 00-1.1-.7 20 20 0 001-8.7 10.7 10.7 0 00-4.2-7.5 16.2 16.2 0 00-16.6.2c-3.1 2-4.8 6-5.3 9.5-.4 2.6 1.6 5.7 2 8.3.3 1 .3 2-.1 2.9-.5.7-1.2.8-1.9 1.2-.7.5-1.4 1.2-1.8 2a31 31 0 00-3.7 22.8c.6 2.4 2 4.6 4 6.2 3 2.3 7 2.5 10.7 2.8 2 .2 4 .3 6.1.3z" fill="#FDFCFB"/><g fill="#4E4E4E"><path d="M115.1 26.2v-2.8a10.7 10.7 0 00-4.3-7.5 16.2 16.2 0 00-16.6.2 11 11 0 00-4.9 6.8c.8-.9 1.7-1.6 2.7-2.1a5.3 5.3 0 015 0c1 .8 1.8 1.7 2.3 2.9.4 1 .7 2.1.9 3.2 1.5 0 3 .7 4.5.7.2 0 .6 0 .5-.3.2-1.2.6-2.3 1.2-3.3a4.3 4.3 0 013.2-2.1 4.8 4.8 0 013.7 1.9l1.8 2.4zM112 28.3c-1.1-.9-3.6-1.3-4.5.3a824 824 0 004.5.4.4.4 0 000-.7zM92 26.3c1.3-.6 3.8-.6 4.4 1A826.4 826.4 0 0192 27a.4.4 0 01.1-.6z"/></g><path d="M106.4 28a.4.4 0 00.3-.5l-.2-.2a9 9 0 00-3-1.6 7.5 7.5 0 00-5.2 1 .4.4 0 000 .6c.3.2.5.2.8.2a2.3 2.3 0 011.5 1c.3.3.4.8.7 1h.7l.5-.2 1-.9c.6-.2 1.3-.3 1.9-.3h1z" fill="#F28D6E"/><path d="M93.2 32.6c3.7 3.5 12.7 4.8 16.7 1.1.3-.2-.1-.6-.4-.5a18.4 18.4 0 01-16-1c-.2 0-.4.2-.3.4zM104.2 72c6.5 0 12.3-.6 15.9-6.7 2.3-4 3.3-8.7 3-13.4-1.2.9-2 2.2-2.5 3.6-.4 1.4-.5 3-1.4 4.1a1.5 1.5 0 01-2 .5 3.3 3.3 0 01-1.8-3c0 2.7.1 5.8-1.4 8.1a9 9 0 01-5.4 3.6 21 21 0 01-6.6.4c-2.6 0-5.2-.6-7.6-1.7a8.8 8.8 0 01-5-5.7l-.3-3.7-1.4 1.8-.6.3c-.4.2-.9-.3-1.1-.7a29 29 0 01-1.8-3.9c-.3-.8-.9-1.5-1.5-2.1-.3 3.1-.1 6.2.7 9.3.6 2.4 2 4.6 4 6.2 3 2.3 7 2.5 10.7 2.8 2 .2 4 .3 6.1.3z" fill="#EEF4FB"/><path d="M86.8 36l-2 4c-1 2-2.6 4-3.6 6.1S79.8 51 81 53c.5.7 1 1.4 1.7 2 1 1.4 1.8 3 2 4.8a1.8 1.8 0 003.1.9 10 10 0 002.5-5.4c.2-2-.4-4-.7-6-.4-3.5.1-7 1.6-10.2.3-.6.5-1.3.6-2 .5-5-3.5-3.5-5-1.1zM117.5 36.3l2 4c1 2 2.6 4 3.6 6.1s1.4 4.9.1 6.9c-.5.7-1 1.4-1.7 2a9.2 9.2 0 00-2 4.8 1.8 1.8 0 01-3.2 1 10 10 0 01-2.4-5.5c-.2-2 .4-4 .7-6 .4-3.5-.1-7-1.6-10.2a6 6 0 01-.6-2c-.5-5 3.5-3.5 5-1.1z" fill="#4E4E4E"/><path d="M73.1 45.7c0-.7-.2-1.3-.6-1.9l-2.2-3.3-1.4-2.2c0-4.6-1.1-9-3.3-13l-.5-1.1.5-1.2c2-8-1.1-19.9-10.4-22.4C47-1.6 40.4 4.3 38.4 12c-1.1 5.9-1.9 6.6-2.6 11.8-5.4 1.7-6.3 10.7-6.5 15.3-.1 1.5 0 3 .1 4.4a20 20 0 00-4.2 6.8c-.8 2.7-.8 5.5 0 8.2a13.5 13.5 0 001.3 4.2c.3.7.7 1.3 1.2 2 3.5 4.7 9.3 6.5 14.9 7 2 .2 3.9.3 5.9.3 6.4 1.8 14.5-.8 19.6-4.5 3.6-2.6 7-6 7.9-10.5A14 14 0 0073 45.7z" fill="#FDFCFB"/><g fill="#4E4E4E"><path d="M44 10a1.3 1.3 0 00-1.9 0 1.5 1.5 0 00-.4 1.2l-.2.8a1.2 1.2 0 001.5 1.4 1.8 1.8 0 001.2-1.5A2 2 0 0044 10zM61 11.7a1.5 1.5 0 00-1.3-1c-.9-.2-1.3.4-1.5 1.1l-.2.7a1.6 1.6 0 00.3 1.5c.2.2.5.4.8.4l.9-.1c.4-.3.7-.7.9-1.2.1-.4.2-1 0-1.4z"/><path d="M73.4 45.5l-3-5-1.5-2.2c0-4.6-1.1-9-3.3-13l-.5-1.1.5-1.2C67.7 14.7 64.3 3 55.2.6 47-1.6 40.4 4.3 38.4 12l-.2.7.1-.2c.5-1.2 1.2-2.4 2-3.5.6-.8 1.3-1.5 2.1-2a4.6 4.6 0 016.9 4.3l4.3.1c.6-1.1.6-1.7 1.5-2.6a5.6 5.6 0 016.4-.1c2.7 1.6 3.2 4.5 3.1 7.4a23.5 23.5 0 01-2.6 10 3.7 3.7 0 012.5 2A21.8 21.8 0 0166 40.5 13 13 0 0171 47c.6 1.7 1 3.5 1.2 5.3.5 4.7.1 9.8-2.3 13.8 2.9-2.4 5.3-5.4 6-9.1 1-4-.5-8-2.5-11.5z"/></g><g fill="#EEF4FB"><path d="M39 25c3.4 5.3 13.3 5.7 18.5 3.6a.2.2 0 00-.1-.4c-6.5 1.3-12.8.8-18.1-3.3-.1-.1-.3 0-.2.1zM69.4 50.4c-.1 4.7-1.1 9.8-4.4 13.2-3.1 3.4-8 4.7-12.5 5.1-6.4.6-13-.5-18.3-4a19.5 19.5 0 01-7.2-8.8c-.8-1.8-1.2-3.7-1.2-5.7 0-.8.4-1.6.5-2.4l-1.1 2.5c-.8 2.7-.8 5.5 0 8.2a13.5 13.5 0 001.3 4.2c.3.7.7 1.3 1.2 2 3.4 4.7 9.3 6.5 14.9 7 2 .2 3.9.3 5.9.3 6.4 1.8 14.5-.8 19.5-4.5 2.2-1.5 4.1-3.3 5.7-5.5l.4-2.9a22.5 22.5 0 00-6.5-17.6c1.7 2.6 2 5.8 1.8 8.9z"/><path d="M27.6 51.4c1.2.6 2.3 1.3 3.3 2a8.3 8.3 0 012.8 5.8c.1 2.1-.3 4.3-1.3 6.3l-.2.3h-.4a6.1 6.1 0 01-4-3.2c-.5-1.4-.9-2.9-1-4.4-.2-1.4-2.7-8.2-1.8-8.9.9.7 1.7 1.5 2.6 2z"/></g><path d="M31.3 27.4c-.4 3-2 5.5-3.7 7.8s-3.5 4.7-4.5 7.5-1 6 .8 8.3l3 2.7c2.2 2 3.6 4.7 4.1 7.6l.3.6c.6.7 1.2 0 1.5-.4a39.1 39.1 0 001-8.9c0-2.5-.8-4.9-2.2-7-.8-.8-1.4-1.8-2-2.8-1.7-4.5 1.2-10.5 1.7-15.4z" fill="#4E4E4E"/><path d="M67.7 33.2c-.8 2 .2 5.6 1.8 7 .2 0 .4 0 .4-.3-.4-1.1-1-2-1.4-3.2s-.3-2.4-.5-3.5a.2.2 0 00-.3 0z" fill="#666774"/><g fill="#F28D6E"><path d="M55.6 13.7a.5.5 0 00.2-.9c-1-.8-2.3-1.4-3.5-1.8a8.6 8.6 0 00-6 1.2.4.4 0 00.2.6c.2.2.5.2.8.3a2.7 2.7 0 011.8 1c.2.4.3 1 .8 1.2a1.3 1.3 0 001.3-.2l1.2-1a5 5 0 012.1-.4h1.1zM136.8 66.7l-.2.2V66a1 1 0 00-1.1-.6 1 1 0 00-.4.1l-.3.3a.9.9 0 00-.6-.9.9.9 0 00-1 .2 19 19 0 00-1.8 2.6c-.4.6-.8 1.3-1 2a.7.7 0 00-.1.7v.1a.8.8 0 00.6.6h.2a.8.8 0 00.6-.1c.4-.2.7-.5 1-.9-.3.8-.4 1.6.7 1.9.8.1 1.3-.5 1.7-1.2V72a.9.9 0 001.6.2 8.1 8.1 0 001.8-5.1 1 1 0 00-1.7-.5zM157.5 69.8l-.1.2-.4-.8a1 1 0 00-1.5 0l-.2.4a.9.9 0 00-.8-.6.9.9 0 00-.9.5l-.9 3c-.1.8-.2 1.6-.1 2.3a.7.7 0 000 .7l.1.1a.8.8 0 00.7.3h.2a.8.8 0 00.5-.4l.7-1c0 .7.2 1.5 1.2 1.4.9 0 1.1-.9 1.3-1.7 0 .5.2 1 .5 1.3a.9.9 0 001.3 0l.2-.4c.6-1.8.6-3.7 0-5.4a1 1 0 00-1.8 0z"/></g><path d="M178.8 52.5c-1-.5-3.4-.4-4.1-1.3-.1-.4-1.5-.7-1.8-.9-.7-1-.8-2-1.4-3.1-1-1.9-1.5-5.7-2.4-7.5-.5-2.5.4-4.2 0-6.7l-1-5.8c.6-2.7.6-5.5.1-8.2 0-3.6-.8-7-3.2-9.5-2.7-3.7-6.7-6.7-11.5-6.2-7.7.8-11.3 7-13.4 13.7a62.9 62.9 0 00-9.5 15.7c-1 2.5-1.7 5-2.5 7.4-4 11-2.6 24.6 9.2 29.8 4.4 2 10.2 3.6 14.9 3.2 2.3-.2 4.6-.6 6.8-1.3a52.8 52.8 0 0011.4-6c1-.9 1.7-2 2.7-3 1-.8 1.8-1.8 2.6-2.9 1.3-1.6 3-3.5 3.4-5.6v-.1a1 1 0 00-.3-1.7z" fill="#FDFCFB"/><g fill="#4E4E4E"><path d="M165 9.5c-2.7-3.7-6.7-6.7-11.5-6.2-5.7.6-9.2 4.1-11.4 8.7l.8-1a5.4 5.4 0 013.9-1.7 3.4 3.4 0 013.2 2.4V17c-.1.4 0 .3.3.4 1 .3 2 .4 3.1.2.6-1.7 1.4-3.2 2.5-4.7 1-1.4 2.5-2.5 4.2-2.9a7 7 0 014.8.8l2 1.5c-.5-1-1.2-1.9-2-2.7z"/><path d="M145.2 13.6c-1.3-.5-2.6.8-3 2 0 .5.6.9.8.4.3-.7 1-1.9 2-1.5 1 .5.8 1.7 1 2.6 0 .3.4.4.6.1a2.8 2.8 0 00-1.4-3.6zM161.8 14.4c-1.5-.2-2.6 1.3-2.8 2.7 0 .5.8.7.9.2.2-.9.7-2.1 1.8-2 1.2.3 1.2 1.5 1.6 2.3.1.3.6.3.7 0a2.8 2.8 0 00-2.2-3.2z"/></g><path d="M150.3 21c2.1.6 5-.3 5.4-2.6 0 .4-.4.5-.7.6-2 .4-4 .2-5.9-.6-1-.5-1.5-.6-1 .7a3.3 3.3 0 002.2 1.8z" fill="#F28D6E"/><path d="M148 18.2a3.7 3.7 0 003.2 2 8 8 0 004.3-1l.2-.3-2.8.6c-1.8.2-3.4 0-4.4-1.4h-.5z" fill="#EF7661"/><path d="M157.1 17.7c-1 .4-2.2.6-3.1 0l-.8-.8a3.5 3.5 0 00-4.1-.1c-.4.2-.9.5-1.2.2-.2-.1-.4-.2-.4 0a2 2 0 001.1 1.8c.7.3 1.4.5 2.2.6 1.3.3 2.7.3 4 0 1-.3 1.7-.9 2.3-1.7z" fill="#F28D6E"/><path d="M173 52.5l-4.6-5.6c-.4-.5-.9-1-1.5-1-.4.2-.8.4-1 .8a49.6 49.6 0 00-8 12.4c.2.9 1.4 1 2.3.8 2.8-.8 4.8-3.4 6-6 .3 0 .6.4.7.7.2.3.4.7.8.7a.5.5 0 00.4-.2c.1 4.9-3.5 9.3-8 11.4-4.6 2-10 2-15 1.4-2.4-.3-4.8-.9-7-1.8a18.2 18.2 0 01-9.4-11.2 30 30 0 01-.6-13.8l.1-1.4-.1.4c-4 11-2.6 24.5 9.2 29.8 4.4 2 10.2 3.6 14.9 3.1 2.3 0 4.6-.5 6.8-1.2a52.7 52.7 0 0011.4-6c1-.9 1.7-2 2.7-3 .7-.6 1.4-1.4 2-2.2.2-.5.3-1 .3-1.6.1-1.2 0-2.5-.5-3.7-.5-1-1.1-2-2-2.8z" fill="#EEF4FB"/><path d="M179.1 54.2a1 1 0 00-.3-1.7c-6.4-3.1-8.6-13.2-9.8-19.5-.3-1.8-.5-3.9-1-5.8.3-1 .5-2.1.5-3.2 0 .3-6.2 9-7.4 13.7-1.3 5.5-2.4 11.1-3 16.8-.2 1.2-1 3.8.3 4.7 1.1.8 2.3-.5 3-1.3 1.9-1.9 2.6-4.5 4.4-6.4.7-.6 1.3-1.2 1.7-2 .5 1.1 1.1 2.2 1.8 3.2l1.5 1.5c.4.3 1.8.7 2 1 1 1.2-1.4 6.1-1.8 7.4-.5 1.5-1.1 3-2 4.4 1.6-1.2 3-2.6 4-4.1l2.7-3c1.3-1.6 3-3.5 3.4-5.6v-.1z" fill="#4E4E4E"/><path d="M141.5 21.6c.6 6.2 11.8 7.4 16 4.8a.2.2 0 00.1-.3h-.2c-5.1 1.5-12.5.2-15.3-4.6-.2-.3-.7-.2-.6.1zM129.6 58a1.5 1.5 0 00.7 1 1.3 1.3 0 001.1-.3c2-1.4 2.2-4.1 2.2-6.5 0-3.3 0-6.5-.3-9.8 0-2.3-.4-4.6-1.1-6.8-.1-.3-1.8 1.7-2 2.1-1 1.6-3.1 4.9-3 6.6.6 4.6 1 9.1 2.3 13.6z" fill="#EEF4FB"/><path d="M168.6 39v.2a.2.2 0 00.2 0h.1V39c.2-.3-.4-.3-.3 0zM169 40.5c.1 1.7 0 3.5-.3 5.3-.6 1.7-1.4 3.4-2.3 5 0 .1.1.3.3.2 2.3-2.5 4-7.4 2.4-10.6h-.1z" fill="#666774"/><path d="M134.6 53.2c1-3.1 1.5-6.3 1.6-9.5.2-6-1.4-11.7-2.3-17.6a57.5 57.5 0 00-3.3 6.6c-1 2.5-1.7 5-2.5 7.4l-.2.6.2 2.1c.3 3.3.6 6.7 1.2 10 .2 1.3.6 4.8 2.5 4.8 1.8 0 2.4-3.2 2.8-4.4zM71 13.9c.6-2.5.9-5.3 2.4-7.4.2-.3.6-.6 1-.7h.7l.7.5c.8 1 1.4 2.2 1.7 3.4a35.2 35.2 0 010 17c-.6 2.8-1.8 5.4-3.5 7.6a10.3 10.3 0 01-7.2 4c1 0-2.4-11.3-2.1-12.4.5-1.9 2.7-3.7 3.7-5.4 1.2-2 2-4.3 2.6-6.6z" fill="#4E4E4E"/></svg>