<svg width="294" height="310" fill="none" xmlns="http://www.w3.org/2000/svg"><g clip-path="url(#clip0)"><path d="M76 136.4c14.7-10 25.9-18.3 33.7-25.1 7.7-6.8 17.5-15.7 29.4-26.7s24.2-12.3 37.1-4 21 19.3 24.3 33c3.3 13.8 15 29.6 35.3 47.7 20.3 18 15.8 27.6-13.3 28.9-29.2 1.2-46.8 14.5-53 39.7s-19.1 34.2-39.1 26.9c-20-7.3-40.1-15.6-60.4-24.9s-28-25-23.2-47.2c4.9-22.3 14.6-38.4 29.3-48.3z" fill="#D0ECF0" opacity=".6"/></g><path d="M138.4 119.8c-.5-.5-.8-1.2-.8-2 0-.5.1-1.1.5-1.6l.3-.4a3 3 0 012.1-1.2h.2a1.9 1.9 0 01.5 0l.4.2h.2l.6.4h.1l.2.3.2.2v.1l.1.1a5.6 5.6 0 01.4.7 3.3 3.3 0 01-.7 3.2 3.1 3.1 0 01-1.3.9 3 3 0 01-3-1z" fill="#D0EBF0"/><path d="M240.5 130.5l-1.1 1.3c-2.6 2.7-5.4 4.8-5.2 9.5 0 1.1.3 2.2.3 3.2a5 5 0 01-.7 2.5c-1 1.7-2.6 2.4-3.3 4.4-1.3 3.5-6.1 2.3-9 2.4-3 .3-6.8 3.8-8 7.3h-21.8c1.3-3.9 1.6-8 1-12-.2-1.8-.7-3.5-1.5-5-4-8.2-14.3-10.9-23-11.3h-.2c-.7-1.8-1.3-3.7-1.8-5.5-.7-3.1-1.5-6.3-2.5-9.5v-.2c-.8-2.3-1.7-4.6-2.8-6.7a22 22 0 00-5.4-6.8 13 13 0 00-3.8-2.2c-7.2-2.6-16.8.3-20.2 7.9a9.4 9.4 0 00-.5 1.3c-.3 1.2-.4 2.3-.4 3.5-5 .5-5.8 4-5.9 4.1.2 0 3-1.3 4.9-1-3 4.7-5.6 9.8-7.6 15h-.4c-10.2.6-22.8 4.2-24.4 16.4a29 29 0 001 12H92c-2-4.6-12.8-4.3-13.6-4.7-1.9-.6-1-3.6-1.1-5.7 0-.3 0-.6-.2-.8-1.5-4.3-7.3-5.2-10.7-7.1l-.2-.2c-4-2.5-7.7-6.5-8.3-11.7-1.2-11.3 5-16.3 11.4-23.3a23 23 0 004-6.7c.5-1.2 1.4-2.4 2.4-3.3 1.9-.3 3.8-.4 5.6-.2 3.8.5 7.7 2.5 11.7 2.4h.2a9.8 9.8 0 003.8-1l.5-.2c1.4-.6 2.8-1.4 4.4-1.8 2.2-.5 4.7-.5 6.8-1.2l-.2-.1c-2.1-1.9-5.7-1.9-8.4-2.6l-1.8-.6c-1.5-.6-2.9-1.4-4-2.4-1.5-1.3-.7-2.3-3-2.9-4.2-1-7.4 4-7.9-1.7-.2-2 .7-3 0-5.3-.5-1.5-1.9-2.2-1.7-4 .3-3 4.5-6.7 6.3-9 3-3.5 6.3-6.6 10-9.3 14.6-10.7 37-17.5 54.2-11.2 3 1.2 6.2 2.2 9.1 3.9 4.7 2.6 3.8 4 5.6 8.5 2.3 5.8 10 5.8 15 6.7 6.7 1 14.2-1 20.2 3.5 5.8 4.4.4 10.3 3.9 15.5 1.5 2.3 4.8 3.3 7.8 4.5l.3.2c1.1.4 2.2 1 3.2 1.6a21.2 21.2 0 017 9.8c.8 2.2 1.1 4.5.7 6.5-.6 3.5-2.8 4.4-5.9 4.8-2.5.4-11.2 1.1-8.4 6.4.8 1.5 6 .3 7.3.2 3.1-.3 6.3-.4 9.5.3 4.4 1 8.7 2.8 13.3 2.6 2.5 0 .5 8-.3 9z" fill="#D0EBF0"/><path d="M142.7 115.5l-.3-.1-.6-.4-.7-.4h.1l.4.2h.2l.6.5h.1l.2.2z" fill="#FFE0D9"/><path d="M224.2 100.7l-.8.1c-1.9.3-3.8.5-5.6.9-2.7.5-5.2 1.3-7.5 3.1-2.7 2.2-4.7 5.8-8 7-7 2.5-13.7-3.9-20.5-3.9-5.1 0-8.4 2.1-12.4 5.4l-3.3 2.8-2.4 1.8c-.8-2.3-1.7-4.6-2.8-6.7a22 22 0 00-5.4-6.8 13 13 0 00-3.8-2.2c-7.2-2.6-16.8.2-20.2 7.8l-.4 1.2c-2.8-.6-5.7-1-8.6-1.2-3.4-.4-6.4.3-9.6 1a65.2 65.2 0 00-11.5 3.5c-2.2.8-6.7 4-9 3.2-6.6-2.2-1-13.5.6-17.6v-.3c.8 0 1.6-.2 2.3-.4 2.4-.6 4.3-2 6.7-2.6 2-.4 4.5-.5 6.5-1l.5-.2c-2.1-2-6-2-8.8-2.7a21 21 0 01-1.9-.6c1.9-1.2 4-.6 5.5-2.1 1.6-1.5 1.9-4.5 2.8-6.5 2.2-5.3 8-7.1 13-7.9 5.8-1 11.2 2.5 16.1 5.5 6.2 3.7 12.8 1 19 6 3.7 3 5.6 6.5 10.4 8 4.5 1.5 10-1.2 14.1-2.8 5-2 10.3-7 15.6-7 3.4 0 6.8 1.7 10.2 3a14 14 0 007.8 1.2c.4 0 .7-.2 1-.3 2-.8 3.4-2.6 5.9-2.5 3.4.2 4.8 3.6 7.4 5.2 1.3.8 5.3.7 6.2 2.8l.2.7c.3 4-6.2 4.7-9.3 5z" fill="#FFE0D9"/><path d="M138.4 119.8c-.5-.5-.8-1.2-.8-2 0-.5.1-1.1.5-1.6l.3-.4a3 3 0 012.1-1.2h.2a1.9 1.9 0 01.5 0l.4.2h.2l.6.4h.1l.2.3.2.2v.1l.1.1a5.6 5.6 0 01.4.7 3.3 3.3 0 01-.7 3.2 3.1 3.1 0 01-1.3.9 3 3 0 01-3-1z" fill="#fff"/><path d="M151.7 102c-7.2-2.7-16.8.2-20.2 7.8a9.4 9.4 0 00-.5 1.3c-.3 1.2-.4 2.3-.4 3.5-5 .5-5.8 4-5.9 4.1.2 0 3-1.3 4.9-1-3.1 4.7-5.6 9.8-7.6 15h-.4c-10.2.6-22.8 4.2-24.4 16.4l-.2 1.6c-1.3-.2-2.7-.5-4.1-1a25.8 25.8 0 00-15.6 1 65 65 0 00-4 1.5C70 153.6 57 158 61 147.6c1-2.5 3.9-3 5.4-4.8l.7-1c1.7-3.8-2.7-9-2.3-13.2.8-10.2 9.2-15 16.8-13.6 5.8 1.1 9.3 7.7 15.7 4.4 2.3-1.2 3.6-3.1 4.8-5.2l.2-.4c1.7-3.3 3-7 6.7-8.9 6-3.2 9.9 2.9 15.7.4 6.3-2.8 10.5-8.7 17.6-8.1 3.5.3 6.7 2.2 9.4 4.7zM245.3 140.9c-1.5 3.3-6 1.7-8.4 3.3l-2.8 2.2c-4 3.4-6.3 6.7-12.6 4.3-5.5-2-10.2-6.7-16-7.7-5-.9-9.7-.8-14.3 1-4-8.1-14.3-10.8-23-11.2h-.2c-.7-1.8-1.3-3.7-1.8-5.5-.7-3.1-1.5-6.3-2.5-9.5v-.2c-.8-2.3-1.7-4.6-2.8-6.7l5.2 4.9.2.1 2.1 2.2c3.6 3.6 6.3 6.4 11 5.3 5.4-1.3 10-3.7 15.5-2.3l.6.2c5.8 1.8 9.4 8.6 14.8 10.5 5.2 2 9.5-2.3 14.6-3 2-.2 9.1.7 14.5 3 4.5 1.9 7.7 4.8 5.9 9z" fill="#00A6CC"/><g fill="#fff"><path d="M158.4 85.7a2.5 2.5 0 11-2.5-2.7 2.6 2.6 0 012.5 2.7zM189 108.5a1.9 1.9 0 11-2-2 2 2 0 012 2zM203 136.7a.9.9 0 01-.6.7.9.9 0 11-.3-1.7.9.9 0 01.9 1zM210.5 141.7a.7.7 0 01-.9.7.7.7 0 01-.5-.6.7.7 0 01.7-.9.8.8 0 01.7.8zM102.5 104.8c.6 0 1-.5 1-1 0-.6-.4-1.1-1-1.1a1 1 0 00-1 1c0 .6.5 1 1 1zM99.3 116.6a1 1 0 11-1-1 1 1 0 011 1zM111.3 126.6c.5 0 1-.4 1-1s-.5-1-1-1c-.6 0-1 .4-1 1s.4 1 1 1zM104.8 56.5a1.4 1.4 0 11-1.4-1.4 1.4 1.4 0 011.4 1.4zM103.4 66.3a1.3 1.3 0 01-2.5.2 1.3 1.3 0 01.5-1.3l.7-.2a1.3 1.3 0 011.3 1.3zM88 93.6a1.2 1.2 0 11-1.2-1.3 1.3 1.3 0 011.3 1.3zM75 107.8a1.4 1.4 0 11-1.3-1.4 1.4 1.4 0 011.3 1.4zM79.5 120.7a1.2 1.2 0 11-1.2-1.4 1.3 1.3 0 011.2 1.4zM149.8 61.4a1.6 1.6 0 11-1.6-1.8 1.7 1.7 0 011.6 1.7zM205.7 97.3a1.5 1.5 0 01-2.5 1 1.5 1.5 0 01-.3-1.6c0-.3.3-.5.5-.7s.5-.2.8-.2a1.5 1.5 0 011.5 1.5zM219 104a1.3 1.3 0 01-.8 1.2 1.3 1.3 0 01-1.6-1.7c0-.3.2-.4.4-.6s.5-.2.7-.2a1.3 1.3 0 011.3 1.4zM131.1 58.6a1.4 1.4 0 01-1.8 1.3 1.4 1.4 0 01.4-2.9c.4 0 .7.2 1 .5s.4.7.4 1zM120.8 51.8a1.2 1.2 0 01-1.5 1.2 1.2 1.2 0 01.3-2.5 1.3 1.3 0 011.2 1.3zM117.3 81.7a1.3 1.3 0 01-.9 1.2 1.3 1.3 0 11-.5-2.6 1.4 1.4 0 011.4 1.4zM182.4 74.2a2 2 0 11-2-2 2 2 0 012 2zM88 137.4a1.1 1.1 0 01-2.3.1 1.1 1.1 0 011.1-1.3 1.1 1.1 0 011.1 1.2zM197.6 154.6c.5 0 .9-.4.9-.9s-.4-1-1-1a1 1 0 00-.8 1c0 .5.4 1 .9 1zM89 152.2a1 1 0 01-1.4 1 1 1 0 01.2-2.2c.3 0 .6.2.8.4s.3.5.3.8z"/></g><path d="M143.4 116.6a4 4 0 00-.4-.7v-.1l-.1-.1-.2-.2a2 2 0 00-.2-.2h-.1v.5l-.1.1h-.1-.1l-.2-.2c-.1-.2-.2-.5-.1-.7v-.1l-.2-.1a2.3 2.3 0 00-.5-.2h-.5-.1a3 3 0 00-2 1.2l-.4.4c-.4.5-.5 1-.5 1.7a3.1 3.1 0 002.1 2.8 3 3 0 002.2-.2 3.1 3.1 0 001.5-2c.2-.6.2-1.3 0-2zm-3.6 1.7h-.5a.8.8 0 01-.7-.5v-.5l-.1-.1-.4-.2c-.2-.1-.2-.4-.1-.6 0-.1.3-.6.5-.6h.1c.2 0 .3.1.4.3v.3h.3a.8.8 0 01.9.5 1 1 0 01-.4 1.4zm.2-2.2a.4.4 0 01-.5-.4.4.4 0 01.4-.4H140.2v.1l.2.2a.5.5 0 01-.4.5z" fill="#123079"/><path d="M161.7 147.8c-.5-2.3-.5-4.9-1.7-7 1-.5 2-1.2 2.3-2.3.4-1.3 0-2.8-.3-4-.9-2.8-2.5-5.4-5-6.6a5.7 5.7 0 00-3.7-.4c-1.6.4-3.1 1-4.8 1.1-1.6.3-3.3.3-4.9 0-1-.2-1.9-.7-2.8-1.3-.2-.2-.4-.3-.7-.3 2.8-.4 5.7-.5 7.6-2.9a8.2 8.2 0 001.4-8c-.5-1-1.1-2-2-2.7-1-.9-2.4-1.5-3.8-1.7-2.6-.5-5.2.6-7.2 2.2a38.4 38.4 0 00-4.7 4.2 1 1 0 01-.4.2c-.3 0-.6-.3-.8-.4l-.5-.2c-.2 0-.2.2-.4.4a83.6 83.6 0 00-4.4 7.8 69 69 0 00-6.6 24c.2.5.5 1 .9 1.3 2 2.2 5 3.4 7.8 4.2a81.8 81.8 0 0024.7 2.3 49.3 49.3 0 01-3.3-9.9c-.6-2.8.1-6.4 3.4-6.7l4.8-.4c.6-.1 1.3 0 2 .1a3 3 0 011.4 1.5c1.2 2.3 1.1 5.3 1.8 7.8a46.6 46.6 0 001.7 5l.7.2a56 56 0 01-2.5-7.5c.6 2.6-.4-1.8 0 0zm-23.3-28c-1.3-1.4-1-3.4.5-4.5a2.7 2.7 0 013.8.2 3.2 3.2 0 010 4.3 3 3 0 01-4.3 0c.7.9-.5-.5 0 0z" fill="#fff"/><path d="M167 170.6h-.7H165l-.5-.2h-.4a1.4 1.4 0 00-.3 0v-.1h-.2l-.2-.1h-.1-.2l-.3-.2c-.2 0-.3 0-.5-.2h-.1l-.4-.2-.5-.2-.5-.2a13.1 13.1 0 01-1.4-1c-.2 0-.3-.2-.4-.3l-.5-.4c-.2 0-.3-.2-.5-.3a16 16 0 01-.8-.8 6.7 6.7 0 01-.5-.6 11.9 11.9 0 01-.8-.9l-.2-.3a6.7 6.7 0 01-.5-.7l-.5-.7-.2-.3a9 9 0 01-.3-.4l-.4-.7-.4-.7-.2-.4v-.1l-.3-.4-.2-.4-.2-.5-.3-.4v-.3l-.5-1a54 54 0 01-3.4-10.8v-2.5c.3-1 .8-1.9 1.6-2.6l1.1-.5.8-.1 4-.3c1 0 2.3-.4 3.2.3.4.3.6.6.8 1 1.1 1.8 1.3 5.1 1.8 7 .5 2 1.1 4 1.9 6l.4 1.1.1.3.2.4.2.5.9 2.3.6 1.4a53 53 0 012.6 7.4c.2 1.3-.5 1.9-1.5 2z" fill="#123079"/><path d="M173.3 152.8a61.8 61.8 0 00-5.3-20c-.8-1.8-1.3-3.6-1.8-5.5-.7-3-1.5-6.3-2.5-9.4v-.3c-.8-2.3-1.7-4.6-2.8-6.7a22 22 0 00-5.4-6.8 13 13 0 00-3.8-2.2c-7.2-2.6-16.8.3-20.2 7.9a9.5 9.5 0 00-.5 1.3c-.3 1.2-.4 2.3-.4 3.5-5 .5-5.8 4-5.9 4.1.2 0 3-1.3 4.9-1 .4 0 .7.2 1 .5h.2c0 .1.1.1.2 0h.4c.1-.2.2-.2.4-.3l.3-.3 2.2-2.1a22.1 22.1 0 011.2-1.2c.2 0 .3-.2.4-.3a14.4 14.4 0 011.6-1l.1-.1.4-.2h.1a8.3 8.3 0 011.8-.8 7.3 7.3 0 011-.2h1.8a5.7 5.7 0 011 .1 7.7 7.7 0 011.4.5l.6.2.5.3c.6.3 1 .7 1.5 1.1v.1l.2.2.3.4v.1l.2.1.1.2.2.4.2.4v.1l.2.3v.3l.1.2a5 5 0 01.2.8 3 3 0 010 .4v.1l.1.4v1.4a6.2 6.2 0 01-.3 1.4 8.5 8.5 0 01-1.5 3 6 6 0 01-.4.3c-2 2.1-4.5 2.2-7.2 2.5.4 0 2 1.3 2.6 1.4 1.1.3 2.3.5 3.4.4 2.3 0 4.6-.4 6.7-1.2 3.2-1 6.2 1 7.9 3.9.9 1.6 1.7 3.7 1.7 5.7v.2c0 1.9-1.1 2.8-2.4 3.4 1.1 2 1.3 5.2 1.7 7 .7 2.6 1.5 5 2.5 7.5l.1.4.2.4h.7a57 57 0 001.8-.4h.2l1.4-.4.7-.2.3-.1.7-.2.4-.1.6-.3h.3l.3-.2.2-.1c.2 0 .4-.2.5-.3l.5-.4a.7.7 0 00.2-.6z" fill="#123079"/><path d="M191.7 161c0 .4-.2.7-.3 1l-.5 1.1c-.3.8-.8 1.5-1.2 2.2 1.8-5.4 1.2-12.8-3.6-16.3-2-1.6-5-2.4-7.4-1.4a8 8 0 00-2.9 2.1l-1.1 1.6c-.1.1-1 1.5-.9 1.7 0-.2.9-1.5 1-1.6.4-.6.8-1 1.3-1.4.8-.7 1.8-1.1 2.9-1.3a7 7 0 015.8 2.5c2 2.3 2.8 5.4 2.7 8.4 0 1.8-.2 3.6-.5 5.4 0 .3-.1.2-.4.2a23.7 23.7 0 00-4.3.6c-3 .6-5.7 1.8-8.5 3.2-2.4 1.3-4.9 2.6-7.6 3a16 16 0 01-8.7-1.8c-3-1.3-6-2.7-9.1-3.7-3-1-6-1.4-9-1.4-3.4 0-6.7.4-10 1.2-3.2.8-6.4 1.8-9.6 3-2.9 1-5.8 2.1-8.8 2.7-1.4.3-2.9.4-4.4.3l-.6-.7a11.4 11.4 0 01-1-3.6c-.5-3.2-.5-6.7.6-9.7 1-2.7 2.7-5 5.1-6.6 2.2-1.5 4.9-2.2 7.3-1l-.6-.5a10 10 0 00-2.4-1c-1.2-.3-2.4-.4-3.7-.4a12 12 0 00-3.5.3 8 8 0 00-3 1.7c-4.1 3.5-5.4 9.5-4.4 14.8a22.6 22.6 0 01-3.4-14.4 16.5 16.5 0 018.3-14.1 37.9 37.9 0 0116.7-4.3 64.7 64.7 0 00-3.3 12.9 8.5 8.5 0 00-1.7-4c-.9-1-2-1.7-3-2.7l1.5 2c.6 1 1 1.8 1.3 2.8l.7 3.2c0 .3.5 2.8.8 2.6 0 1 1.3 2 2 2.6 1.2 1 2.6 1.7 4 2.2 3 1.2 6 2 9.1 2.3 5.7.9 11.4 1.2 17 1h1c.2 0 .3 0 .4.2l.2.5a46.6 46.6 0 003.3 5.7c1.8 2.4 4 4.5 6.7 5.6.8.4 1.8.6 2.7.8 1 .1 2.5.4 3.4-.4 1-1 0-2.8-.3-3.9l-1.8-4.9-2-4.8c1.3-.5 2.7-.8 4-1.1l3-.9c.7-.2 1.6-.5 2.1-1.1.2.6.6-.7.7-.9l.4-2 .8-3.9c.4-1.1.9-2.2 1.5-3.2l2-2.8-3.6 3.2a10.5 10.5 0 00-2.2 5.1c-.5-3.1-1.2-6.3-2.2-9.3-.7-2.3-1.6-4.6-2.5-6.8a36.6 36.6 0 0113.9 2.9c4.4 2 8.4 5.3 10 10.2.8 2.4 1.2 5 1 7.6 0 2.6-.4 5.1-1.2 7.6 1.3-3.8 0 0 0 0z" fill="#FF767D"/><path d="M118.7 145.7a45.8 45.8 0 00-.5 3.9l-.2-.5a3.8 3.8 0 01-.3-1c-.4-1.8-.6-3.6-1.3-5.2-.6-1.6-1.5-2.6-2.5-3.8 1.4 1.2 2.9 2 3.8 3.6l.8 1.8.2 1.2zM178.5 140.7c-1.2 1.5-2.3 2.7-3 4.6-.8 2-1 4.2-1.6 6.3a4.4 4.4 0 01-.5 1.9h-.3v-.1a.7.7 0 00.2-.6 121 121 0 00-.6-3.9 13 13 0 011.3-3.8c1-2 2.9-3 4.5-4.5z" fill="#FFE0D9"/><path d="M118 150.6l-.3-.1a13.9 13.9 0 00-8-1.6c-2 0-3.8.8-5.1 2.1a15 15 0 00-4.5 10.1 19.6 19.6 0 00.3 4.6 28 28 0 005.8 6.2 12 12 0 01-.9-2.2c-.6-2-.6-4.4-.6-6.6 0-2.8.9-5.5 2.4-7.8 2.2-3.3 6.8-6.5 10.6-4.8l.3.2z" fill="#fff"/><path d="M189.8 165.2l-1 1.6-1.3 1.6-3.1 3c-2 1.6-4.2 3-6.5 4.2a56 56 0 01-15 4.7c.8 1 1.5 2.2 2 3.3.5 1 1.3 2.8.5 3.8s-1.9.1-2.7-.2c-1.2-.4-1.4 1.3-1.9 2-.8 1-2.1-.5-2.6-1.2-.3-.4-.5-1-1-1-.6 0-1.3.6-1.8 1-.7.4-2 1.5-2.3.2-.3-1 0-2.4.2-3.4l.8-3.3-5.5.5a39 39 0 011.8 8.3c0 .5-.1.8-.6.4l-1.1-1.2c-1.2-.7-2.3 1.2-2.8 2-.6.7-1.3 1.3-2.3 1-1-.4-1.8-1.4-2.8-1-.8.2-1.3.9-2.2.8-.6 0-1.6-.1-1.8-1 0-.5 0-1.1.2-1.7.4-1.6.9-3.2 1.2-4.9.1-1 .4-2.8-.9-3-1.5-.3-3.1-.4-4.6-.5l-4.2-.6a66.4 66.4 0 01-17.1-5.3l-4.8-3a24.8 24.8 0 008.6-1.5l9.2-3c6.2-2 12.9-3.5 19.3-2.4 3.1.6 6 1.5 9 2.7 1.5.7 3 1.4 4.7 2 1.5.7 3 1.3 4.6 1.7 5.7 1.4 10.6-2.5 15.6-4.6 3.8-1.6 8-2.3 12.2-2-1 0 0 0 0 0z" fill="#00A6CC"/><path d="M190.6 161v.1c-.1 1.4-.4 2.8-.8 4.1H187l.5-4c.1-1.8 0-3.6-.3-5.3-.7-3-2.5-5.3-4.6-6.5-3-1.5-6.6-.8-8.8 3.6 1.4-3.3 4.3-6.3 8-5.8a9.6 9.6 0 016 3.3c.8 1 1.5 2.2 1.9 3.5l.4 1.5c.5 1.9.7 3.7.5 5.6z" fill="#fff"/><path d="M235 161.1c-4.9.7-9.7 2-14.3 3.7-2.4 1-4.4 2.5-6.6 4-2 1.6-4.2 3-6.6 3-4.7-.2-8-4-12.4-5.5-1.7-.6-3.5-1-5.3-1 .8-1.4 1.4-2.7 1.9-4.2H235zM106.6 172.3c-4.6-.3-8.7-2.2-13.5-4.6-6.3-3-11.7-5.8-18-6.6h23.1a21 21 0 004.2 7.3 28 28 0 003.8 3.5l.4.4z" fill="#123079"/><defs><clipPath id="clip0"><path transform="rotate(165.3 131 142.8)" fill="#fff" d="M0 0h243.5v230.3H0z"/></clipPath></defs></svg>