<svg width="180" height="54" fill="none" xmlns="http://www.w3.org/2000/svg"><path d="M173.3 54H6.7C3 54 0 51 0 47.2V6.8C0 3 3 0 6.7 0h166.6c3.7 0 6.7 3 6.7 6.8v40.5c0 3.7-3 6.7-6.7 6.7z" fill="#000"/><path d="M173.3 0H6.7C3 0 0 3 0 6.8v40.5C0 51 3 54 6.7 54h166.6c3.7 0 6.7-3 6.7-6.8V6.8c0-3.7-3-6.7-6.7-6.7zm0 1c3.1 0 5.6 2.6 5.6 5.8v40.5c0 3-2.5 5.6-5.6 5.6H6.7C3.6 53 1 50.4 1 47.3V6.8C1 3.5 3.6 1 6.7 1h166.6z" fill="#A6A6A6"/><path d="M63.2 13.8c0 1.2-.3 2-1 2.7-.7.8-1.7 1.2-3 1.2a4 4 0 01-2.9-1.2 4.1 4.1 0 01-1.2-3c0-1.2.4-2.2 1.2-3a4 4 0 013-1.2 4 4 0 011.6.3c.6.2 1 .5 1.3 1l-.7.6a3 3 0 00-4.4 0c-.6.6-1 1.3-1 2.3s.4 1.7 1 2.3a3 3 0 002.2 1 3 3 0 002.2-1c.4-.4.6-1 .7-1.6h-3v-1h4v.6" fill="#fff"/><path d="M63.2 13.8h-.1c0 1.1-.3 2-1 2.6-.7.8-1.6 1.2-2.8 1.2-1.1 0-2-.4-2.9-1.2a4 4 0 01-1.1-2.9 4 4 0 011.1-3c.8-.7 1.8-1.1 2.9-1.1l1.6.3c.5.3.9.5 1.2.9v-.2l-.7.7v.1h.2c-.6-.7-1.3-1-2.3-1-.9 0-1.6.2-2.3.9-.6.6-1 1.4-1 2.4a3.3 3.3 0 005.6 2.4c.4-.4.7-1 .7-1.7v-.1h-2.9v-.7h3.8v-.2H63v.6h.4a3.6 3.6 0 00-.1-.6V13h-4.1v1.2h3v-.1h-.1c0 .7-.3 1.2-.7 1.5-.5.6-1.2.9-2.1.9-.8 0-1.5-.3-2.1-.9a3 3 0 01-.9-2.2 3 3 0 013-3.1c.9 0 1.6.3 2 1h.2l.8-.8v-.2c-.3-.4-.8-.7-1.3-1a4.2 4.2 0 00-1.7-.3c-1.2 0-2.2.5-3 1.3-.9.8-1.3 1.9-1.3 3.1 0 1.2.4 2.3 1.3 3.1.8.8 1.8 1.3 3 1.3a4 4 0 003-1.3c.7-.7 1-1.6 1-2.8zm6.2-3.4h-3.7V13H69v1h-3.3v2.6h3.7v1h-4.7V9.4h4.7v1z" fill="#fff"/><path d="M69.4 10.4h-3.8V13h3.3v.8h-3.3v2.8h3.6v.7h-4.4V9.6h4.4v.8H69.5v-1h-5v8.3h5v-1.3h-3.6v-2.3H69V13H66v-2.3h3.6v-.2h-.1m4.3 7.2h-1v-7.2h-2.3v-1H76v1h-2.2v7.1z" fill="#fff"/><path d="M73.7 17.6v-.2h-.9v-7h-2.2v-.8h5.2v.7h-2.2v7.3h.1v-.2.2h.1v-7h2.3V9.3h-5.8v1.3h2.2v7h1.3m6.1 0V9.4h1v8.2h-1z" fill="#fff"/><path d="M80 17.6v-8h.8v7.8H80v.2H81V9.4h-1.2v8.4h.1v-.1zm5.5 0h-1v-7.2h-2.3v-1h5.5v1h-2.2v7.1z" fill="#fff"/><path d="M85.5 17.6v-.2h-.9v-7h-2.2v-.8h5.2v.7h-2.2v7.3h.1v-.2.2h.1v-7H88V9.3H82v1.3h2.2v7h1.3m7.4-1.8a3 3 0 002.2 1 3 3 0 002.2-1c.6-.6.9-1.4.9-2.3 0-1-.3-1.7-1-2.3a3 3 0 00-2-1 3 3 0 00-2.3 1c-.6.6-.8 1.4-.8 2.3 0 1 .2 1.7.8 2.3zm5.1.7c-.7.8-1.7 1.2-2.9 1.2s-2.1-.4-3-1.2a4.2 4.2 0 01-1.1-3c0-1.2.4-2.2 1.2-3 .8-.8 1.7-1.2 3-1.2 1 0 2 .4 2.8 1.2.8.8 1.2 1.8 1.2 3s-.4 2.2-1.2 3z" fill="#fff"/><path d="M93 15.8v.1a3 3 0 002.2 1 3 3 0 002.3-1c.6-.6 1-1.4 1-2.4s-.4-1.8-1-2.4a3 3 0 00-2.3-1 3 3 0 00-2.3 1c-.6.6-.9 1.4-.9 2.4s.3 1.8 1 2.4l.1-.2a3 3 0 01-.8-2.2c0-1 .3-1.6.8-2.2.6-.6 1.3-.9 2.1-.9s1.5.3 2 .9c.7.6 1 1.3 1 2.2a3 3 0 01-1 2.2c-.5.6-1.2.9-2 .9s-1.5-.3-2-.9l-.2.1zm5.1.7c-.8.7-1.7 1-2.9 1.1a4 4 0 01-4-4.1 4 4 0 011.2-3c.7-.7 1.7-1.1 2.8-1.1a4 4 0 014 4.1 4 4 0 01-1.1 3l.1.1c.8-.8 1.3-1.9 1.3-3.1 0-1.2-.5-2.2-1.3-3a4 4 0 00-3-1.4 4 4 0 00-3 1.3c-.8.8-1.2 1.9-1.2 3.1 0 1.2.4 2.3 1.2 3.1a4 4 0 003 1.3 4 4 0 003-1.3v-.1m2.6 1v-8h1.2l4 6.3V9.4h1v8.1h-1.1l-4.1-6.6v6.6h-1z" fill="#fff"/><path d="M100.8 17.6h.1v-8h1l4 6.3h.2V9.6h.7v7.8h-.9l-4-6.6h-.3v6.7h-.8.1-.1v.2h1.1V10.9h-.1v.2-.2l-.1.1 4 6.7h1.4V9.3h-1.3v6.5h.2v-.2.2-.1l-4-6.4h-1.4v8.4h.2v-.1zm41.8 22.9h2.5V23.6h-2.5v16.9zM165 29.7L162 37l-3-7.3h-2.7l4.5 10.2-2.6 5.7h2.6l6.9-15.9H165zm-14.1 8.9c-.8 0-2-.4-2-1.5 0-1.3 1.4-1.8 2.7-1.8 1 0 1.6.3 2.2.6a3 3 0 01-3 2.7zm.3-9.3c-1.8 0-3.7.8-4.5 2.6l2.3 1c.4-1 1.3-1.3 2.2-1.3 1.3 0 2.6.8 2.6 2.2v.2c-.4-.3-1.4-.7-2.6-.7-2.3 0-4.8 1.3-4.8 3.8 0 2.3 2 3.7 4.2 3.7 1.7 0 2.6-.7 3.2-1.6v1.3h2.4V34c0-3-2.2-4.7-5-4.7zm-15.4 2.5h-3.5V26h3.5a3 3 0 013 2.9 3 3 0 01-3 2.9zm0-8.2h-6v16.9h2.5v-6.4h3.4c2.8 0 5.5-2 5.5-5.2 0-3.3-2.7-5.3-5.5-5.3zm-32.6 15c-1.7 0-3.1-1.5-3.1-3.5s1.4-3.5 3.1-3.5c1.7 0 3 1.5 3 3.5s-1.3 3.5-3 3.5zm2.9-8h-.1a4 4 0 00-3-1.2c-2.8 0-5.4 2.5-5.4 5.7s2.6 5.7 5.4 5.7c1.4 0 2.4-.6 3-1.3v.9c0 2.2-1 3.3-3 3.3-1.5 0-2.4-1-2.8-2l-2.2 1a5.4 5.4 0 005 3.3c3 0 5.5-1.7 5.5-6V29.7H106v1zm4 9.9h2.6V23.6h-2.5v16.9zm6.2-5.6c0-2.2 1.7-3.3 3-3.3 1 0 1.8.5 2.1 1.2l-5 2.1zm7.8-1.9c-.5-1.3-2-3.6-4.9-3.6-3 0-5.3 2.3-5.3 5.7a5.6 5.6 0 0010.4 3.2l-2-1.3c-.7 1-1.5 1.6-2.8 1.6-1.3 0-2.2-.6-2.8-1.8l7.6-3.1-.2-.7zm-60.4-1.9v2.5h5.7a5.1 5.1 0 01-1.3 3c-.8.9-2.1 1.8-4.4 1.8a6.4 6.4 0 01-6.4-6.5c0-3.6 2.8-6.4 6.4-6.4 1.9 0 3.3.7 4.3 1.7l1.7-1.7a8.3 8.3 0 00-6-2.5c-4.9 0-9 4-9 9s4.1 8.8 9 8.8a8 8 0 006.1-2.5c1.6-1.6 2-3.8 2-5.7a8 8 0 000-1.5h-8.1zm14.7 7.5c-1.7 0-3.2-1.4-3.2-3.5 0-2 1.5-3.5 3.2-3.5 1.7 0 3.2 1.4 3.2 3.5 0 2-1.5 3.5-3.2 3.5zm0-9.2a5.6 5.6 0 00-5.7 5.7c0 3.3 2.6 5.7 5.7 5.7 3.2 0 5.7-2.4 5.7-5.7 0-3.3-2.5-5.7-5.7-5.7zm12.4 9.2c-1.7 0-3.2-1.4-3.2-3.5 0-2 1.5-3.5 3.2-3.5 1.8 0 3.2 1.4 3.2 3.5 0 2-1.4 3.5-3.2 3.5zm0-9.2a5.6 5.6 0 00-5.6 5.7c0 3.3 2.5 5.7 5.6 5.7 3.2 0 5.7-2.4 5.7-5.7 0-3.3-2.5-5.7-5.7-5.7z" fill="#fff"/><path d="M14 43.7c-.5-.5-.7-1.1-.7-2v.2-29.8.2c0-1 .3-1.6.7-2L30.5 27 14 43.7zm-.7-31.6zm0-.3zm0 0z" fill="url(#paint0_linear)"/><path d="M36 32.8l.2-.1 6.5-3.7-6.5 3.7H36zm0-.2L30.5 27l5.5-5.6 6.7 3.8c.8.5 1.3 1.2 1.4 1.8-.1.6-.6 1.3-1.4 1.8L36 32.6" fill="url(#paint1_linear)"/><path d="M15.2 44.4zm0-.2c-.5 0-.9-.2-1.2-.5L30.5 27l5.5 5.6-19.3 11.1a3 3 0 01-1.5.5zm-1.2-.3z" fill="url(#paint2_linear)"/><path d="M30.5 27L14 10.3a1.7 1.7 0 011.2-.5c.4 0 1 .2 1.5.5L36 21.4 30.5 27zm5.7-5.7L16.7 10.1a3 3 0 010 0l19.5 11.2z" fill="url(#paint3_linear)"/><path d="M15.3 44.4c.4 0 .9-.2 1.4-.5L36 32.8 16.7 43.9c-.5.3-1 .4-1.4.5zm-1.3-.5zm0 0z" fill="#000"/><path d="M36 32.8l.2-.1H36z" fill="url(#paint4_linear)"/><path d="M15.2 44.4c-.5 0-.9-.2-1.2-.5v-.2c.3.3.7.5 1.2.5.4 0 1-.2 1.5-.5L36 32.6l.2.1H36L16.7 44c-.5.3-1 .4-1.4.5a2.5 2.5 0 01-.1 0" fill="url(#paint5_linear)"/><path d="M14 43.8" fill="#000"/><path d="M14 43.8c-.5-.4-.7-1-.7-1.9v-.2c0 .9.2 1.5.6 2h.1v.1" fill="url(#paint6_linear)"/><path d="M14 43.8" fill="url(#paint7_linear)"/><path d="M44 27.7z" fill="#000"/><path d="M36.2 32.7l-.2-.1 6.7-3.8c.8-.5 1.3-1.2 1.4-1.8 0 .2 0 .5-.2.7-.2.5-.6.9-1.2 1.3l-6.5 3.7z" fill="url(#paint8_linear)"/><path d="M44 27c0-.7-.4-1.4-1.3-2l-6.5-3.7 6.5 3.8c1 .5 1.4 1.2 1.4 1.9z" fill="#404040"/><path d="M44 27c0-.6-.5-1.3-1.3-1.8L36 21.4l.2-.1 6.5 3.8c1 .5 1.4 1.2 1.4 1.9z" fill="url(#paint9_linear)"/><path d="M13.3 12zm0-.2zm0 0zm0 0c0-1.4.8-2.2 1.9-2.2a1.7 1.7 0 00-1.2.5c-.4.5-.7 1-.7 1.7z" fill="#404040"/><path d="M13.3 12.3V12v-.3c0-.7.3-1.2.6-1.6h.1c-.4.5-.7 1.2-.7 2zM14 10z" fill="url(#paint10_linear)"/><path d="M36 21.4L16.7 10.3a3 3 0 00-1.5-.5c-.5 0-.9.2-1.2.5v-.1-.1c.3-.3.7-.5 1.2-.5.4 0 1 .2 1.5.5l19.5 11.2-.2.1z" fill="url(#paint11_linear)"/><defs><linearGradient id="paint0_linear" x1="29.1" y1="11.8" x2="6.4" y2="34.1" gradientUnits="userSpaceOnUse"><stop stop-color="#00A0FF"/><stop offset="0" stop-color="#00A1FF"/><stop offset=".3" stop-color="#00BEFF"/><stop offset=".5" stop-color="#00D2FF"/><stop offset=".8" stop-color="#00DFFF"/><stop offset="1" stop-color="#00E3FF"/></linearGradient><linearGradient id="paint1_linear" x1="45.1" y1="27" x2="12.8" y2="27" gradientUnits="userSpaceOnUse"><stop stop-color="#FFE000"/><stop offset=".4" stop-color="#FFBD00"/><stop offset=".8" stop-color="orange"/><stop offset="1" stop-color="#FF9C00"/></linearGradient><linearGradient id="paint2_linear" x1="33.1" y1="30.1" x2="2.4" y2="60.4" gradientUnits="userSpaceOnUse"><stop stop-color="#FF3A44"/><stop offset="1" stop-color="#C31162"/></linearGradient><linearGradient id="paint3_linear" x1="9.7" y1=".2" x2="23.4" y2="13.8" gradientUnits="userSpaceOnUse"><stop stop-color="#32A071"/><stop offset=".1" stop-color="#2DA771"/><stop offset=".5" stop-color="#15CF74"/><stop offset=".8" stop-color="#06E775"/><stop offset="1" stop-color="#00F076"/></linearGradient><linearGradient id="paint4_linear" x1="45.1" y1="27" x2="12.8" y2="27" gradientUnits="userSpaceOnUse"><stop stop-color="#CCB300"/><stop offset=".4" stop-color="#CC9700"/><stop offset=".8" stop-color="#CC8400"/><stop offset="1" stop-color="#CC7D00"/></linearGradient><linearGradient id="paint5_linear" x1="33.1" y1="30.1" x2="2.4" y2="60.4" gradientUnits="userSpaceOnUse"><stop stop-color="#CC2E36"/><stop offset="1" stop-color="#9C0E4E"/></linearGradient><linearGradient id="paint6_linear" x1="29.1" y1="11.8" x2="6.4" y2="34.1" gradientUnits="userSpaceOnUse"><stop stop-color="#008DE0"/><stop offset="0" stop-color="#008DE0"/><stop offset=".3" stop-color="#00A7E0"/><stop offset=".5" stop-color="#00B8E0"/><stop offset=".8" stop-color="#00C4E0"/><stop offset="1" stop-color="#00C7E0"/></linearGradient><linearGradient id="paint7_linear" x1="33.1" y1="30.1" x2="2.4" y2="60.4" gradientUnits="userSpaceOnUse"><stop stop-color="#E0333C"/><stop offset="1" stop-color="#AB0F56"/></linearGradient><linearGradient id="paint8_linear" x1="45.1" y1="27" x2="12.8" y2="27" gradientUnits="userSpaceOnUse"><stop stop-color="#E0C500"/><stop offset=".4" stop-color="#E0A600"/><stop offset=".8" stop-color="#E09100"/><stop offset="1" stop-color="#E08900"/></linearGradient><linearGradient id="paint9_linear" x1="45.1" y1="27" x2="12.8" y2="27" gradientUnits="userSpaceOnUse"><stop stop-color="#FFE840"/><stop offset=".4" stop-color="#FFCE40"/><stop offset=".8" stop-color="#FFBC40"/><stop offset="1" stop-color="#FFB540"/></linearGradient><linearGradient id="paint10_linear" x1="29.1" y1="11.8" x2="6.4" y2="34.1" gradientUnits="userSpaceOnUse"><stop stop-color="#40B8FF"/><stop offset="0" stop-color="#40B9FF"/><stop offset=".3" stop-color="#40CEFF"/><stop offset=".5" stop-color="#40DDFF"/><stop offset=".8" stop-color="#40E7FF"/><stop offset="1" stop-color="#40EAFF"/></linearGradient><linearGradient id="paint11_linear" x1="9.7" y1=".2" x2="23.4" y2="13.8" gradientUnits="userSpaceOnUse"><stop stop-color="#65B895"/><stop offset=".1" stop-color="#62BD95"/><stop offset=".5" stop-color="#50DB97"/><stop offset=".8" stop-color="#44ED98"/><stop offset="1" stop-color="#40F498"/></linearGradient></defs></svg>