<svg width="379" height="474" fill="none" xmlns="http://www.w3.org/2000/svg"><path d="M269 225a19 19 0 11-1-39 19 19 0 011 39zM199 56h67c5 0 9 4 9 9v75c0 5-4 8-9 8h-67V56zm-19 92h-67c-5 0-9-3-9-8V65c0-5 4-9 9-9h67v92zm-69 77a19 19 0 110-39 19 19 0 010 39zm50-206h57a8 8 0 110 16h-57a8 8 0 010-16zm29-19C124 0 70 53 70 119v123c0 26 22 47 48 47h144c26 0 47-21 47-47V119C309 53 255 0 190 0z" fill="#00A6CC"/><path d="M76 400l19-37h189v-1l20 38H76zm198-108l-12 2h-14l17 33H114l18-33h-14l-13-2L1 473h36l20-37h265l20 37h37L274 292z" fill="#062E1A"/></svg>