<svg width="523" height="355" fill="none" xmlns="http://www.w3.org/2000/svg"><path d="M380 217a34 34 0 110-68 34 34 0 010 68zM350 34S234 10 103 61C78 71 59 81 47 90a36 36 0 0021 66c109 1 144 53 144 53 34 41 90 65 90 65 107 48 175-60 175-60C536 79 350 34 350 34" fill="#00A6CC"/><path d="M490 220l-1 1a196 196 0 01-76 66 135 135 0 01-116-1c-4-1-60-26-96-68v-2c-1 0-9-11-29-22-19-11-52-24-104-24-22-1-41-14-47-35-7-21 0-43 18-55 14-11 34-21 59-31a505 505 0 01254-29h1a298 298 0 01101 50c16 14 29 29 37 45 15 32 15 67-1 105zm18-110c-9-18-23-35-41-50-14-12-31-22-49-31-32-16-58-22-60-23-2 0-31-6-76-6-46 0-117 6-193 36-27 11-48 22-64 33a60 60 0 00-25 55v44c0 28 22 51 50 52h1c53 0 87 13 106 23 18 10 26 20 27 21v1l1 1c40 46 101 73 104 74a155 155 0 00131 1 215 215 0 0086-75c8-16 12-32 14-48 9-74-12-108-12-108" fill="#062E1A"/></svg>