<svg width="294" height="310" fill="none" xmlns="http://www.w3.org/2000/svg"><g clip-path="url(#clip0)"><path d="M76 136.4c14.7-10 25.9-18.3 33.7-25.1 7.7-6.8 17.5-15.7 29.4-26.7s24.2-12.3 37.1-4 21 19.3 24.3 33c3.3 13.8 15 29.6 35.3 47.7 20.3 18 15.8 27.6-13.3 28.9-29.2 1.2-46.8 14.5-53 39.7s-19.1 34.2-39.1 26.9c-20-7.3-40.1-15.6-60.4-24.9s-28-25-23.2-47.2c4.9-22.3 14.6-38.4 29.3-48.3z" fill="#D0ECF0" opacity=".6"/></g><g clip-path="url(#clip1)"><path d="M182.5 169.1c.5 3.8.9 8-2.1 10.8-2.9 2.7-7.6 3.4-12 3.7-36.3 3-71.8 4-106-8.6-1.6-.5-4.3-4.9-4.4-6.3-.2-3.4.6-6.9 2.1-10 3 2.8 8.1 4.4 12.4 5.9 4 1.3 8.1 2.3 12.3 2.9 6.3.9 12 3.1 18.3 4 6.2 1 12.7.6 19 1 5.8.5 11.6 1.6 17.4 1.7 5.1-.1 10.2-.6 15.2-1.5 8.5-1.3 19.3-2.3 27.8-3.6z" fill="#B2E4FB"/><path d="M181 179.2l.3-.4.2-.2.2-.4.2-.2.1-.4.2-.3v-.3l.2-.4v-.3l.2-.3v-.4l.1-.3c.1-.1 0-.2 0-.4v-.3l.1-.4v-.3-1.1-.4-.3-.4-.3-.4l-.1-.2v-.7l-.2-.6-1.5-.2-3.8.6-2 .4c-3.9.8-7.8 1.2-11.8 1.2h-.1a393.9 393.9 0 00-4.8.6l-1 .2c-1 0-1.9.2-2.8.4-5 .9-10 1.4-15.2 1.5-5.8 0-11.6-1.2-17.4-1.7a73 73 0 00-2.3 0l-.7-.1H116.7l-2.2-.1h-2.3l-1.1-.1h-1.2l-1.2-.1h-1l-2.2-.3c-8.1-.1-16.2-.8-24.2-2.1-4.6-.7-9-2-13.4-3.5-3.7-1.5-7.4-4-8-7l-.7 1.7.5 1.3-.7-.6-.1.3c.5 2 2.8 3.6 5 4.8 5 2.6 10.1 4.4 15.5 5.4.6 0 1.3.3 1.8.6.4.4.7.8.8 1.4.5 1.4.8 3 1 4.5l-.2.2-.8 2 8 1.6-2-1.2h-.1a5.6 5.6 0 01-2.3-5.3 1.3 1.3 0 01.5-1c.4-.2 1-.3 1.4-.2 10 1.3 19.6 4.9 29.6 4.2 1.3-.1 3-.2 3.7.6.3.5.5 1 .5 1.5l.3 1.7-2.7 2.7h5.2v.1h10.5l-1.2-.4c-.7-.2-1.4-.7-2-1.2-.3-2-.7-4-1.3-6 3.4-.9 6.8.9 10.3 1.3 2.4.2 4.8 0 7.1-.3 9.1-1.3 18.1-3 27-4.6 0 2.1 0 4.3.2 6.4a.8.8 0 00-.7.3c-.4.7-1 1.3-1.5 1.9l-.2.1-.2.2c1-.1 1.9-.3 2.8-.6h.3a16 16 0 002.6-1h.2l1.2-.8a8.6 8.6 0 001.7-1.4l.1-.2z" fill="#8ACFEA"/><path d="M182.6 170.3a.9.9 0 00-.7 0 243 243 0 01-10.3 2.2.5.5 0 00-.6-.4c-7.8.4-15.6 1.9-23.4 2.4-7 .4-14 .4-21 .7-.3-.2-.5-.3-.8-.3v-.6c-.2-1-2-1-2 0l-.2-.5c-1.3-.8-2.1-.5-3.6-.6-4.2-.1-9.2-.5-13.4-1-12.5-1.9-24.7-2.5-37-5.1-.5-.1-.7.4-.3.7 3.7 2.2 8.6 2.9 13 3.7l18 3a167.4 167.4 0 0020 2.3c2.5.5 2.5 1 3.1 2.8.7 2 1 3.9 1.3 6h3.1c-.6-3-1-6.2-1-9.3l18.1.3c11-.2 21.9-1.4 32.5-3.8 0 3 0 6 .2 9 1-.5 2-1.1 2.7-1.9.5-.4.8-.8 1.1-1.3.2-1.7 0-3.4-.6-5V172l1.6-.4c.1 0 .2 0 .3-.2v-1z" fill="#78B3D6"/><path d="M172.2 167.3c3.5-1.5 7.8-1.5 11.7-1s7.7 1.5 11.7 2c4 .2 8 .3 12 0 5.2-.2 10.8-.4 15.4-2.5 4.4-2 5.9-3.8 7.6-7.5 4.3-9 5-13.1 4.4-19.6a4 4 0 00-1.2-3c-1-.8-3-.9-3.7 0a39 39 0 01-15.5 14c-7.2 3-15.1 4-22.8 2.6-4-.8-7.9-2.2-12-2.9-5.8-1-11.9-.5-17.5 1.4-3 1.1-6 2.7-7.5 4.9a5 5 0 001 7c1.6 1 3.3 1.7 5.2 2 3.2.8 8 2 11.2 2.6z" fill="#B2E4FB"/><path d="M182.2 150a36.1 36.1 0 00-20 1c-3 1-5.8 2.5-7.4 4.7a5 5 0 001 7c1.6 1 3.3 1.7 5.2 2 3.2.8 8 2 11.2 2.6 3.5-1.5 7.7-1.5 11.7-1h.4c.8-6 2.4-12.7-2.1-16.4z" fill="#8ACFEA"/><path d="M180 151c-1.8-.4-3.6-.4-5.4-.1-2.2.2-4.3.6-6.4 1-4.6 1-9.7 1.8-13.5 4a5 5 0 001 6.8c1.7 1 3.4 1.7 5.3 2 2.6.7 6.2 1.6 9.2 2.2l-.8-5.1v-1.3c.2-.6.6-1.2 1.2-1.6a13.2 13.2 0 016.8-3c2.1-.2 4.2-1.2 5.9-2.6a4.6 4.6 0 00-3.3-2.4z" fill="#78B3D6"/><g fill="#8ACFEA"><path d="M228.7 161.2c0 .3-.2.5-.3.8l1-1.3a1 1 0 00-.7.5zM235.1 139.5a.8.8 0 00-.7.5l-.3 1.2-.1-.7 1-1.8c0-.7-.2-1.5-.5-2.2a1 1 0 00-.6.3c-5.7 5-7.5 11.8-11.2 17.7a15.6 15.6 0 01-4 3.5v-2.2c0-1-1.8-1.2-2-.2-.2.4-.2.9-.3 1.3a.7.7 0 00-.6-.5v-.2c-.1-1-2-1-2.1 0l-.3 2a1.3 1.3 0 00-1.6.1c-.6-.2-1.6 0-1.6.7v.6a1 1 0 00-.8.7 1.2 1.2 0 00-1.3.2 1 1 0 00-1 .4h-.2c-1.8-.8-5-.2-7-.3-4-.3-8-1-12-2-1-.3-2.7-.2-1.8 0 3.7 1.2 9 3 13 3.4 1.4.1 5.2-.3 6.3.2a3 3 0 011.6 2.3v3.7l.1.1h.4c3.3 0 6.7-.3 10-.8v-.2c.5 0 1-.2 1-.8l.2-3.7.5-.5c4-2 6.1-6.6 7.6-10.4l3.4-5.4c0 .1 0 .2.2.3l1 1.4a420 420 0 01-1.2 10.9l.4-.8c4-8.6 5-12.8 4.5-18.8zM178.4 176.8c-1-1.8-4-3.9-6.8-3.1a31 31 0 00-4.6.1c-.9 0-1 .9-.3 1 1.7.4 3.5.5 5.2.5a42.4 42.4 0 015.6 2.5c.7.2 1.2-.5.9-1z"/><path d="M230.3 158.8c-1.7 1.6-3.6 3-5.6 4.3a22.8 22.8 0 01-12.6 3.6c-5.9.6-11.8.7-17.6.5-1.7-.1-5.6-.8-7.5-.4 2.9.5 5.7 1.1 8.6 1.4 4 .4 8 .4 12 .1 5.2-.2 10.8-.4 15.4-2.5 4.2-1.8 5.7-3.6 7.4-7zM65.2 175.6c-2.7-1.8-6.5-5-5.6-8.2.4-1.3 2.1-2 1.7-3.3a6.5 6.5 0 00-2.2-3c-.7 2.5-1 5-1 7.6 0 1.4 2.6 5.8 4.2 6.3l4.6 1.6-1.7-1z"/></g><g fill="#78B3D6"><path d="M185 166.5c.5-4 1.3-8.3.5-11.8-.3-.1-.8.1-.8.4-.2-.2-.8-.2-.9.2-.3 3.7-.3 7.3 0 11l1.2.2zM235 138.7a4 4 0 00-1.2-3l-.3-.2v2.1a.9.9 0 00-1 .6v.8c0 .3 2 7.1 2.1 8.8.7-3 .8-6 .4-9.1zM225.2 153c-2 1.5-3.4 3.4-5.4 4.9a16.3 16.3 0 01-5.7 2.7c-.2-.6-1.1-.6-1.5-.1a.8.8 0 00-.7.6h-.6c-.7.2-1.8-1-1.5-.4.4 1.6.8 3.3 1 5v2.5c2-.1 3.8-.3 5.7-.6a71.2 71.2 0 01.1-6l-.2-.2a14.5 14.5 0 0010-10.4c.2-.5-.7 1.5-1.2 2z"/></g><path d="M229.6 134c-13.8-4-29-4-43-7.6-3.6-.9-7.3-2-9.6-4.4a6.3 6.3 0 00-4.2-1.8c-15.3-.5-30.5-1.9-45.6-4l-4.3-.2a272 272 0 00-55 11l-.6 10.8c-.2 1.1 0 2.3.6 3.3.8.9 1.9 1.6 3 2a25 25 0 018.7 7.4l-15.8 5.7c-1 .4-2 1-3 1.7-3.3 3 1 6.4 4.8 8a82.5 82.5 0 0021 5c21.6 3 43.4 6 65.2 4.9 10.2-.5 20.3-2 30.2-4.2 1.3-.9.7-2.7-.7-3.5-1.6-.7-3.3-1-5-1-4.5-.4-9-1.5-13.2-3.4-2.2-1-4.5-2.8-3.8-4.7 6.4-2 13-3.5 19.6-4.3 2.5-.3 5.7-.2 6.5 1.7.2.5.1 1.2.5 1.7.7.6 1.5 1 2.4 1 6.7 1.1 13.4 2 20.1 2.4 7.1.4 13.7-3 16.5-8v-.2l8-14.6c.3-.6.5-1.3.5-2-.2-1.4-2.1-2.2-3.8-2.7z" fill="#DFF3FE"/><path d="M78.3 135.4a22 22 0 00-5.9-1.8c-1.6-.3-3.3-1.6-4.8-2l-.3 6.2c-.2 1.1 0 2.3.6 3.3.8.9 1.9 1.6 3 2 3.3 1.7 6.2 4.1 8.4 7a6.5 6.5 0 003.2-2.6c.5-1 .7-2 .6-3a11 11 0 00-2.6-7.2 8.5 8.5 0 00-2.2-1.9z" fill="#8ACFEA"/><path d="M82.5 147.5c.5-1 .7-2 .6-3a11 11 0 00-2.6-7.2 8.5 8.5 0 00-2-1.8v.2a.5.5 0 00-.3.3.5.5 0 000 .4v.3a83 83 0 00-.7 11.3c.6.7 1.3 1.4 1.8 2.2a6.5 6.5 0 003.2-2.7z" fill="#78B3D6"/><path d="M186.6 126.4a34.6 34.6 0 01-6.7-2.3l-1-.6-.4-.3-.6-.4-1-.8a5.7 5.7 0 00-1.4-1c-.5-.4-1.1-.6-1.7-.7h-.1l-1-.1c-15.2-.5-30.4-1.9-45.5-4l-4.3-.2-6.3.7-2 .2-4.3.6-2.2.3-5.5.9-3.2.6a263.6 263.6 0 00-6.3 1.2l-1.5.3c-8 1.7-16 3.8-23.8 6.2l-.2 4.5c.2.3.5.6.8.7 1.2.7 3.2.8 4.7.8l12-.3c3 0 6-.1 8.6-1.2l2-1 7.2-.5c1-.2 2 0 3 .4a2.2 2.2 0 01.9 1.8c.2 3.9-6 7.4-3.9 11 1.4 2.3 5.5 2.7 8.8 2.7 11.6 0 23.5 0 34.7-2.5 4.7-1 9.4-2.6 14.2-3.2 0 .3.4.4.4.7l.8.8v.5l-.5 1a.6.6 0 00.2.9 3 3 0 01-.6.5c-1.4 1.9-3.9 3.6-5.6 5.2l-.1.2v.5c-2.2 1.5-4.5 2-8 1.6-1.6-.2-3.3-.2-5 0A241.1 241.1 0 0085 164.3c-1.5.4-3 1-4.4 1.7-.5.3 0 .7.5.6.8 0 1.7-.3 2.5-.5a.5.5 0 00.4.1c2.7-.3 5.3-.9 7.8-1.7 7.7-1 15.2-3 22.7-4.7 1.5-.4 5.5-.7 8.4-1.6l-1.5 1.3-7.5 6.8c-.4.4.3 1 .8.6l1-.8c-.4.4.3 1 .8.6 3.7-3 7.2-6.4 10.4-10a26.4 26.4 0 013-1.6l.1-.2a58 58 0 0118.2-.8c6.7 1 9-3.5 13.6-6.6 5.6-3.9 12.5-3.4 19-4.5l.4.1c8.7 1.6 18 .8 26.6 2.6l1.2.2-.4 10.6c0 .9 1.4.8 1.5 0 .6-3.6 1.3-7.2 1.6-10.8a59.2 59.2 0 0014.7-12.5c-12.9-3.2-26.8-3.6-39.8-6.8zM167.1 141l.1-.2.3-.5h.7l-1 .7z" fill="#EEF7FE"/></g><g clip-path="url(#clip2)"><path d="M208.7 137c-.5-1-1.4-1.7-2.4-2a50 50 0 00-18.8-4.4c-3.3-.3-6.6-1-10-1.6-3.8-.6-7.8-1-11.7-1.4a734.6 734.6 0 00-56-3c-2.7 1.5-3.7 5.2-6.8 5.5-2.7.2-12.6 4.5-14.3 5.3-3.2 1.7 5.2 2.8 8.8 3.8a73 73 0 0022.4 3h3.7c1.8.4 3.5 1 5.1 1.7a71.4 71.4 0 0019.3 4.8c3.4.4 10.8 2.2 13-1.8.7-1.3.3-2.2-.6-3.3-1-1.2-3-2.1-1-3.3 1.9-1.2 7.4-.2 9.7-.1 6.6.2 10.4 2.9 17 3.6 5.8.6 12.4.5 18-1.3 1.3-.3 2.5-1 3.6-1.9a3.4 3.4 0 001-3.7z" fill="#FF767D"/><path d="M198.4 139.6l-2 .2c.1-.1 0 .2 0 0 0 .2 1.8-.3 2-.3a1 1 0 00.7-.7 2 2 0 00-.2-2 14 14 0 00-5.2-3.5c-2.1-.7-4.4-1.1-6.7-1.2-1.1 0-2.3 0-3.4.4l-.4-.3c-1-.7-1.9-1.5-2.7-2.4-2-2.2-3.3-4.9-5.1-7.2a54.3 54.3 0 00-5.9-6.6 37.8 37.8 0 00-17.6-8c-3.8-.6-7.6-.8-11.5-.6-2.2-.1-4.3-.4-6.5-.8-2-.2-3.7-1-5.2-2.3-1.9-1.9-1.7-5-2.6-7.3-.7-1.9-1.6-3.6-2.9-5.1a14 14 0 00-11.6-4.9 12.1 12.1 0 00-10.3 7 29.1 29.1 0 0011.7 38.5 39.3 39.3 0 0015.6 6c2.9 4 7.5 6.5 12.1 7.9 2.4.7 4.9 1.2 7.4 1.4 2.1.2 5 .6 7-.2a1.4 1.4 0 00.5-2.2 3 3 0 00-1.5-.6c-3.5-.6-5.6-3.7-7.6-6.2.4.5 5.5-.8 6.3-1l6.7-1c4.3-.7 9-1.3 13.2-.2l5.4 1.8.7.3a7 7 0 003 2.3 23 23 0 005 1.7c3.8.8 7.8.8 11.7.2 2-.2 2-3.4 0-3.1z" fill="#8BB7DE"/><path d="M100.5 130.6c-1.7 1.8-3.8 3.1-6.1 4-.8.2-1.5.6-2.1 1-.2.2-.4.5-.4.8-.1.6.7 1 1.3 1 3.7.8 7.5 1 11.2.5 3.8-.5 7.3-1.9 10.4-4-2.7-2.1-4.9-5.2-7.6-7.4-1-.8-1.1-1.5-2.3-.6-1.2 1-3.3 3.6-4.4 4.7z" fill="#8BB7DE"/><path d="M169.7 135.6c-2.8-.9-5.7-.8-8.7-.7a82.7 82.7 0 01-46.3-12.4c-2.3-1-4.8-1.4-7.2-1.1-.8 0-1.6.2-2.2.7a3.2 3.2 0 00-1 2.8 39.3 39.3 0 0024.3 13.6c.3.4 6.5 1.6 8.6 1.6 2.2 0 9.7-1 9.3-1.5.4.5 5.5-.8 6.3-1l6.7-1c4.4-.7 8.9-.7 13.3-.1l-3-.9z" fill="#D9F2FD"/><path d="M112.7 98.8a.1.1 0 00-.3 0l-.1 1.6a1.1 1.1 0 01-.8 1l-.5.1c-.5-.1-1-.4-1.4-.9-.1 0-.3 0-.3.2a2 2 0 002 1.2 1.7 1.7 0 001.4-.9l.1-.2-.1-2z" fill="#3B5F80"/><g fill="#123079"><path d="M112.6 98.8a.1.1 0 01.2 0c.2.5.2 1 .2 1.6a1.1 1.1 0 00.8 1l.4.1c.6-.1 1.1-.4 1.5-.9 0 0 .3 0 .2.2a2 2 0 01-2 1.2 1.7 1.7 0 01-1.3-.9h-.1v-2.2z"/><path d="M115.4 97.1a1.2 1.2 0 00-1.7 0c-.5.2-.8.7-1 1.1a3.6 3.6 0 00-1.5-1.4 1.2 1.2 0 00-1.3.3 1.3 1.3 0 00.2 1.6c.6.5 1.5.5 2.2.7a.4.4 0 01.3-.1.4.4 0 01.4.1c.7-.2 1.6-.2 2.1-.7a1.3 1.3 0 00.3-1.6zM104.8 97a1 1 0 00-1.4.4l-.2.5v.2.7a1 1 0 001 .9 1.5 1.5 0 00.6-2.6zM121.6 96.4a1 1 0 00-1 .4c-.2.2-.2.5-.3.7s0 .5.2.8a1.1 1.1 0 001.2.7c1-.3 1-2.3 0-2.6zM122.5 104.3c-1.2 1-2 2.2-3.4 3-1.5 1-3.3 1.6-5.1 1.8-1.8.2-3.6 0-5.4-.5a23.6 23.6 0 01-5.1-2.3v.1c2.4 2.8 7 4 10.6 3.6 3-.4 7.7-2.2 8.9-5.3a.3.3 0 00-.3-.4h-.2z"/></g><g fill="#00A6CC"><path d="M113.3 90.6c-.6-.1-2.1.2-2 1.2.2.8 1.4 1 2.3 1 .5 0 1 0 1.2-.5.5-.8-.8-1.6-1.4-1.7zM114.3 88.8c-.4-.2-1.2.1-1.2.7a.7.7 0 00.6.6h.9a.5.5 0 00.2-.5.7.7 0 00-.4-.8zM118 90.3a1.3 1.3 0 00-1-.6c-.5 0-1.1-.2-1.5.1a.8.8 0 00.1 1.2c.3.2.7.4 1 .4h1.1a.8.8 0 00.4-.5.8.8 0 000-.6zM110.8 88.8a3 3 0 00-2.2.1l-.2.2h-.2a.7.7 0 00-.5 1.1c.4.5 1.2.5 1.7.5.8 0 1.5-.2 2.1-.7.5-.6-.2-1-.7-1.2zM107 91.4a.7.7 0 00-.7-.5h-.4a.5.5 0 000 .8l.3.2h.4a.4.4 0 00.4-.1.4.4 0 000-.4zM136.2 109.7c-.5-1.2-2.1-1.7-3.2-2.2-.7-.3-1.7-.3-2 .5v.2c-.5 1 .4 1.7 1.2 2.2.9.7 1.9 1.5 3.1 1.3a1.3 1.3 0 001-.8 1.4 1.4 0 000-1.3zM141.7 111.4a2.4 2.4 0 00-2.5-.5c-.5 0-1 .1-1 .6-.2 1 1.5 1.3 2.2 1.3.4 0 .8 0 1.2-.3a.8.8 0 000-1.1zM147 109.8c-.3-.9-1.7-.8-2.4-.6-.1 0-.3.1-.3.3h-.2a.7.7 0 000 1.2l1.2.4c.8.1 2-.3 1.7-1.3zM154.6 116.3a3.6 3.6 0 00-1.8-2.1c-.7-.6-1.6-.9-2.5-1a2.7 2.7 0 00-2.1.3 1.2 1.2 0 000 1.6l.7.7c1.4 1 3.1 1.7 4.9 1.8a1 1 0 00.8-1.3zM155.1 110.2c-.7-.3-2.6-1-3.3-.3a.6.6 0 00-.4.3.6.6 0 000 .5 1.7 1.7 0 001 1c.8.4 1.8.7 2.7.7.5 0 1-.2 1.1-.8.1-.7-.5-1.1-1-1.4zM159.1 114.2a.6.6 0 00-.5.6v.3l.6.5.4.3a.8.8 0 001.1-.3c.3-.9-1-1.4-1.6-1.4zM159.7 111a.5.5 0 00-.5.8c.4.5.9.8 1.4 1h.4a.7.7 0 00.5-.4c.6-1-1.2-1.4-1.8-1.4zM163.5 114.4a.6.6 0 00-.5.1.6.6 0 00-.2.5.4.4 0 000 .5c.5.5 2 1.5 2.5.6s-1.1-1.6-1.8-1.7zM169.6 120.2v-.1l-.2-.1-.7-.9c-1-1-2.8-2.1-3.5-1.2-.5 0-.8.6-.7 1a4 4 0 001.8 2.2h.1c.6.4 1.2.7 1.9.8 1 0 1.8-.7 1.3-1.7z"/></g><path d="M183.8 135.1c1.5-.2 3-.3 4.4-.2 1.4.2 2.7.6 4 1 2.3.7 4.9.8 6.5 2.8.2.3.6 0 .5-.3-1.5-2-4-2.3-6.2-2.8-3.3-.8-5.8-1.7-9.2-.8-.2 0-.1.3 0 .3zM187.2 137.3c1 1 2.8 1.6 4.1 2 1.9.6 4.1 1.1 6 .6.3 0 .2-.3 0-.4-2-.1-4-.4-6-1-1.4-.4-2.7-1-4-1.5-.1 0-.2.2-.1.3z" fill="#123079"/><path d="M182.6 138.3c1.2 2.4 4.8 3.1 7.2 3.6 3.4.7 6.8.4 10-.8.2 0 .1-.3 0-.3-5.3 1.5-12.7 1.2-17.1-2.5h-.1z" fill="#7AA1C8"/><path d="M173.6 136.7a33 33 0 00-7-1.4c-7.1-1.2-15.2-.5-22.5-.2-8.6.6-17.2-.7-25.3-3.8a43 43 0 01-12.2-7.4c-2-1.8-3.8-3.8-5.3-6a337 337 0 01-2.1-3.2c1.9 7.6 7.1 13.6 13.8 17.8a39.3 39.3 0 0015.6 6c.4.5.7 1 1.2 1.4a48.7 48.7 0 0018 .3l-1.3-1.6c.4.5 5.5-.8 6.3-1l6.7-1c4.3-.7 9-1.3 13.3-.2l.7.3z" fill="#84B0D3"/><path d="M161 134.8h-4.2l-5.3-.2c-2 0-4.1.3-6.1.4-9 .8-18.2-.5-26.6-3.7a43 43 0 01-13.8-9 3.4 3.4 0 00-.7 2.6c.9 1.1 1.8 2.2 2.9 3.1 4 3.7 8.6 6.6 13.6 8.5 4.8 1.9 10 3.7 15.2 3.8 12.3.1 24.3-6 36.7-4-2.7-.4-4.1-1.4-8-1.4l-3.7-.1z" fill="#D1ECFD"/><path d="M155.6 145.4a3 3 0 00-1.5-.6c-3.4-.6-5.6-3.6-7.6-6.2-1-.8-2-1.8-3.1-2.5l-3.2-2c-1.5-1.3-2.5-3-3.8-4.5a23.3 23.3 0 00-8.9-6c-1.8-.7-3.3.6-5.5.4-2.2-.2-6.4-4.7-.4 3.8 2.3 3.3 6.6 10.7 7 10.7 2.9 4 7.5 6.5 12.1 7.9 2.4.7 4.9 1.2 7.4 1.4 2.1.2 5 .6 7-.2a1.4 1.4 0 00.5-2.2z" fill="#8BB7DE"/><g fill="#123079"><path d="M132 124.1c1.3 2.2 2.7 4.4 4.3 6.4a8.6 8.6 0 003 2.9c.2 0 .2 0 0 0-3.3-2.6-4.2-6.4-6.8-9.6-.2-.2-.5 0-.4.3zM118.4 121.9c1.4 3.5 3.4 6.8 5.7 9.8l.1.1c-1.6-3.4-3.7-6.8-5.2-10.3-.1-.3-.8-.2-.7.1l.1.3zM198.4 142.7a1.6 1.6 0 10-.7-3c.5 0 .8.8.5 1.2-1 1.7-5 1.2-6.5 1-3.5-.5-6.9-1.6-10-3.3-2.4-1.4-5-2.6-7.6-3.5-2.7-.9-5.7-1.4-8.5-.3a42 42 0 0110.2 2.4c3.5 1.5 6.3 4.3 10 5.2 4.2 1 8.5 1 12.6.3z"/></g><path d="M198.6 139.4h-1.4l.4.3.7-.2.3-.1z" fill="#84B0D3"/></g><defs><clipPath id="clip0"><path transform="rotate(165.3 131 142.8)" fill="#fff" d="M0 0h243.5v230.3H0z"/></clipPath><clipPath id="clip1"><path transform="translate(58 116)" fill="#fff" d="M0 0h177.2v69.6H0z"/></clipPath><clipPath id="clip2"><path transform="translate(88 87)" fill="#fff" d="M0 0h120.9v62.5H0z"/></clipPath></defs></svg>