<svg width="375" height="99" fill="none" xmlns="http://www.w3.org/2000/svg"><g clip-path="url(#clip0)" fill="#CFF7FF"><path d="M177.9 9.2c-1-5.7 5.8-10.8 11.2-8.7 5.4 2 7.5 9.4 4.6 14.4-.7-5.8 7.5-10.3 12.1-6.6s2 12.6-3.9 13.3c6.3 0 12.4 2 17.7 5.4l-4.2.3c2-3.5 4.9-6.4 8.5-8.1 3.2-1.7 7.3-2.3 10.4-.5s4.6 6.7 2 9.3c10.4.4 20.8 1.6 31 3.8a114 114 0 01-33.1 3.6c-31 .1-62.3-1.6-93 2.7-4.2.6-8.5 1.2-12-2.6-2.4-6 3.4-8.2 8-8.7 5.8-.7 11.8-.6 17.7.2-4.3-1-8.7-2.2-10.6-7.4.5-9 23.5 2.8 18.6-2.4-11-11.6 12.7-20 15-8zM309 98.3c19.8.5 39.7.9 59.5-1.3 2.4-.3 5.4-1.2 5.8-4 .6-3.8-3.4-5.8-6.4-6-7.4-.9-15-.4-22.2 1.3a44.2 44.2 0 0015.8-20.5c1.3-3.1 2.2-7 .8-10-.8-1.7-2-3-3.7-3.9-11.2-7.2-26.9-.8-32.4 13.3-5-9.3-13.9-15.8-22.9-14.8s-17.3 10.8-17.2 22c-3.4-5.5-7-11-11.9-14.3s-11.5-3.4-15.6 1.3c-4.3 5-4.2 13.5-3.8 20.8-2-3-4.8-5.8-8-5.6s-6 4.8-4.3 8.2a32 32 0 00-15.4-14.3c-4.2-1.7-9.1-2.2-12.8.9-3.7 3-4.6 9.6-2 14-4.5 1.8-21-2.4-11.4 7.9 6.7 7.1 23.7 3.2 32 3.4l76 1.6zM133.6 73c-4.4 0-41.2-6.3-44.8-8.9-1-.7 0 3.6.3 2.3.1-.9 1-1.6.8-2.5s-2 0-1 .2c3-2 6-4.3 7.6-7.6s.8-7.9-2.3-9.8c-1.3-.7-2.8-1.1-4.3-1.2-4-.7-8-1.2-11.7.4s-6.1 6.3-4 9.6a22.3 22.3 0 00-6.5-17.8c-1-1-2.3-1.9-3.7-2.2-4-.8-7 3.8-8 7.9-.9 4.2-1.1 8.5-.6 12.8-1.2-3.8-6.7-5.2-9.6-2.6s-2 8.2 1.5 9.9a26.5 26.5 0 00-25.4-12.7 35 35 0 006.3 16.7c-3.3-.4-36 2-26.5 3.6A476 476 0 0041 73.5c20.8-.9 71.9.3 92.6-.6z"/></g><defs><clipPath id="clip0"><path fill="#fff" d="M0 0h374.4v98.7H0z"/></clipPath></defs></svg>