<svg width="409" height="441" fill="none" xmlns="http://www.w3.org/2000/svg"><path d="M102 127l5 73 2 2 31 10 2 1 16 28 2 1h39l2 2 17 48c0 1 2 2 3 1l33-17h3l13 14h3l48-27c2-1 2-3 0-4L106 125c-2-1-4 0-4 2z" fill="#062E1A"/><path d="M202 113l40 25 33-53-40-25-33 53zM170 165l40 24 26-43-39-24-27 43zM218 194l40 25 26-43-39-25-27 43zM152 82l42 26 33-53-42-26-33 53zM250 143l39 25 34-53-40-25-33 53zM403 76l-32-21-35 56 42 26 29-46c3-5 1-12-4-15zM120 133l42 26 27-42-42-26-27 42zM266 224l42 26 26-43-41-26-27 43zM238 23l-3 2v1c-4 4-10 5-15 3-2 0-5-3-8-5l-5-4c-4-2-7-2-11-1l-6 2 42 26 15-25h-4l-5 1M288 82l40 24 35-56-40-24-35 56zM298 173l41 26 34-53-42-26-33 53M280 2c-4 5-8 8-12 8h-2l-26 42 40 25 35-56-33-21-2 2" fill="#00A6CC"/><path d="M279 300a14 14 0 01-17-2l-8-9-27 14a14 14 0 01-20-8l-14-41h-33c-5 0-10-3-12-7l-14-25-29-9c-5-2-9-6-9-12l-3-38L3 308c-5 8-3 19 5 24l171 106c8 5 19 3 24-5l86-139-10 6" fill="#062E1A"/></svg>