<svg width="251" height="272" fill="none" xmlns="http://www.w3.org/2000/svg"><path d="M210.4 59.7c-12.1-6.7-25-.5-25-.5s.5-14.7-23.6-20a9 9 0 00-3.4 1.6 7 7 0 00-2.6 4c-.6 2.4-1.3 5.1-1 8.3.2 1.8.6 3.8 1.3 5.5 1 2.7 1 5.6-2 7-1.3.5-3.7-1.5-5-1.4-2.9.3-7 .5-9.3-1.8-1-1-1.3-3-1.7-4.3-3 .5-1.4 5.2-2.7 5.9-.8.5-3.6.1-4.5.2-1.5.1-3.3-.4-4-1.6-1.7 1.7-4.7 1-6.7.6-1.7-.3-4-.9-5.8-1.5-1.5-.5-2-1.8-3-3-1.7-2.6-2.2-5.7-2.8-8.7l-.1-.8c-5.8 5.4-7.8 10.6-7.8 10.6s-10.8-6.7-25-.2c-12.5 5.8-11.7 22-11.7 22s-9.8-5-25.3 6c-15.9 11.2-9.7 36-9.7 36 7.3.7 16 4.7 17.4 10.4 1.9 7.9-1.7 14.5-2.7 15.8a19 19 0 0111 1.8S51.2 137.2 61 130c-1.2-3-1-6.1-.3-9.1a45.6 45.6 0 011.7-5l.6-1.7.3-.8c3.1-7.9 6.8-15.5 11.2-22.9a96.6 96.6 0 0115.4-20.3c6.5-6.2 13.8-10.7 23-8.9 4 .9 7.7 2.2 11.8 2.7 5 .4 10-.1 15-.3 9-.2 17.4 2.3 24.8 7.4 4.2 2.8 7.6 6.3 10.2 10.4 3.8 2 6.9 4.4 8.2 7.3 0 0 22.2-15 37.9-5.3a4.3 4.3 0 003-2.2c.4-7.6-2.2-15.6-13.4-21.7zM248 108.6c-2 1-4 1.5-5.6 2.7-1.3-1.3-6.9 1.8-6.9 1.8l-1.3-6.4a46.2 46.2 0 00-5-14c6.4 0 11.6.2 13.4.6 5.5 1.3 10.8 12.6 5.5 15.3z" fill="#FFE0D9"/><path d="M217.7 171l-5.6 4.6c-5 3.7-17.9 8.3-23.6 4.8 0-1 0-1.9.3-2.7.4-2.6 1.5-4.8 3.3-6.7h25.6z" fill="#123079"/><path d="M241 126.2c-19.6-5.6-25 19.3-19.5 29-17.3.4-16 15.8-16 15.8h-13.4l1.8-1.9.4-.4c1.8-1.4 3.2-3 5.2-4.3 1.2-.9 3.1-2 2.8-3.8-.7-4.9-12.8-7-16.2-7.8-8-2-16.2-3.2-24.5-4 2.6-5.8 7.4-11 11-16.2a42.8 42.8 0 009-21.5c1-10.2-1.4-20.9-7-29.4 4 2 7 4.4 8.3 7.2 0 0 22.2-14.9 37.9-5.3-1.8.5-4.6.7-9.5.7-13.6-.1-16.5 9-16.5 9s20.1-.7 34.4-.6c2 3.6 3.7 8.2 5 14l1.2 6.4s5.6-3 7-1.8c-2.4 1.7-3.4 5.1-1.3 14.9zM80.9 162.8c2.9 1.1 3.7 5.2 4 8-2.2-.9-4.5-1.6-6.8-2.3l-3.4-.8c-1-.2-1.8-.5-2.6-1.3-.6-.7-1-1.6-1.4-2.4-.6-1-1.1-2-1.9-3-1.8-2.2-4.8-4-7.8-4-.8.1-1.6.3-2.3.8 0-1.4-.3-2.7-1.1-3.8a6 6 0 00-1.4-1.4l-.8-.6-1-.5-.3-2a26 26 0 011-11.4c1-3.3 3-6.1 5.7-8 .6 1.5 1.6 2.9 2.5 4.3a28 28 0 005 5.4l2 1.4a7 7 0 012 3.6c.3.6.4 1.3.4 2 .1.5.3 2 0 2.3-1 .7-.4 2.1 0 3 .5.8 1.4 2 2.4 2.3.6 0 1.2.4 1.8.5.8.2 1.6.2 2.4.2 6 0 11.2-4.5 14.2-9.5 3-4.9 4.2-10.5 5.3-16.1l.5-3c.1-.8.2-1.7.5-2.5.2 1 .1 2.1.2 3.2l.4 3.3c.4 2.3 1 4.5 2.3 6.4l4.4 6.4c1.5 2.2 2.3 4.7 2.9 7.2l-5.4 1.2c-1.7.3-3.3.8-5 1.2a109 109 0 00-14.8 5.3c-1.3.7-2.6 1.4-3.7 2.4-.8.6-1.6 1.8-.2 2.2.7.3-4-1.5 0 0z" fill="#FF767D"/><path d="M85.2 182.7a8.9 8.9 0 01-3.5-.9c-3.9-2.4-10.5-3.5-20.2-3-9.8.6-19.1-7.8-19.1-7.8h42.5c.9 5 .4 10.8.3 11.7z" fill="#123079"/><path d="M199.5 164.3l-1 .6c-5.5 3-12.4 3.7-18.4 4.1a216.4 216.4 0 01-52.5-4.4c-15.5-3.3-31.2-2.5-46.8-1.8-4-1.4 8.4-8.1 29-12.1.3 1.2.5 2.5.5 3.8.1.8-.4 5.2.5 5.5l.6.2 2.3 1c1 .2 2.6.3 4.2 0 2.5-.4 7-.4 9.5-.4 1.6 0 2.9-.6 3.8-1.7 2.9-2.2 1.9-10 3.1-10.5h.3c.9.2 1.4 3 .6 6.5-.3 1.2-1.1 3.6-.4 4.8 1.5 2.8 8 1.6 10.4 1.3 4.4-.7 8-1.6 11.3-5 2-2 3.6-4 4.6-6.7l.3-.6c8.3.8 16.5 2 24.6 4 3.4.8 15.5 2.9 16.2 7.8.4 1.7-1.5 2.8-2.7 3.6z" fill="#D0EBF0"/><path d="M199.3 164.4c-1.8 1.4-3.8 3.3-5.4 4.7a14 14 0 00-1.8 1.9c-1.8 2-2.8 4-3.3 6.7a8.2 8.2 0 00-.3 2.7c-5.6-3.5-18.3-3.5-25.6 0-7.3 3.6-23 5-31.7.1-8.7-5-22.9-3.8-28.1-1a38.8 38.8 0 01-17.8 3.2v-.2-3.2-3.2-1.7-1l-.3-1.7v-1h-.2v-.2.1c-.3-2.4-1-4.6-2-6.1l-.3-.5c-1-1-1.8-1.3-1.8-1.3 15.6-.7 31.4-1.5 46.8 1.8a215 215 0 0052.5 4.4 47 47 0 0019.3-4.5z" fill="#00A6CC"/><path d="M111 153s-13.4 2.3-10.7 4.4c5.6 4.3 18.1 7 27.2 4.8 4.4-1 8.5 1 7.9.7-.6-.2 5.8 2 10.2.5 4.4-1.5 22.9.9 25-1.7 1-1 2.5-1.5 3.6-2l5.6-2c1.1-.3 7-2.2 3.6-3.4-5-2-10.3-3-15.7-3.6-3.9-.4-9-.8-13-.9-2 0-14.3 1.1-18.4 1.4-8.6.4-10.1 1.1-18.7 1.5l-6.5.2z" fill="#00A6CC" opacity=".4"/><path d="M200.7 33.3s-3.4-7.3-7.2-9.7a33.6 33.6 0 00-10.8-4.2S179.7 1 159 0c-7.5-.3-18.5 5.4-20.8 10.2C127 5.3 97.6-3.6 71.8 17.5 60 27.1 56 38.6 56 38.6s-13.5-2.5-21.8 8 .2 9.5 3.8 8.5c3.6-1 13.3-3.6 14.7 5.2.5 3 11.7-.7 10.4 8.3H21.6s-5.2 8.2 3 14.4C11.2 78.2-5 91.4 1.3 107.4c0 0 13.3-4.8 17.7 2.7 4.3 7.5 3.6 11.4 2.4 14.2 2-.7 4.5-1 7.3-.7 0 0-6.1-24.8 9.7-36 15.6-11 25.3-6 25.3-6s-.7-16.2 11.7-22c14.2-6.5 25 .2 25 .2s2-5.2 7.8-10.6c-.6-3.2-1.2-6.4-1-9.7-.5.4-1.1.6-1.7.2-.6-.5-1-1.4-1-2.1 0-1.2.7-2.1 1.7-2.8.9-.6 2-.6 2.8-1.2.6-.3 1.1-1.2 1.6-1.8 1.3-1.3 2.6-2.6 4-3.7 3-2.3 6.4-4 10.1-4.5 3.4-.4 6.7-.2 10.1-.2 3 0 9.4-.2 9.6-4.5-.3-.7-1-1-1.5-1.6-.5-.8-.5-1.5-.1-2.2l.8-1 1-.7c.8-.3 2.3-1 2.9 0 .8 1.1.9 3 2 2.3 1-.6 9-2.9 14.1-2.4l2.2.5s1-2.3 2.9-1.4c2.9 1.4 2.2 4 1.3 4.4-1 .5.4 3.2.4 3.2 1.3 5 3 10 .2 14.7-1.3 2.2-4 3.1-6.5 3.7l-2.6.6c24.1 5.5 23.6 20.1 23.6 20.1s12.8-6.1 25 .5c11.2 6.3 13.8 14.1 13.5 21.8.3-.5.7-1.2 1.4-1.8 2.9-2.9 10.2-4.3 12.7-1.4 5-51.6-37-44.9-37-44.9z" fill="#D0EBF0"/><path d="M63.3 113.5l-.3.8c-.3.5-.5 1-.6 1.6l-.2.3c-.6 1.6-1.1 3.3-1.5 4.9v-.1h-.1a4.9 4.9 0 01-2.9-6c.7-2.4 4-3.4 5.5-1.5z" fill="#A5DFEB"/><path d="M75.8 154.4h-.4c-1.5 0-3.3-2.9-3.3-4 0-.7.2-1.1.6-1.4.6-.4 1.4-.4 2 .1a7 7 0 011.6 3.8c.2.7 0 1.3-.5 1.5z" fill="#123079"/><path d="M174.7 81.7c-2.6-4-6-7.7-10.2-10.5-7.4-5-15.7-7.6-24.8-7.3-5 .1-10 .7-15 .2-4-.4-7.8-1.8-11.8-2.6-9.2-2-16.6 2.6-23 8.9-6.1 6-11 13-15.4 20.3-4.4 7.3-8 15-11.2 22.9l-.3.7-.6 1.7-.1.2c-.6 1.6-1.1 3.3-1.5 5v-.1a14.3 14.3 0 00.9 10.5c2 3.5 4.5 7 8 9.2 2.4 1.5 3.2 4.4 3.2 7.2v1c.6-.3 1.4-.3 2 .2.5.5 1.5 2.3 1.6 3.7 0 .8-.1 1.3-.7 1.5h-.3c2.6 1.3 6.4 1 9-.3 6.7-3 10.5-9.8 12.6-16.6l.1-.5c.8-3.1 2-9.1 2.4-12.1v-.4l.1-.4v-.2c.4-.6.9-.9 1.2-.2.3.6.3 1.2.3 1.8 0 .6 0 1.3.3 1.9.8 3.2 2.5 6.1 4.2 9 1.8 2.7 3.7 5.5 5 8.5.9 1.8 1.4 3.5 2 5.4l.3 1.7c.3 1.3.3 2.5 0 3.9-.2.8-1.5 1.7-1.5 2.9v1.4c.7.3 1.4.7 2.2.9 1 .3 2.6.4 4.3 0 2.4-.3 7-.4 9.5-.3 1.6 0 2.8-.6 3.7-1.7 3-2.2 2-10.1 3.2-10.6h.2c1 .3 1.4 3 .6 6.6-.2 1.2-1 3.6-.4 4.7 1.6 2.8 8 1.7 10.5 1.3 4.4-.6 8-1.5 11.2-4.9 2-2 3.6-4.1 4.7-6.7l.3-.7c2.6-5.8 7.4-11 11.1-16.2a42.8 42.8 0 008.9-21.5c1-10.2-1.2-20.9-6.8-29.4zm-98.9 57.7c-1.6 0-1.7-2.6-3.5-2.6-.5 0-.8-.7-.5-1 .5-.5 2.4-.1 3 0 1 .2 2.5.9 2.5 2.2-.1.7-.7 1.4-1.5 1.4zm64.9-29.7l-.7.9a12 12 0 00-2.4 6 137 137 0 00-2.5 21.5v8c-.1.7-.5 1.6-1.1.6-.3-.4 0-3.9-.1-5-.2-2.4-.6-4.8-1.4-7-.4-1.4-1-2.7-.1-4 .7-1.1.8-2.2 1-3.5.3-3.2.7-6.3 1.5-9.4.9-3 2.1-6 4.1-8.4.4-.5 1-1 1.4-.6.3 0 .4.5.3.9z" fill="#fff"/><path d="M76.4 111.3c-.7-1.9-2.1-3-4.3-2.9-3.5.2-4.7 4.4-3.6 7.3.1.3 1 0 2.2-.2-.3-.3-.6-.6-.8-1.2-.6-1.7 1-3.6 2.6-3.4 3.2.3 2.5 3 1 4.4.9 0 1.6.3 2.2.8.9.7 1.2 0 1.2-.9 0-1.4-.4-3.5-.5-3.9z" fill="#A5DFEB"/><path d="M77.2 138c0 .7-.6 1.4-1.4 1.4-1.6 0-1.7-2.6-3.5-2.6-.5 0-.8-.7-.5-1 .5-.5 2.4-.1 3 0 1 .3 2.4 1 2.4 2.1z" fill="#E6E7E8"/><g fill="#A5DFEB"><path d="M140.7 109.7c-.1.3-.4.6-.7.9a12 12 0 00-2.4 6 137 137 0 00-2.5 21.5v8c-.1.7-.5 1.6-1.1.6-.3-.4 0-3.9-.1-5-.2-2.4-.6-4.8-1.3-7-.5-1.4-1.1-2.7-.2-4 .7-1.1.8-2.2 1-3.6.3-3 .7-6.2 1.5-9.3.9-3 2.1-6 4.1-8.4.4-.5 1-1 1.4-.6.3 0 .4.5.3.9zM113 155.9c-.2.8-1.5 1.7-1.5 2.9v1.4l-.6-.2c-1-.3-.4-4.8-.5-5.6 0-1.2-.2-2.5-.5-3.8-.3-1.9-1-3.8-1.8-5.5-1.6-3.1-4.1-5.8-6-8.9l-.1-.3v-.1l-.1-.2a59.7 59.7 0 01-.8-2l-.2-.8v-.2l-.2-.4-.1-.7-.2-.6v-.7l-.2-.8v-.6l-.1-.3v-.5l-.1-.5-.1-.5v-1l-.1-.6v-.4-1-.1c.3-.7.8-1 1.1-.2.3.6.3 1.1.3 1.8 0 .6 0 1.2.2 1.8.9 3.3 2.6 6.2 4.3 9 1.8 2.8 3.7 5.5 5 8.5.9 1.8 1.4 3.5 2 5.4 0 .6.1 1.2.3 1.7.3 1.3.3 2.6 0 4zM77.2 138c0 .7-.6 1.4-1.4 1.4-1.6 0-1.7-2.6-3.5-2.6-.5 0-.8-.7-.5-1 .5-.5 2.4-.1 3 0 1 .3 2.4 1 2.4 2.1z"/></g><path d="M146.6 14.6c-.8-.6-1.8-.1-2.2.6-.5.7-.3 1.6.2 2.2 1 1.1 2.7.2 2.8-1.2 0-.6-.2-1.3-.8-1.6zM169.8 15.1c0-.4-.1-.8-.4-1.2-.6-.6-2.1-.7-2 .5 0 .7.3 2 1.2 2 .7 0 1.1-.6 1.2-1.3z" fill="#FFE0D9"/><path d="M167.1 24.7l-.2-.3c-.4-.3-1.4-.5-1.4-1.3l-.2.5c-.3.6-.6 1.4-.3 2 .3.7 1.1 1.2 1.8.9.5-.3.7-1.1.3-1.8zM154.1 26.3l.2-.3c.3-.4 1.2-.9 1-1.6l.4.4c.4.6 1 1.3.7 2-.2.7-.7 1.3-1.5 1.1-.7 0-1-.8-.8-1.6z" fill="#A5DFEB"/><path d="M161.4 28.8c-1-.1-2.3.2-2.3 1.4-.1 1 1.4 1 2 1.6l.2.2.6-.5c.3-.4 1-.7 1-1.3-.1-.8-1-1.2-1.5-1.4z" fill="#123079"/><path d="M114.3 61.8L119 63a41.3 41.3 0 0013.6 1.2c4-.3 7.8-.4 8.5-.4 1.5 0 2.3.4 3.4.6 1.3 0 2.5-.2 3.6 0 1.9.3 3.7.8 5 1.2 4.6 1.6 4.9 3.6 2.1 3.7-2.8 0-10.8-4-19-2.9-8.1 1.1-19.7-.4-22-1.8-2.5-1.5-1.3-3.1.1-2.8z" fill="#00A6CC" opacity=".4"/><path d="M130.6 57c-1-1.3-1.2-3-.9-4.6a9 9 0 00-.6-5.7l-1.3-1.7a6 6 0 011.4 4.6l-.1 2c-.2 1.2-.6 2.2-1 3.3-.2.7-.4 1.4-.3 2.2 0 .6.3 1.3.4 2 .2 1.3 0 2.6-1.3 3.4.7 1.6 2.2 1.7 3.9 1.9h2.9c1 0 2.3 0 3-1 .7-.8 0-1.8-.4-2.7 0-1 .4-1.5 1.1-2.2l.6-.5c-2.3 1-5.6 1-7.4-1zM160.9 37.7c-1.4.3-3 .3-4.4.8-1.4 0-2.9 0-4.3-.5-3.4-1.2-4.5-5.2-5-8.3.4 3.5 1 6.8 4 9 .8.4 1.5.6 2.3.8-2.3-.3-2.7 4.6-2.9 6l-.4 6.4v3.3l.1 2c.2.6.6 1 .8 1.7.4 1 .5 2.4 0 3.4-.6 1.4-2 1.6-3.5 1.8-1.4.1-2.8.2-4.2 0 .8.2 1.6.3 2.5.3 1 0 2 .3 2.9.1 1.2 0 2.4-.1 3.2-1.2.8-1 1.1-2.5.8-3.7-.4-1.3-1.4-2.5-2-3.8-.5-1.5 0-3.4.2-5l.6-5.5c0-.8.2-1.5.4-2.3a5.3 5.3 0 013-3.3l3-.9c1-.3 2-.8 3-1l-.1-.1z" fill="#A5DFEB"/><g fill="#123079"><path d="M74.9 138.8l.6.3.9-.3c.3-.3.5-.8.5-1.3l-.1-.3-.2-.4a.9.9 0 00-.6-.3.9.9 0 00-.8 0c-.2 0-.4.1-.5.3h.2l.1.2-.4.1-.1.3v.3c0 .3 0 .7.3 1v.2zm-.4-.8c0-.1 0-.2.2-.2l.1.2v.1h-.3zm.2.7c0-.1 0-.2.2-.3h.1c0-.3 0-.4.2-.4.3-.2.5 0 .6.1v.5h-.2s-.1.1-.2 0l-.2.2c0 .2-.1.1-.2 0l-.3-.1zM166.2 24.4h-.5c-.3.2-.4.4-.5.6-.2.3-.1.7.1 1l.1.2.3.1h.5l.5-.1c.2-.2.3-.3.3-.5h-.2l.2-.2v-.2-.3c-.1-.2-.4-.5-.6-.5h-.2zm.5.5v.2h-.2v-.3l.2.1zm-.3-.4v.2h-.1v.4c-.2.2-.4.2-.5.1v-.4h.1v-.2l.2-.1h.3zM155 25.8c-.3 0-.5.3-.7.5v.5l.2.1v.2l-.1-.1c0 .2 0 .3.2.5l.5.2h.5l.3-.2.1-.2c.2-.2.3-.7.1-1 0-.3-.2-.4-.5-.5h-.5-.2zm-.2.4v.1h-.1c0-.2 0-.2.1-.1zm.4-.5l.1.2.2.1v.5l-.5-.1V26l-.1-.2h.3z"/></g><path d="M91.5 235c-2.2-.6-3.8.4-4.3 2.8l-2.5 12.7-2.3-10.8c-.5-2.5-1.8-4.7-5.1-4.7h-.4c-3.3 0-4.5 2.2-5 4.7l-2.4 10.7-2.5-12.6c-.5-2.4-2-3.4-4.2-2.9s-3.2 2-2.7 4.4l3.4 14c.7 2.5 2.1 4.9 5.6 4.9h.3c3.5 0 5-2.4 5.6-5l2.1-9.7 2.2 9.8c.6 2.5 2 4.9 5.6 4.9h.2c3.5 0 5-2.4 5.6-5l3.4-14c.6-2.2-.4-3.8-2.6-4.3zm14.4-.2c-3.5 0-7.3 1-8.7 3.2-.8 1.2-.3 3.3 2.3 4 1.6.6 2.5 0 3.1-.6 1.4-1 2.4-1.2 3.3-1.2 1.9 0 3.1 1.2 3.1 3v.8h-5.7c-4.7 0-7.8 2.6-7.8 6.3v1.3c0 4.1 3 6.8 7.3 6.8 2.9 0 5.2-1 6.8-2.8.4 1.8 1.5 2.8 3.4 2.8 2.1 0 3.2-1.3 3.2-3.7v-12c0-4.8-4.1-7.9-10.3-7.9zm-.8 18c-1.5 0-2.4-.8-2.4-2v-.2c0-1 1-1.8 2.3-1.8h4v.6c0 2-1.6 3.4-3.9 3.4zm25.5-18c-1.8 0-3.3.8-4.4 2.4-.4-1.6-1.5-2.4-3.2-2.4-2.2 0-3.3 1.3-3.3 3.7v16.2c0 2.4 1.3 3.7 3.6 3.7s3.6-1.3 3.6-3.7v-9.2c0-2.5 1.3-3.7 3.4-4.1 2.3-.4 3.5-1.1 3.5-3.1 0-2.3-1.1-3.5-3.2-3.5zm31.5 0c-3 0-5.4 1.1-7 3a7.7 7.7 0 00-6.5-3 8 8 0 00-6.1 2.6c-.4-1.7-1.5-2.6-3.3-2.6-2.1 0-3.3 1.3-3.3 3.7v16.2c0 2.4 1.3 3.7 3.6 3.7 2.4 0 3.6-1.3 3.6-3.7v-10.4c0-2 1.3-3.3 3.2-3.3s3.1 1.3 3.1 3.3v10.4c0 2.4 1.3 3.7 3.6 3.7 2.4 0 3.6-1.3 3.6-3.7v-10.4c0-2 1.3-3.3 3.2-3.3s3.1 1.3 3.1 3.3v10.4c0 2.4 1.3 3.7 3.6 3.7 2.4 0 3.6-1.3 3.6-3.7v-11.6c0-5-3.2-8.3-8-8.3zm29.3-9c-2.3 0-3.6 1.3-3.6 3.7v7.6a8.6 8.6 0 00-6-2.3c-5.4 0-9 3.8-9 9.4v4.8c0 5.6 3.6 9.4 9 9.4 2.8 0 5.1-1 6.7-3 .2 2 1.4 3 3.3 3 2.1 0 3.2-1.3 3.2-3.7v-25.2c0-2.4-1.3-3.7-3.6-3.7zm-7.5 26.4c-2.3 0-3.9-1.6-3.9-4V245c0-2.4 1.6-4 4-4 2.3 0 3.8 1.6 3.8 4v3.2c0 2.4-1.5 4-3.9 4z" fill="#000"/></svg>