<svg width="100" height="62" fill="none" xmlns="http://www.w3.org/2000/svg"><path d="M45 47.4c-5.9-1-13.6 4-13.6 4s2-.7 3.5-.6c3.9.3 7.7 7.1 13 9.2a16 16 0 009.4 1.2C52 59.5 47.7 54.4 45 47.4z" fill="#7CCE17"/><path d="M42.6 39c-1.1-1.4-4-5-5.4-5.8-2.8-1.5-7.6-4-16.4 4.8 1.5-.3 6.2-2 8.1 1.4 1.4 2.6-1.3 6-2.7 7.5-5 5.5-12.5 6-18 4.8 2.9 1.8 6 2.4 9 2.6 2.5.1 4.7-.4 7.2-1 5-1.5 12.4-8.9 19.9-7.5-.7-2.2-1.2-4.4-1.7-6.8z" fill="#7CCE17"/><path d="M42 31l.1-3.6C40.8 27 35 24.6 30 28c-1.4 1-3.3 3.3-4.7 4.4 10.4-5.3 15.7 2 17.2 4-.3-1.7-.4-3.5-.4-5.5z" fill="#7CCE17"/><path d="M43 21c-4.1 2.2-8.4-3.5-8.4-3.5a11.7 11.7 0 01-13.1 2.7c-.4-.1 5.8-1.5 9.3-6-1.6-1-3.5-1.4-5.4-1.4-7.4 0-11.2 8.6-16.1 9.9 4.4 3.5 9.8-.4 9.8-.4S21.9 32.8 0 34.7h.2C1.5 36 7 37.2 9.8 37.2a22 22 0 0012-3.3c1.5-1 5.3-4.7 5.9-5.2 5.5-5.5 12.6-2.9 14.4-2.3l1-5.2z" fill="#7CCE17"/><path d="M56.7 1C51 0 42.3-.3 38.3 6c-7.7 12.3-13.7 13.7-14 13.8.7.2 4.6 1 8.1-1.8 1.7-1.3 3.2-3.4 5-4.5.8-.5 1.7-.8 2.4-.5.7.5.9 1.3.7 2.3-.5 1.8-1.9 2-3.1 2.5 1.6 3.3 4.9 2.3 5.9 2 2.2-9.5 7.3-16.5 13.4-19z" fill="#7CCE17"/><path d="M80.5 0h-19C50.7 0 41.9 13.8 41.9 31c0 17 8.7 30.9 19.6 30.9h18.8c10.8 0 19.6-13.8 19.6-31C100 14 91.2 0 80.5 0z" fill="#062E1A"/><path d="M72 27c-.4 0-.6 0-1 .2 1 .6 1.7 2 1.7 3.7h1s-.1 4.6-2.7 3.8l.9.2c1.3 0 2.5-1.8 2.5-4 0-2.1-1-4-2.4-4z" fill="#fff"/><path d="M81.6 8.2c-8 0-14.4 10.2-14.4 22.9 0 12.5 6.5 22.8 14.4 22.8s14.3-10.2 14.3-22.8c0-12.7-6.4-23-14.3-23zm7.6 36l1-.1a15 15 0 01-4.3 4.5c-6.2-2-11-9.5-12.3-11.8-.5.4-1 .5-1.5.5 1.1 3.7 3.5 8.7 5.8 11.5-4.8-2.6-8-9.6-8-17.9 0-6.3 1.9-11.9 4.9-15.4.3 1.7 1.4 7.4-1.8 9 .4.2.8.4 1.1.8 1.8-1 7-5.4 6-13.2l1.7-.2c.7 0 1.4.1 2 .3.6 8.3-5.7 12.8-8.7 14.5l.7 1.6c11.7-3.5 13.8-7.3 14.6-10.5.8 1.4 1.5 2.8 2 4.5-3.4 6.5-11.8 7.3-16.2 7.8v.8c0 .5 0 .8-.2 1.2 3.7.7 13.7 1.9 17.7-1 0 1.5-.1 2.9-.4 4.3-4.4 3.4-14.9-.5-17.6-1.5a6 6 0 01-.8 1.7c6.8 7.6 11.2 8.7 14.3 8.6zM60.9 32.4V31c0-13.1 5.2-24.3 12.4-28.9H62C52.1 2 47 16.3 47 16.3 51.5 8 56.4 3.2 62.8 3.6c5.8.5-4.5 13.9-1.9 28.8z" fill="#fff"/></svg>