<svg width="78" height="57" fill="none" xmlns="http://www.w3.org/2000/svg"><path d="M70.1 4.4h-1.7c-1.2 0-.8 1.2-1.9 1.2h-5.6c-1.2 0-2.3 1.1-3 2.8v.2c-.3 1-1.2 1-2 1.1H13.5a10 10 0 100 20.2h43.7a7 7 0 110 14H15c-.9 0-1.8-.1-2-1.2l-.1-.1c-.6-1.7-1.7-2.9-3-2.9H4.3c-1 0-.6-1.1-1.9-1.1H.7a.5.5 0 00-.5.4v12.8a.5.5 0 00.5.4h1.7c1.3 0 .8-1.1 2-1.1h5.5c1.3 0 2.4-1.2 3-2.9v-.1c.4-1 1.2-1.1 2.1-1.2h42.3a10 10 0 000-20.1H13.6a7 7 0 010-14h42.2c1 0 1.8.1 2.1 1.1v.2c.7 1.7 1.8 2.8 3 2.8h5.6c1.1 0 .7 1.2 1.9 1.2h1.8a.5.5 0 00.4-.5V5a.5.5 0 00-.4-.5zM76.7 13.8h-5.3V15h5.3a.6.6 0 00.6-.6v-.1a.6.6 0 00-.6-.6zM76.7 7.4h-5.3v1.3h5.3a.6.6 0 00.6-.6V8a.6.6 0 00-.6-.6z" fill="#062E1A"/><path d="M7.2 41.4h-1v8h1v-8zM5.4 41.4h-1v8h1v-8zM64.5 7.3h-1v8h1v-8zM66.4 7.3h-1v8h1v-8zM50 21.7a2.7 2.7 0 00-2.7-1.2L38.1 22l6.2-15.5a2.7 2.7 0 00-4.8-2.6L20.8 32a2.7 2.7 0 002.7 4.2l9.3-1.5-6.3 15.6a2.7 2.7 0 004.8 2.5l18.7-28a2.7 2.7 0 000-3z" fill="#fff"/><path d="M52.4 20.3a5.5 5.5 0 00-5.5-2.5l-4.5.7 4.5-11a5.5 5.5 0 00-9.6-5l-18.8 28a5.5 5.5 0 005.4 8.3l4.5-.7-4.5 11a5.5 5.5 0 009.6 5.1l18.8-28a5.5 5.5 0 000-6zM50 24.7l-18.7 28a2.7 2.7 0 01-4.8-2.5l6.3-15.6-9.3 1.5h-.4a2.7 2.7 0 01-2.3-4.2L39.5 4a2.7 2.7 0 014.8 2.6L38.1 22l9.2-1.5h.5a2.7 2.7 0 012.2 4.2z" fill="#062E1A"/><path d="M33.7 25.5l8.1-20-18.7 28 14-2.3-8 20 18.7-28-14.1 2.3z" fill="#7CCE17"/></svg>