<svg width="396" height="473" fill="none" xmlns="http://www.w3.org/2000/svg"><path d="M138 156l-9 22h137l-9-22H138z" fill="#062E1A"/><path d="M201 284l-3-8-4 8-9 1 7 6-2 9 8-4 7 4-1-9 6-6-9-1M175 290l-9 1-6-6-1 9-7 3 7 4 2 9 5-7 9 2-4-8 4-7M234 285l-6 6-9-1 4 7-4 8 9-2 6 7 1-9 8-4-8-3-1-9z" fill="#00A6CC"/><path d="M129 319a72 72 0 01137 0H129zm133 30v6h-6v-6h6zm-2-2h-3l-2-15v-7h7v7l-2 15zm-12-10v5h-15v8h17v5h-24v-30h23v5h-16v7h15zm-50-7v-5h25v5h-9v25h-7v-25h-9zm-32 10l2-8 3-4 3-3 7-1c4 0 8 2 11 4 2 3 4 7 4 12s-2 9-4 11c-3 3-6 5-11 5-4 0-8-2-11-5-2-2-4-6-4-11zm-30-15h7l8 22 7-22h6l-10 30h-7l-11-30zm127 43H132l-3-7h137l-3 7zm-7 14H140l-5-7h125l-4 7zm-13 14h-90l-8-7h105l-7 7zm-28 14h-35l-17-7h69l-17 7zm-17-144a74 74 0 100 148 74 74 0 000-148z" fill="#00A6CC"/><path d="M187 348c2-2 2-5 2-8 0-4 0-6-2-8-1-2-3-3-6-3l-6 3c-2 2-2 4-2 8 0 3 0 6 2 8l6 2 6-2zM148 115l3 4 63 39 2 1-7-64-61 20M290 43l-2-2-63-40-4-1 7 64 62-21M215 3l-66 105-2 4 62-21 3-1 15-5-2-16v-4l-8-64-2 2" fill="#00A6CC"/><path d="M229 68l2 19-18 6 7 66 4-3 66-105 1-5-62 22z" fill="#00A6CC"/><path d="M295 367l-17 10 4 19-19 4-3 19-19-2-8 18-18-9-13 15-14-13-18 9-9-17-19 4-4-19-20-2 3-20-18-8 8-18-14-13 13-14-10-17 17-10-4-19 19-4 3-19 19 2 8-18 18 8 13-14 15 13 17-10 9 18 19-4 4 19 20 2-3 19 18 8-8 18 15 14-14 14 10 17zm47-253h-85l-10 15h86l45 76H17l42-76h99l-25-15H49L0 205v268h395V205l-53-91z" fill="#062E1A"/></svg>