<svg width="414" height="386" fill="none" xmlns="http://www.w3.org/2000/svg"><path d="M108 365c10 6 37 19 67 19 20 0 38-6 53-19 10 7 34 19 63 19 20 0 39-7 57-19a116 116 0 0066 21v-15h-3c-33 0-58-20-58-21l-5-3-5 3a85 85 0 01-52 19c-33 0-59-19-59-19l-5-4-5 5a66 66 0 01-47 18c-33 0-63-19-63-19l-5-3-4 3a79 79 0 01-51 19c-23 0-42-9-52-15v17c12 6 31 13 52 13 20 0 39-6 56-19zM128 309c11 6 42 19 81 19 27 0 52-6 75-19 11 6 42 21 82 21 17 0 33-2 48-8v-15c-15 5-31 8-48 8-44 0-78-21-78-21l-4-2-4 2c-21 13-45 19-71 19-43 0-78-19-78-19l-4-2-4 2c-17 13-39 20-64 20-22 0-43-5-59-10v15c16 5 37 10 59 10 27 0 50-7 69-20" fill="#00A6CC"/><path d="M132 294c25 0 48-7 66-20 11 6 41 19 79 19 26 0 50-6 72-19 9 5 33 18 65 21v-15c-35-4-60-20-61-21l-4-2-4 2c-20 13-43 19-68 19-42 0-75-19-76-19l-4-2-4 3a98 98 0 01-61 19c-43 0-81-20-82-20l-3-2-4 2c-13 9-27 15-43 18v15c17-3 33-9 48-18 11 5 45 20 84 20" fill="#00A6CC"/><path d="M191 141l-2 20v4l-1 3v3l-6 4-3-2-3-3-3-4-3-6-2-7-1-6v-7a55 55 0 0112-31l3-3 6 2 1 3 2 8v22zm74-14c-2-11-6-22-10-33a651 651 0 00-27-58L214 8l-5-7-3 5-18 31a667 667 0 00-39 89l-2 14c0 11 2 21 5 30 4 10 9 19 16 26a54 54 0 0035 17h8c6-1 12-2 19-5 9-5 17-12 24-22a80 80 0 0011-59" fill="#062E1A"/></svg>